<svg width="30" height="30" viewBox="0 0 30 30" fill="none" xmlns="http://www.w3.org/2000/svg">
<path d="M1.39683 14.5022L1.30475 14.4632C1.03635 15.0967 0.900093 15.7692 0.900093 16.4622V27.595C0.900093 27.7367 0.957336 27.8759 1.05829 27.9763C1.15866 28.0772 1.29783 28.1344 1.43955 28.1344H10.6388C10.7812 28.1344 10.9197 28.0772 11.02 27.9763C11.1209 27.8759 11.1782 27.7374 11.1782 27.595V17.262C11.1782 16.9641 10.9366 16.7225 10.6388 16.7225C10.3416 16.7225 10.0993 16.964 10.0993 17.262V27.0555H1.97894V16.4622C1.97894 15.3803 2.40189 14.3615 3.16957 13.5927C3.93841 12.825 4.95713 12.402 6.03904 12.402C6.73263 12.4025 7.4117 12.5825 8.01207 12.9177L5.01526 14.6482L5.01518 14.6483C4.36576 15.0241 3.97621 15.7116 3.97621 16.4487C3.97621 17.1098 4.29482 17.7459 4.84851 18.1398L4.87454 18.1583H4.87665C5.11897 18.3097 5.43738 18.2439 5.60104 18.0123C5.77161 17.7723 5.7206 17.4371 5.47455 17.2605L5.47402 17.2601C5.22401 17.0832 5.05618 16.7855 5.05511 16.4486C5.05575 16.0917 5.24774 15.7598 5.55471 15.5826L5.55474 15.5826L6.33745 15.1306C6.86495 15.2722 8.0829 15.5986 9.06541 15.8618L6.55342 17.312L6.54205 17.3186L6.54097 17.3197C6.29245 17.4718 6.20979 17.7954 6.35626 18.0491L1.39683 14.5022ZM1.39683 14.5022L1.30476 14.4632C1.5641 13.8513 1.93466 13.3021 2.40716 12.8301C2.87911 12.3576 3.42838 11.9871 4.04016 11.7277L4.0402 11.7277M1.39683 14.5022L4.0402 11.7277M4.0402 11.7277C4.67375 11.4594 5.3462 11.3231 6.03916 11.3231H6.04039C6.65928 11.3231 7.266 11.4331 7.84277 11.6506C8.27874 11.8145 8.68718 12.0368 9.06238 12.3112M4.0402 11.7277L9.06238 12.3112M29.4189 3.7168L29.4189 3.71679L28.7596 2.57509L28.7596 2.57509L28.673 2.6251C28.4969 2.32017 28.2126 2.10209 27.8725 2.01092C27.5323 1.91969 27.177 1.9665 26.8721 2.14263L29.4189 3.7168ZM29.4189 3.7168C29.6082 4.04473 29.6586 4.42734 29.5607 4.79305C29.4627 5.15886 29.2278 5.46494 28.8999 5.65432L28.8999 5.65433M29.4189 3.7168L28.8999 5.65433M9.06238 12.3112L26.822 2.05604C26.822 2.05604 26.822 2.05604 26.822 2.05604C27.15 1.86664 27.5326 1.81622 27.8984 1.91433L9.06238 12.3112ZM28.8999 5.65433L7.093 18.2462M28.8999 5.65433L7.093 18.2462M7.093 18.2462C6.83047 18.3983 6.50181 18.3018 6.35634 18.0492L7.093 18.2462ZM4.83968 18.1325L4.8397 18.1325C4.83968 18.1325 4.83965 18.1324 4.83963 18.1324L4.83968 18.1325ZM28.4846 4.2564L28.4846 4.25637L27.8253 3.11468C27.7798 3.03594 27.7069 2.97996 27.6192 2.95648L27.6192 2.95646C27.5314 2.9329 27.4404 2.94498 27.3616 2.99044L24.7851 4.47827L27.5133 5.20911L28.3603 4.72C28.439 4.67455 28.495 4.60163 28.5185 4.51386C28.542 4.42602 28.53 4.33499 28.4846 4.2564ZM24.0882 7.18694L26.192 5.97206L23.4637 5.24122L21.3598 6.45605L24.0882 7.18694ZM20.6627 9.16489L22.7668 7.94994L20.0384 7.21911L17.9344 8.43405L20.6627 9.16489ZM17.2375 11.1427L19.3415 9.92783L16.6131 9.197L14.5092 10.4118L17.2375 11.1427ZM13.8123 13.1206L15.9162 11.9057L13.1879 11.1748L11.0839 12.3898L13.8123 13.1206ZM9.28792 13.4268L7.65865 14.3677L10.387 15.0986L12.491 13.8837L9.76257 13.1528L9.29657 13.4218L9.29512 13.4227L9.28809 13.4267L9.28792 13.4268Z" fill="#5518B5" stroke="#5518B5" stroke-width="0.2"/>
<path d="M25.2209 15.9229H26.8027C28.0696 15.9229 29.1 16.9533 29.1 18.2201V27.5951C29.1 27.8931 28.8585 28.1346 28.5605 28.1346H23.4631C23.1652 28.1346 22.9237 27.8931 22.9237 27.5951V18.2201C22.9237 16.9533 23.9542 15.9229 25.2209 15.9229ZM24.0026 27.0557H28.0211V18.2201C28.0211 17.5484 27.4745 17.0018 26.8027 17.0018H25.2209C24.5492 17.0018 24.0026 17.5484 24.0026 18.2201V27.0557Z" fill="#CF1E2E" stroke="#CF1E2E" stroke-width="0.2"/>
<path d="M25.2209 17.8378H26.8027C27.0454 17.8378 27.2422 18.0345 27.2422 18.2772V19.859C27.2422 20.1017 27.0454 20.2984 26.8027 20.2984C26.56 20.2984 26.3633 20.1017 26.3633 19.859V18.7167H25.6604V19.859C25.6604 20.1017 25.4636 20.2984 25.2209 20.2984C24.9782 20.2984 24.7815 20.1017 24.7815 19.859V18.2772C24.7815 18.0345 24.9782 17.8378 25.2209 17.8378Z" fill="#CF1E2E"/>
<path d="M6.03906 19.0202C7.08912 19.0202 7.94336 19.8744 7.94336 20.9245C7.94336 21.9745 7.08912 22.8288 6.03906 22.8288C4.989 22.8288 4.13477 21.9745 4.13477 20.9245C4.13477 19.8744 4.989 19.0202 6.03906 19.0202ZM6.03906 21.9498C6.60443 21.9498 7.06445 21.4899 7.06445 20.9245C7.06445 20.3591 6.60443 19.8991 6.03906 19.8991C5.47369 19.8991 5.01367 20.3591 5.01367 20.9245C5.01367 21.4898 5.47369 21.9498 6.03906 21.9498Z" fill="#5518B5"/>
</svg>
