<svg width="30" height="30" viewBox="0 0 30 30" fill="none" xmlns="http://www.w3.org/2000/svg">
<path d="M14.6723 14.5203L15.7347 13.4582C16.1384 13.675 16.5996 13.7982 17.0891 13.7982C18.6737 13.7982 19.9629 12.5092 19.9629 10.9246C19.9629 9.34015 18.6737 8.05093 17.0891 8.05093C15.5046 8.05093 14.2154 9.34015 14.2154 10.9246C14.2154 11.414 14.3389 11.8752 14.5555 12.279L13.4931 13.3413L5.88666 5.73462C5.73029 5.57825 5.51816 5.49023 5.29706 5.49023C5.07596 5.49023 4.86383 5.57825 4.70746 5.73462C2.94806 7.49402 2.24759 10.0748 2.73529 13.0016C3.08136 15.0781 4.00208 17.1564 5.38358 19.0301L2.05362 27.8724C1.95706 28.1285 1.99231 28.4156 2.14804 28.6408C2.30399 28.8657 2.56012 29.0001 2.83377 29.0001H14.5066C14.7845 29.0001 15.0438 28.8619 15.1987 28.6312C15.3536 28.4009 15.3835 28.1082 15.2786 27.851L14.1569 25.1028C14.4414 25.1718 14.7268 25.2307 15.012 25.2781C15.6195 25.3794 16.2121 25.4294 16.7857 25.4294C18.9747 25.4294 20.8847 24.7003 22.2788 23.3062C22.4352 23.1498 22.5232 22.9377 22.5232 22.7166C22.5232 22.4955 22.4354 22.2834 22.2788 22.127L14.6723 14.5203ZM17.0893 9.71869C17.7543 9.71869 18.2952 10.2596 18.2952 10.9246C18.2952 11.5896 17.7543 12.1305 17.0893 12.1305C16.4243 12.1305 15.8832 11.5896 15.8832 10.9246C15.8832 10.2596 16.4243 9.71869 17.0893 9.71869ZM15.2861 23.633C12.8023 23.2192 10.2958 21.8527 8.22818 19.7852C6.16095 17.7178 4.79441 15.2114 4.3804 12.7274C4.04096 10.6915 4.38297 8.88684 5.3447 7.55106L20.4624 22.6687C19.1266 23.6305 17.3219 23.9725 15.2861 23.633ZM13.2656 27.3323H4.03882L6.60913 20.5079C6.75247 20.6622 6.89902 20.8145 7.04898 20.9644C8.55225 22.4677 10.2743 23.6409 12.0715 24.4072L13.2656 27.3323Z" fill="#5518B5"/>
<path d="M17.0894 4.55133C16.6288 4.55133 16.2554 4.92453 16.2554 5.3851C16.2554 5.84567 16.6288 6.21887 17.0894 6.21887C19.684 6.21887 21.795 8.3299 21.795 10.9246C21.795 11.3851 22.1682 11.7585 22.6288 11.7585C23.0894 11.7585 23.4626 11.3851 23.4626 10.9246C23.4626 7.41025 20.6037 4.55133 17.0894 4.55133Z" fill="#CF1E2E"/>
<path d="M17.0894 1.00006C16.6288 1.00006 16.2554 1.37347 16.2554 1.83383C16.2554 2.2944 16.6288 2.66782 17.0894 2.66782C21.6421 2.66782 25.3461 6.37183 25.3461 10.9246C25.3461 11.3851 25.7195 11.7585 26.1799 11.7585C26.6404 11.7585 27.0139 11.3851 27.0139 10.9246C27.0139 5.45218 22.5617 1.00006 17.0894 1.00006Z" fill="#CF1E2E"/>
</svg>
