<svg width="30" height="30" viewBox="0 0 30 30" fill="none" xmlns="http://www.w3.org/2000/svg">
<path d="M22.7598 12.0433H22.7205C22.1835 12.0403 21.6646 12.2376 21.2652 12.5966C20.9418 11.7017 20.1201 11.0585 19.1576 11.0585C18.5676 11.0626 18.0042 11.3048 17.5955 11.7305C17.2197 10.9697 16.4658 10.4536 15.599 10.4536H15.5571C15.0925 10.4465 14.6392 10.5976 14.2717 10.8818V5.45805C14.2717 4.14735 13.2513 3.08113 12.01 3.08113C10.7702 3.08113 9.755 4.14666 9.75431 5.45644L9.74396 16.2175L9.13495 15.4779C8.60092 14.813 7.81483 14.4002 6.96434 14.3379C6.13132 14.2808 5.31188 14.5706 4.70011 15.1391L4.17022 15.5782C3.99934 15.7198 3.95059 15.9613 4.05293 16.1582L9.20487 26.0612C10.1469 27.871 11.9392 29 13.8823 29H19.6884V28.9949C22.6322 28.9949 25.019 26.4405 25.022 23.3039C25.0232 21.9005 25.0179 20.8545 25.0188 20.0068C25.0218 17.7387 25.0195 16.9017 25.0137 14.4029C25.0107 13.0952 23.9976 12.0433 22.7598 12.0433ZM24.0699 20.0036C24.0689 20.8515 24.0676 21.9017 24.0662 23.305C24.0636 25.923 22.0874 28.0577 19.6608 28.0577H13.8826C12.292 28.0577 10.8198 27.1228 10.0409 25.6261L5.06418 16.063L5.30981 15.8581C5.31602 15.853 5.322 15.847 5.32798 15.8417C5.75046 15.4441 6.31899 15.2399 6.89787 15.2778C7.48963 15.3231 8.03562 15.6124 8.40567 16.0763L9.84745 17.8307C9.97349 17.9845 10.1828 18.0423 10.37 17.9753C10.5572 17.9084 10.6823 17.7309 10.6823 17.5321L10.6908 5.4569C10.6913 4.6662 11.2892 4.02293 12.0105 4.02293C12.7317 4.02293 13.3297 4.66689 13.3297 5.45805V12.7387C13.3297 12.764 13.3285 12.7896 13.3285 12.8153C13.3285 12.8264 13.3297 12.8376 13.3297 12.8485V15.9613C13.3297 16.2214 13.5406 16.4323 13.8007 16.4323C14.0608 16.4323 14.2717 16.2214 14.2717 15.9613V12.7546C14.2717 11.9918 14.8545 11.3956 15.5571 11.3956H15.599C16.3207 11.3956 16.9212 12.0246 16.9212 12.8158V15.6642C16.9212 15.9243 17.1321 16.1352 17.3922 16.1352C17.6523 16.1352 17.8632 15.9243 17.8632 15.6642V13.4294C17.8632 12.638 18.4349 11.9943 19.1606 11.9943C19.882 11.9943 20.4538 12.6378 20.4538 13.4294V15.5377C20.4538 15.7978 20.6647 16.0087 20.9248 16.0087C21.1849 16.0087 21.3958 15.7978 21.3958 15.5377V14.396C21.3958 13.6047 21.9988 12.9853 22.7205 12.9853H22.7598C23.4797 12.9853 24.0664 13.6152 24.0682 14.4041C24.074 16.9011 24.0728 17.7371 24.0699 20.0036Z" fill="#5518B5" stroke="#5518B5" stroke-width="0.4"/>
<path d="M8.25812 5.66138C8.51824 5.66138 8.72914 5.45048 8.72914 5.19036C8.73673 3.39302 10.196 1.94019 11.9931 1.94019C13.7905 1.94019 15.2495 3.39302 15.2571 5.19036C15.2571 5.45048 15.468 5.66138 15.7281 5.66138C15.9882 5.66138 16.1991 5.45048 16.1991 5.19036C16.1904 2.87347 14.31 1 11.9931 1C9.67646 1 7.79585 2.87347 7.78711 5.19036C7.78711 5.45048 7.99801 5.66138 8.25812 5.66138Z" fill="#CF1E2E" stroke="#CF1E2E" stroke-width="0.4"/>
</svg>
