<svg width="30" height="30" viewBox="0 0 30 30" fill="none" xmlns="http://www.w3.org/2000/svg">
<g clip-path="url(#clip0_6733_19806)">
<path d="M5.77274 13.4729C5.72929 15.8234 6.63067 18.0928 8.27498 19.7729C9.78354 21.3795 10.5992 23.5152 10.5454 25.7185V26.5913C10.5454 28.4741 12.0718 30.0004 13.9546 30.0004H15.3182C17.201 30.0004 18.7274 28.4741 18.7274 26.5913V25.4731C18.7086 23.3771 19.5086 21.3565 20.957 19.8412C24.3879 16.3494 24.3384 10.7374 20.8466 7.30668C19.0984 5.58903 16.717 4.6718 14.2684 4.77308C9.60352 5.01926 5.90832 8.80348 5.77274 13.4729ZM17.4046 24.5456C17.4046 24.8524 17.3637 25.1593 17.3637 25.4729V25.9093H11.9091V25.7183C11.907 25.3264 11.8842 24.935 11.841 24.5456H17.4046ZM15.3182 28.6364H13.9546C13.0898 28.634 12.3201 28.088 12.0319 27.2728H17.2411C16.9528 28.088 16.183 28.634 15.3182 28.6364ZM14.3228 6.13642H14.6364C18.7785 6.13855 22.1348 9.49805 22.1327 13.6402C22.1317 15.602 21.362 17.4853 19.9887 18.8864C18.8251 20.0741 18.0132 21.5608 17.6432 23.1819H16.1159H15.1364L17.9544 24.5456C18.3309 24.5456 18.6363 24.2403 18.6363 23.8638C18.6363 23.4872 18.3309 23.1819 17.9544 23.1819H11.1364C10.7599 23.1819 10.4546 23.4872 10.4546 23.8638C10.4546 24.2403 10.7599 24.5456 11.1364 24.5456L14.2216 23.1819H13.1569H11.6023C11.2219 21.5549 10.4118 20.0598 9.25689 18.8524C7.85908 17.426 7.09475 15.4968 7.13641 13.5002C7.24814 9.54836 10.375 6.34437 14.3228 6.13642Z" fill="#5518B5" stroke="#5518B5" stroke-width="0.1"/>
<path d="M14.6364 4.14106H14.6364C15.0405 4.14088 15.3682 3.81338 15.3682 3.40922V0.681894C15.3682 0.277752 15.0406 -0.049939 14.6364 -0.049939C14.2323 -0.049939 13.9046 0.277752 13.9046 0.681894V3.40922C13.9046 3.81336 14.2323 4.14106 14.6364 4.14106Z" fill="#CF1E2E" stroke="#CF1E2E" stroke-width="0.1"/>
<path d="M25.0259 3.57151L25.0612 3.60687L25.0259 3.57151L22.2988 6.2987C22.2988 6.29873 22.2988 6.29876 22.2987 6.2988C22.0118 6.58338 22.0099 7.04671 22.2946 7.33369L22.2948 7.33382L22.2985 7.3376C22.2986 7.33762 22.2986 7.33765 22.2986 7.33768C22.5832 7.62462 23.0465 7.62652 23.3335 7.34181L23.3337 7.34167L23.3376 7.33775L23.3376 7.33775L26.0649 4.61041C26.3519 4.32348 26.3519 3.85845 26.0649 3.57151C25.778 3.28458 25.3128 3.28458 25.0259 3.57151Z" fill="#CF1E2E" stroke="#CF1E2E" stroke-width="0.1"/>
<path d="M6.96986 7.34181L6.97 7.34167L6.97377 7.3379C6.97379 7.33788 6.97381 7.33786 6.97383 7.33784C7.26079 7.05327 7.2627 6.5899 6.97798 6.30291L6.97784 6.30277L6.97392 6.29885L4.24658 3.57151C3.95965 3.28458 3.49462 3.28458 3.20768 3.57151C2.92075 3.85845 2.92075 4.32348 3.20768 4.61041L5.93487 7.3376C5.9349 7.33762 5.93492 7.33765 5.93495 7.33768C6.21953 7.62462 6.68287 7.62651 6.96986 7.34181Z" fill="#CF1E2E" stroke="#CF1E2E" stroke-width="0.1"/>
<path d="M24.1319 15.0001C24.1319 15.4042 24.4596 15.7319 24.8637 15.7319H27.591C27.9952 15.7319 28.3229 15.4042 28.3229 15.0001C28.3229 14.5959 27.9952 14.2682 27.591 14.2682H24.8637C24.4596 14.2682 24.1319 14.5959 24.1319 15.0001Z" fill="#CF1E2E" stroke="#CF1E2E" stroke-width="0.1"/>
<path d="M0.95 15.0001C0.95 15.4042 1.27769 15.7319 1.68183 15.7319H4.40916C4.8133 15.7319 5.141 15.4042 5.141 15.0001C5.141 14.5959 4.8133 14.2682 4.40916 14.2682H1.68183C1.27769 14.2682 0.95 14.5959 0.95 15.0001Z" fill="#CF1E2E" stroke="#CF1E2E" stroke-width="0.1"/>
</g>
<defs>
<clipPath id="clip0_6733_19806">
<rect width="30" height="30" fill="white"/>
</clipPath>
</defs>
</svg>
