<svg width="30" height="30" viewBox="0 0 30 30" fill="none" xmlns="http://www.w3.org/2000/svg">
<path d="M23.8079 0H6.19213C5.26117 0.00110099 4.36865 0.371411 3.71036 1.0297C3.05208 1.68799 2.68177 2.5805 2.68066 3.51146V26.4885C2.68177 27.4195 3.05208 28.312 3.71036 28.9703C4.36865 29.6286 5.26117 29.9989 6.19213 30H23.8079C24.7389 29.9989 25.6314 29.6286 26.2897 28.9703C26.9479 28.312 27.3182 27.4195 27.3193 26.4885V3.51146C27.3182 2.58051 26.9479 1.68801 26.2897 1.02972C25.6314 0.371434 24.7389 0.00111649 23.8079 0ZM25.9131 26.4885C25.9125 27.0467 25.6905 27.5818 25.2958 27.9764C24.9012 28.3711 24.3661 28.5931 23.8079 28.5938H6.19213C5.63398 28.5931 5.09887 28.3711 4.7042 27.9765C4.30953 27.5818 4.08753 27.0467 4.08691 26.4885V3.51146C4.08753 2.95332 4.30953 2.41821 4.7042 2.02354C5.09887 1.62887 5.63398 1.40687 6.19213 1.40625H23.8079C24.3661 1.40689 24.9012 1.62889 25.2958 2.02356C25.6905 2.41823 25.9125 2.95333 25.9131 3.51146V26.4885ZM10.0298 9.64775C10.2163 9.64775 10.3952 9.57367 10.527 9.44181C10.6589 9.30995 10.733 9.13111 10.733 8.94463V8.25088H11.5214C11.7079 8.25088 11.8867 8.1768 12.0186 8.04494C12.1505 7.91308 12.2245 7.73423 12.2245 7.54775C12.2245 7.36127 12.1505 7.18243 12.0186 7.05057C11.8867 6.91871 11.7079 6.84463 11.5214 6.84463H10.733V3.40459C10.7329 3.25785 10.687 3.11481 10.6016 2.99549C10.5162 2.87617 10.3956 2.78656 10.2567 2.73921C10.1178 2.69187 9.9676 2.68916 9.8271 2.73147C9.6866 2.77378 9.56285 2.85899 9.4732 2.97516L6.27703 7.11826C6.19678 7.22229 6.14727 7.34672 6.13414 7.47745C6.121 7.60818 6.14475 7.73997 6.2027 7.85788C6.26065 7.9758 6.35048 8.07512 6.46201 8.14458C6.57353 8.21404 6.70229 8.25087 6.83367 8.25088H9.32672V8.94463C9.32672 9.13111 9.4008 9.30995 9.53266 9.44181C9.66452 9.57367 9.84336 9.64775 10.0298 9.64775ZM8.26412 6.84463L9.32672 5.46721V6.84463H8.26412ZM16.4069 10.4035C16.3416 10.3382 16.2641 10.2864 16.1788 10.2511C16.0935 10.2157 16.002 10.1975 15.9097 10.1975C15.8174 10.1975 15.7259 10.2157 15.6406 10.2511C15.5553 10.2864 15.4778 10.3382 15.4125 10.4035L10.602 15.214C9.91353 15.9057 9.52705 16.8419 9.52705 17.8177C9.52705 18.7936 9.91353 19.7297 10.602 20.4214C11.3871 21.2069 12.2695 21.5809 13.2012 21.5338L12.535 23.8082C12.5043 23.913 12.4985 24.0235 12.5179 24.131C12.5373 24.2384 12.5815 24.3399 12.647 24.4273C12.7124 24.5147 12.7973 24.5857 12.895 24.6346C12.9926 24.6835 13.1003 24.7089 13.2095 24.709H18.6098C18.7191 24.709 18.8268 24.6835 18.9245 24.6347C19.0221 24.5858 19.1071 24.5148 19.1726 24.4274C19.2381 24.34 19.2823 24.2385 19.3017 24.1311C19.3212 24.0236 19.3153 23.913 19.2846 23.8082L18.6184 21.5338C19.55 21.5807 20.4323 21.2068 21.2177 20.4214C21.9072 19.7303 22.2944 18.7939 22.2944 17.8177C22.2944 16.8415 21.9072 15.9051 21.2177 15.214L16.4069 10.4035ZM20.2233 19.4273C19.4974 20.1532 18.7559 20.3103 17.8891 19.9215C17.7666 19.8665 17.6308 19.8478 17.4979 19.8676C17.365 19.8873 17.2406 19.9448 17.1393 20.033C17.0381 20.1213 16.9642 20.2368 16.9265 20.3657C16.8888 20.4947 16.8888 20.6317 16.9266 20.7606L17.6712 23.3027H14.1482L14.8928 20.7604C14.9306 20.6315 14.9306 20.4944 14.8929 20.3655C14.8552 20.2365 14.7813 20.1211 14.6801 20.0328C14.5788 19.9445 14.4544 19.8871 14.3215 19.8673C14.1886 19.8476 14.0528 19.8663 13.9303 19.9213C13.0636 20.3101 12.322 20.153 11.5961 19.427C11.1714 18.9991 10.9331 18.4206 10.9331 17.8177C10.9331 17.2148 11.1714 16.6364 11.5961 16.2084L15.9097 11.8948L20.2233 16.2084C20.6496 16.6356 20.889 17.2144 20.889 17.8179C20.889 18.4213 20.6496 19.0001 20.2233 19.4273Z" fill="#5518B5"/>
<path d="M10.527 9.4418C10.3952 9.57367 10.2163 9.64775 10.0298 9.64775C9.84337 9.64775 9.66452 9.57367 9.53266 9.4418C9.4008 9.30994 9.32672 9.1311 9.32672 8.94462V8.25087H6.83368C6.70229 8.25086 6.57353 8.21403 6.46201 8.14457C6.35049 8.07511 6.26066 7.97579 6.20271 7.85788C6.14476 7.73996 6.121 7.60817 6.13414 7.47744C6.14728 7.34671 6.19678 7.22228 6.27704 7.11825L9.47321 2.97515C9.56285 2.85898 9.6866 2.77377 9.8271 2.73146C9.96761 2.68915 10.1178 2.69186 10.2567 2.7392C10.3956 2.78655 10.5162 2.87616 10.6016 2.99548C10.687 3.1148 10.7329 3.25785 10.733 3.40458V6.84462H11.5214C11.7079 6.84462 11.8867 6.9187 12.0186 7.05056C12.1505 7.18242 12.2245 7.36127 12.2245 7.54775C12.2245 7.73423 12.1505 7.91307 12.0186 8.04493C11.8867 8.17679 11.7079 8.25087 11.5214 8.25087H10.733V8.94462C10.733 9.1311 10.6589 9.30994 10.527 9.4418Z" fill="#CF1E2E"/>
<path d="M8 7L9.5 5.5V7H8Z" fill="white"/>
</svg>
