<svg width="32" height="32" viewBox="0 0 32 32" fill="none" xmlns="http://www.w3.org/2000/svg">
<path d="M29.5192 30.2109L28.9369 25.552C28.9178 24.8087 28.4345 24.179 27.7666 23.9428C27.7654 12.8408 27.7707 13.561 27.7565 13.4842C27.7184 13.2777 27.5714 13.1094 27.3794 13.0411L21.3067 10.8721C21.6938 10.0016 21.9095 9.03865 21.9095 8.0261C21.9095 4.1519 18.7576 0.999985 14.8833 0.999985C11.0091 0.999985 7.85718 4.1519 7.85718 8.02616C7.85718 9.03865 8.07284 10.0016 8.46 10.8721L2.38716 13.0411C2.15493 13.124 2 13.3439 2 13.5905C2 13.837 2.15493 14.0569 2.38716 14.1398L5.51423 15.2566V21.9229C5.51423 22.6018 5.91171 23.2259 6.52695 23.513C11.8374 25.9914 17.9289 25.9913 23.2397 23.513C23.8548 23.2259 24.2523 22.6018 24.2523 21.9229V15.2566L26.5999 14.4182V23.9429C25.9319 24.1791 25.4487 24.8087 25.4296 25.552L24.8473 30.211C24.8039 30.5584 25.0748 30.8666 25.4261 30.8666H28.9403C29.2919 30.8666 29.5626 30.5582 29.5192 30.2109ZM14.8833 2.16665C18.1143 2.16665 20.7428 4.79526 20.7428 8.02616C20.7428 11.2571 18.1142 13.8857 14.8833 13.8857C11.6524 13.8857 9.02385 11.2571 9.02385 8.02616C9.02385 4.7952 11.6523 2.16665 14.8833 2.16665ZM23.0857 15.6733V21.9229C23.0857 22.1504 22.9524 22.3597 22.7463 22.4559C17.7492 24.7879 12.0173 24.7879 7.02039 22.4559C6.81418 22.3597 6.68095 22.1505 6.68095 21.9229V15.6733L14.6871 18.5326C14.8141 18.5779 14.9526 18.5779 15.0795 18.5326L23.0857 15.6733ZM14.8833 17.3639C13.0294 16.7018 5.48675 14.0079 4.31764 13.5904L9.02951 11.9074C10.2894 13.8014 12.4429 15.0523 14.8833 15.0523C17.3237 15.0523 19.4772 13.8014 20.7372 11.9075L25.449 13.5905C24.2947 14.0027 16.1929 16.8961 14.8833 17.3639ZM27.1833 25.0095C27.5076 25.0095 27.7714 25.2733 27.7714 25.5976C27.7714 25.9219 27.5076 26.1856 27.1833 26.1856C26.8589 26.1856 26.5952 25.9218 26.5952 25.5976C26.5952 25.2733 26.859 25.0095 27.1833 25.0095ZM26.087 29.6999L26.4033 27.1688C26.8856 27.4092 27.4636 27.4178 27.9632 27.1688L28.2796 29.6999H26.087Z" fill="#5518B5" stroke="#5518B5" stroke-width="0.2"/>
<g clip-path="url(#clip0_6733_19908)">
<path d="M12.8779 8.51803V8.51805L14.1428 8.51805C14.1428 8.51805 14.1428 8.51805 14.1429 8.51805C14.9055 8.51613 15.5557 7.97344 15.7008 7.23342H12.8758C12.7056 7.23342 12.5667 7.09455 12.5667 6.92432C12.5667 6.75408 12.7056 6.61522 12.8758 6.61522H15.7003C15.556 5.903 14.9137 5.3515 14.143 5.3515H12.8758C12.7056 5.3515 12.5667 5.21263 12.5667 5.0424C12.5667 4.87217 12.7056 4.7333 12.8758 4.7333H17.3004C17.4707 4.7333 17.6095 4.87217 17.6095 5.0424C17.6095 5.21263 17.4707 5.3515 17.3004 5.3515H15.6751C16.0197 5.68151 16.2555 6.1318 16.3265 6.61522H17.3004C17.4707 6.61522 17.6095 6.75408 17.6095 6.92432C17.6095 7.09455 17.4707 7.23342 17.3004 7.23342H16.327C16.1769 8.30697 15.2536 9.13625 14.1409 9.13625H13.6519L16.2526 11.5962L16.2537 11.5972L16.2537 11.5972C16.3756 11.7162 16.3824 11.9098 16.2656 12.0358L16.2647 12.0367L16.2647 12.0367C16.1478 12.1598 15.9529 12.1667 15.8287 12.0489L12.8779 8.51803ZM12.8779 8.51803L12.8762 8.51806C12.7049 8.52112 12.5662 8.66161 12.5688 8.83431M12.8779 8.51803L15.8285 12.0487L12.6649 9.05663L12.6629 9.05471L12.663 9.05469C12.6068 8.99857 12.5691 8.91987 12.5688 8.83431M12.5688 8.83431C12.5688 8.83402 12.5688 8.83372 12.5688 8.83342H12.6688L12.5689 8.83521C12.5688 8.83491 12.5688 8.83461 12.5688 8.83431Z" fill="#CF1E2E" stroke="#CF1E2E" stroke-width="0.2"/>
</g>
<defs>
<clipPath id="clip0_6733_19908">
<rect width="9" height="9" fill="white" transform="translate(10.8667 3.9333)"/>
</clipPath>
</defs>
</svg>
