<svg width="30" height="30" viewBox="0 0 30 30" fill="none" xmlns="http://www.w3.org/2000/svg">
<g clip-path="url(#clip0_6733_19919)">
<path d="M28.1998 4.79999H1.79976C0.807353 4.79999 -0.000244141 5.60759 -0.000244141 6.59999V23.4C-0.000244141 24.3924 0.807353 25.2 1.79976 25.2H28.1998C29.1922 25.2 29.9998 24.3924 29.9998 23.4V6.59999C29.9998 5.60759 29.1922 4.79999 28.1998 4.79999ZM28.7998 23.4C28.7998 23.73 28.5298 24 28.1998 24H1.79976C1.46858 24 1.19976 23.73 1.19976 23.4V6.59999C1.19976 6.26876 1.46858 5.99999 1.79976 5.99999H28.1998C28.5298 5.99999 28.7998 6.26876 28.7998 6.59999V23.4Z" fill="#5518B5"/>
<path d="M29.3999 10.2H0.599854V12.6H29.3999V10.2Z" fill="#5518B5"/>
<path d="M29.3998 9.59999H0.599756C0.268584 9.59999 -0.000244141 9.86876 -0.000244141 10.2V12.6C-0.000244141 12.9312 0.268584 13.2 0.599756 13.2H29.3998C29.7309 13.2 29.9998 12.9312 29.9998 12.6V10.2C29.9998 9.86876 29.7309 9.59999 29.3998 9.59999ZM28.7998 12H1.19976V10.8H28.7998V12Z" fill="#5518B5"/>
<path d="M16.1998 16.8H5.39981C5.06863 16.8 4.7998 17.0688 4.7998 17.4C4.7998 17.7312 5.06863 18 5.39981 18H16.1998C16.531 18 16.7998 17.7312 16.7998 17.4C16.7998 17.0688 16.531 16.8 16.1998 16.8Z" fill="#CF1E2E"/>
<path d="M11.3998 19.2H5.39981C5.06863 19.2 4.7998 19.4688 4.7998 19.8C4.7998 20.1312 5.06863 20.4 5.39981 20.4H11.3998C11.731 20.4 11.9998 20.1312 11.9998 19.8C11.9998 19.4688 11.731 19.2 11.3998 19.2Z" fill="#CF1E2E"/>
</g>
<defs>
<clipPath id="clip0_6733_19919">
<rect width="30" height="30" fill="white" transform="translate(-0.000244141 -1.52588e-05)"/>
</clipPath>
</defs>
</svg>
