<svg width="30" height="30" viewBox="0 0 30 30" fill="none" xmlns="http://www.w3.org/2000/svg">
<path d="M8.625 9.84381H10.0312V19.3126H8.625V9.84381Z" fill="#5518B5"/>
<path d="M12.375 9.84381C10.6875 8.15631 7.96875 8.15631 6.28125 9.84381L5.25 8.81256C7.5 6.56256 11.1563 6.56256 13.4063 8.81256L12.375 9.84381Z" fill="#CF1E2E"/>
<path d="M14.7188 7.59381C11.7188 4.68756 6.9375 4.68756 4.03125 7.59381L3 6.56256C6.46875 3.09381 12.1875 3.09381 15.6563 6.56256L14.7188 7.59381Z" fill="#CF1E2E"/>
<path d="M16.7812 5.53131C12.6562 1.40631 6 1.40631 1.875 5.53131L0.9375 4.50006C5.625 -0.0936893 13.125 -0.0936893 17.8125 4.50006L16.7812 5.53131Z" fill="#CF1E2E"/>
<path d="M24.1875 27.2813H25.5938V28.9688H24.1875V27.2813Z" fill="#5518B5"/>
<path d="M4.40625 27.2813H5.8125V28.9688H4.40625V27.2813Z" fill="#5518B5"/>
<path d="M26.8125 27.9376H3.1875C1.78125 27.9376 0.75 26.8126 0.75 25.5001V21.0938C0.75 19.6876 1.875 18.6563 3.1875 18.6563H26.8125C28.2188 18.6563 29.25 19.7813 29.25 21.0938V25.5001C29.3438 26.9063 28.2188 27.9376 26.8125 27.9376ZM3.1875 20.0626C2.625 20.0626 2.15625 20.5313 2.15625 21.0938V25.5001C2.15625 26.0626 2.625 26.5313 3.1875 26.5313H26.8125C27.375 26.5313 27.8438 26.0626 27.8438 25.5001V21.0938C27.8438 20.5313 27.375 20.0626 26.8125 20.0626H3.1875Z" fill="#5518B5"/>
<path d="M16.2188 22.5001H17.625V24.0938H16.2188V22.5001Z" fill="#5518B5"/>
<path d="M20.4375 22.5001H21.8438V24.0938H20.4375V22.5001Z" fill="#5518B5"/>
<path d="M24.6562 22.5001H26.0625V24.0938H24.6562V22.5001Z" fill="#5518B5"/>
</svg>
