<svg width="30" height="30" viewBox="0 0 30 30" fill="none" xmlns="http://www.w3.org/2000/svg">
<g clip-path="url(#clip0_6733_19984)">
<path d="M7.55 3.74998C7.55 3.43242 7.80744 3.17498 8.125 3.17498H21.875C22.1925 3.17498 22.45 3.43242 22.45 3.74998V9.99998C22.45 10.3728 22.7523 10.675 23.125 10.675H26.875C27.1925 10.675 27.45 10.9324 27.45 11.25V27.5C27.45 27.8175 27.1925 28.075 26.875 28.075H3.125C2.80744 28.075 2.55 27.8175 2.55 27.5V11.25C2.55 10.9324 2.80744 10.675 3.125 10.675H6.875C7.24779 10.675 7.55 10.3728 7.55 9.99998V3.74998ZM8.125 1.82498C7.06185 1.82498 6.2 2.68683 6.2 3.74998V9.32498H3.125C2.06185 9.32498 1.2 10.1868 1.2 11.25V27.5C1.2 28.5631 2.06185 29.425 3.125 29.425H26.875C27.9381 29.425 28.8 28.5631 28.8 27.5V11.25C28.8 10.1868 27.9381 9.32498 26.875 9.32498H23.8V3.74998C23.8 2.68682 22.9381 1.82498 21.875 1.82498H8.125Z" fill="#5518B5" stroke="#5518B5" stroke-width="0.1"/>
<path fill-rule="evenodd" clip-rule="evenodd" d="M15 6.24998C15.3451 6.24998 15.625 6.5298 15.625 6.87498V11.875C15.625 12.2201 15.3451 12.5 15 12.5C14.6549 12.5 14.375 12.2201 14.375 11.875V6.87498C14.375 6.5298 14.6549 6.24998 15 6.24998Z" fill="#CF1E2E"/>
<path fill-rule="evenodd" clip-rule="evenodd" d="M18.125 9.37498C18.125 9.72016 17.8451 9.99998 17.5 9.99998H12.5C12.1548 9.99998 11.875 9.72016 11.875 9.37498C11.875 9.0298 12.1548 8.74998 12.5 8.74998H17.5C17.8451 8.74998 18.125 9.0298 18.125 9.37498Z" fill="#CF1E2E"/>
<path d="M7.5 15.575C7.12721 15.575 6.825 15.8772 6.825 16.25V28.75C6.825 29.1227 7.12721 29.425 7.5 29.425H22.5C22.8728 29.425 23.175 29.1227 23.175 28.75V16.25C23.175 15.8772 22.8728 15.575 22.5 15.575H7.5ZM21.825 28.075H8.175V16.925H21.825V28.075Z" fill="#5518B5" stroke="#5518B5" stroke-width="0.1"/>
<path fill-rule="evenodd" clip-rule="evenodd" d="M15 15.625C15.3451 15.625 15.625 15.9048 15.625 16.25V28.75C15.625 29.0951 15.3451 29.375 15 29.375C14.6549 29.375 14.375 29.0951 14.375 28.75V16.25C14.375 15.9048 14.6549 15.625 15 15.625Z" fill="#5518B5"/>
<path fill-rule="evenodd" clip-rule="evenodd" d="M11.25 21.25C11.5952 21.25 11.875 21.5298 11.875 21.875V23.125C11.875 23.4701 11.5952 23.75 11.25 23.75C10.9048 23.75 10.625 23.4701 10.625 23.125V21.875C10.625 21.5298 10.9048 21.25 11.25 21.25Z" fill="#5518B5"/>
<path fill-rule="evenodd" clip-rule="evenodd" d="M18.75 21.25C19.0951 21.25 19.375 21.5298 19.375 21.875V23.125C19.375 23.4701 19.0951 23.75 18.75 23.75C18.4049 23.75 18.125 23.4701 18.125 23.125V21.875C18.125 21.5298 18.4049 21.25 18.75 21.25Z" fill="#5518B5"/>
</g>
<defs>
<clipPath id="clip0_6733_19984">
<rect width="30" height="30" fill="white"/>
</clipPath>
</defs>
</svg>
