<svg width="30" height="30" viewBox="0 0 30 30" fill="none" xmlns="http://www.w3.org/2000/svg">
<g clip-path="url(#clip0_6733_19885)">
<path d="M20.2531 14.1093C20.251 14.1093 20.249 14.1093 20.2469 14.1093H17.7346V11.5908C17.738 11.0829 17.3289 10.6683 16.821 10.6649C16.8189 10.6649 16.8168 10.6649 16.8148 10.6649H13.1852C12.6772 10.6649 12.2654 11.0767 12.2654 11.5846V14.1032H9.75308C9.24513 14.0998 8.83054 14.5087 8.82715 15.0167C8.82715 15.0208 8.82715 15.0249 8.82715 15.0291V18.6525C8.82715 19.1605 9.23895 19.5723 9.7469 19.5723H12.2654V22.0846C12.262 22.5926 12.6711 23.0072 13.179 23.0106C13.1811 23.0106 13.1832 23.0106 13.1852 23.0106H16.8086C17.3166 23.0106 17.7284 22.5988 17.7284 22.0908V19.5723H20.2469C20.7549 19.5757 21.1694 19.1667 21.1728 18.6587C21.1728 18.6566 21.1728 18.6545 21.1728 18.6525V15.0291C21.1728 14.5211 20.7611 14.1093 20.2531 14.1093ZM19.9383 18.3377H17.1173C16.7764 18.3377 16.5 18.6141 16.5 18.955V21.776H13.5V18.955C13.5 18.6141 13.2236 18.3377 12.8827 18.3377H10.0617V15.3439H12.8827C13.2236 15.3439 13.5 15.0675 13.5 14.7266V11.8995H16.4938V14.7204C16.4938 15.0613 16.7702 15.3377 17.1111 15.3377H19.9383V18.3377Z" fill="#CF1E2E"/>
<path d="M18.9202 1.92148L18.9202 1.92148C18.8678 1.9198 18.8153 1.92024 18.7629 1.92289H11.2371C10.1924 1.86989 9.30181 2.67306 9.24728 3.71799L9.24728 3.71801C9.24454 3.77066 9.24395 3.82348 9.24568 3.8764V5.93524H4.25926C3.26063 5.93524 2.17156 6.21918 1.3301 6.90931C0.485364 7.60212 -0.1 8.69643 -0.1 10.2945V23.7204C-0.1 25.3185 0.485364 26.4128 1.3301 27.1056C2.17156 27.7957 3.26063 28.0797 4.25926 28.0797H25.7407C26.7394 28.0797 27.8284 27.7957 28.6699 27.1056C29.5146 26.4128 30.1 25.3185 30.1 23.7204V10.3068C30.1 8.70887 29.5162 7.61454 28.6722 6.92168C27.8315 6.23151 26.7424 5.94758 25.7407 5.94758H20.7543V3.8763C20.7872 2.83033 19.9664 1.95527 18.9202 1.92148ZM10.6802 3.87475C10.6802 3.7833 10.6819 3.6441 10.7494 3.52744C10.8106 3.42157 10.9387 3.31425 11.2407 3.31425H18.7654C19.068 3.31425 19.1959 3.42046 19.2569 3.52532C19.3242 3.64104 19.3259 3.77995 19.3259 3.87475V5.93524H10.6802V3.87475ZM28.6654 23.7204C28.6654 25.0541 28.1521 25.777 27.5414 26.1719C26.9232 26.5717 26.1899 26.6451 25.7407 26.6451H4.25926C3.81322 26.6451 3.07991 26.5717 2.46089 26.1719C1.84936 25.7769 1.33457 25.054 1.33457 23.7204V10.3068C1.33457 8.97313 1.84792 8.25022 2.45862 7.85532C3.07682 7.45557 3.81007 7.38215 4.25926 7.38215H25.7407C26.1868 7.38215 26.9201 7.45555 27.5391 7.85535C28.1506 8.25031 28.6654 8.97325 28.6654 10.3068V23.7204Z" fill="#5518B5" stroke="#5518B5" stroke-width="0.2"/>
</g>
<defs>
<clipPath id="clip0_6733_19885">
<rect width="30" height="30" fill="white"/>
</clipPath>
</defs>
</svg>
