<svg width="30" height="30" viewBox="0 0 30 30" fill="none" xmlns="http://www.w3.org/2000/svg">
<g clip-path="url(#clip0_6733_19964)">
<path d="M29.681 12.1912L15.4605 1.77923C15.1863 1.57848 14.8138 1.57848 14.5396 1.77923L0.319077 12.1912C-0.0282669 12.4455 -0.103736 12.9332 0.15062 13.2806C0.404975 13.6279 0.892767 13.7033 1.24005 13.449L15 3.37421L28.76 13.449C28.8987 13.5507 29.06 13.5996 29.2198 13.5996C29.4598 13.5996 29.6967 13.4891 29.8494 13.2805C30.1038 12.9332 30.0283 12.4455 29.681 12.1912Z" fill="#CF1E2E"/>
<path d="M25.9127 13.6255C25.4823 13.6255 25.1333 13.9745 25.1333 14.4049V26.8121H18.8976V20.0395C18.8976 17.8903 17.149 16.1418 14.9999 16.1418C12.8508 16.1418 11.1023 17.8904 11.1023 20.0395V26.8122H4.86656V14.405C4.86656 13.9745 4.51752 13.6255 4.08709 13.6255C3.65666 13.6255 3.30762 13.9745 3.30762 14.405V27.5917C3.30762 28.0222 3.65666 28.3712 4.08709 28.3712H11.8818C12.2917 28.3712 12.6271 28.0545 12.6582 27.6524C12.6601 27.6342 12.6612 27.6143 12.6612 27.5917V20.0396C12.6612 18.75 13.7104 17.7008 14.9999 17.7008C16.2895 17.7008 17.3387 18.75 17.3387 20.0396V27.5917C17.3387 27.6141 17.3398 27.6337 17.3417 27.6517C17.3724 28.0541 17.708 28.3712 18.1181 28.3712H25.9128C26.3433 28.3712 26.6923 28.0222 26.6923 27.5917V14.405C26.6922 13.9745 26.3432 13.6255 25.9127 13.6255Z" fill="#5518B5"/>
</g>
<defs>
<clipPath id="clip0_6733_19964">
<rect width="30" height="30" fill="white"/>
</clipPath>
</defs>
</svg>
