<svg width="30" height="30" viewBox="0 0 30 30" fill="none" xmlns="http://www.w3.org/2000/svg">
<g clip-path="url(#clip0_6733_19975)">
<path d="M21.0827 13.121V7.82211C21.0827 7.67043 21.0126 7.5303 20.9135 7.41943L14.9727 1.18099C14.8618 1.06435 14.7041 1.00005 14.5467 1.00005H5.12762C3.38873 1.00005 1.99976 2.41808 1.99976 4.15719V21.968C1.99976 23.7071 3.38873 25.1019 5.12762 25.1019H12.5626C13.9688 27.4361 16.5251 29.0001 19.4369 29.0001C23.8604 29.0001 27.4728 25.4052 27.4728 20.9759C27.4788 17.1068 24.7008 13.8738 21.0827 13.121ZM15.1303 3.04848L19.1161 7.24426H16.5308C15.7605 7.24426 15.1303 6.6083 15.1303 5.83797V3.04848ZM5.12762 23.9346C4.03644 23.9346 3.16699 23.0592 3.16699 21.968V4.15719C3.16699 3.06002 4.03644 2.16729 5.12762 2.16729H13.9631V5.83797C13.9631 7.256 15.1128 8.41149 16.5308 8.41149H19.9155V12.9691C19.7405 12.9634 19.6004 12.9459 19.4487 12.9459C17.412 12.9459 15.5388 13.7279 14.1265 14.9535H6.71506C6.39398 14.9535 6.13144 15.216 6.13144 15.5369C6.13144 15.858 6.39398 16.1205 6.71506 16.1205H13.0411C12.6266 16.7041 12.2823 17.2877 12.014 17.9297H6.71506C6.39398 17.9297 6.13144 18.1922 6.13144 18.5133C6.13144 18.8342 6.39398 19.0969 6.71506 19.0969H11.6346C11.4887 19.6805 11.4128 20.3282 11.4128 20.9759C11.4128 22.0263 11.6171 23.0652 11.9847 23.9406H5.12762V23.9346ZM19.4429 27.8388C15.6614 27.8388 12.5858 24.7633 12.5858 20.9817C12.5858 17.2002 15.6554 14.1246 19.4429 14.1246C23.2302 14.1246 26.2998 17.2002 26.2998 20.9817C26.2998 24.7633 23.2245 27.8388 19.4429 27.8388Z" fill="#5518B5" stroke="#5518B5" stroke-width="0.2"/>
<path d="M6.71497 13.2468H12.6266C12.9753 13.2468 13.2602 12.9617 13.2602 12.6132C13.2602 12.2645 12.9752 11.9796 12.6266 11.9796H6.71497C6.36628 11.9796 6.08135 12.2645 6.08135 12.6132C6.08135 12.9617 6.36626 13.2468 6.71497 13.2468Z" fill="#5518B5" stroke="#5518B5" stroke-width="0.1"/>
<path d="M22.6175 18.3556L18.2056 22.3939L16.0465 20.0479C15.8305 19.8087 15.4569 19.7972 15.2236 20.0129C14.9843 20.2289 14.9726 20.6025 15.1886 20.8358L17.7446 23.6078C17.8612 23.7304 18.0189 23.7947 18.1765 23.7947C18.3164 23.7947 18.4566 23.7421 18.5732 23.6428L23.4111 19.2078C23.6504 18.9918 23.6679 18.6182 23.4462 18.3849C23.2244 18.1514 22.8568 18.1339 22.6175 18.3556Z" fill="#CF1E2E"/>
</g>
<defs>
<clipPath id="clip0_6733_19975">
<rect width="30" height="30" fill="white" transform="translate(-0.000244141 5.34058e-05)"/>
</clipPath>
</defs>
</svg>
