<svg width="25" height="30" viewBox="0 0 25 30" fill="none" xmlns="http://www.w3.org/2000/svg">
<path d="M18.773 20.8474C18.773 21.0082 18.773 21.1407 18.773 21.2732C18.773 23.2863 18.7774 25.2994 18.7708 27.3126C18.7672 28.306 18.0976 28.9931 17.1078 28.9945C12.2933 29.0018 7.47881 29.0018 2.66433 28.9945C1.66213 28.9931 1.00346 28.3257 1.00273 27.3206C0.99909 19.1101 0.99909 10.9004 1.00273 2.6899C1.00273 1.66514 1.66286 1.00501 2.68834 1.00355C7.47881 0.998459 12.2686 0.999186 17.059 1.00355C18.1129 1.00428 18.7687 1.68042 18.7716 2.74739C18.7752 4.05746 18.7789 5.3668 18.7672 6.67686C18.765 6.92869 18.8283 7.02548 19.0911 7.07716C22.3357 7.72346 24.68 10.5932 24.6851 13.9041C24.6909 17.2112 22.3779 20.0795 19.1617 20.7557C19.0438 20.7804 18.9266 20.8103 18.773 20.8467V20.8474ZM4.24514 4.23941V23.5803H15.5321C15.5321 22.6888 15.5212 21.8285 15.5386 20.9682C15.5444 20.6865 15.4688 20.5526 15.1878 20.4449C12.5335 19.4282 10.7474 16.8815 10.7052 14.0896C10.6594 11.0721 12.4127 8.47092 15.2468 7.37338C15.4658 7.28822 15.543 7.18851 15.5372 6.9578C15.5219 6.38865 15.5321 5.81804 15.5321 5.24816C15.5321 4.91482 15.5321 4.58221 15.5321 4.23941H4.24514ZM17.6908 6.90248V6.60117C17.6908 5.32749 17.6922 4.05455 17.6908 2.78087C17.6908 2.24811 17.5103 2.0698 16.9615 2.0698C12.2438 2.06834 7.52685 2.06834 2.80916 2.0698C2.2371 2.0698 2.06825 2.23865 2.06825 2.80999C2.06752 10.9353 2.06752 19.0599 2.06825 27.1852C2.06825 27.758 2.2371 27.9305 2.80407 27.9305C7.52176 27.9319 12.2387 27.9319 16.9564 27.9305C17.5197 27.9305 17.69 27.7536 17.69 27.1874C17.6908 25.223 17.69 23.2579 17.69 21.2935C17.69 21.1771 17.6777 21.0614 17.6704 20.9318C17.3079 20.9056 16.9753 20.8816 16.6085 20.8554C16.6085 21.0112 16.6085 21.1422 16.6085 21.2732C16.6085 22.1946 16.6107 23.1167 16.6071 24.0381C16.6049 24.4996 16.4266 24.6873 15.9768 24.6873C11.9141 24.6895 7.85145 24.6895 3.7888 24.6873C3.34047 24.6873 3.14614 24.4945 3.14614 24.0425C3.14396 17.3 3.14396 10.5576 3.14614 3.81437C3.14614 3.34493 3.34338 3.14769 3.81136 3.14696C7.86164 3.14478 11.9119 3.14405 15.9629 3.14696C16.4142 3.14696 16.6049 3.34202 16.6071 3.79108C16.6114 4.72486 16.6085 5.65865 16.6085 6.59243C16.6085 6.72053 16.6085 6.84862 16.6085 6.99564C16.9855 6.96289 17.3101 6.93524 17.6915 6.90176L17.6908 6.90248ZM11.7722 13.9172C11.7685 17.193 14.412 19.8467 17.6842 19.8525C20.9499 19.8583 23.6057 17.2025 23.6086 13.9288C23.6115 10.6493 20.9739 8.00658 17.6959 8.00439C14.4149 8.00221 11.7758 10.6369 11.7722 13.9172Z" fill="#5518B5" stroke="#5518B5" stroke-width="0.1"/>
<path d="M9.86597 25.7718C10.4599 25.7718 11.0538 25.7696 11.6477 25.7725C12.0523 25.7747 12.2932 25.9705 12.3027 26.2944C12.3122 26.6306 12.0603 26.8511 11.6418 26.8526C10.4664 26.857 9.29027 26.857 8.11485 26.8526C7.7 26.8511 7.44526 26.6233 7.45982 26.2885C7.47365 25.9647 7.71237 25.7747 8.12068 25.7725C8.7022 25.7696 9.28445 25.7718 9.86597 25.7718Z" fill="#CF1E2E"/>
<path d="M20.29 14.4703H19.1503C19.7536 13.4142 20.3184 12.4259 20.9211 11.372C21.5171 12.4106 22.0834 13.3975 22.6845 14.4455H21.4531C21.392 14.6704 21.3476 14.8553 21.2915 15.0365C20.7122 16.8961 18.8606 17.99 16.9283 17.6159C15.1291 17.268 13.7863 15.5162 13.9246 13.6981C14.0738 11.7337 15.6146 10.2293 17.5549 10.1529C17.9552 10.1369 18.2034 10.3261 18.2201 10.6602C18.2376 11.0008 18.0273 11.1973 17.6168 11.2257C16.1794 11.3247 15.0905 12.3676 15.0039 13.7287C14.9166 15.1071 15.8278 16.2898 17.1947 16.5708C18.5971 16.859 20.1256 15.8386 20.2908 14.471L20.29 14.4703Z" fill="#CF1E2E"/>
</svg>
