<svg width="30" height="30" viewBox="0 0 30 30" fill="none" xmlns="http://www.w3.org/2000/svg">
<path d="M20.8269 25.1342C21.1505 25.1342 21.4128 24.8719 21.4128 24.5482C21.4128 24.2246 21.1505 23.9623 20.8269 23.9623C20.5033 23.9623 20.241 24.2246 20.241 24.5482C20.241 24.8719 20.5033 25.1342 20.8269 25.1342Z" fill="#5518B5"/>
<path d="M23.197 25.1342C23.5206 25.1342 23.783 24.8719 23.783 24.5482C23.783 24.2246 23.5206 23.9623 23.197 23.9623C22.8734 23.9623 22.6111 24.2246 22.6111 24.5482C22.6111 24.8719 22.8734 25.1342 23.197 25.1342Z" fill="#5518B5"/>
<path d="M25.5674 25.1342C25.891 25.1342 26.1533 24.8719 26.1533 24.5482C26.1533 24.2246 25.891 23.9623 25.5674 23.9623C25.2438 23.9623 24.9814 24.2246 24.9814 24.5482C24.9814 24.8719 25.2438 25.1342 25.5674 25.1342Z" fill="#5518B5"/>
<path d="M15.0049 23.1709C15.3285 23.1709 15.5908 22.9086 15.5908 22.585C15.5908 22.2614 15.3285 21.9991 15.0049 21.9991C14.6813 21.9991 14.4189 22.2614 14.4189 22.585C14.4189 22.9086 14.6813 23.1709 15.0049 23.1709Z" fill="#CF1E2E"/>
<path d="M16.8113 0.527832L15 3.00332L13.1887 0.527817L13.1886 0.527803C12.9627 0.219196 12.5294 0.151905 12.2207 0.377855C11.9121 0.60376 11.8449 1.03704 12.0708 1.34576L12.0708 1.34576L13.6955 3.56614H2.37023C1.00807 3.56614 -0.1 4.67428 -0.1 6.03644V24.8188C-0.1 26.181 1.00807 27.2891 2.37023 27.2891H3.99682V29.0634C3.99682 29.4459 4.3069 29.756 4.68937 29.756C5.07185 29.756 5.38193 29.4459 5.38193 29.0634V27.2891H24.618V29.0634C24.618 29.4459 24.9281 29.756 25.3106 29.756C25.693 29.756 26.0031 29.4459 26.0031 29.0634V27.2891H27.6297C28.9919 27.2891 30.0999 26.181 30.0999 24.8188V6.03644C30.1 4.67428 28.9919 3.56614 27.6298 3.56614H16.3045L17.9292 1.34578C17.9292 1.34577 17.9292 1.34577 17.9292 1.34576C18.1551 1.03709 18.0879 0.603747 17.7792 0.377849C17.4707 0.151994 17.0372 0.219038 16.8113 0.527819C16.8113 0.527823 16.8113 0.527828 16.8113 0.527832ZM28.7148 24.8188V24.8301C28.7088 25.4232 28.2243 25.9039 27.6298 25.9039H2.37023C1.77197 25.9039 1.28512 25.4171 1.28512 24.8188V6.03644C1.28512 5.43817 1.77197 4.95132 2.37023 4.95132H27.6297C28.228 4.95132 28.7148 5.43817 28.7148 6.03644V24.8188Z" fill="#5518B5" stroke="#5518B5" stroke-width="0.2"/>
<path d="M24.5116 6.3689H5.4884C4.12624 6.3689 3.01816 7.47697 3.01816 8.83914V20.8316C3.01816 22.1938 4.12624 23.3019 5.4884 23.3019H12.3334C12.7158 23.3019 13.0259 22.9918 13.0259 22.6093C13.0259 22.2268 12.7158 21.9167 12.3334 21.9167H5.4884C4.89013 21.9167 4.40328 21.4299 4.40328 20.8316V8.83914C4.40328 8.24087 4.89013 7.75402 5.4884 7.75402H24.5115C25.1098 7.75402 25.5966 8.24087 25.5966 8.83914V20.8316C25.5966 21.4299 25.1098 21.9167 24.5115 21.9167H17.6864C17.3039 21.9167 16.9938 22.2268 16.9938 22.6093C16.9938 22.9918 17.3039 23.3019 17.6864 23.3019H24.5116C25.8737 23.3019 26.9818 22.1938 26.9818 20.8316V8.83914C26.9818 7.47697 25.8737 6.3689 24.5116 6.3689Z" fill="#CF1E2E" stroke="#CF1E2E" stroke-width="0.2"/>
</svg>
