<svg width="30" height="30" viewBox="0 0 30 30" fill="none" xmlns="http://www.w3.org/2000/svg">
<g clip-path="url(#clip0_6733_20005)">
<path d="M29.0989 8.90755C29.0986 8.90629 29.0983 8.90506 29.098 8.9039C29.0953 8.85032 29.0848 8.7974 29.067 8.74673C29.0653 8.73484 29.0614 8.71924 29.0526 8.70347C29.0253 8.64403 28.988 8.58962 28.942 8.54279L28.9421 8.54262L28.937 8.53803C28.9222 8.52495 28.9068 8.51256 28.8909 8.50096C28.867 8.47887 28.8412 8.45889 28.8139 8.44119L28.814 8.44098L28.8079 8.43758L15.2749 0.971103C15.2748 0.971074 15.2748 0.971045 15.2747 0.971016C15.1044 0.876381 14.8973 0.876399 14.7269 0.97107C14.7269 0.971081 14.7269 0.971092 14.7269 0.971103L1.19389 8.43758L1.19377 8.43736L1.18786 8.44119C1.16052 8.45889 1.13478 8.47887 1.11087 8.50096C1.09497 8.51257 1.07957 8.52495 1.06481 8.53803L1.06466 8.53785L1.0598 8.54279C1.01227 8.59117 0.973969 8.64763 0.946458 8.70937L0.9378 8.7288V8.73844C0.918098 8.79162 0.906664 8.84739 0.903732 8.90391C0.903441 8.90506 0.903147 8.90629 0.902868 8.90755C0.901447 8.91398 0.9 8.92286 0.9 8.93347V10.8001C0.9 11.1131 1.15372 11.3668 1.46666 11.3668H2.76853V25.1667H1.46853C1.15559 25.1667 0.901867 25.4205 0.901867 25.7334V28.5334C0.901867 28.8463 1.15559 29.1001 1.46853 29.1001H28.5351C28.848 29.1001 29.1018 28.8463 29.1018 28.5334V25.7334C29.1018 25.4205 28.848 25.1667 28.5351 25.1667H27.2351V11.3668H28.5351C28.848 11.3668 29.1018 11.1131 29.1018 10.8001V8.93347C29.1018 8.92286 29.1003 8.91398 29.0989 8.90755ZM3.66884 8.36681L15.0018 2.11398L26.3348 8.36681H3.66884ZM27.9684 26.3001V27.9667H2.0352V26.3001H27.9684ZM3.90186 25.1667V11.3668H5.56852V25.1667H3.90186ZM6.70185 25.1667V11.3668H23.3018V25.1667H6.70185ZM24.4351 25.1667V11.3668H26.1018V25.1667H24.4351ZM2.0352 10.2335V9.50014H27.9684V10.2335H2.0352Z" fill="#5518B5" stroke="#5518B5" stroke-width="0.2"/>
<g clip-path="url(#clip1_6733_20005)">
<path d="M12.2347 18.1053V18.1053H13.64C14.4973 18.1032 15.2275 17.4899 15.3846 16.6557H12.2323C12.0493 16.6557 11.9 16.5064 11.9 16.3234C11.9 16.1404 12.0493 15.9911 12.2323 15.9911H15.3841C15.2281 15.1882 14.5067 14.5647 13.6403 14.5647H12.2323C12.0493 14.5647 11.9 14.4154 11.9 14.2324C11.9 14.0494 12.0493 13.9 12.2323 13.9H17.1486C17.3316 13.9 17.4809 14.0494 17.4809 14.2324C17.4809 14.4154 17.3316 14.5647 17.1486 14.5647H15.3147C15.7091 14.9334 15.9786 15.4433 16.0567 15.9911H17.1486C17.3316 15.9911 17.4809 16.1404 17.4809 16.3234C17.4809 16.5064 17.3316 16.6557 17.1486 16.6557H16.0573C15.8955 17.8478 14.8719 18.77 13.638 18.77H13.0667L15.9766 21.5224L15.9777 21.5235L15.9777 21.5235C16.109 21.6515 16.1162 21.8597 15.9905 21.9953L15.9897 21.9962L15.9897 21.9962C15.8639 22.1286 15.6544 22.1359 15.5209 22.0093L12.2347 18.1053ZM12.2347 18.1053L12.2329 18.1053C12.0486 18.1086 11.8995 18.2598 11.9023 18.4455M12.2347 18.1053L15.5207 22.0091L12.0056 18.6845L12.0036 18.6826L12.0036 18.6826C11.9431 18.6221 11.9026 18.5373 11.9023 18.4455M11.9023 18.4455C11.9023 18.4452 11.9023 18.4449 11.9023 18.4446H12.0023L11.9023 18.4464C11.9023 18.4461 11.9023 18.4458 11.9023 18.4455Z" fill="#CF1E2E" stroke="#CF1E2E" stroke-width="0.2"/>
</g>
</g>
<defs>
<clipPath id="clip0_6733_20005">
<rect width="30" height="30" fill="white"/>
</clipPath>
<clipPath id="clip1_6733_20005">
<rect width="10" height="10" fill="white" transform="translate(10 13)"/>
</clipPath>
</defs>
</svg>
