<svg width="30" height="30" viewBox="0 0 30 30" fill="none" xmlns="http://www.w3.org/2000/svg">
<g clip-path="url(#clip0_6733_19896)">
<path d="M27.0561 5.27484C25.7509 3.80796 23.9407 3.00012 21.9587 3.00012C19.7915 3.00012 17.8139 3.84017 16.2398 5.4295C15.6925 5.98211 15.2834 6.53424 14.9998 6.9724C14.7161 6.53429 14.307 5.98222 13.7597 5.4295C12.1856 3.84012 10.208 3.00006 8.04077 3.00006C3.8924 3.00006 0.999756 6.47058 0.999756 10.5968C0.999756 16.1704 6.90622 20.8634 14.6416 27.5672C14.7444 27.6562 14.8721 27.7008 14.9998 27.7008C15.1275 27.7008 15.2551 27.6562 15.3579 27.5672C23.1117 20.8474 28.9998 16.1626 28.9998 10.5968C28.9998 8.57359 28.3095 6.68359 27.0561 5.27484ZM14.9998 26.4305C7.6952 20.1095 2.09351 15.5695 2.09351 10.5968C2.09351 6.88949 4.65026 4.09387 8.04077 4.09387C9.92333 4.09387 11.5769 4.7931 12.9556 6.17204C14.0059 7.22259 14.496 8.29474 14.5008 8.30546C14.5888 8.50162 14.7838 8.62762 14.9989 8.62806C14.9993 8.62806 14.9996 8.62806 15 8.62806C15.215 8.62806 15.4103 8.50157 15.4988 8.30546C15.5036 8.29474 15.9936 7.22265 17.044 6.17204C18.4226 4.79304 20.0762 4.09387 21.9588 4.09387C25.3493 4.09387 27.9061 6.88949 27.9061 10.5968C27.906 15.6818 21.9347 20.4293 14.9998 26.4305Z" fill="#5518B5" stroke="#5518B5" stroke-width="0.4"/>
<path d="M20.2498 13.4821H17.1873V10.4196C17.1873 10.1175 16.9424 9.87268 16.6404 9.87268H13.3591C13.0571 9.87268 12.8123 10.1175 12.8123 10.4196V13.4821H9.74976C9.44772 13.4821 9.20288 13.7269 9.20288 14.0289V17.3102C9.20288 17.6122 9.44772 17.8571 9.74976 17.8571H12.8123V20.9196C12.8123 21.2216 13.0571 21.4664 13.3591 21.4664H16.6404C16.9424 21.4664 17.1873 21.2216 17.1873 20.9196V17.8571H20.2498C20.5518 17.8571 20.7966 17.6122 20.7966 17.3102V14.0289C20.7966 13.7269 20.5518 13.4821 20.2498 13.4821ZM19.7029 16.7633H16.6404C16.3383 16.7633 16.0935 17.0081 16.0935 17.3101V20.3726H13.906V17.3101C13.906 17.0081 13.6612 16.7633 13.3591 16.7633H10.2966V14.5758H13.3591C13.6612 14.5758 13.906 14.3309 13.906 14.0289V10.9664H16.0935V14.0289C16.0935 14.3309 16.3383 14.5758 16.6404 14.5758H19.7029V16.7633Z" fill="#CF1E2E"/>
</g>
<defs>
<clipPath id="clip0_6733_19896">
<rect width="30" height="30" fill="white" transform="translate(-0.000244141 6.10352e-05)"/>
</clipPath>
</defs>
</svg>
