<svg width="30" height="30" viewBox="0 0 30 30" fill="none" xmlns="http://www.w3.org/2000/svg">
<g clip-path="url(#clip0_6733_19846)">
<path d="M24.5167 11.235C24.5168 7.83428 22.0424 5.0011 18.7996 4.44067V1.20097C19.0257 1.08891 19.1814 0.855812 19.1814 0.586029C19.1814 0.207187 18.8743 -0.0999084 18.4954 -0.0999084H11.5044C11.1255 -0.0999084 10.8184 0.207187 10.8184 0.586029C10.8184 0.855812 10.9741 1.08891 11.2002 1.20097V4.44067C7.9574 5.0011 5.48301 7.83428 5.48301 11.235V26.6868C5.48301 27.5619 5.81412 28.3612 6.35727 28.9657C6.25338 29.0859 6.19041 29.2427 6.19041 29.4141C6.19041 29.7929 6.49751 30.1 6.87635 30.1H23.1234C23.5022 30.1 23.8093 29.7929 23.8093 29.4141C23.8093 29.2427 23.7464 29.0859 23.6425 28.9657C24.1857 28.3612 24.5167 27.5619 24.5167 26.6868V11.235ZM6.85488 12.1916H23.1449V25.074H6.85488V12.1916ZM17.4277 1.27197V4.33997H15.6858V3.39507C16.0102 3.34054 16.2572 3.05849 16.2572 2.71867C16.2572 2.33982 15.9502 2.03273 15.5713 2.03273H14.4285C14.0497 2.03273 13.7426 2.33982 13.7426 2.71867C13.7426 3.05849 13.9896 3.34054 14.314 3.39507V4.33997H12.5721V1.27197H17.4277ZM12.378 5.71185H17.6218C20.5275 5.71185 22.9164 7.96751 23.1294 10.8197H6.87039C7.08336 7.96757 9.47232 5.71185 12.378 5.71185ZM8.89631 28.7282C7.77076 28.7282 6.85494 27.8123 6.85494 26.6868V26.446H23.145V26.6868C23.145 27.8124 22.2291 28.7282 21.1036 28.7282H8.89631Z" fill="#5518B5" stroke="#5518B5" stroke-width="0.2"/>
<path d="M18.0961 18.4483C18.0841 18.3885 18.0702 18.3199 18.0543 18.234C18.0127 18.0092 17.8441 17.8292 17.6224 17.7729C17.504 17.7429 17.3822 17.7509 17.2722 17.7922C17.2735 15.93 15.8259 15.2001 15.1603 14.8644C15.0555 14.8115 14.9649 14.7658 14.9015 14.7283C14.7103 14.615 14.4714 14.6196 14.2848 14.7403C14.0981 14.861 13.9958 15.077 14.0206 15.2979C14.1122 16.1117 14.0645 16.5421 14.011 16.7571C13.962 16.6896 13.901 16.5945 13.8252 16.4613C13.7443 16.319 13.5549 15.9857 13.1454 16.0485C12.9015 16.0858 12.7098 16.2667 12.6571 16.5095C12.5776 16.8756 12.445 17.1936 12.3047 17.5303C12.0721 18.0883 11.8086 18.7207 11.8086 19.5949C11.8086 20.396 12.1136 21.1416 12.6674 21.6945C13.2649 22.291 14.0895 22.6193 14.99 22.6192H14.9966C15.8986 22.6176 16.7263 22.2781 17.3271 21.663C17.9021 21.0744 18.2088 20.2857 18.1906 19.4422C18.1783 18.8762 18.1543 18.7367 18.0961 18.4483ZM16.4888 20.844C16.1097 21.2321 15.5791 21.4462 14.9945 21.4473H14.99C14.4022 21.4473 13.8714 21.2406 13.4953 20.8651C13.1584 20.5289 12.9804 20.0897 12.9804 19.5949C12.9804 18.9551 13.1685 18.5038 13.3864 17.9812C13.4056 17.9349 13.425 17.8885 13.4443 17.8417C13.5984 17.9562 13.7791 18.0409 13.9893 18.0637C14.2707 18.0945 14.5543 17.9891 14.7675 17.7751C15.0702 17.4712 15.2266 16.9787 15.2435 16.2566C15.8748 16.6789 16.2729 17.2541 16.0303 18.4181C15.9972 18.5771 16.0316 18.7426 16.1251 18.8753C16.2592 19.0654 16.5303 19.2727 16.889 19.2846C16.9311 19.2862 16.9726 19.2849 17.014 19.2811C17.0158 19.3358 17.0174 19.3973 17.0189 19.4674C17.0302 19.9936 16.842 20.4825 16.4888 20.844Z" fill="#CF1E2E"/>
</g>
<defs>
<clipPath id="clip0_6733_19846">
<rect width="30" height="30" fill="white"/>
</clipPath>
</defs>
</svg>
