<svg width="30" height="30" viewBox="0 0 30 30" fill="none" xmlns="http://www.w3.org/2000/svg">
<g clip-path="url(#clip0_6733_19875)">
<path d="M25.5244 23.2918C25.5518 26.2541 23.3051 28.9219 20.7167 29.0001C20.7108 29.0001 20.7044 29.0001 20.6992 29.0001H9.7446C6.5029 29.0001 5.0127 26.0453 4.99987 23.3C4.97421 17.8367 9.31008 11.2261 12.536 9.05936C10.8312 7.63215 8.81199 4.7649 8.83881 3.31669C8.86448 2.77427 8.95488 2.20793 9.43431 1.98805C9.94466 1.75416 10.4101 2.1187 10.8201 2.4389C11.0896 2.64945 11.4938 2.96557 11.7032 2.92125C11.8233 2.89442 11.9802 2.70778 12.1231 2.42315C12.1388 2.39166 12.1575 2.36249 12.1785 2.3345C12.9116 1.35872 13.4786 0.95803 14.0612 1.00352C14.7693 1.05543 15.1356 1.7285 15.4902 2.37941C15.72 2.80168 15.9574 3.23795 16.2787 3.55874C16.312 3.5914 16.3388 3.61473 16.3592 3.63048C16.4525 3.55232 16.6024 3.36976 16.7074 3.24145C17.2802 2.54388 18.3464 1.2444 20.5936 2.14261C20.8153 2.23068 20.9605 2.4459 20.9605 2.68445C20.9605 4.01134 20.1667 5.8754 19.1874 7.38193C20.2215 7.05531 21.332 6.83426 22.0617 6.83426C23.9747 6.83426 24.1818 7.98093 24.1818 8.47436C24.1818 9.22792 23.805 10.4924 21.2813 10.4924C20.6788 10.4924 20.0279 10.4189 19.4125 10.3133C22.3276 13.1771 25.4812 18.6421 25.5244 23.2918ZM22.0617 8.00076C20.9173 8.00076 19.3781 8.49711 18.4268 8.91063C19.2131 9.11185 20.316 9.3259 21.2819 9.3259C23.0159 9.3259 23.0159 8.68491 23.0159 8.47436C23.0153 8.32038 23.0153 8.00076 22.0617 8.00076ZM13.825 8.56535C13.839 8.57409 13.8466 8.58809 13.8594 8.59801C13.8711 8.60384 13.8839 8.60209 13.895 8.60851C14.6999 9.05819 15.5054 9.04128 16.6077 8.57934C16.6258 8.57118 16.6462 8.57351 16.666 8.56768C17.8663 7.6444 19.5228 4.85588 19.7648 3.09097C18.6024 2.77018 18.1189 3.36043 17.6103 3.98101C17.2825 4.38053 16.9436 4.79289 16.4141 4.81914C16.0758 4.84422 15.7608 4.68907 15.4546 4.38403C15.0137 3.9431 14.7226 3.40884 14.466 2.93699C14.3114 2.65353 14.0781 2.22426 13.9545 2.16186C13.9627 2.17119 13.7206 2.23359 13.1414 2.9959C12.8294 3.59548 12.4322 3.9536 11.9604 4.05975C11.215 4.22714 10.5728 3.72555 10.1027 3.35868C10.0741 3.33594 10.0421 3.31144 10.0094 3.28578C10.0076 3.30794 10.0065 3.33127 10.0053 3.35577C9.98607 4.3817 12.154 7.52308 13.825 8.56535ZM24.3579 23.3023C24.3188 18.9903 21.2865 13.9318 18.7086 11.2944C19.069 11.9266 19.5385 12.6026 20.1439 13.2068C20.3726 13.4349 20.3726 13.8035 20.1451 14.0316C20.0314 14.1459 19.8815 14.203 19.7322 14.203C19.5828 14.203 19.4335 14.1459 19.3204 14.0327C18.3324 13.0464 17.664 11.9114 17.2364 10.9957C17.0131 11.5702 16.6987 12.2019 16.2624 12.7577C16.0629 13.0126 15.6967 13.0564 15.4435 12.8563C15.1904 12.6574 15.1461 12.2906 15.345 12.038C15.8757 11.362 16.1948 10.521 16.3756 9.9004C15.3467 10.206 14.4584 10.1617 13.6069 9.76917C10.9356 11.2203 6.1407 17.8717 6.16637 23.2941C6.17687 25.4807 7.30079 27.8336 9.7446 27.8336H20.6899C22.8129 27.7636 24.3772 25.3862 24.3579 23.3023Z" fill="#5518B5" stroke="#5518B5" stroke-width="0.2"/>
<g clip-path="url(#clip1_6733_19875)">
<path d="M18.1483 19.0911H16.968C16.9007 18.4405 16.5498 17.8365 16.0364 17.4647H18.1483C18.2761 17.4647 18.3806 17.3602 18.3806 17.2324C18.3806 17.1046 18.2761 17.0001 18.1483 17.0001H13.2321C13.1043 17.0001 12.9998 17.1046 12.9998 17.2324C12.9998 17.3602 13.1043 17.4647 13.2321 17.4647H14.64C15.5973 17.4647 16.3872 18.185 16.5011 19.0911H13.2321C13.1043 19.0911 12.9998 19.1956 12.9998 19.3234C12.9998 19.4512 13.1043 19.5558 13.2321 19.5558H16.5011C16.3849 20.4967 15.5857 21.203 14.64 21.2053H13.2344C13.1043 21.2077 12.9998 21.3145 13.0021 21.4446C13.0021 21.5074 13.03 21.5678 13.0741 21.6119L16.5893 24.9366C16.6823 25.0249 16.8286 25.0203 16.9169 24.9274C17.0052 24.8321 17.0006 24.6857 16.9076 24.5951L13.8153 21.67H14.6377C15.8505 21.67 16.8519 20.7407 16.968 19.5558H18.1483C18.2761 19.5558 18.3806 19.4512 18.3806 19.3234C18.3806 19.1956 18.2761 19.0911 18.1483 19.0911Z" fill="#CF1E2E" stroke="#CF1E2E" stroke-width="0.4"/>
</g>
</g>
<defs>
<clipPath id="clip0_6733_19875">
<rect width="30" height="30" fill="white" transform="translate(-0.000244141 6.10352e-05)"/>
</clipPath>
<clipPath id="clip1_6733_19875">
<rect width="10" height="10" fill="white" transform="translate(10.9998 16.0001)"/>
</clipPath>
</defs>
</svg>
