<svg width="30" height="30" viewBox="0 0 30 30" fill="none" xmlns="http://www.w3.org/2000/svg">
<path d="M27.0016 21.8568V25.2856C27.0016 26.2311 26.2327 27 25.2872 27H4.7144C3.76891 27 3 26.2311 3 25.2856V21.8568C3 21.3837 3.38317 20.9996 3.8572 20.9996C4.33123 20.9996 4.7144 21.3837 4.7144 21.8568V25.2856H25.2872V21.8568C25.2872 21.3837 25.6704 20.9996 26.1444 20.9996C26.6184 20.9996 27.0016 21.3837 27.0016 21.8568Z" fill="#5518B5"/>
<path d="M8.39444 10.4621C8.05928 10.1269 8.05928 9.58519 8.39444 9.25002L14.394 3.25047C14.7291 2.91445 15.2769 2.91874 15.6078 3.25047L21.6073 9.25002C21.9425 9.58519 21.9425 10.1269 21.6073 10.4621C21.4402 10.6293 21.2207 10.7133 21.0013 10.7133C20.7818 10.7133 20.5624 10.6293 20.3952 10.4621L15.8581 5.92494V20.9997C15.8581 21.4728 15.4749 21.8569 15.0009 21.8569C14.5268 21.8569 14.1437 21.4728 14.1437 20.9997V5.92494L9.60652 10.4621C9.27136 10.7973 8.72961 10.7973 8.39444 10.4621Z" fill="#CF1E2E"/>
</svg>
