<svg width="30" height="30" viewBox="0 0 30 30" fill="none" xmlns="http://www.w3.org/2000/svg">
<g clip-path="url(#clip0_6733_19855)">
<path d="M29.1211 14.1211C28.6357 14.1211 28.2422 14.5146 28.2422 15V15.8789H21.5739C20.9967 15.0183 20.2552 14.2768 19.3945 13.6996V8.84766H20.2734C20.7588 8.84766 21.1523 8.45414 21.1523 7.96875C21.1523 7.48336 20.7588 7.08984 20.2734 7.08984H19.3945V2.69531C19.3945 2.20992 19.001 1.81641 18.5156 1.81641H11.4844C10.999 1.81641 10.6055 2.20992 10.6055 2.69531V7.08984H9.72656C9.24117 7.08984 8.84766 7.48336 8.84766 7.96875C8.84766 8.45414 9.24117 8.84766 9.72656 8.84766H10.6055V13.6996C9.74484 14.2768 9.00334 15.0183 8.42613 15.8789H1.75781V15C1.75781 14.5146 1.3643 14.1211 0.878906 14.1211C0.393516 14.1211 0 14.5146 0 15V25.5469C0 26.0323 0.393516 26.4258 0.878906 26.4258C1.3643 26.4258 1.75781 26.0323 1.75781 25.5469V24.668H8.42613C9.84691 26.7864 12.2633 28.1836 15 28.1836C17.7367 28.1836 20.1531 26.7864 21.5739 24.668H28.2422V25.5469C28.2422 26.0323 28.6357 26.4258 29.1211 26.4258C29.6065 26.4258 30 26.0323 30 25.5469V15C30 14.5146 29.6065 14.1211 29.1211 14.1211ZM12.3633 3.57422H17.6367V7.08984H12.3633V3.57422ZM12.3633 8.84766H17.6367V12.8157C16.8116 12.5231 15.9241 12.3633 15 12.3633C14.0759 12.3633 13.1884 12.5231 12.3633 12.8157V8.84766ZM1.75781 22.9102V17.6367H7.5423C7.24969 18.4618 7.08984 19.3492 7.08984 20.2734C7.08984 21.1976 7.24969 22.085 7.5423 22.9102H1.75781ZM15 26.4258C11.6076 26.4258 8.84766 23.6658 8.84766 20.2734C8.84766 16.881 11.6076 14.1211 15 14.1211C18.3924 14.1211 21.1523 16.881 21.1523 20.2734C21.1523 23.6658 18.3924 26.4258 15 26.4258ZM22.4577 22.9102C22.7503 22.085 22.9102 21.1976 22.9102 20.2734C22.9102 19.3492 22.7503 18.4618 22.4577 17.6367H28.2422V22.9102H22.4577Z" fill="#5518B5" stroke="white" stroke-width="0.4"/>
<path d="M16.8645 17.166L16.1361 17.8944C15.7919 17.7293 15.4066 17.6367 15 17.6367C13.5462 17.6367 12.3633 18.8195 12.3633 20.2734C12.3633 20.6799 12.456 21.0653 12.621 21.4095L11.8926 22.1379C11.5495 22.4811 11.5495 23.0376 11.8926 23.3808C12.2358 23.7241 12.7923 23.7241 13.1356 23.3808L13.8639 22.6524C14.2082 22.8175 14.5935 22.9101 15 22.9101C16.4539 22.9101 17.6368 21.7273 17.6368 20.2734C17.6368 19.8668 17.5441 19.4816 17.3791 19.1374L18.1075 18.409C18.4507 18.0657 18.4507 17.5093 18.1075 17.166C17.7643 16.8228 17.2077 16.8228 16.8645 17.166ZM15 21.1523C14.5154 21.1523 14.1211 20.7581 14.1211 20.2734C14.1211 19.7888 14.5154 19.3945 15 19.3945C15.4847 19.3945 15.879 19.7888 15.879 20.2734C15.879 20.7581 15.4847 21.1523 15 21.1523Z" fill="#CF1E2E" stroke="white" stroke-width="0.4"/>
</g>
<defs>
<clipPath id="clip0_6733_19855">
<rect width="30" height="30" fill="white"/>
</clipPath>
</defs>
</svg>
