<svg width="28" height="28" viewBox="0 0 28 28" fill="none" xmlns="http://www.w3.org/2000/svg">
<path d="M25.8542 17.2584C24.2837 15.6879 21.9677 15.3068 20.0349 16.1142V6.80249C20.0349 6.4172 19.8849 6.05498 19.6125 5.78258L14.7528 0.922379C14.6391 0.808698 14.5067 0.715825 14.3631 0.646184C14.3629 0.646026 14.3625 0.64592 14.3623 0.645762C14.3556 0.642549 14.3491 0.639283 14.3424 0.636175C14.3298 0.630064 14.317 0.624322 14.3039 0.619159C14.1244 0.541774 13.9296 0.5 13.7324 0.5H2.02452C1.18393 0.5 0.5 1.18388 0.5 2.02452V25.9755C0.5 26.8161 1.18388 27.5 2.02452 27.5H18.5104C19.3153 27.5 19.9838 26.8707 20.0324 26.0673C20.033 26.0567 20.0334 26.0461 20.0334 26.0355V25.9263C20.6901 26.2009 21.391 26.3386 22.092 26.3386C23.4545 26.3386 24.817 25.82 25.8543 24.7828C26.8592 23.7778 27.4126 22.4417 27.4126 21.0206C27.4126 19.5994 26.8591 18.2633 25.8542 17.2584ZM18.2363 5.89637H14.7552C14.6909 5.89637 14.6386 5.84406 14.6386 5.77979V2.2983L18.2363 5.89637ZM18.9797 26.0167C18.9585 26.2587 18.7547 26.4464 18.5104 26.4464H2.02452C1.76482 26.4464 1.55358 26.2352 1.55358 25.9755V2.02452C1.55358 1.76482 1.76482 1.55358 2.02452 1.55358H13.5851V5.77979C13.5851 6.425 14.11 6.94994 14.7553 6.94994H18.9814V16.704C18.7532 16.8686 18.5351 17.0532 18.3298 17.2584C17.3249 18.2633 16.7715 19.5994 16.7715 21.0206C16.7715 22.4418 17.3249 23.7779 18.3298 24.7828C18.5346 24.9876 18.7522 25.1718 18.9798 25.3361V26.0167H18.9797ZM25.1092 24.0378C23.4455 25.7015 20.7385 25.7015 19.0748 24.0378C18.2688 23.2319 17.825 22.1603 17.825 21.0206C17.825 19.8809 18.2688 18.8093 19.0748 18.0034C19.9066 17.1716 20.9993 16.7556 22.0919 16.7556C23.1846 16.7556 24.2773 17.1716 25.1091 18.0034C25.9151 18.8094 26.3589 19.8809 26.3589 21.0206C26.3589 22.1603 25.9151 23.2319 25.1092 24.0378Z" fill="#5518B5"/>
<path d="M4.21209 8.89586H11.5563C11.8472 8.89586 12.083 8.66002 12.083 8.36907C12.083 8.07813 11.8472 7.84229 11.5563 7.84229H4.21209C3.92115 7.84229 3.6853 8.07813 3.6853 8.36907C3.6853 8.66002 3.92115 8.89586 4.21209 8.89586Z" fill="#5518B5"/>
<path d="M13.388 17.3203H4.21209C3.92115 17.3203 3.6853 17.5562 3.6853 17.8471C3.6853 18.138 3.92115 18.3739 4.21209 18.3739H13.388C13.6789 18.3739 13.9147 18.138 13.9147 17.8471C13.9147 17.5562 13.6789 17.3203 13.388 17.3203Z" fill="#5518B5"/>
<path d="M13.388 20.4795H4.21209C3.92115 20.4795 3.6853 20.7153 3.6853 21.0063C3.6853 21.2972 3.92115 21.5331 4.21209 21.5331H13.388C13.6789 21.5331 13.9147 21.2972 13.9147 21.0063C13.9147 20.7153 13.6789 20.4795 13.388 20.4795Z" fill="#5518B5"/>
<path d="M16.35 14.1611H4.21209C3.92115 14.1611 3.6853 14.397 3.6853 14.6879C3.6853 14.9789 3.92115 15.2147 4.21209 15.2147H16.35C16.6409 15.2147 16.8768 14.9789 16.8768 14.6879C16.8768 14.397 16.6409 14.1611 16.35 14.1611Z" fill="#5518B5"/>
<path d="M4.1596 12.0892H13.6636C13.9545 12.0892 14.1904 11.8534 14.1904 11.5624C14.1904 11.2715 13.9545 11.0356 13.6636 11.0356H4.1596C3.86866 11.0356 3.63281 11.2715 3.63281 11.5624C3.63281 11.8534 3.86866 12.0892 4.1596 12.0892Z" fill="#5518B5"/>
<path d="M16.2851 12.0898C16.5762 12.0898 16.8122 11.8538 16.8122 11.5627C16.8122 11.2716 16.5762 11.0356 16.2851 11.0356C15.994 11.0356 15.7581 11.2716 15.7581 11.5627C15.7581 11.8538 15.994 12.0898 16.2851 12.0898Z" fill="#5518B5"/>
<path d="M22.092 17.9893C21.8011 17.9893 21.5652 18.2251 21.5652 18.516V21.6768C21.5652 21.9677 21.8011 22.2036 22.092 22.2036C22.3829 22.2036 22.6188 21.9677 22.6188 21.6768V18.516C22.6188 18.2251 22.3829 17.9893 22.092 17.9893Z" fill="#5518B5"/>
<path d="M22.092 22.7017C21.8011 22.7017 21.5652 22.9375 21.5652 23.2284V23.2571C21.5652 23.548 21.8011 23.7838 22.092 23.7838C22.3829 23.7838 22.6188 23.548 22.6188 23.2571V23.2284C22.6188 22.9375 22.3829 22.7017 22.092 22.7017Z" fill="#5518B5"/>
</svg>
