<svg width="30" height="30" viewBox="0 0 30 30" fill="none" xmlns="http://www.w3.org/2000/svg">
<path d="M5.97622 14.2861C4.70185 15.8777 4 17.8987 4 19.9767C4 24.9522 8.04787 29.0001 13.0233 29.0001C17.9988 29.0001 22.0467 24.9522 22.0467 19.9767C22.0467 17.8986 21.3448 15.8777 20.0705 14.2861L13.0234 5.48474L5.97622 14.2861ZM20.4061 19.9767C20.4061 24.0476 17.0942 27.3595 13.0234 27.3595C8.95256 27.3595 5.64066 24.0476 5.64066 19.9767C5.64066 18.27 6.21466 16.6132 7.25694 15.3116L13.0234 8.10966L18.7899 15.3116C19.8321 16.6132 20.4061 18.27 20.4061 19.9767Z" fill="#5518B5"/>
<path d="M8.92186 19.9767H7.28125C7.28125 23.143 9.85717 25.7189 13.0234 25.7189V24.0783C10.7617 24.0783 8.92186 22.2383 8.92186 19.9767Z" fill="#5518B5"/>
<path d="M26.9687 7.61749C26.9687 6.67578 26.6595 5.79166 26.0744 5.06038L22.8671 1.00009L19.6599 5.06044C19.0749 5.79166 18.7656 6.67583 18.7656 7.61754C18.7656 9.87912 20.6056 11.7191 22.8671 11.7191C25.1287 11.7191 26.9687 9.87907 26.9687 7.61749ZM20.4062 7.61749C20.4062 7.05164 20.5916 6.52129 20.9422 6.08368L22.8671 3.64683L24.7921 6.08368C25.1427 6.52123 25.3281 7.05159 25.3281 7.61749C25.3281 8.97444 24.2241 10.0784 22.8671 10.0784C21.5102 10.0784 20.4062 8.97444 20.4062 7.61749Z" fill="#CF1E2E"/>
</svg>
