<svg width="30" height="30" viewBox="0 0 30 30" fill="none" xmlns="http://www.w3.org/2000/svg">
<g clip-path="url(#clip0_6733_19829)">
<path d="M27.6496 5.24796H11.8632C11.7135 4.4055 10.9798 3.76266 10.095 3.76266H4.73246C3.84765 3.76266 3.11396 4.4055 2.96426 5.24796H2.34945C1.385 5.24796 0.599854 6.03312 0.599854 6.99762V23.0002C0.599854 23.9652 1.385 24.7503 2.34945 24.7503H2.96408C3.11318 25.5937 3.84705 26.2374 4.73246 26.2374H10.095C10.9804 26.2374 11.7143 25.5937 11.8633 24.7503H27.6496C28.6147 24.7503 29.3998 23.9652 29.3998 23.0002V6.99762C29.3998 6.03312 28.6147 5.24796 27.6496 5.24796ZM1.79985 23.0002V6.99762C1.79985 6.69468 2.0465 6.44796 2.34945 6.44796H2.93246V23.5503H2.34945C2.0465 23.5503 1.79985 23.3036 1.79985 23.0002ZM10.695 24.4375C10.695 24.7685 10.426 25.0375 10.095 25.0375H4.73246C4.40138 25.0375 4.13246 24.7685 4.13246 24.4375C4.13246 18.3008 4.13246 11.5268 4.13246 5.56266C4.13246 5.23158 4.40138 4.96266 4.73246 4.96266H10.095C10.426 4.96266 10.695 5.23158 10.695 5.56266V24.4375ZM28.1998 23.0002C28.1998 23.3089 27.9584 23.5503 27.6496 23.5503H11.895V6.44796H27.6496C27.9532 6.44796 28.1998 6.69468 28.1998 6.99762V23.0002Z" fill="#5518B5" stroke="#5518B5" stroke-width="0.2"/>
<path d="M25.4782 8.31482H14.4257C14.094 8.31482 13.8257 8.58314 13.8257 8.91482V12.9396C13.8257 13.2712 14.094 13.5396 14.4257 13.5396H25.4782C25.8098 13.5396 26.0782 13.2712 26.0782 12.9396V8.91482C26.0782 8.58314 25.8098 8.31482 25.4782 8.31482ZM24.8782 12.3396H15.0257V9.51482H24.8782V12.3396Z" fill="#5518B5"/>
<path d="M16.9487 15.2025H15.5114C15.1798 15.2025 14.9114 15.4708 14.9114 15.8025C14.9114 16.1341 15.1798 16.4025 15.5114 16.4025H16.9487C17.2804 16.4025 17.5487 16.1341 17.5487 15.8025C17.5487 15.4708 17.2804 15.2025 16.9487 15.2025Z" fill="#CF1E2E"/>
<path d="M20.6706 15.2025H19.2333C18.9016 15.2025 18.6333 15.4708 18.6333 15.8025C18.6333 16.1341 18.9016 16.4025 19.2333 16.4025H20.6706C21.0022 16.4025 21.2706 16.1341 21.2706 15.8025C21.2706 15.4708 21.0022 15.2025 20.6706 15.2025Z" fill="#CF1E2E"/>
<path d="M24.3925 15.2025H22.9552C22.6236 15.2025 22.3552 15.4708 22.3552 15.8025C22.3552 16.1341 22.6236 16.4025 22.9552 16.4025H24.3925C24.7241 16.4025 24.9925 16.1341 24.9925 15.8025C24.9925 15.4708 24.7241 15.2025 24.3925 15.2025Z" fill="#CF1E2E"/>
<path d="M16.9487 17.9816H15.5114C15.1798 17.9816 14.9114 18.25 14.9114 18.5816C14.9114 18.9132 15.1798 19.1816 15.5114 19.1816H16.9487C17.2804 19.1816 17.5487 18.9132 17.5487 18.5816C17.5487 18.25 17.2804 17.9816 16.9487 17.9816Z" fill="#CF1E2E"/>
<path d="M20.6706 17.9816H19.2333C18.9016 17.9816 18.6333 18.25 18.6333 18.5816C18.6333 18.9132 18.9016 19.1816 19.2333 19.1816H20.6706C21.0022 19.1816 21.2706 18.9132 21.2706 18.5816C21.2706 18.25 21.0022 17.9816 20.6706 17.9816Z" fill="#CF1E2E"/>
<path d="M24.3925 17.9816H22.9552C22.6236 17.9816 22.3552 18.25 22.3552 18.5816C22.3552 18.9132 22.6236 19.1816 22.9552 19.1816H24.3925C24.7241 19.1816 24.9925 18.9132 24.9925 18.5816C24.9925 18.25 24.7241 17.9816 24.3925 17.9816Z" fill="#CF1E2E"/>
<path d="M16.9487 20.7607H15.5114C15.1798 20.7607 14.9114 21.0291 14.9114 21.3607C14.9114 21.6924 15.1798 21.9607 15.5114 21.9607H16.9487C17.2804 21.9607 17.5487 21.6924 17.5487 21.3607C17.5487 21.0291 17.2804 20.7607 16.9487 20.7607Z" fill="#CF1E2E"/>
<path d="M20.6706 20.7607H19.2333C18.9016 20.7607 18.6333 21.0291 18.6333 21.3607C18.6333 21.6924 18.9016 21.9607 19.2333 21.9607H20.6706C21.0022 21.9607 21.2706 21.6924 21.2706 21.3607C21.2706 21.0291 21.0022 20.7607 20.6706 20.7607Z" fill="#CF1E2E"/>
<path d="M24.3925 20.7607H22.9552C22.6236 20.7607 22.3552 21.0291 22.3552 21.3607C22.3552 21.6924 22.6236 21.9607 22.9552 21.9607H24.3925C24.7241 21.9607 24.9925 21.6924 24.9925 21.3607C24.9925 21.0291 24.7241 20.7607 24.3925 20.7607Z" fill="#CF1E2E"/>
</g>
<defs>
<clipPath id="clip0_6733_19829">
<rect width="30" height="30" fill="white" transform="translate(-0.000244141 6.10352e-05)"/>
</clipPath>
</defs>
</svg>
