<svg width="30" height="30" viewBox="0 0 30 30" fill="none" xmlns="http://www.w3.org/2000/svg">
<g clip-path="url(#clip0_6733_20026)">
<path d="M17.5493 25.983V14.7935C17.5493 14.4135 17.2409 14.1052 16.861 14.1052C16.481 14.1052 16.1727 14.4135 16.1727 14.7935V25.983C16.1727 26.3629 16.481 26.6713 16.861 26.6713C17.2416 26.6712 17.5493 26.3629 17.5493 25.983Z" fill="#5518B5" stroke="#5518B5" stroke-width="0.1"/>
<path d="M21.3508 25.983V14.7935C21.3508 14.4135 21.0424 14.1052 20.6625 14.1052C20.2825 14.1052 19.9742 14.4135 19.9742 14.7935V25.983C19.9742 26.3629 20.2825 26.6713 20.6625 26.6713C21.0424 26.6713 21.3508 26.3629 21.3508 25.983Z" fill="#5518B5" stroke="#5518B5" stroke-width="0.1"/>
<path d="M28.548 29.1742V25.983C28.548 25.603 28.2396 25.2947 27.8597 25.2947H25.0745V13.5105C25.0745 13.1305 24.7661 12.8222 24.3862 12.8222C24.0062 12.8222 23.6979 13.1305 23.6979 13.5105V25.983C23.6979 26.3629 24.0062 26.6713 24.3862 26.6713H27.1714V28.4861H2.82881V26.6713H5.61274C5.99268 26.6713 6.30105 26.3629 6.30105 25.983V13.5105C6.30105 13.1306 5.99268 12.8222 5.61274 12.8222C5.2328 12.8222 4.92444 13.1306 4.92444 13.5105V25.2947H2.1405C1.76056 25.2947 1.4522 25.6031 1.4522 25.983V29.1744C1.4522 29.5544 1.76056 29.8627 2.1405 29.8627H27.8597C28.2403 29.8625 28.548 29.5542 28.548 29.1742Z" fill="#5518B5" stroke="#5518B5" stroke-width="0.1"/>
<path d="M10.0253 25.983V14.7935C10.0253 14.4135 9.71698 14.1052 9.33704 14.1052C8.95709 14.1052 8.64873 14.4135 8.64873 14.7935V25.983C8.64873 26.3629 8.95709 26.6713 9.33704 26.6713C9.71697 26.6712 10.0253 26.3629 10.0253 25.983Z" fill="#5518B5" stroke="#5518B5" stroke-width="0.1"/>
<path d="M13.8264 25.983V14.7935C13.8264 14.4135 13.518 14.1052 13.1381 14.1052C12.7581 14.1052 12.4498 14.4135 12.4498 14.7935V25.983C12.4498 26.3629 12.7581 26.6713 13.1381 26.6713C13.5181 26.6712 13.8264 26.3629 13.8264 25.983Z" fill="#5518B5" stroke="#5518B5" stroke-width="0.1"/>
<path d="M29.0192 10.627L29.0192 10.6271C28.9324 10.8809 28.683 11.0501 28.4041 11.0501H1.5962C1.3161 11.0501 1.06593 10.8798 0.98048 10.6252C0.980472 10.6252 0.980464 10.6251 0.980456 10.6251L1.02786 10.6092L29.0192 10.627ZM29.0192 10.627C29.1055 10.3724 29.0062 10.0965 28.7768 9.94364M29.0192 10.627L28.7768 9.94364M28.7768 9.94364C28.7768 9.94364 28.7768 9.94363 28.7768 9.94363M28.7768 9.94364L28.7768 9.94363M28.7768 9.94363L15.4607 1.06219M28.7768 9.94363L15.4607 1.06219M15.4607 1.06219C15.2385 0.913394 14.9414 0.912814 14.7186 1.0597L15.4607 1.06219ZM3.6503 9.83116L15.0854 2.3038L26.3726 9.83116H3.6503Z" fill="#CF1E2E" stroke="#CF1E2E" stroke-width="0.1"/>
</g>
<defs>
<clipPath id="clip0_6733_20026">
<rect width="30" height="30" fill="white"/>
</clipPath>
</defs>
</svg>
