<svg width="80" height="80" viewBox="0 0 80 80" fill="none" xmlns="http://www.w3.org/2000/svg">
<circle opacity="0.1" cx="40" cy="40.0001" r="40" fill="#F39C12"/>
<g clip-path="url(#clip0_1793_14733)">
<path d="M55.5877 49.3996L42.4618 27.6314C41.9447 26.7738 41.0014 26.2411 40 26.2411C38.9985 26.2411 38.0552 26.7738 37.538 27.6314L24.4122 49.3996C23.8778 50.286 23.862 51.3965 24.3709 52.2977C24.88 53.199 25.8391 53.7589 26.8741 53.7589H53.1258C54.1608 53.7589 55.12 53.199 55.6291 52.2977C56.138 51.3964 56.1222 50.2859 55.5877 49.3996ZM53.815 51.2732C53.6748 51.5213 53.4108 51.6755 53.1258 51.6755H26.8741C26.5892 51.6755 26.3251 51.5214 26.185 51.2733C26.0449 51.0252 26.0493 50.7194 26.1963 50.4755L39.3223 28.7072C39.4647 28.4712 39.7243 28.3245 40 28.3245C40.2757 28.3245 40.5353 28.4712 40.6777 28.7072L53.8035 50.4755C53.9507 50.7195 53.9551 51.0252 53.815 51.2732Z" fill="#F39C12"/>
<path d="M40.0096 34.8128C39.2171 34.8128 38.5986 35.2381 38.5986 35.9919C38.5986 38.2921 38.8692 41.5973 38.8692 43.8975C38.8693 44.4967 39.3912 44.7479 40.0097 44.7479C40.4736 44.7479 41.1308 44.4967 41.1308 43.8975C41.1308 41.5974 41.4013 38.2921 41.4013 35.9919C41.4013 35.2381 40.7635 34.8128 40.0096 34.8128Z" fill="#F39C12"/>
<path d="M40.0289 46.0816C39.1785 46.0816 38.5405 46.7581 38.5405 47.57C38.5405 48.3625 39.1784 49.0584 40.0289 49.0584C40.8214 49.0584 41.498 48.3625 41.498 47.57C41.498 46.7581 40.8213 46.0816 40.0289 46.0816Z" fill="#F39C12"/>
</g>
<defs>
<clipPath id="clip0_1793_14733">
<rect width="32" height="32" fill="white" transform="translate(24 24)"/>
</clipPath>
</defs>
</svg>
