<svg width="30" height="30" viewBox="0 0 30 30" fill="none" xmlns="http://www.w3.org/2000/svg">
<rect x="1.99997" y="3" width="25" height="24" fill="#21084A"/>
<path d="M4.50038 2.05H25.0721C26.9746 2.05 28.5225 3.5979 28.5225 5.50041V24.4996C28.5225 26.4021 26.9746 27.95 25.0721 27.95H4.50038C2.59787 27.95 1.04997 26.4021 1.04997 24.4996V5.50041C1.04997 3.5979 2.59787 2.05 4.50038 2.05ZM25.0721 26.4344C26.139 26.4344 27.0069 25.5665 27.0069 24.4996V5.50041C27.0069 4.4335 26.139 3.56558 25.0721 3.56558H4.50038C3.43347 3.56558 2.56555 4.4335 2.56555 5.50041V24.4996C2.56555 25.5665 3.43347 26.4344 4.50038 26.4344H25.0721Z" fill="#21084A" stroke="#21084A" stroke-width="0.1"/>
<path d="M13.4937 17.2336H13.4592L13.4469 17.2658L12.8537 18.8235H11.232L14.1455 11.1736L15.4492 11.1723L18.3366 18.8234H16.7167L16.129 17.266L16.1168 17.2336H16.0822H13.4937ZM14.8407 13.8522L14.7941 13.7288L14.7472 13.852L14.0623 15.6503L14.0364 15.7181H14.109H15.4725H15.5448L15.5193 15.6504L14.8407 13.8522Z" fill="white" stroke="white" stroke-width="0.1"/>
<path d="M20.5816 13.4819L20.6235 13.5461L20.6654 13.4818L22.1695 11.1712H23.978L21.3898 15.147L21.3817 15.1594L21.3817 15.1742L21.3727 18.829L19.8571 18.8253L19.8661 15.1732L19.8661 15.1582L19.858 15.1457L17.2627 11.1712H19.0727L20.5816 13.4819Z" fill="white" stroke="white" stroke-width="0.1"/>
<path d="M8.05441 16.1564L8.00466 16.1566V16.2064V18.8272H6.48909V11.1726L8.95615 11.1728C10.3486 11.1728 11.4803 12.2905 11.4803 13.663C11.4803 15.0354 10.3486 16.1531 8.95615 16.1532C8.74701 16.1532 8.38807 16.1547 8.05441 16.1564ZM8.05703 12.6884H8.00689L8.00703 12.7385C8.00735 12.8484 8.00778 13.0323 8.00829 13.2443C8.00944 13.7256 8.01094 14.3522 8.0121 14.5909L8.01234 14.6409L8.06234 14.6407C8.39393 14.6391 8.74794 14.6375 8.95615 14.6375C9.50168 14.6375 9.96468 14.1935 9.96468 13.663C9.96468 13.1324 9.50162 12.6884 8.95615 12.6884H8.05703Z" fill="white" stroke="white" stroke-width="0.1"/>
</svg>
