<svg width="30" height="30" viewBox="0 0 30 30" fill="none" xmlns="http://www.w3.org/2000/svg">
<g clip-path="url(#clip0_3948_636)">
<path d="M1.15405 15C1.15405 22.6351 7.36515 28.8461 15.0002 28.8461C22.6353 28.8461 28.8464 22.6351 28.8464 15C28.8497 13.1687 28.4876 11.3551 27.7808 9.6656C27.6623 9.38967 27.3436 9.26041 27.0664 9.37622C26.7893 9.49234 26.6569 9.80983 26.7703 10.0882C27.4212 11.6439 27.7546 13.3138 27.7512 15C27.7512 22.0309 22.0312 27.751 15.0002 27.751C7.96927 27.751 2.24923 22.0309 2.24923 15C2.24923 7.96906 7.96927 2.24902 15.0002 2.24902C16.4291 2.24719 17.8482 2.48646 19.1976 2.95612C19.3824 3.02182 19.5887 2.98332 19.7375 2.85559C19.8863 2.72755 19.9554 2.52954 19.9184 2.33672C19.8815 2.14391 19.7439 1.98562 19.5582 1.92206C18.0929 1.41175 16.5519 1.15202 15.0002 1.15385C7.36515 1.15385 1.15405 7.36494 1.15405 15H1.15405Z" fill="#21084A" stroke="#21084A" stroke-width="0.8"/>
<path d="M19.417 9.0648C19.417 8.76228 19.1719 8.51721 18.8694 8.51721H11.1311C10.8286 8.51721 10.5835 8.76228 10.5835 9.0648C10.5835 9.36732 10.8286 9.61239 11.1311 9.61239H13.3453C14.665 9.61392 15.8012 10.5441 16.0633 11.8376H11.1311C10.8286 11.8376 10.5835 12.0827 10.5835 12.3852C10.5835 12.6874 10.8286 12.9328 11.1311 12.9328H16.0633C15.8012 14.226 14.665 15.1558 13.3453 15.1576H11.1311C10.9068 15.1576 10.7054 15.2945 10.6223 15.5026C10.5395 15.711 10.5921 15.9488 10.7549 16.1031L16.2895 21.333C16.4316 21.4681 16.6351 21.517 16.823 21.461C17.0106 21.4051 17.1545 21.2529 17.1998 21.0623C17.2447 20.8716 17.1845 20.6711 17.0418 20.537L12.5077 16.2525H13.3453C15.2689 16.2501 16.8991 14.8362 17.1738 12.9325H18.8694C19.1719 12.9325 19.417 12.6871 19.417 12.3849C19.417 12.0823 19.1719 11.8373 18.8694 11.8373H17.1738C17.0522 10.9902 16.6528 10.2073 16.0383 9.61208H18.8694C19.1719 9.61208 19.417 9.36701 19.417 9.0648Z" fill="#21084A" stroke="#21084A" stroke-width="0.8"/>
<path d="M20.4287 4.71498C20.2148 4.50108 19.868 4.50108 19.6541 4.71498C19.4405 4.92888 19.4405 5.27571 19.6541 5.48961L22.2023 8.03779C22.4128 8.24833 22.7526 8.252 22.9677 8.04665L27.46 3.75578C27.6788 3.54677 27.6867 3.20025 27.478 2.98146C27.269 2.76297 26.9225 2.75503 26.7037 2.96374L22.5983 6.88486L20.4287 4.71498Z" fill="#21084A" stroke="#21084A" stroke-width="0.8"/>
</g>
<defs>
<clipPath id="clip0_3948_636">
<rect width="30" height="30" fill="white" transform="translate(0.000244141 -3.05176e-05)"/>
</clipPath>
</defs>
</svg>
