<svg width="60" height="60" viewBox="0 0 60 60" fill="none" xmlns="http://www.w3.org/2000/svg">
<rect x="0.000244141" y="6.10352e-05" width="60" height="60" rx="10" fill="white"/>
<g clip-path="url(#clip0_1173_2367)">
<path d="M44.1213 29.1211C43.6359 29.1211 43.2424 29.5146 43.2424 30V30.8789H36.5741C35.9969 30.0183 35.2554 29.2768 34.3948 28.6996V23.8477H35.2737C35.7591 23.8477 36.1526 23.4541 36.1526 22.9688C36.1526 22.4834 35.7591 22.0898 35.2737 22.0898H34.3948V17.6953C34.3948 17.2099 34.0013 16.8164 33.5159 16.8164H26.4846C25.9992 16.8164 25.6057 17.2099 25.6057 17.6953V22.0898H24.7268C24.2414 22.0898 23.8479 22.4834 23.8479 22.9688C23.8479 23.4541 24.2414 23.8477 24.7268 23.8477H25.6057V28.6996C24.7451 29.2768 24.0036 30.0183 23.4264 30.8789H16.7581V30C16.7581 29.5146 16.3645 29.1211 15.8792 29.1211C15.3938 29.1211 15.0002 29.5146 15.0002 30V40.5469C15.0002 41.0323 15.3938 41.4258 15.8792 41.4258C16.3645 41.4258 16.7581 41.0323 16.7581 40.5469V39.668H23.4264C24.8472 41.7864 27.2635 43.1836 30.0002 43.1836C32.737 43.1836 35.1534 41.7864 36.5741 39.668H43.2424V40.5469C43.2424 41.0323 43.6359 41.4258 44.1213 41.4258C44.6067 41.4258 45.0002 41.0323 45.0002 40.5469V30C45.0002 29.5146 44.6067 29.1211 44.1213 29.1211ZM27.3635 18.5742H32.637V22.0898H27.3635V18.5742ZM27.3635 23.8477H32.637V27.8157C31.8118 27.5231 30.9244 27.3633 30.0002 27.3633C29.0761 27.3633 28.1886 27.5231 27.3635 27.8157V23.8477ZM16.7581 37.9102V32.6367H22.5425C22.2499 33.4618 22.0901 34.3492 22.0901 35.2734C22.0901 36.1976 22.2499 37.085 22.5425 37.9102H16.7581ZM30.0002 41.4258C26.6078 41.4258 23.8479 38.6658 23.8479 35.2734C23.8479 31.881 26.6078 29.1211 30.0002 29.1211C33.3926 29.1211 36.1526 31.881 36.1526 35.2734C36.1526 38.6658 33.3926 41.4258 30.0002 41.4258ZM37.4579 37.9102C37.7506 37.085 37.9104 36.1976 37.9104 35.2734C37.9104 34.3492 37.7506 33.4618 37.4579 32.6367H43.2424V37.9102H37.4579Z" fill="#5518B5" stroke="white" stroke-width="0.4"/>
<path d="M31.8647 32.166L31.1364 32.8944C30.7921 32.7293 30.4069 32.6367 30.0003 32.6367C28.5464 32.6367 27.3636 33.8195 27.3636 35.2734C27.3636 35.6799 27.4562 36.0653 27.6213 36.4095L26.8929 37.1379C26.5497 37.4811 26.5497 38.0376 26.8929 38.3808C27.2361 38.7241 27.7926 38.7241 28.1358 38.3808L28.8642 37.6524C29.2085 37.8175 29.5937 37.9101 30.0003 37.9101C31.4542 37.9101 32.637 36.7273 32.637 35.2734C32.637 34.8668 32.5444 34.4816 32.3793 34.1374L33.1077 33.409C33.4509 33.0657 33.4509 32.5093 33.1077 32.166C32.7645 31.8228 32.208 31.8228 31.8647 32.166ZM30.0003 36.1523C29.5157 36.1523 29.1214 35.7581 29.1214 35.2734C29.1214 34.7888 29.5157 34.3945 30.0003 34.3945C30.4849 34.3945 30.8792 34.7888 30.8792 35.2734C30.8792 35.7581 30.4849 36.1523 30.0003 36.1523Z" fill="#CF1E2E" stroke="white" stroke-width="0.4"/>
</g>
<defs>
<clipPath id="clip0_1173_2367">
<rect width="30" height="30" fill="white" transform="translate(15.0002 15)"/>
</clipPath>
</defs>
</svg>
