<svg width="257" height="212" viewBox="0 0 257 212" fill="none" xmlns="http://www.w3.org/2000/svg">
<rect x="20" y="163" width="237" height="1" fill="#E1E2F2"/>
<rect x="25" y="1.00022" width="1" height="168" fill="#E1E2F2"/>
<path d="M10.5513 168.14C9.90728 168.14 9.36128 168.042 8.91328 167.846C8.47461 167.641 8.11528 167.361 7.83528 167.006C7.55528 166.652 7.34995 166.246 7.21928 165.788C7.09795 165.331 7.02795 164.846 7.00928 164.332C6.99995 164.08 6.99061 163.814 6.98128 163.534C6.98128 163.254 6.98128 162.974 6.98128 162.694C6.99061 162.405 6.99995 162.13 7.00928 161.868C7.01861 161.355 7.08861 160.87 7.21928 160.412C7.35928 159.946 7.56461 159.54 7.83528 159.194C8.11528 158.84 8.47928 158.564 8.92728 158.368C9.37528 158.163 9.91661 158.06 10.5513 158.06C11.1953 158.06 11.7366 158.163 12.1753 158.368C12.6233 158.564 12.9873 158.84 13.2673 159.194C13.5473 159.54 13.7526 159.946 13.8833 160.412C14.0233 160.87 14.0979 161.355 14.1073 161.868C14.1166 162.13 14.1213 162.405 14.1213 162.694C14.1306 162.974 14.1306 163.254 14.1213 163.534C14.1213 163.814 14.1166 164.08 14.1073 164.332C14.0979 164.846 14.0233 165.331 13.8833 165.788C13.7526 166.246 13.5473 166.652 13.2673 167.006C12.9966 167.361 12.6373 167.641 12.1893 167.846C11.7506 168.042 11.2046 168.14 10.5513 168.14ZM10.5513 166.95C11.2793 166.95 11.8159 166.712 12.1613 166.236C12.5159 165.751 12.6979 165.093 12.7073 164.262C12.7259 163.992 12.7353 163.73 12.7353 163.478C12.7353 163.217 12.7353 162.96 12.7353 162.708C12.7353 162.447 12.7259 162.19 12.7073 161.938C12.6979 161.126 12.5159 160.478 12.1613 159.992C11.8159 159.498 11.2793 159.25 10.5513 159.25C9.83261 159.25 9.29595 159.498 8.94128 159.992C8.59595 160.478 8.41395 161.126 8.39528 161.938C8.39528 162.19 8.39061 162.447 8.38128 162.708C8.38128 162.96 8.38128 163.217 8.38128 163.478C8.39061 163.73 8.39528 163.992 8.39528 164.262C8.41395 165.093 8.60061 165.751 8.95528 166.236C9.30995 166.712 9.84195 166.95 10.5513 166.95Z" fill="#9395BE"/>
<path d="M6.65697 137C6.56363 137 6.4843 136.972 6.41897 136.916C6.36297 136.851 6.33497 136.772 6.33497 136.678L6.33497 128.838L4.01097 130.63C3.9363 130.686 3.85697 130.71 3.77297 130.7C3.68897 130.691 3.61897 130.649 3.56297 130.574L3.19897 130.112C3.14297 130.028 3.11963 129.944 3.12897 129.86C3.14763 129.776 3.1943 129.706 3.26897 129.65L6.32097 127.298C6.3863 127.252 6.44697 127.224 6.50297 127.214C6.55897 127.205 6.61964 127.2 6.68497 127.2L7.39897 127.2C7.4923 127.2 7.56697 127.233 7.62297 127.298C7.67897 127.354 7.70697 127.429 7.70697 127.522L7.70697 136.678C7.70697 136.772 7.67897 136.851 7.62297 136.916C7.56697 136.972 7.4923 137 7.39897 137L6.65697 137ZM10.1532 137C10.0599 137 9.98058 136.972 9.91525 136.916C9.85925 136.851 9.83125 136.772 9.83125 136.678L9.83125 127.382C9.83125 127.289 9.85925 127.214 9.91525 127.158C9.98058 127.093 10.0599 127.06 10.1532 127.06L10.8112 127.06C10.9046 127.06 10.9792 127.093 11.0352 127.158C11.1006 127.214 11.1332 127.289 11.1332 127.382L11.1332 132.254L13.8912 129.958C14.0032 129.865 14.0872 129.804 14.1432 129.776C14.2086 129.739 14.3112 129.72 14.4512 129.72L15.1932 129.72C15.2772 129.72 15.3472 129.748 15.4032 129.804C15.4592 129.86 15.4872 129.93 15.4872 130.014C15.4872 130.052 15.4732 130.094 15.4452 130.14C15.4266 130.187 15.3846 130.234 15.3192 130.28L12.0852 132.968L15.6692 136.454C15.7812 136.548 15.8372 136.632 15.8372 136.706C15.8372 136.79 15.8092 136.86 15.7532 136.916C15.6972 136.972 15.6272 137 15.5432 137L14.8152 137C14.6752 137 14.5726 136.986 14.5072 136.958C14.4419 136.921 14.3579 136.856 14.2552 136.762L11.1332 133.78L11.1332 136.678C11.1332 136.772 11.1006 136.851 11.0352 136.916C10.9792 136.972 10.9046 137 10.8112 137L10.1532 137Z" fill="#9395BE"/>
<path d="M1.57245 106C1.47912 106 1.39978 105.972 1.33445 105.916C1.27845 105.851 1.25045 105.772 1.25045 105.678L1.25045 105.23C1.25045 105.146 1.27378 105.053 1.32045 104.95C1.36712 104.848 1.46045 104.736 1.60045 104.614L4.56845 101.646C5.04445 101.245 5.41779 100.904 5.68845 100.624C5.96845 100.335 6.16445 100.06 6.27645 99.7982C6.39779 99.5369 6.45845 99.2662 6.45845 98.9862C6.45845 98.4542 6.30912 98.0342 6.01045 97.7262C5.71179 97.4089 5.26845 97.2502 4.68045 97.2502C4.30712 97.2502 3.98512 97.3295 3.71445 97.4882C3.44379 97.6375 3.22912 97.8475 3.07045 98.1182C2.92112 98.3795 2.82312 98.6782 2.77645 99.0142C2.75779 99.1355 2.70645 99.2195 2.62245 99.2662C2.54779 99.3128 2.47779 99.3362 2.41245 99.3362L1.68445 99.3362C1.60045 99.3362 1.53045 99.3128 1.47445 99.2662C1.41845 99.2102 1.39045 99.1448 1.39045 99.0702C1.39979 98.7155 1.47445 98.3608 1.61445 98.0062C1.75445 97.6422 1.95979 97.3155 2.23045 97.0262C2.51045 96.7368 2.85112 96.5035 3.25245 96.3262C3.66312 96.1395 4.13912 96.0462 4.68045 96.0462C5.41779 96.0462 6.01979 96.1815 6.48645 96.4522C6.96245 96.7135 7.31245 97.0635 7.53645 97.5022C7.76045 97.9409 7.87245 98.4215 7.87245 98.9442C7.87245 99.3549 7.80245 99.7329 7.66245 100.078C7.52245 100.414 7.31712 100.746 7.04645 101.072C6.78512 101.39 6.45845 101.716 6.06645 102.052L3.37845 104.782L7.74645 104.782C7.84912 104.782 7.92845 104.81 7.98445 104.866C8.04978 104.922 8.08245 105.002 8.08245 105.104L8.08245 105.678C8.08245 105.772 8.04978 105.851 7.98445 105.916C7.92845 105.972 7.84912 106 7.74645 106L1.57245 106ZM10.1532 106C10.0599 106 9.98058 105.972 9.91525 105.916C9.85925 105.851 9.83125 105.772 9.83125 105.678L9.83125 96.3822C9.83125 96.2889 9.85925 96.2142 9.91525 96.1582C9.98058 96.0929 10.0599 96.0602 10.1532 96.0602L10.8112 96.0602C10.9046 96.0602 10.9792 96.0929 11.0352 96.1582C11.1006 96.2142 11.1332 96.2889 11.1332 96.3822L11.1332 101.254L13.8912 98.9582C14.0032 98.8649 14.0872 98.8042 14.1432 98.7762C14.2086 98.7389 14.3112 98.7202 14.4512 98.7202L15.1932 98.7202C15.2772 98.7202 15.3472 98.7482 15.4032 98.8042C15.4592 98.8602 15.4872 98.9302 15.4872 99.0142C15.4872 99.0515 15.4732 99.0935 15.4452 99.1402C15.4266 99.1869 15.3846 99.2335 15.3192 99.2802L12.0852 101.968L15.6692 105.454C15.7812 105.548 15.8372 105.632 15.8372 105.706C15.8372 105.79 15.8092 105.86 15.7532 105.916C15.6972 105.972 15.6272 106 15.5432 106L14.8152 106C14.6752 106 14.5726 105.986 14.5072 105.958C14.4419 105.921 14.3579 105.856 14.2552 105.762L11.1332 102.78L11.1332 105.678C11.1332 105.772 11.1006 105.851 11.0352 105.916C10.9792 105.972 10.9046 106 10.8112 106L10.1532 106Z" fill="#9395BE"/>
<path d="M4.54504 75.1402C3.95704 75.1402 3.44371 75.0702 3.00504 74.9302C2.56638 74.7809 2.19771 74.5849 1.89904 74.3422C1.60038 74.0995 1.37171 73.8335 1.21304 73.5442C1.06371 73.2548 0.984378 72.9562 0.975045 72.6482C0.975045 72.5642 1.00305 72.4988 1.05905 72.4522C1.11505 72.4055 1.18505 72.3822 1.26905 72.3822L1.95505 72.3822C2.03905 72.3822 2.11371 72.4009 2.17905 72.4382C2.24438 72.4755 2.30038 72.5549 2.34705 72.6762C2.44038 73.0122 2.59905 73.2735 2.82305 73.4602C3.05638 73.6469 3.32238 73.7775 3.62104 73.8522C3.92904 73.9175 4.23704 73.9502 4.54504 73.9502C5.18904 73.9502 5.71171 73.7962 6.11305 73.4882C6.51438 73.1802 6.71505 72.7275 6.71505 72.1302C6.71505 71.5235 6.53305 71.0895 6.16905 70.8282C5.80505 70.5669 5.30105 70.4362 4.65705 70.4362L3.32705 70.4362C3.23371 70.4362 3.15438 70.4082 3.08905 70.3522C3.03305 70.2962 3.00505 70.2168 3.00505 70.1142L3.00505 69.7362C3.00505 69.6522 3.01905 69.5822 3.04705 69.5262C3.08438 69.4608 3.12171 69.4048 3.15905 69.3582L5.87505 66.3902L1.74505 66.3902C1.65171 66.3902 1.57238 66.3622 1.50705 66.3062C1.45105 66.2502 1.42305 66.1708 1.42305 66.0682L1.42305 65.5362C1.42305 65.4335 1.45105 65.3542 1.50705 65.2982C1.57238 65.2328 1.65171 65.2002 1.74505 65.2002L7.33105 65.2002C7.43371 65.2002 7.51305 65.2329 7.56905 65.2982C7.63438 65.3542 7.66705 65.4335 7.66705 65.5362L7.66705 66.0402C7.66705 66.1055 7.64838 66.1662 7.61105 66.2222C7.58305 66.2689 7.55038 66.3155 7.51305 66.3622L4.81105 69.3722L5.03505 69.3862C5.65105 69.4049 6.18771 69.5169 6.64505 69.7222C7.11171 69.9275 7.47105 70.2355 7.72305 70.6462C7.98438 71.0475 8.11505 71.5562 8.11505 72.1722C8.11505 72.7975 7.96105 73.3342 7.65305 73.7822C7.34505 74.2209 6.92038 74.5569 6.37904 74.7902C5.83771 75.0235 5.22638 75.1402 4.54504 75.1402ZM10.1532 75.0002C10.0599 75.0002 9.98058 74.9722 9.91525 74.9162C9.85925 74.8509 9.83125 74.7715 9.83125 74.6782L9.83125 65.3822C9.83125 65.2889 9.85925 65.2142 9.91525 65.1582C9.98058 65.0929 10.0599 65.0602 10.1532 65.0602L10.8112 65.0602C10.9046 65.0602 10.9792 65.0929 11.0352 65.1582C11.1006 65.2142 11.1332 65.2889 11.1332 65.3822L11.1332 70.2542L13.8912 67.9582C14.0032 67.8649 14.0872 67.8042 14.1432 67.7762C14.2086 67.7389 14.3112 67.7202 14.4512 67.7202L15.1932 67.7202C15.2772 67.7202 15.3472 67.7482 15.4032 67.8042C15.4592 67.8602 15.4872 67.9302 15.4872 68.0142C15.4872 68.0515 15.4732 68.0935 15.4452 68.1402C15.4266 68.1869 15.3846 68.2335 15.3192 68.2802L12.0852 70.9682L15.6692 74.4542C15.7812 74.5475 15.8372 74.6315 15.8372 74.7062C15.8372 74.7902 15.8092 74.8602 15.7532 74.9162C15.6972 74.9722 15.6272 75.0002 15.5432 75.0002L14.8152 75.0002C14.6752 75.0002 14.5726 74.9862 14.5072 74.9582C14.4419 74.9209 14.3579 74.8555 14.2552 74.7622L11.1332 71.7802L11.1332 74.6782C11.1332 74.7715 11.1006 74.8509 11.0352 74.9162C10.9792 74.9722 10.9046 75.0002 10.8112 75.0002L10.1532 75.0002Z" fill="#9395BE"/>
<path d="M5.69994 44.0002C5.6066 44.0002 5.52727 43.9722 5.46194 43.9162C5.40594 43.8509 5.37794 43.7715 5.37794 43.6782L5.37794 41.6622L0.841936 41.6622C0.748602 41.6622 0.669269 41.6342 0.603936 41.5782C0.547936 41.5128 0.519936 41.4335 0.519936 41.3402L0.519936 40.7802C0.519936 40.7428 0.529269 40.6868 0.547936 40.6122C0.575936 40.5282 0.617936 40.4442 0.673936 40.3602L4.87394 34.4382C4.98594 34.2795 5.1586 34.2002 5.39194 34.2002L6.39994 34.2002C6.49327 34.2002 6.56794 34.2329 6.62394 34.2982C6.68927 34.3542 6.72194 34.4289 6.72194 34.5222L6.72194 40.4442L7.98194 40.4442C8.0846 40.4442 8.16394 40.4769 8.21994 40.5422C8.28527 40.5982 8.31794 40.6729 8.31794 40.7662L8.31794 41.3402C8.31794 41.4335 8.28527 41.5129 8.21994 41.5782C8.16394 41.6342 8.08927 41.6622 7.99594 41.6622L6.72194 41.6622L6.72194 43.6782C6.72194 43.7715 6.68927 43.8509 6.62394 43.9162C6.56794 43.9722 6.49327 44.0002 6.39994 44.0002L5.69994 44.0002ZM2.01794 40.4722L5.39194 40.4722L5.39194 35.6702L2.01794 40.4722ZM10.1532 44.0002C10.0599 44.0002 9.98058 43.9722 9.91525 43.9162C9.85925 43.8509 9.83125 43.7715 9.83125 43.6782L9.83125 34.3822C9.83125 34.2889 9.85925 34.2142 9.91525 34.1582C9.98058 34.0929 10.0599 34.0602 10.1532 34.0602L10.8112 34.0602C10.9046 34.0602 10.9792 34.0929 11.0352 34.1582C11.1006 34.2142 11.1332 34.2889 11.1332 34.3822L11.1332 39.2542L13.8912 36.9582C14.0032 36.8649 14.0872 36.8042 14.1432 36.7762C14.2086 36.7389 14.3112 36.7202 14.4512 36.7202L15.1932 36.7202C15.2772 36.7202 15.3472 36.7482 15.4032 36.8042C15.4592 36.8602 15.4872 36.9302 15.4872 37.0142C15.4872 37.0515 15.4732 37.0935 15.4452 37.1402C15.4266 37.1869 15.3846 37.2335 15.3192 37.2802L12.0852 39.9682L15.6692 43.4542C15.7812 43.5475 15.8372 43.6315 15.8372 43.7062C15.8372 43.7902 15.8092 43.8602 15.7532 43.9162C15.6972 43.9722 15.6272 44.0002 15.5432 44.0002L14.8152 44.0002C14.6752 44.0002 14.5726 43.9862 14.5072 43.9582C14.4419 43.9209 14.3579 43.8555 14.2552 43.7622L11.1332 40.7802L11.1332 43.6782C11.1332 43.7715 11.1006 43.8509 11.0352 43.9162C10.9792 43.9722 10.9046 44.0002 10.8112 44.0002L10.1532 44.0002Z" fill="#9395BE"/>
<path d="M4.55675 13.1402C3.81941 13.1402 3.19408 13.0142 2.68075 12.7622C2.17675 12.5009 1.78941 12.1649 1.51875 11.7542C1.25741 11.3435 1.11741 10.9095 1.09875 10.4522C1.08941 10.3682 1.11275 10.3028 1.16875 10.2562C1.22475 10.2095 1.29475 10.1862 1.37875 10.1862L2.13475 10.1862C2.21875 10.1862 2.29341 10.2049 2.35875 10.2422C2.42408 10.2795 2.47541 10.3589 2.51275 10.4802C2.60608 10.8255 2.75541 11.1102 2.96075 11.3342C3.17541 11.5489 3.41808 11.7075 3.68875 11.8102C3.96875 11.9035 4.25808 11.9502 4.55675 11.9502C4.95808 11.9502 5.32208 11.8709 5.64875 11.7122C5.98475 11.5442 6.25075 11.3015 6.44675 10.9842C6.64275 10.6575 6.74075 10.2655 6.74075 9.80818C6.74075 9.38818 6.64275 9.02885 6.44675 8.73018C6.26008 8.42218 5.99875 8.18885 5.66275 8.03018C5.33608 7.86218 4.96742 7.77818 4.55675 7.77818C4.24875 7.77818 3.99675 7.81552 3.80075 7.89018C3.60475 7.96485 3.43675 8.05352 3.29675 8.15618C3.16608 8.25885 3.04475 8.34752 2.93275 8.42218C2.83008 8.49685 2.71342 8.53418 2.58275 8.53418L1.85475 8.53418C1.77075 8.53418 1.69608 8.50618 1.63075 8.45018C1.56542 8.38485 1.53742 8.31018 1.54675 8.22618L1.99475 3.55018C2.00408 3.43818 2.03675 3.35418 2.09275 3.29818C2.15808 3.23285 2.24208 3.20018 2.34475 3.20018L7.23075 3.20018C7.32408 3.20018 7.39875 3.23285 7.45475 3.29818C7.52008 3.35418 7.55275 3.42885 7.55275 3.52218L7.55275 4.06818C7.55275 4.17085 7.52008 4.25018 7.45475 4.30618C7.39875 4.36218 7.32408 4.39018 7.23075 4.39018L3.19875 4.39018L2.93275 7.14818C3.06342 7.06418 3.27342 6.96618 3.56275 6.85418C3.85208 6.73285 4.24875 6.67218 4.75275 6.67218C5.21008 6.67218 5.63942 6.74218 6.04075 6.88218C6.45142 7.02218 6.81542 7.22752 7.13275 7.49818C7.45008 7.76885 7.69742 8.10018 7.87475 8.49218C8.05208 8.87485 8.14075 9.31818 8.14075 9.82218C8.14075 10.5315 7.98208 11.1335 7.66475 11.6282C7.35675 12.1229 6.93208 12.5009 6.39075 12.7622C5.85875 13.0142 5.24741 13.1402 4.55675 13.1402ZM10.1532 13.0002C10.0599 13.0002 9.98058 12.9722 9.91525 12.9162C9.85925 12.8509 9.83125 12.7715 9.83125 12.6782L9.83125 3.38218C9.83125 3.28885 9.85925 3.21418 9.91525 3.15818C9.98058 3.09285 10.0599 3.06018 10.1532 3.06018L10.8112 3.06018C10.9046 3.06018 10.9792 3.09285 11.0352 3.15818C11.1006 3.21418 11.1332 3.28885 11.1332 3.38218L11.1332 8.25418L13.8912 5.95819C14.0032 5.86485 14.0872 5.80419 14.1432 5.77619C14.2086 5.73885 14.3112 5.72019 14.4512 5.72019L15.1932 5.72019C15.2772 5.72019 15.3472 5.74819 15.4032 5.80419C15.4592 5.86019 15.4872 5.93019 15.4872 6.01419C15.4872 6.05152 15.4732 6.09352 15.4452 6.14019C15.4266 6.18685 15.3846 6.23352 15.3192 6.28019L12.0852 8.96818L15.6692 12.4542C15.7812 12.5475 15.8372 12.6315 15.8372 12.7062C15.8372 12.7902 15.8092 12.8602 15.7532 12.9162C15.6972 12.9722 15.6272 13.0002 15.5432 13.0002L14.8152 13.0002C14.6752 13.0002 14.5726 12.9862 14.5072 12.9582C14.4419 12.9209 14.3579 12.8555 14.2552 12.7622L11.1332 9.78018L11.1332 12.6782C11.1332 12.7715 11.1006 12.8509 11.0352 12.9162C10.9792 12.9722 10.9046 13.0002 10.8112 13.0002L10.1532 13.0002Z" fill="#9395BE"/>
<g clip-path="url(#clip0_3134_417)">
<path d="M75 210.386C75 210.479 74.972 210.558 74.916 210.624C74.8507 210.68 74.7713 210.708 74.678 210.708L65.536 210.708C65.4333 210.708 65.354 210.68 65.298 210.624C65.2327 210.558 65.2 210.479 65.2 210.386L65.2 209.686C65.2 209.574 65.228 209.49 65.284 209.434C65.34 209.378 65.3867 209.345 65.424 209.336L71.08 206.368L65.424 203.386C65.3867 203.367 65.34 203.334 65.284 203.288C65.228 203.232 65.2 203.148 65.2 203.036L65.2 202.35C65.2 202.247 65.2327 202.168 65.298 202.112C65.354 202.046 65.4333 202.014 65.536 202.014L74.678 202.014C74.7713 202.014 74.8507 202.046 74.916 202.112C74.972 202.168 75 202.247 75 202.35L75 203.036C75 203.129 74.972 203.208 74.916 203.274C74.8507 203.33 74.7713 203.358 74.678 203.358L67.79 203.358L72.354 205.696C72.4473 205.733 72.522 205.789 72.578 205.864C72.6247 205.938 72.648 206.032 72.648 206.144L72.648 206.578C72.648 206.699 72.6247 206.797 72.578 206.872C72.522 206.937 72.4473 206.993 72.354 207.04L67.79 209.378L74.678 209.378C74.7713 209.378 74.8507 209.41 74.916 209.476C74.972 209.532 75 209.606 75 209.7L75 210.386ZM75.14 196.792C75.14 197.502 75.0047 198.094 74.734 198.57C74.4633 199.046 74.09 199.41 73.614 199.662C73.1287 199.914 72.578 200.054 71.962 200.082C71.8033 200.092 71.6027 200.096 71.36 200.096C71.108 200.096 70.9073 200.092 70.758 200.082C70.1327 200.054 69.582 199.914 69.106 199.662C68.63 199.401 68.2567 199.032 67.986 198.556C67.7153 198.08 67.58 197.492 67.58 196.792C67.58 196.092 67.7153 195.504 67.986 195.028C68.2567 194.552 68.63 194.188 69.106 193.936C69.582 193.675 70.1327 193.53 70.758 193.502C70.9073 193.493 71.108 193.488 71.36 193.488C71.6027 193.488 71.8033 193.493 71.962 193.502C72.578 193.53 73.1287 193.67 73.614 193.922C74.09 194.174 74.4633 194.538 74.734 195.014C75.0047 195.49 75.14 196.083 75.14 196.792ZM74.062 196.792C74.062 196.214 73.88 195.752 73.516 195.406C73.1427 195.061 72.6013 194.874 71.892 194.846C71.752 194.837 71.5747 194.832 71.36 194.832C71.1453 194.832 70.968 194.837 70.828 194.846C70.1187 194.874 69.582 195.061 69.218 195.406C68.8447 195.752 68.658 196.214 68.658 196.792C68.658 197.371 68.8447 197.838 69.218 198.192C69.582 198.538 70.1187 198.72 70.828 198.738C70.968 198.748 71.1453 198.752 71.36 198.752C71.5747 198.752 71.752 198.748 71.892 198.738C72.6013 198.72 73.1427 198.538 73.516 198.192C73.88 197.838 74.062 197.371 74.062 196.792ZM75.14 188.137C75.14 188.697 75.042 189.164 74.846 189.537C74.6407 189.911 74.3887 190.209 74.09 190.433L74.678 190.433C74.7713 190.433 74.8507 190.466 74.916 190.531C74.972 190.587 75 190.662 75 190.755L75 191.399C75 191.493 74.972 191.572 74.916 191.637C74.8507 191.693 74.7713 191.721 74.678 191.721L65.382 191.721C65.2887 191.721 65.214 191.693 65.158 191.637C65.0927 191.572 65.06 191.493 65.06 191.399L65.06 190.727C65.06 190.625 65.0927 190.545 65.158 190.489C65.214 190.433 65.2887 190.405 65.382 190.405L68.602 190.405C68.3127 190.172 68.07 189.873 67.874 189.509C67.678 189.136 67.58 188.679 67.58 188.137C67.58 187.615 67.6733 187.171 67.86 186.807C68.0373 186.434 68.2847 186.131 68.602 185.897C68.9193 185.655 69.2787 185.473 69.68 185.351C70.0813 185.23 70.5013 185.165 70.94 185.155C71.0893 185.146 71.2293 185.141 71.36 185.141C71.4907 185.141 71.6307 185.146 71.78 185.155C72.228 185.165 72.6527 185.23 73.054 185.351C73.4553 185.473 73.8147 185.655 74.132 185.897C74.44 186.131 74.6873 186.434 74.874 186.807C75.0513 187.171 75.14 187.615 75.14 188.137ZM74.006 188.431C74.006 187.946 73.9033 187.568 73.698 187.297C73.4833 187.017 73.208 186.817 72.872 186.695C72.5267 186.574 72.158 186.504 71.766 186.485C71.4953 186.476 71.2247 186.476 70.954 186.485C70.562 186.504 70.198 186.574 69.862 186.695C69.5167 186.817 69.2413 187.017 69.036 187.297C68.8213 187.568 68.714 187.946 68.714 188.431C68.714 188.87 68.8167 189.234 69.022 189.523C69.2273 189.813 69.4887 190.032 69.806 190.181C70.1233 190.321 70.4453 190.396 70.772 190.405C70.9213 190.415 71.1033 190.419 71.318 190.419C71.5233 190.419 71.7007 190.415 71.85 190.405C72.1953 190.387 72.536 190.312 72.872 190.181C73.1987 190.041 73.4693 189.831 73.684 189.551C73.8987 189.262 74.006 188.889 74.006 188.431ZM75 183.322C75 183.415 74.972 183.494 74.916 183.56C74.8507 183.616 74.7713 183.644 74.678 183.644L73.67 183.644C73.5767 183.644 73.502 183.616 73.446 183.56C73.3807 183.494 73.348 183.415 73.348 183.322L73.348 182.314C73.348 182.22 73.3807 182.146 73.446 182.09C73.502 182.024 73.5767 181.992 73.67 181.992L74.678 181.992C74.7713 181.992 74.8507 182.024 74.916 182.09C74.972 182.146 75 182.22 75 182.314L75 183.322ZM75 179.794C75 179.888 74.972 179.967 74.916 180.032C74.8507 180.088 74.7713 180.116 74.678 180.116L73.67 180.116C73.5767 180.116 73.502 180.088 73.446 180.032C73.3807 179.967 73.348 179.888 73.348 179.794L73.348 178.786C73.348 178.693 73.3807 178.618 73.446 178.562C73.502 178.497 73.5767 178.464 73.67 178.464L74.678 178.464C74.7713 178.464 74.8507 178.497 74.916 178.562C74.972 178.618 75 178.693 75 178.786L75 179.794ZM75 176.267C75 176.36 74.972 176.44 74.916 176.505C74.8507 176.561 74.7713 176.589 74.678 176.589L73.67 176.589C73.5767 176.589 73.502 176.561 73.446 176.505C73.3807 176.44 73.348 176.36 73.348 176.267L73.348 175.259C73.348 175.166 73.3807 175.091 73.446 175.035C73.502 174.97 73.5767 174.937 73.67 174.937L74.678 174.937C74.7713 174.937 74.8507 174.97 74.916 175.035C74.972 175.091 75 175.166 75 175.259L75 176.267Z" fill="#9395BE"/>
<path d="M66 73.0002C66 71.3434 67.3431 70.0002 69 70.0002L73 70.0002C74.6569 70.0002 76 71.3434 76 73.0002L76 164L66 164L66 73.0002Z" fill="url(#paint0_linear_3134_417)"/>
<path d="M126 200.009C126 200.112 125.972 200.191 125.916 200.247C125.851 200.303 125.771 200.331 125.678 200.331L116.536 200.331C116.433 200.331 116.354 200.303 116.298 200.247C116.233 200.191 116.2 200.112 116.2 200.009L116.2 196.831C116.2 195.87 116.345 195.095 116.634 194.507C116.923 193.919 117.353 193.49 117.922 193.219C118.482 192.948 119.173 192.808 119.994 192.799C120.414 192.79 120.783 192.785 121.1 192.785C121.417 192.785 121.781 192.79 122.192 192.799C123.051 192.818 123.765 192.962 124.334 193.233C124.894 193.494 125.314 193.914 125.594 194.493C125.865 195.062 126 195.818 126 196.761L126 200.009ZM124.81 198.959L124.81 196.831C124.81 196.187 124.721 195.674 124.544 195.291C124.367 194.908 124.082 194.633 123.69 194.465C123.298 194.288 122.78 194.194 122.136 194.185C121.856 194.166 121.613 194.157 121.408 194.157C121.193 194.157 120.983 194.157 120.778 194.157C120.563 194.157 120.321 194.166 120.05 194.185C119.145 194.204 118.477 194.418 118.048 194.829C117.609 195.24 117.39 195.93 117.39 196.901L117.39 198.959L124.81 198.959ZM126 188.406C126 188.499 125.972 188.579 125.916 188.644C125.851 188.7 125.771 188.728 125.678 188.728L117.446 188.728L117.446 191.416C117.446 191.509 117.418 191.589 117.362 191.654C117.297 191.71 117.217 191.738 117.124 191.738L116.536 191.738C116.433 191.738 116.354 191.71 116.298 191.654C116.233 191.589 116.2 191.509 116.2 191.416L116.2 184.668C116.2 184.565 116.233 184.486 116.298 184.43C116.354 184.365 116.433 184.332 116.536 184.332L117.124 184.332C117.217 184.332 117.297 184.365 117.362 184.43C117.418 184.486 117.446 184.565 117.446 184.668L117.446 187.342L125.678 187.342C125.771 187.342 125.851 187.375 125.916 187.44C125.972 187.496 126 187.575 126 187.678L126 188.406ZM126 182.441C126 182.543 125.972 182.623 125.916 182.679C125.851 182.735 125.771 182.763 125.678 182.763L116.536 182.763C116.433 182.763 116.354 182.735 116.298 182.679C116.233 182.623 116.2 182.543 116.2 182.441L116.2 181.727C116.2 181.624 116.233 181.545 116.298 181.489C116.354 181.423 116.433 181.391 116.536 181.391L120.4 181.391L120.4 176.575L116.536 176.575C116.433 176.575 116.354 176.547 116.298 176.491C116.233 176.425 116.2 176.346 116.2 176.253L116.2 175.539C116.2 175.436 116.233 175.357 116.298 175.301C116.354 175.235 116.433 175.203 116.536 175.203L125.678 175.203C125.771 175.203 125.851 175.235 125.916 175.301C125.972 175.357 126 175.436 126 175.539L126 176.253C126 176.346 125.972 176.425 125.916 176.491C125.851 176.547 125.771 176.575 125.678 176.575L121.66 176.575L121.66 181.391L125.678 181.391C125.771 181.391 125.851 181.423 125.916 181.489C125.972 181.545 126 181.624 126 181.727L126 182.441Z" fill="#9395BE"/>
<path d="M116 130C116 128.343 117.343 127 119 127L123 127C124.657 127 126 128.343 126 130L126 164L116 164L116 130Z" fill="url(#paint1_linear_3134_417)"/>
<path d="M176 205.085C176 205.188 175.967 205.272 175.902 205.337C175.837 205.402 175.753 205.435 175.65 205.435L166.55 205.435C166.447 205.435 166.363 205.402 166.298 205.337C166.233 205.272 166.2 205.188 166.2 205.085L166.2 198.743C166.2 198.64 166.233 198.556 166.298 198.491C166.363 198.426 166.447 198.393 166.55 198.393L167.67 198.393C167.763 198.393 167.843 198.426 167.908 198.491C167.973 198.556 168.006 198.64 168.006 198.743L168.006 203.279L170.204 203.279L170.204 199.051C170.204 198.948 170.237 198.864 170.302 198.799C170.367 198.734 170.451 198.701 170.554 198.701L171.59 198.701C171.683 198.701 171.763 198.734 171.828 198.799C171.893 198.864 171.926 198.948 171.926 199.051L171.926 203.279L174.194 203.279L174.194 198.631C174.194 198.528 174.227 198.444 174.292 198.379C174.357 198.314 174.441 198.281 174.544 198.281L175.65 198.281C175.753 198.281 175.837 198.314 175.902 198.379C175.967 198.444 176 198.528 176 198.631L176 205.085ZM176 196.421C176 196.523 175.967 196.607 175.902 196.673C175.837 196.738 175.753 196.771 175.65 196.771L166.41 196.771C166.307 196.771 166.223 196.738 166.158 196.673C166.093 196.607 166.06 196.523 166.06 196.421L166.06 195.021C166.06 194.927 166.093 194.848 166.158 194.783C166.223 194.717 166.307 194.685 166.41 194.685L175.65 194.685C175.753 194.685 175.837 194.717 175.902 194.783C175.967 194.848 176 194.927 176 195.021L176 196.421ZM176.14 189.667C176.14 190.741 175.841 191.595 175.244 192.229C174.647 192.855 173.779 193.186 172.64 193.223C172.565 193.223 172.467 193.223 172.346 193.223C172.215 193.223 172.113 193.223 172.038 193.223C171.319 193.186 170.703 193.023 170.19 192.733C169.667 192.444 169.271 192.038 169 191.515C168.72 190.993 168.58 190.381 168.58 189.681C168.58 188.897 168.743 188.244 169.07 187.721C169.387 187.189 169.826 186.793 170.386 186.531C170.937 186.261 171.571 186.125 172.29 186.125L172.612 186.125C172.705 186.125 172.785 186.163 172.85 186.237C172.915 186.303 172.948 186.382 172.948 186.475L172.948 191.053C172.957 191.053 172.976 191.053 173.004 191.053C173.023 191.053 173.041 191.053 173.06 191.053C173.359 191.044 173.634 190.988 173.886 190.885C174.129 190.773 174.325 190.619 174.474 190.423C174.623 190.218 174.698 189.975 174.698 189.695C174.698 189.462 174.665 189.271 174.6 189.121C174.535 188.972 174.455 188.851 174.362 188.757C174.269 188.655 174.189 188.58 174.124 188.533C174.031 188.449 173.975 188.384 173.956 188.337C173.928 188.281 173.914 188.197 173.914 188.085L173.914 186.629C173.914 186.536 173.942 186.461 173.998 186.405C174.045 186.34 174.115 186.312 174.208 186.321C174.357 186.331 174.544 186.41 174.768 186.559C174.983 186.699 175.197 186.909 175.412 187.189C175.617 187.469 175.79 187.819 175.93 188.239C176.07 188.65 176.14 189.126 176.14 189.667ZM171.674 191.053L171.674 188.309L171.646 188.309C171.31 188.309 171.021 188.365 170.778 188.477C170.526 188.58 170.33 188.734 170.19 188.939C170.05 189.145 169.98 189.392 169.98 189.681C169.98 189.971 170.05 190.218 170.19 190.423C170.33 190.629 170.526 190.787 170.778 190.899C171.021 191.002 171.31 191.053 171.646 191.053L171.674 191.053ZM176 184.46C176 184.563 175.967 184.647 175.902 184.712C175.837 184.777 175.753 184.81 175.65 184.81L174.082 184.81C173.979 184.81 173.895 184.777 173.83 184.712C173.765 184.647 173.732 184.563 173.732 184.46L173.732 182.892C173.732 182.789 173.765 182.705 173.83 182.64C173.895 182.575 173.979 182.542 174.082 182.542L175.65 182.542C175.753 182.542 175.837 182.575 175.902 182.64C175.967 182.705 176 182.789 176 182.892L176 184.46ZM176 180.591C176 180.693 175.967 180.777 175.902 180.843C175.837 180.908 175.753 180.941 175.65 180.941L174.082 180.941C173.979 180.941 173.895 180.908 173.83 180.843C173.765 180.777 173.732 180.693 173.732 180.591L173.732 179.023C173.732 178.92 173.765 178.836 173.83 178.771C173.895 178.705 173.979 178.673 174.082 178.673L175.65 178.673C175.753 178.673 175.837 178.705 175.902 178.771C175.967 178.836 176 178.92 176 179.023L176 180.591ZM176 176.722C176 176.824 175.967 176.908 175.902 176.974C175.837 177.039 175.753 177.072 175.65 177.072L174.082 177.072C173.979 177.072 173.895 177.039 173.83 176.974C173.765 176.908 173.732 176.824 173.732 176.722L173.732 175.154C173.732 175.051 173.765 174.967 173.83 174.902C173.895 174.836 173.979 174.804 174.082 174.804L175.65 174.804C175.753 174.804 175.837 174.836 175.902 174.902C175.967 174.967 176 175.051 176 175.154L176 176.722Z" fill="#21084A"/>
<path d="M166 85.0002C166 83.3434 167.343 82.0002 169 82.0002L173 82.0002C174.657 82.0002 176 83.3434 176 85.0002L176 164L166 164L166 85.0002Z" fill="url(#paint2_linear_3134_417)"/>
<path d="M225 209.238C225 209.341 224.972 209.42 224.916 209.476C224.851 209.532 224.771 209.56 224.678 209.56L215.522 209.56C215.429 209.56 215.354 209.532 215.298 209.476C215.233 209.42 215.2 209.341 215.2 209.238L215.2 208.496C215.2 208.403 215.233 208.328 215.298 208.272C215.354 208.216 215.429 208.188 215.522 208.188L223.782 208.188L223.782 203.526C223.782 203.423 223.815 203.344 223.88 203.288C223.936 203.232 224.015 203.204 224.118 203.204L224.678 203.204C224.771 203.204 224.851 203.232 224.916 203.288C224.972 203.344 225 203.423 225 203.526L225 209.238ZM225 201.349C225 201.452 224.972 201.531 224.916 201.587C224.851 201.643 224.771 201.671 224.678 201.671L215.536 201.671C215.433 201.671 215.354 201.643 215.298 201.587C215.233 201.531 215.2 201.452 215.2 201.349L215.2 197.793C215.2 197.103 215.312 196.505 215.536 196.001C215.76 195.488 216.096 195.091 216.544 194.811C216.983 194.531 217.533 194.391 218.196 194.391C218.859 194.391 219.409 194.531 219.848 194.811C220.287 195.091 220.618 195.488 220.842 196.001C221.066 196.505 221.178 197.103 221.178 197.793L221.178 200.271L224.678 200.271C224.771 200.271 224.851 200.304 224.916 200.369C224.972 200.425 225 200.505 225 200.607L225 201.349ZM220.002 200.285L220.002 197.863C220.002 197.173 219.848 196.655 219.54 196.309C219.232 195.964 218.784 195.791 218.196 195.791C217.617 195.791 217.169 195.959 216.852 196.295C216.535 196.631 216.376 197.154 216.376 197.863L216.376 200.285L220.002 200.285ZM225.14 189.133C225.14 189.954 224.986 190.654 224.678 191.233C224.37 191.802 223.936 192.241 223.376 192.549C222.816 192.848 222.158 193.016 221.402 193.053C220.991 193.062 220.557 193.067 220.1 193.067C219.633 193.067 219.19 193.062 218.77 193.053C218.014 193.016 217.361 192.848 216.81 192.549C216.259 192.241 215.83 191.798 215.522 191.219C215.214 190.64 215.06 189.945 215.06 189.133C215.06 188.47 215.153 187.896 215.34 187.411C215.527 186.926 215.765 186.529 216.054 186.221C216.334 185.904 216.628 185.67 216.936 185.521C217.244 185.362 217.515 185.278 217.748 185.269C217.832 185.26 217.902 185.283 217.958 185.339C218.005 185.395 218.028 185.47 218.028 185.563L218.028 186.389C218.028 186.482 218.009 186.552 217.972 186.599C217.935 186.636 217.869 186.674 217.776 186.711C217.533 186.795 217.295 186.935 217.062 187.131C216.829 187.318 216.637 187.574 216.488 187.901C216.329 188.218 216.25 188.629 216.25 189.133C216.25 189.87 216.451 190.468 216.852 190.925C217.253 191.373 217.916 191.616 218.84 191.653C219.671 191.681 220.501 191.681 221.332 191.653C222.265 191.616 222.937 191.368 223.348 190.911C223.749 190.454 223.95 189.856 223.95 189.119C223.95 188.624 223.861 188.186 223.684 187.803C223.497 187.411 223.213 187.103 222.83 186.879C222.447 186.655 221.962 186.543 221.374 186.543L220.786 186.543L220.786 188.643C220.786 188.736 220.758 188.816 220.702 188.881C220.637 188.937 220.553 188.965 220.45 188.965L220.002 188.965C219.899 188.965 219.82 188.937 219.764 188.881C219.699 188.816 219.666 188.736 219.666 188.643L219.666 185.479C219.666 185.376 219.699 185.297 219.764 185.241C219.82 185.185 219.899 185.157 220.002 185.157L221.346 185.157C222.111 185.157 222.779 185.316 223.348 185.633C223.917 185.941 224.361 186.394 224.678 186.991C224.986 187.588 225.14 188.302 225.14 189.133ZM225 183.323C225 183.416 224.972 183.495 224.916 183.561C224.851 183.617 224.771 183.645 224.678 183.645L223.67 183.645C223.577 183.645 223.502 183.617 223.446 183.561C223.381 183.495 223.348 183.416 223.348 183.323L223.348 182.315C223.348 182.221 223.381 182.147 223.446 182.091C223.502 182.025 223.577 181.993 223.67 181.993L224.678 181.993C224.771 181.993 224.851 182.025 224.916 182.091C224.972 182.147 225 182.221 225 182.315L225 183.323ZM225 179.795C225 179.889 224.972 179.968 224.916 180.033C224.851 180.089 224.771 180.117 224.678 180.117L223.67 180.117C223.577 180.117 223.502 180.089 223.446 180.033C223.381 179.968 223.348 179.889 223.348 179.795L223.348 178.787C223.348 178.694 223.381 178.619 223.446 178.563C223.502 178.498 223.577 178.465 223.67 178.465L224.678 178.465C224.771 178.465 224.851 178.498 224.916 178.563C224.972 178.619 225 178.694 225 178.787L225 179.795ZM225 176.268C225 176.361 224.972 176.441 224.916 176.506C224.851 176.562 224.771 176.59 224.678 176.59L223.67 176.59C223.577 176.59 223.502 176.562 223.446 176.506C223.381 176.441 223.348 176.361 223.348 176.268L223.348 175.26C223.348 175.167 223.381 175.092 223.446 175.036C223.502 174.971 223.577 174.938 223.67 174.938L224.678 174.938C224.771 174.938 224.851 174.971 224.916 175.036C224.972 175.092 225 175.167 225 175.26L225 176.268Z" fill="#9395BE"/>
<path d="M216 130C216 128.343 217.343 127 219 127L223 127C224.657 127 226 128.343 226 130L226 164L216 164L216 130Z" fill="url(#paint3_linear_3134_417)"/>
</g>
<defs>
<linearGradient id="paint0_linear_3134_417" x1="71" y1="70.0002" x2="71" y2="164" gradientUnits="userSpaceOnUse">
<stop stop-color="#6C5CE7"/>
<stop offset="1" stop-color="#B1A7FF"/>
</linearGradient>
<linearGradient id="paint1_linear_3134_417" x1="121" y1="127" x2="121" y2="164" gradientUnits="userSpaceOnUse">
<stop stop-color="#E84393"/>
<stop offset="1" stop-color="#FF9BCC"/>
</linearGradient>
<linearGradient id="paint2_linear_3134_417" x1="171" y1="82.0002" x2="171" y2="164" gradientUnits="userSpaceOnUse">
<stop stop-color="#2ECC71"/>
<stop offset="1" stop-color="#75FAAD"/>
</linearGradient>
<linearGradient id="paint3_linear_3134_417" x1="221" y1="127" x2="221" y2="164" gradientUnits="userSpaceOnUse">
<stop stop-color="#F39C12"/>
<stop offset="1" stop-color="#FFCD7E"/>
</linearGradient>
<clipPath id="clip0_3134_417">
<rect width="195" height="195" fill="white" transform="translate(62 17.0002)"/>
</clipPath>
</defs>
</svg>
