<svg width="60" height="60" viewBox="0 0 60 60" fill="none" xmlns="http://www.w3.org/2000/svg">
<rect x="0.000244141" width="60" height="60" rx="10" fill="white"/>
<path d="M22.5502 18.75C22.5502 18.4324 22.8077 18.175 23.1252 18.175H36.8753C37.1928 18.175 37.4503 18.4324 37.4503 18.75V25C37.4503 25.3728 37.7525 25.675 38.1253 25.675H41.8753C42.1928 25.675 42.4503 25.9324 42.4503 26.25V42.5C42.4503 42.8175 42.1928 43.075 41.8753 43.075H18.1252C17.8077 43.075 17.5502 42.8175 17.5502 42.5V26.25C17.5502 25.9324 17.8077 25.675 18.1252 25.675H21.8752C22.248 25.675 22.5502 25.3728 22.5502 25V18.75ZM23.1252 16.825C22.0621 16.825 21.2002 17.6868 21.2002 18.75V24.325H18.1252C17.0621 24.325 16.2002 25.1868 16.2002 26.25V42.5C16.2002 43.5631 17.0621 44.425 18.1252 44.425H41.8753C42.9384 44.425 43.8003 43.5631 43.8003 42.5V26.25C43.8003 25.1868 42.9384 24.325 41.8753 24.325H38.8003V18.75C38.8003 17.6868 37.9384 16.825 36.8753 16.825H23.1252Z" fill="#5518B5" stroke="#5518B5" stroke-width="0.1"/>
<path fill-rule="evenodd" clip-rule="evenodd" d="M30.0002 21.25C30.3454 21.25 30.6252 21.5298 30.6252 21.875V26.875C30.6252 27.2202 30.3454 27.5 30.0002 27.5C29.6551 27.5 29.3752 27.2202 29.3752 26.875V21.875C29.3752 21.5298 29.6551 21.25 30.0002 21.25Z" fill="#CF1E2E"/>
<path fill-rule="evenodd" clip-rule="evenodd" d="M33.1252 24.375C33.1252 24.7202 32.8454 25 32.5002 25H27.5002C27.1551 25 26.8752 24.7202 26.8752 24.375C26.8752 24.0298 27.1551 23.75 27.5002 23.75H32.5002C32.8454 23.75 33.1252 24.0298 33.1252 24.375Z" fill="#CF1E2E"/>
<path d="M22.5002 30.575C22.1275 30.575 21.8252 30.8773 21.8252 31.25V43.75C21.8252 44.1228 22.1275 44.425 22.5002 44.425H37.5003C37.873 44.425 38.1753 44.1228 38.1753 43.75V31.25C38.1753 30.8773 37.873 30.575 37.5003 30.575H22.5002ZM36.8253 43.075H23.1752V31.925H36.8253V43.075Z" fill="#5518B5" stroke="#5518B5" stroke-width="0.1"/>
<path fill-rule="evenodd" clip-rule="evenodd" d="M30.0002 30.625C30.3454 30.625 30.6252 30.9049 30.6252 31.25V43.75C30.6252 44.0951 30.3454 44.375 30.0002 44.375C29.6551 44.375 29.3752 44.0951 29.3752 43.75V31.25C29.3752 30.9049 29.6551 30.625 30.0002 30.625Z" fill="#5518B5"/>
<path fill-rule="evenodd" clip-rule="evenodd" d="M26.2502 36.25C26.5954 36.25 26.8752 36.5299 26.8752 36.875V38.125C26.8752 38.4701 26.5954 38.75 26.2502 38.75C25.9051 38.75 25.6252 38.4701 25.6252 38.125V36.875C25.6252 36.5299 25.9051 36.25 26.2502 36.25Z" fill="#5518B5"/>
<path fill-rule="evenodd" clip-rule="evenodd" d="M33.7502 36.25C34.0954 36.25 34.3752 36.5299 34.3752 36.875V38.125C34.3752 38.4701 34.0954 38.75 33.7502 38.75C33.4051 38.75 33.1252 38.4701 33.1252 38.125V36.875C33.1252 36.5299 33.4051 36.25 33.7502 36.25Z" fill="#5518B5"/>
</svg>
