<svg width="60" height="60" viewBox="0 0 60 60" fill="none" xmlns="http://www.w3.org/2000/svg">
<rect x="0.000244141" width="60" height="60" rx="10" fill="white"/>
<g clip-path="url(#clip0_1108_4447)">
<path d="M16.3971 29.5022L16.305 29.4632C16.0366 30.0967 15.9003 30.7691 15.9003 31.4621V42.5949C15.9003 42.7367 15.9576 42.8758 16.0585 42.9762C16.1589 43.0772 16.2981 43.1344 16.4398 43.1344H25.639C25.7814 43.1344 25.92 43.0771 26.0203 42.9762C26.1212 42.8759 26.1785 42.7373 26.1785 42.5949V32.2619C26.1785 31.9641 25.9369 31.7225 25.639 31.7225C25.3419 31.7225 25.0996 31.964 25.0996 32.2619V42.0555H16.9792V31.4621C16.9792 30.3802 17.4021 29.3614 18.1698 28.5926C18.9387 27.8249 19.9574 27.402 21.0393 27.402C21.7329 27.4024 22.4119 27.5825 23.0123 27.9176L20.0155 29.6482L20.0154 29.6482C19.366 30.024 18.9764 30.7115 18.9764 31.4487C18.9764 32.1097 19.2951 32.7459 19.8488 33.1398L19.8748 33.1583H19.8769C20.1192 33.3096 20.4376 33.2439 20.6013 33.0123C20.7719 32.7723 20.7208 32.437 20.4748 32.2604L20.4743 32.2601C20.2243 32.0831 20.0564 31.7854 20.0554 31.4486C20.056 31.0917 20.248 30.7598 20.555 30.5826L20.555 30.5826L21.3377 30.1305C21.8652 30.2721 23.0831 30.5985 24.0657 30.8617L21.5537 32.312L21.5423 32.3185L21.5412 32.3196C21.2927 32.4718 21.21 32.7954 21.3565 33.0491L16.3971 29.5022ZM16.3971 29.5022L16.305 29.4632C16.5643 28.8513 16.9349 28.302 17.4074 27.8301C17.8794 27.3575 18.4286 26.9871 19.0404 26.7277L19.0404 26.7277M16.3971 29.5022L19.0404 26.7277M19.0404 26.7277C19.674 26.4594 20.3464 26.3231 21.0394 26.3231H21.0406C21.6595 26.3231 22.2662 26.433 22.843 26.6506C23.279 26.8145 23.6874 27.0368 24.0626 27.3111M19.0404 26.7277L24.0626 27.3111M44.4191 18.7168L44.4191 18.7167L43.7598 17.575L43.7598 17.575L43.6732 17.625C43.4972 17.3201 43.2129 17.102 42.8727 17.0109C42.5326 16.9196 42.1773 16.9665 41.8723 17.1426L44.4191 18.7168ZM44.4191 18.7168C44.6085 19.0447 44.6589 19.4273 44.5609 19.793C44.4629 20.1588 44.228 20.4649 43.9001 20.6543L43.9001 20.6543M44.4191 18.7168L43.9001 20.6543M24.0626 27.3111L41.8223 17.056C41.8223 17.056 41.8223 17.056 41.8223 17.056C42.1502 16.8666 42.5328 16.8162 42.8986 16.9143L24.0626 27.3111ZM43.9001 20.6543L22.0932 33.2462M43.9001 20.6543L22.0932 33.2462M22.0932 33.2462C21.8307 33.3983 21.5021 33.3018 21.3566 33.0492L22.0932 33.2462ZM19.8399 33.1324L19.8399 33.1324C19.8399 33.1324 19.8399 33.1324 19.8399 33.1324L19.8399 33.1324ZM43.4848 19.2564L43.4848 19.2563L42.8256 18.1146C42.7801 18.0359 42.7072 17.9799 42.6195 17.9564L42.6194 17.9564C42.5316 17.9329 42.4406 17.9449 42.3618 17.9904L39.7853 19.4782L42.5136 20.2091L43.3605 19.72C43.4393 19.6745 43.4952 19.6016 43.5188 19.5138C43.5422 19.426 43.5302 19.3349 43.4848 19.2564ZM39.0884 22.1869L41.1923 20.972L38.464 20.2412L36.3601 21.456L39.0884 22.1869ZM35.663 24.1648L37.767 22.9499L35.0386 22.2191L32.9347 23.434L35.663 24.1648ZM32.2378 26.1426L34.3417 24.9278L31.6134 24.197L29.5094 25.4118L32.2378 26.1426ZM28.8126 28.1206L30.9165 26.9057L28.1881 26.1748L26.0842 27.3897L28.8126 28.1206ZM24.2882 28.4268L22.6589 29.3676L25.3873 30.0985L27.4912 28.8836L24.7628 28.1527L24.2968 28.4218L24.2954 28.4226L24.2883 28.4267L24.2882 28.4268Z" fill="#5518B5" stroke="#5518B5" stroke-width="0.2"/>
<path d="M40.2212 30.9229H41.803C43.0698 30.9229 44.1002 31.9534 44.1002 33.2202V42.5952C44.1002 42.8932 43.8587 43.1347 43.5608 43.1347H38.4634C38.1655 43.1347 37.9239 42.8932 37.9239 42.5952V33.2202C37.9239 31.9534 38.9544 30.9229 40.2212 30.9229ZM39.0028 42.0558H43.0213V33.2202C43.0213 32.5485 42.4747 32.0019 41.803 32.0019H40.2212C39.5494 32.0019 39.0028 32.5485 39.0028 33.2202V42.0558Z" fill="#CF1E2E" stroke="#CF1E2E" stroke-width="0.2"/>
<path d="M40.2212 32.8379H41.803C42.0457 32.8379 42.2424 33.0346 42.2424 33.2773V34.8591C42.2424 35.1018 42.0457 35.2985 41.803 35.2985C41.5603 35.2985 41.3635 35.1018 41.3635 34.8591V33.7168H40.6606V34.8591C40.6606 35.1018 40.4639 35.2985 40.2212 35.2985C39.9785 35.2985 39.7817 35.1018 39.7817 34.8591V33.2773C39.7817 33.0346 39.9785 32.8379 40.2212 32.8379Z" fill="#CF1E2E"/>
<path d="M21.0393 34.0203C22.0894 34.0203 22.9436 34.8745 22.9436 35.9246C22.9436 36.9746 22.0894 37.8289 21.0393 37.8289C19.9892 37.8289 19.135 36.9746 19.135 35.9246C19.135 34.8745 19.9892 34.0203 21.0393 34.0203ZM21.0393 36.95C21.6047 36.95 22.0647 36.49 22.0647 35.9246C22.0647 35.3592 21.6047 34.8992 21.0393 34.8992C20.4739 34.8992 20.0139 35.3592 20.0139 35.9246C20.0139 36.4899 20.4739 36.95 21.0393 36.95Z" fill="#5518B5"/>
</g>
<defs>
<clipPath id="clip0_1108_4447">
<rect width="30" height="30" fill="white" transform="matrix(-1 0 0 1 45.0002 15)"/>
</clipPath>
</defs>
</svg>
