<svg width="60" height="60" viewBox="0 0 60 60" fill="none" xmlns="http://www.w3.org/2000/svg">
<rect x="0.000244141" y="0.000244141" width="60" height="60" rx="10" fill="white"/>
<g clip-path="url(#clip0_1108_4505)">
<path d="M38.8082 15.0002H21.1924C20.2614 15.0013 19.3689 15.3717 18.7106 16.0299C18.0523 16.6882 17.682 17.5807 17.6809 18.5117V41.4888C17.682 42.4197 18.0523 43.3123 18.7106 43.9705C19.3689 44.6288 20.2614 44.9991 21.1924 45.0002H38.8082C39.7391 44.9991 40.6316 44.6288 41.2899 43.9705C41.9482 43.3122 42.3185 42.4197 42.3196 41.4888V18.5117C42.3185 17.5808 41.9482 16.6883 41.2899 16.03C40.6316 15.3717 39.7391 15.0014 38.8082 15.0002ZM40.9133 41.4888C40.9127 42.0469 40.6907 42.582 40.2961 42.9767C39.9014 43.3714 39.3663 43.5934 38.8082 43.594H21.1924C20.6342 43.5934 20.0991 43.3714 19.7044 42.9767C19.3098 42.582 19.0878 42.0469 19.0872 41.4888V18.5117C19.0878 17.9536 19.3098 17.4185 19.7044 17.0238C20.0991 16.6291 20.6342 16.4071 21.1924 16.4065H38.8082C39.3663 16.4071 39.9014 16.6291 40.2961 17.0238C40.6907 17.4185 40.9127 17.9536 40.9133 18.5117V41.4888ZM25.0301 24.648C25.2166 24.648 25.3954 24.5739 25.5273 24.4421C25.6591 24.3102 25.7332 24.1314 25.7332 23.9449V23.2511H26.5217C26.7081 23.2511 26.887 23.177 27.0188 23.0452C27.1507 22.9133 27.2248 22.7345 27.2248 22.548C27.2248 22.3615 27.1507 22.1827 27.0188 22.0508C26.887 21.919 26.7081 21.8449 26.5217 21.8449H25.7332V18.4048C25.7332 18.2581 25.6872 18.115 25.6018 17.9957C25.5164 17.8764 25.3958 17.7868 25.257 17.7395C25.1181 17.6921 24.9678 17.6894 24.8273 17.7317C24.6868 17.774 24.5631 17.8592 24.4734 17.9754L21.2773 22.1185C21.197 22.2225 21.1475 22.347 21.1344 22.4777C21.1212 22.6084 21.145 22.7402 21.2029 22.8581C21.2609 22.976 21.3507 23.0754 21.4623 23.1448C21.5738 23.2143 21.7025 23.2511 21.8339 23.2511H24.327V23.9449C24.327 24.1314 24.401 24.3102 24.5329 24.4421C24.6648 24.5739 24.8436 24.648 25.0301 24.648ZM23.2644 21.8449L24.327 20.4675V21.8449H23.2644ZM31.4071 25.4037C31.3418 25.3384 31.2643 25.2866 31.179 25.2513C31.0937 25.216 31.0023 25.1978 30.9099 25.1978C30.8176 25.1978 30.7262 25.216 30.6409 25.2513C30.5556 25.2866 30.478 25.3384 30.4127 25.4037L25.6022 30.2143C24.9138 30.9059 24.5273 31.8421 24.5273 32.818C24.5273 33.7938 24.9138 34.73 25.6022 35.4216C26.3874 36.2071 27.2698 36.5811 28.2015 36.534L27.5353 38.8085C27.5046 38.9133 27.4987 39.0238 27.5181 39.1312C27.5376 39.2387 27.5818 39.3401 27.6472 39.4275C27.7127 39.5149 27.7976 39.5859 27.8952 39.6348C27.9929 39.6837 28.1005 39.7092 28.2097 39.7092H33.6101C33.7193 39.7092 33.827 39.6838 33.9247 39.6349C34.0224 39.586 34.1073 39.5151 34.1728 39.4277C34.2383 39.3402 34.2825 39.2388 34.302 39.1313C34.3214 39.0238 34.3156 38.9133 34.2849 38.8085L33.6186 36.534C34.5503 36.5809 35.4326 36.2071 36.2179 35.4216C36.9074 34.7305 37.2946 33.7942 37.2946 32.818C37.2946 31.8417 36.9074 30.9054 36.2179 30.2143L31.4071 25.4037ZM35.2236 34.4275C34.4977 35.1534 33.7561 35.3105 32.8894 34.9218C32.7668 34.8668 32.631 34.8481 32.4982 34.8678C32.3653 34.8876 32.2408 34.945 32.1396 35.0333C32.0383 35.1216 31.9644 35.237 31.9267 35.366C31.889 35.4949 31.8891 35.632 31.9268 35.7609L32.6715 38.303H29.1484L29.8931 35.7607C29.9308 35.6317 29.9309 35.4947 29.8931 35.3657C29.8554 35.2368 29.7816 35.1213 29.6803 35.0331C29.579 34.9448 29.4546 34.8874 29.3217 34.8676C29.1888 34.8478 29.0531 34.8665 28.9305 34.9215C28.0638 35.3104 27.3223 35.1532 26.5963 34.4273C26.1716 33.9993 25.9333 33.4209 25.9333 32.818C25.9333 32.2151 26.1716 31.6366 26.5963 31.2087L30.9099 26.8951L35.2236 31.2087C35.6498 31.6358 35.8892 32.2147 35.8892 32.8181C35.8892 33.4216 35.6498 34.0004 35.2236 34.4275Z" fill="#5518B5"/>
<path d="M25.5273 24.4421C25.3954 24.574 25.2166 24.6481 25.0301 24.6481C24.8436 24.6481 24.6648 24.574 24.5329 24.4421C24.401 24.3102 24.327 24.1314 24.327 23.9449V23.2512H21.8339C21.7025 23.2512 21.5738 23.2143 21.4623 23.1449C21.3507 23.0754 21.2609 22.9761 21.203 22.8582C21.145 22.7403 21.1212 22.6085 21.1344 22.4777C21.1475 22.347 21.197 22.2226 21.2773 22.1186L24.4735 17.9755C24.5631 17.8593 24.6868 17.7741 24.8273 17.7318C24.9678 17.6895 25.1181 17.6922 25.257 17.7395C25.3958 17.7869 25.5164 17.8765 25.6018 17.9958C25.6873 18.1151 25.7332 18.2582 25.7332 18.4049V21.8449H26.5217C26.7081 21.8449 26.887 21.919 27.0188 22.0509C27.1507 22.1827 27.2248 22.3616 27.2248 22.5481C27.2248 22.7345 27.1507 22.9134 27.0188 23.0452C26.887 23.1771 26.7081 23.2512 26.5217 23.2512H25.7332V23.9449C25.7332 24.1314 25.6591 24.3102 25.5273 24.4421Z" fill="#CF1E2E"/>
<path d="M23.0002 22.0002L24.5002 20.5002V22.0002H23.0002Z" fill="white"/>
</g>
<defs>
<clipPath id="clip0_1108_4505">
<rect width="30" height="30" fill="white" transform="translate(15.0002 15.0002)"/>
</clipPath>
</defs>
</svg>
