<svg width="60" height="60" viewBox="0 0 60 60" fill="none" xmlns="http://www.w3.org/2000/svg">
<rect x="0.000244141" y="6.86646e-05" width="60" height="60" rx="10" fill="white"/>
<path d="M42.0018 36.8569V40.2857C42.0018 41.2312 41.2329 42.0001 40.2874 42.0001H19.7146C18.7692 42.0001 18.0002 41.2312 18.0002 40.2857V36.8569C18.0002 36.3837 18.3834 35.9997 18.8574 35.9997C19.3315 35.9997 19.7146 36.3837 19.7146 36.8569V40.2857H40.2874V36.8569C40.2874 36.3837 40.6706 35.9997 41.1446 35.9997C41.6187 35.9997 42.0018 36.3837 42.0018 36.8569Z" fill="#5518B5"/>
<path d="M23.3947 25.4621C23.0595 25.1269 23.0595 24.5852 23.3947 24.25L29.3942 18.2505C29.7294 17.9145 30.2771 17.9187 30.608 18.2505L36.6076 24.25C36.9427 24.5852 36.9427 25.1269 36.6076 25.4621C36.4404 25.6293 36.221 25.7133 36.0015 25.7133C35.7821 25.7133 35.5626 25.6293 35.3955 25.4621L30.8583 20.9249V35.9997C30.8583 36.4728 30.4752 36.8569 30.0011 36.8569C29.5271 36.8569 29.1439 36.4728 29.1439 35.9997V20.9249L24.6068 25.4621C24.2716 25.7973 23.7298 25.7973 23.3947 25.4621Z" fill="#CF1E2E"/>
</svg>
