<svg width="30" height="30" viewBox="0 0 30 30" fill="none" xmlns="http://www.w3.org/2000/svg">
<g clip-path="url(#clip0_3948_657)">
<path d="M27.2907 1.2953C27.1874 1.2316 27.0685 1.19769 26.9473 1.19769H7.36498C5.68145 1.19769 4.31182 2.55397 4.31182 4.21618L4.19674 21.0795H0.657833C0.294618 21.0795 0.000244141 21.3739 0.000244141 21.7371V24.7751C0.00255597 27.006 1.81041 28.8139 4.04133 28.8164C4.08654 28.8164 4.13201 28.8118 4.17645 28.8026H20.5147C20.6121 28.8095 20.7102 28.8141 20.8091 28.8141C23.0747 28.81 24.9093 26.9729 24.91 24.7073V14.8496H29.3426C29.7058 14.8496 30.0002 14.5552 30.0002 14.192V4.43041C29.9922 2.86067 28.8427 1.53034 27.2907 1.2953ZM1.31542 24.7753V22.3949H16.7081V24.7075C16.7074 25.7378 17.095 26.7304 17.7939 27.4874H3.95143C3.92035 27.4876 3.88952 27.49 3.85896 27.4946C2.42844 27.3972 1.31722 26.2092 1.31542 24.7753ZM23.5948 4.43041V24.7073C23.5936 25.4424 23.3015 26.1468 22.7824 26.6669C22.2853 27.1768 21.61 27.4745 20.8985 27.4971C20.863 27.491 20.8271 27.4879 20.7908 27.4876H20.5597C19.1273 27.3466 18.0328 26.147 18.0233 24.7078V21.7371C18.0233 21.3741 17.7289 21.0795 17.3657 21.0795H5.51192L5.627 4.2208C5.6365 3.26987 6.41379 2.50568 7.36498 2.51287H24.2481C23.8245 3.06232 23.5946 3.7366 23.5948 4.43041ZM28.685 13.5344H24.91V4.43041C24.9272 3.4001 25.7672 2.57426 26.7975 2.57426C27.8278 2.57426 28.6678 3.4001 28.685 4.43041V13.5344Z" fill="#C2BDDC"/>
<path d="M8.44275 8.32174H14.6708C15.0341 8.32174 15.3284 8.02737 15.3284 7.66415C15.3284 7.30094 15.0341 7.00656 14.6708 7.00656H8.44275C8.07953 7.00656 7.78516 7.30094 7.78516 7.66415C7.78516 8.02737 8.07953 8.32174 8.44275 8.32174Z" fill="#C2BDDC"/>
<path d="M20.0605 11.7083H8.44274C8.07953 11.7083 7.78516 12.0027 7.78516 12.3659C7.78516 12.7289 8.07953 13.0235 8.44274 13.0235H20.0605C20.4237 13.0235 20.7181 12.7289 20.7181 12.3659C20.7181 12.0027 20.4237 11.7083 20.0605 11.7083Z" fill="#C2BDDC"/>
<path d="M20.0605 16.4098H8.44274C8.07953 16.4098 7.78516 16.7045 7.78516 17.0674C7.78516 17.4306 8.07953 17.725 8.44274 17.725H20.0605C20.4237 17.725 20.7181 17.4306 20.7181 17.0674C20.7181 16.7045 20.4237 16.4098 20.0605 16.4098Z" fill="#C2BDDC"/>
</g>
<defs>
<clipPath id="clip0_3948_657">
<rect width="30" height="30" fill="white" transform="translate(0.000244141 0.00012207)"/>
</clipPath>
</defs>
</svg>
