<svg width="30" height="30" viewBox="0 0 30 30" fill="none" xmlns="http://www.w3.org/2000/svg">
<g clip-path="url(#clip0_3948_333)">
<path d="M16.872 23.1053H-6.10352e-05V25.7148C0.00190987 27.2865 1.21993 28.5884 2.7882 28.6951C2.8217 28.6903 2.85549 28.6875 2.88928 28.6872H18.0618C17.296 27.8575 16.8711 26.7695 16.872 25.6402V23.1053Z" fill="#21084A"/>
<path d="M4.72587 3.18487L4.59973 21.6637H17.5928C17.9909 21.6637 18.3135 21.9867 18.3135 22.3845V25.6405C18.3135 27.2093 19.5651 28.5473 21.1012 28.6875H21.347C21.3865 28.6877 21.4259 28.6911 21.4647 28.6979C23.113 28.6419 24.4202 27.2895 24.4205 25.6405V3.41462C24.4202 2.65414 24.6722 1.91505 25.1365 1.3128H6.63089C5.58828 1.30492 4.73629 2.14255 4.72587 3.18487ZM7.8123 6.23836H14.6389C15.0371 6.23836 15.3597 6.56102 15.3597 6.95915C15.3597 7.35727 15.0371 7.67993 14.6389 7.67993H7.8123C7.41418 7.67993 7.09151 7.35727 7.09151 6.95915C7.09151 6.56102 7.41418 6.23836 7.8123 6.23836ZM7.8123 11.392H20.5466C20.9447 11.392 21.2674 11.7146 21.2674 12.1128C21.2674 12.5109 20.9447 12.8336 20.5466 12.8336H7.8123C7.41418 12.8336 7.09151 12.5109 7.09151 12.1128C7.09151 11.7146 7.41418 11.392 7.8123 11.392ZM7.8123 16.5456H20.5466C20.9447 16.5456 21.2674 16.8683 21.2674 17.2664C21.2674 17.6645 20.9447 17.9872 20.5466 17.9872H7.8123C7.41418 17.9872 7.09151 17.6645 7.09151 17.2664C7.09151 16.8683 7.41418 16.5456 7.8123 16.5456Z" fill="#21084A"/>
<path d="M27.931 1.37868C26.798 1.37108 25.8725 2.28164 25.8621 3.41462V13.3936H29.9999V3.41462C29.9895 2.28164 29.064 1.3708 27.931 1.37868Z" fill="#21084A"/>
</g>
<defs>
<clipPath id="clip0_3948_333">
<rect width="30" height="30" fill="white"/>
</clipPath>
</defs>
</svg>
