<svg width="30" height="30" viewBox="0 0 30 30" fill="none" xmlns="http://www.w3.org/2000/svg">
<g clip-path="url(#clip0_3948_244)">
<path d="M29.879 13.1201C29.6828 11.6063 28.1065 10.5701 26.5978 11.1351C26.0327 11.3489 25.3528 11.0314 25.0978 10.4614C24.7928 9.78139 24.419 9.13012 23.984 8.52514C23.5965 7.98637 23.6702 7.28137 24.1515 6.88387C24.7265 6.41137 25.0478 5.71264 25.0328 4.96885C25.0178 4.21258 24.6615 3.51637 24.0553 3.05635C23.0578 2.30136 21.9703 1.6726 20.8215 1.18885C20.5115 1.05883 20.1866 0.992615 19.8553 0.992615C18.6578 0.992615 17.6477 1.84386 17.4527 3.01638C17.3503 3.63262 16.7665 4.05138 16.109 3.98013C15.379 3.90262 14.619 3.90262 13.8902 3.98013C13.2352 4.05138 12.649 3.63262 12.5465 3.01638C12.3515 1.84386 11.3415 0.992615 10.144 0.992615C9.81276 0.992615 9.48774 1.05888 9.17901 1.18885C8.02899 1.6726 6.94149 2.30008 5.94399 3.05635C5.33901 3.51637 4.98276 4.21258 4.96776 4.96762C4.95276 5.71263 5.27403 6.41014 5.84901 6.8851C6.33153 7.28137 6.40278 7.98637 6.01653 8.52385C5.58153 9.12883 5.20653 9.7801 4.90155 10.4601C4.64655 11.0301 4.01655 11.3651 3.38778 11.1288C3.1128 11.0263 2.82651 10.9738 2.53653 10.9738C1.31655 10.9738 0.279033 11.8963 0.120303 13.1201C0.0414941 13.7401 0.000244141 14.3738 0.000244141 15.0001C0.000244141 15.6263 0.0414941 16.2601 0.121475 16.8801C0.316475 18.3926 1.89147 19.4288 3.40272 18.8651C3.96646 18.6513 4.64772 18.9688 4.90272 19.5388C5.20771 20.2188 5.58147 20.8701 6.01647 21.4751C6.40395 22.0138 6.33024 22.7188 5.84896 23.1163C5.27397 23.5888 4.9527 24.2876 4.96771 25.0313C4.98271 25.7876 5.33895 26.4838 5.94522 26.9438C6.94272 27.6988 8.03022 28.3276 9.17896 28.8113C9.48897 28.9414 9.81394 29.0076 10.1452 29.0076C11.3427 29.0076 12.3527 28.1563 12.5477 26.9838C12.6502 26.3676 13.2352 25.9551 13.8915 26.0201C14.6202 26.0976 15.3802 26.0976 16.1102 26.0201C16.7677 25.9538 17.3515 26.3676 17.454 26.9838C17.649 28.1563 18.659 29.0063 19.8565 29.0076C20.1877 29.0076 20.5127 28.9413 20.8215 28.8113C21.9702 28.3276 23.059 27.7001 24.0552 26.9438C24.6602 26.4838 25.0177 25.7876 25.0327 25.0326C25.0477 24.2876 24.7265 23.5901 24.1515 23.1151C23.669 22.7188 23.5977 22.0138 23.984 21.4763C24.419 20.8714 24.794 20.2201 25.0989 19.5401C25.3539 18.9689 25.9852 18.6351 26.6127 18.8714C26.8877 18.9752 27.174 19.0277 27.464 19.0277C28.6839 19.0277 29.7215 18.1052 29.8802 16.8814C29.959 16.2538 30.0002 15.6226 30.0002 15.0001C30.0002 14.3776 29.959 13.7464 29.879 13.1201ZM15.0002 20.0001C12.2428 20.0001 10.0003 17.7576 10.0003 15.0001C10.0003 12.2426 12.2428 10.0001 15.0002 10.0001C17.7577 10.0001 20.0002 12.2426 20.0002 15.0001C20.0002 17.7576 17.7577 20.0001 15.0002 20.0001Z" fill="#21084A"/>
</g>
<defs>
<clipPath id="clip0_3948_244">
<rect width="30" height="30" fill="white" transform="translate(0.000244141 9.15527e-05)"/>
</clipPath>
</defs>
</svg>
