<svg width="60" height="60" viewBox="0 0 60 60" fill="none" xmlns="http://www.w3.org/2000/svg">
<rect x="0.000244141" y="6.10352e-05" width="60" height="60" rx="10" fill="white"/>
<path d="M20.9765 29.2861C19.7021 30.8777 19.0002 32.8987 19.0002 34.9767C19.0002 39.9522 23.0481 44.0001 28.0236 44.0001C32.9991 44.0001 37.0469 39.9522 37.0469 34.9767C37.0469 32.8986 36.3451 30.8776 35.0707 29.2861L28.0236 20.4847L20.9765 29.2861ZM35.4064 34.9767C35.4064 39.0475 32.0945 42.3594 28.0236 42.3594C23.9528 42.3594 20.6409 39.0475 20.6409 34.9767C20.6409 33.27 21.2149 31.6132 22.2572 30.3115L28.0236 23.1096L33.7901 30.3116C34.8323 31.6132 35.4064 33.27 35.4064 34.9767Z" fill="#5518B5"/>
<path d="M23.9221 34.9767H22.2815C22.2815 38.1429 24.8574 40.7189 28.0236 40.7189V39.0782C25.762 39.0782 23.9221 37.2383 23.9221 34.9767Z" fill="#5518B5"/>
<path d="M41.9689 22.6175C41.9689 21.6757 41.6597 20.7916 41.0747 20.0604L37.8674 16.0001L34.6601 20.0604C34.0751 20.7916 33.7659 21.6758 33.7659 22.6175C33.7659 24.8791 35.6058 26.719 37.8674 26.719C40.129 26.719 41.9689 24.879 41.9689 22.6175ZM35.4065 22.6175C35.4065 22.0516 35.5918 21.5213 35.9425 21.0837L37.8674 18.6468L39.7923 21.0837C40.143 21.5212 40.3283 22.0516 40.3283 22.6175C40.3283 23.9744 39.2243 25.0784 37.8674 25.0784C36.5104 25.0784 35.4065 23.9744 35.4065 22.6175Z" fill="#CF1E2E"/>
</svg>
