<svg width="76" height="76" viewBox="0 0 76 76" fill="none" xmlns="http://www.w3.org/2000/svg">
<rect y="0.000106812" width="76" height="76" rx="5" fill="#FF0000"/>
<path d="M40.7059 13.4766C40.6093 13.5044 40.3814 13.5321 40.2019 13.539C39.484 13.5529 37.1644 14.142 36.3222 14.5163C36.2462 14.551 36.0322 14.6411 35.8389 14.7173C35.3349 14.9114 34.0026 15.5491 33.7954 15.7016C33.6988 15.764 33.54 15.8471 33.4365 15.8679C33.3329 15.8957 33.2501 15.9442 33.2501 15.9719C33.2501 15.9996 33.1948 16.0412 33.1327 16.0689C33.0637 16.0897 32.9187 16.1729 32.8013 16.2491C32.6909 16.3254 32.5252 16.4155 32.4354 16.4571C32.3457 16.4917 32.1731 16.6026 32.0488 16.6997C31.9246 16.7967 31.8003 16.873 31.7796 16.873C31.6208 16.873 29.3979 18.4949 28.7697 19.0632C28.2588 19.5276 27.313 20.5396 27.313 20.6228C27.313 20.6436 27.2509 20.7406 27.168 20.8307C26.9609 21.0664 26.3396 22.0506 26.1601 22.418C26.0842 22.5913 25.9323 22.8962 25.8356 23.1042C25.4974 23.7973 25.3593 24.5528 25.3938 25.4331C25.4352 26.2995 25.6285 26.75 26.2153 27.3461C26.8298 27.963 27.4856 28.2333 28.5211 28.2888C29.2322 28.3234 29.7431 28.268 30.4541 28.067C30.6819 28.0046 30.9857 27.9283 31.1307 27.8868C31.2757 27.8521 31.4413 27.7966 31.5104 27.7551C31.6692 27.6719 32.5597 27.2699 32.6011 27.2699C32.7254 27.2699 34.182 26.3757 35.5282 25.4747C36.4188 24.8786 37.1989 24.3587 37.2679 24.3241C37.3301 24.2825 37.7512 24.033 38.1999 23.7626C38.6486 23.4993 39.2009 23.1804 39.4287 23.0626C39.6566 22.9448 39.981 22.7715 40.1536 22.6814C40.3262 22.5982 40.6507 22.4457 40.8785 22.3625C41.1063 22.2724 41.3894 22.1546 41.4998 22.1061C41.6172 22.0576 41.7829 21.9813 41.8795 21.9397C42.1488 21.8288 42.7563 21.7179 43.35 21.6763C44.634 21.5932 45.5315 22.1615 45.994 23.3537C46.1045 23.6379 46.1252 23.8735 46.1252 24.7053C46.1252 25.7173 46.0355 26.2718 45.7662 26.9233C45.711 27.055 45.635 27.2421 45.5936 27.3392C45.2484 28.1709 44.5374 29.3631 43.7228 30.4444C42.9496 31.4841 41.2858 33.21 40.1881 34.118C39.8084 34.4368 39.3873 34.7834 39.2562 34.8943C38.9662 35.1369 38.6279 35.3795 38.2551 35.629C38.1033 35.726 37.8547 35.8924 37.7029 36.0033C37.2748 36.2944 36.1358 36.9043 35.4937 37.1816C35.3073 37.2648 35.0519 37.3757 34.9276 37.4311C34.8103 37.4866 34.6515 37.5282 34.5756 37.5282C34.5065 37.5282 34.3477 37.5628 34.2235 37.6044C33.7747 37.7638 33.3191 37.4588 33.3191 36.9944C33.3191 36.4261 33.5883 36.0657 35.2866 34.3744C37.123 32.5446 37.3232 32.2742 37.3232 31.5811C37.3232 30.8672 36.9849 30.382 36.2255 29.9939C35.8941 29.8206 35.7699 29.7998 35.19 29.7998C34.5134 29.7998 34.1199 29.8968 33.6298 30.1949C33.5193 30.2642 33.3467 30.3543 33.2501 30.4028C33.1534 30.4513 33.0637 30.5068 33.043 30.5276C33.0223 30.5484 32.8842 30.6523 32.7323 30.7702C32.3664 31.0474 31.7244 31.7059 31.3585 32.1841C31.1031 32.5168 30.9167 32.8288 30.4817 33.6466C30.1228 34.3259 29.7983 35.5874 29.7983 36.3221C29.7983 37.8123 30.5715 39.0045 31.7658 39.3441C32.1248 39.4481 33.5883 39.4481 34.0923 39.3511C34.5894 39.2471 35.8872 38.8451 35.9701 38.7689C36.0115 38.7342 36.0805 38.7065 36.1358 38.7065C36.3152 38.7065 38.3656 37.6598 39.0698 37.2024C39.2285 37.0984 39.408 36.9806 39.4771 36.939C39.5392 36.9043 39.8637 36.7033 40.2019 36.4954C40.5333 36.2875 40.8233 36.0934 40.844 36.0726C40.8647 36.0449 41.0994 35.8716 41.3617 35.6914C41.631 35.5042 41.9416 35.2894 42.0521 35.2131C42.1695 35.1299 42.4939 34.8804 42.777 34.6517C44.5719 33.2169 46.1597 31.6851 47.0848 30.4929C47.2367 30.3058 47.3747 30.1325 47.3955 30.1117C47.4507 30.0701 47.9201 29.3908 48.2446 28.8779C48.3896 28.6631 48.6105 28.2818 48.7347 28.0323C48.8659 27.7828 49.0454 27.4432 49.1351 27.2699C49.2249 27.0966 49.4182 26.6461 49.5701 26.2648C49.715 25.8836 49.86 25.5093 49.8876 25.4331C50.0809 24.941 50.3778 23.6725 50.509 22.7645C50.6539 21.7387 50.5435 20.0544 50.2604 19.1256C50.1431 18.7444 50.1155 18.6751 49.86 18.1206C49.3077 16.9284 48.4241 15.8471 47.4093 15.1401C47.2712 15.0431 47.0986 14.9114 47.0227 14.8352C46.7741 14.6134 45.5108 14.045 44.7721 13.8301C44.3786 13.7123 43.7918 13.5875 43.4673 13.539C42.7217 13.442 40.9337 13.3935 40.7059 13.4766Z" fill="white"/>
<path d="M60.7193 47.7518C60.6986 47.7656 60.381 47.828 60.0013 47.8904C59.6216 47.9458 59.0003 48.0498 58.6206 48.1191L57.9302 48.2369L57.9302 54.6137C57.9302 61.538 57.9164 61.2469 58.3237 62.1133C58.4618 62.4114 58.6551 62.6678 58.952 62.9382C59.6837 63.6105 60.3672 63.8184 61.8238 63.8254C63.0665 63.8254 63.0182 63.8739 62.9905 62.7233L62.9698 61.8915L62.4383 61.843C61.4925 61.7598 61.0368 61.3786 60.9333 60.5885C60.9057 60.3528 60.885 57.3862 60.8919 54.0038C60.8988 48.1468 60.885 47.5854 60.7193 47.7518Z" fill="white"/>
<path d="M41.6032 47.8904C40.0707 48.1191 39.5598 48.2161 39.4977 48.2924C39.4493 48.3478 39.4424 50.5589 39.4632 54.787C39.4977 60.6924 39.5115 61.2261 39.6219 61.5103C39.8843 62.1826 40.0223 62.4183 40.3744 62.7718C41.0993 63.4996 42.0244 63.7976 43.5431 63.7976C44.3854 63.7976 44.5027 63.7838 44.558 63.6729C44.627 63.5412 44.6615 62.3351 44.6063 62.0579C44.5649 61.8846 44.5372 61.8777 44.0195 61.8361C43.3636 61.7945 42.9771 61.5727 42.7078 61.0944L42.5352 60.7825L42.5145 57.1921C42.5007 54.5167 42.5145 53.574 42.5766 53.4978C42.6388 53.4215 42.8735 53.4007 43.6122 53.4007C44.7513 53.4007 44.6546 53.5116 44.627 52.1878L44.6063 51.2867L43.6398 51.252C43.1082 51.2312 42.6319 51.1897 42.5905 51.1619C42.5214 51.1203 42.5007 50.6975 42.5007 49.443L42.5007 47.7864L42.3488 47.7933C42.2591 47.8003 41.9277 47.8419 41.6032 47.8904Z" fill="white"/>
<path d="M17.6825 51.0163C17.1647 51.0649 15.9221 51.3629 15.5424 51.5293C15.4665 51.5639 15.3284 51.6124 15.2317 51.6402C14.928 51.7233 13.9201 52.2293 13.9201 52.2986C13.9201 52.3333 13.9822 52.4927 14.0512 52.6591C14.5069 53.6641 14.6795 54.0245 14.714 54.0245C14.7347 54.0245 14.8037 53.9968 14.8728 53.9621C15.2248 53.7819 15.6529 53.6086 15.9911 53.5047C16.1982 53.4423 16.4468 53.3591 16.5434 53.3245C16.93 53.1858 17.9586 53.1165 18.435 53.1928C19.3739 53.3453 19.719 53.7819 19.7743 54.8979C19.8019 55.5147 19.8019 55.5286 19.6431 55.5702C19.5534 55.5979 18.9182 55.6187 18.2348 55.6187C16.5917 55.6187 16.0878 55.7158 15.0246 56.2356C14.1134 56.6792 13.4368 57.5179 13.1123 58.5992C12.9467 59.1745 12.9674 60.2488 13.1538 60.8172C13.7751 62.7025 15.2524 63.8046 17.3097 63.9155C19.1806 64.0194 21.1067 63.458 22.3424 62.4599L22.7911 62.0925L22.8118 58.4259C22.8326 54.177 22.8256 54.0315 22.3148 52.9918C22.087 52.5204 21.3207 51.7719 20.8443 51.5639C20.6234 51.4599 20.3818 51.356 20.3058 51.3213C19.7881 51.0926 18.4764 50.9401 17.6825 51.0163ZM19.719 57.6981C19.7605 57.7535 19.7881 58.5784 19.7881 59.5765C19.7881 61.545 19.8157 61.4202 19.3048 61.6905C19.1115 61.7945 18.8975 61.8153 18.2279 61.8222L17.3925 61.8222L17.0474 61.5865C16.861 61.4618 16.6401 61.2538 16.5641 61.136C16.0533 60.3874 16.0878 59.0497 16.6263 58.3912C16.785 58.1902 17.3925 57.7674 17.503 57.7674C17.572 57.7674 17.648 57.7397 17.6894 57.705C17.7861 57.6011 18.1036 57.5733 18.9113 57.5872C19.4912 57.5941 19.6707 57.6149 19.719 57.6981Z" fill="white"/>
<path d="M34.9068 51.1827C33.533 51.5085 32.4353 52.0976 31.3307 53.1096L31.0408 53.373L31.0408 58.4328C31.0408 61.2123 31.0408 63.5412 31.0408 63.6105C31.0408 63.7214 31.1443 63.7283 32.5457 63.7145L34.0438 63.6937L34.0645 58.8626L34.0783 54.0384L34.3407 53.8305C34.6513 53.5809 34.8032 53.5047 35.2036 53.3661C35.68 53.2066 36.4255 53.1304 36.9847 53.1928C37.2609 53.2205 37.5232 53.2344 37.5646 53.2136C37.613 53.1997 37.7372 52.964 37.8477 52.6868C37.9512 52.4095 38.1169 52.0491 38.1998 51.8828C38.4276 51.4461 38.4069 51.3352 38.1031 51.2659C37.9581 51.2312 37.6958 51.1688 37.5094 51.1273C37.0193 51.0025 35.5212 51.0372 34.9068 51.1827Z" fill="white"/>
<path d="M49.922 51.1966C49.6942 51.2312 49.4802 51.2936 49.4457 51.3283C49.4043 51.3629 49.3352 51.3906 49.28 51.3906C49.2248 51.3906 48.9762 51.4877 48.7346 51.6124C48.203 51.8758 47.3884 52.6313 47.0432 53.1928C46.7395 53.6849 46.3874 54.4196 46.3322 54.683C46.3046 54.7939 46.2631 54.9533 46.2286 55.0296C46.201 55.1058 46.1182 55.4038 46.0491 55.688C45.8627 56.4366 45.8627 58.8348 46.0422 59.5349C46.2079 60.1795 46.5807 61.1637 46.6497 61.1637C46.6842 61.1637 46.7119 61.1984 46.7119 61.24C46.7119 61.5034 47.5334 62.55 48.1133 63.0213C48.3687 63.2293 48.9417 63.5273 49.3697 63.6729C49.8323 63.8323 50.854 64.0056 51.3096 64.0056C52.2899 64.0056 54.0573 63.5827 54.6441 63.2085C54.7821 63.1253 54.9685 63.0282 55.0652 63.0005C55.2723 62.9381 55.7279 62.654 55.7831 62.5569C55.8453 62.4599 55.0721 60.8865 54.9685 60.8865C54.9202 60.8865 54.7959 60.9489 54.6993 61.0251C54.6026 61.1014 54.4853 61.1637 54.43 61.1637C54.3817 61.1637 54.2782 61.2053 54.2022 61.2608C54.1263 61.3093 53.7673 61.4548 53.4083 61.5796C52.7939 61.7945 52.6904 61.8083 51.786 61.8153C50.9299 61.8153 50.785 61.8014 50.5088 61.6697C49.5423 61.2053 48.99 60.0339 48.99 58.4536C48.99 58.114 48.9969 57.8298 49.0107 57.8229C49.0177 57.809 50.5502 57.7882 52.4073 57.7674L55.7901 57.7328L55.7693 57.0396C55.7279 55.6811 55.3689 53.8512 55.0583 53.4354C55.0307 53.3938 54.934 53.2205 54.8443 53.0472C54.4715 52.3056 53.6845 51.6679 52.7525 51.356C52.069 51.1203 50.8195 51.051 49.922 51.1966ZM51.4063 53.4007C51.6962 53.477 52.3038 53.9691 52.3038 54.1216C52.3038 54.1631 52.3521 54.2879 52.4073 54.3919C52.5661 54.7038 52.6904 55.7296 52.5799 55.8613C52.5109 55.9514 52.2416 55.9653 50.8471 55.9653L49.1971 55.9653L49.1557 55.792C49.066 55.4385 49.3076 54.4889 49.5837 54.1216C49.8875 53.7126 50.1567 53.5047 50.5571 53.3868C50.7781 53.3245 50.9921 53.2829 51.0404 53.2967C51.0818 53.3106 51.2475 53.3591 51.4063 53.4007Z" fill="white"/>
<path d="M26.1393 46.317C25.6147 46.5873 25.4559 46.719 25.2281 47.0586C25.0071 47.3983 25.0002 47.426 25.0002 48.133L25.0002 48.8677L25.2626 49.2281C25.5732 49.6509 25.7803 49.8034 26.236 49.9628C26.8504 50.1638 27.382 50.0876 27.9964 49.6994C28.7351 49.2281 28.9905 48.0221 28.5418 47.1349C28.383 46.823 28.2449 46.6774 27.8307 46.414C27.4579 46.1714 26.5121 46.116 26.1393 46.317Z" fill="white"/>
<path d="M27.8307 51.3214C27.7202 51.356 27.4095 51.4184 27.1403 51.453C26.878 51.4877 26.3947 51.557 26.0702 51.6055C25.7458 51.6471 25.4627 51.7095 25.4282 51.7303C25.3661 51.7857 25.3592 63.562 25.4144 63.6659C25.442 63.7006 26.0564 63.7283 26.8642 63.7283C28.2725 63.7283 28.2794 63.7283 28.3139 63.5689C28.3346 63.4857 28.3415 60.6855 28.3346 57.3515C28.3139 51.3421 28.3139 51.2867 28.1758 51.2728C28.0999 51.2659 27.948 51.2867 27.8307 51.3214Z" fill="white"/>
</svg>
