<svg width="30" height="30" viewBox="0 0 30 30" fill="none" xmlns="http://www.w3.org/2000/svg">
<path d="M4.50066 2.05H25.0723C26.9748 2.05 28.5227 3.5979 28.5227 5.50041V24.4996C28.5227 26.4021 26.9748 27.95 25.0723 27.95H4.50066C2.59814 27.95 1.05024 26.4021 1.05024 24.4996V5.50041C1.05024 3.5979 2.59814 2.05 4.50066 2.05ZM25.0723 26.4344C26.1392 26.4344 27.0072 25.5665 27.0072 24.4996V5.50041C27.0072 4.4335 26.1392 3.56558 25.0723 3.56558H4.50066C3.43374 3.56558 2.56582 4.4335 2.56582 5.50041V24.4996C2.56582 25.5665 3.43374 26.4344 4.50066 26.4344H25.0723Z" fill="#C2BDDC" stroke="white" stroke-width="0.1"/>
<path d="M13.4939 17.2336H13.4594L13.4472 17.2658L12.854 18.8235H11.2322L14.1457 11.1736L15.4495 11.1723L18.3369 18.8234H16.717L16.1292 17.266L16.117 17.2336H16.0824H13.4939ZM14.8409 13.8522L14.7943 13.7288L14.7474 13.852L14.0625 15.6503L14.0367 15.7181H14.1092H15.4728H15.5451L15.5195 15.6504L14.8409 13.8522Z" fill="#C2BDDC" stroke="white" stroke-width="0.1"/>
<path d="M20.5819 13.4819L20.6238 13.5461L20.6656 13.4818L22.1698 11.1712H23.9782L21.39 15.147L21.382 15.1594L21.382 15.1742L21.373 18.829L19.8574 18.8253L19.8664 15.1732L19.8664 15.1582L19.8582 15.1457L17.263 11.1712H19.073L20.5819 13.4819Z" fill="#C2BDDC" stroke="white" stroke-width="0.1"/>
<path d="M8.05478 16.1564L8.00503 16.1566V16.2064V18.8272H6.48945V11.1726L8.95652 11.1728C10.3489 11.1728 11.4806 12.2905 11.4806 13.663C11.4806 15.0354 10.3489 16.1531 8.95652 16.1532C8.74737 16.1532 8.38843 16.1547 8.05478 16.1564ZM8.0574 12.6884H8.00726L8.0074 12.7385C8.00771 12.8484 8.00815 13.0323 8.00866 13.2443C8.00981 13.7256 8.0113 14.3522 8.01246 14.5909L8.0127 14.6409L8.0627 14.6407C8.3943 14.6391 8.74831 14.6375 8.95652 14.6375C9.50205 14.6375 9.96504 14.1935 9.96504 13.663C9.96504 13.1324 9.50199 12.6884 8.95652 12.6884H8.0574Z" fill="#C2BDDC" stroke="white" stroke-width="0.1"/>
</svg>
