<svg width="60" height="60" viewBox="0 0 60 60" fill="none" xmlns="http://www.w3.org/2000/svg">
<rect x="0.000244141" y="5.34058e-05" width="60" height="60" rx="10" fill="white"/>
<g clip-path="url(#clip0_1173_2283)">
<path d="M23.6252 24.8438H25.0315V34.3126H23.6252V24.8438Z" fill="#5518B5"/>
<path d="M27.3752 24.8438C25.6877 23.1563 22.969 23.1563 21.2815 24.8438L20.2502 23.8126C22.5002 21.5626 26.1565 21.5626 28.4065 23.8126L27.3752 24.8438Z" fill="#CF1E2E"/>
<path d="M29.719 22.5938C26.719 19.6876 21.9377 19.6876 19.0315 22.5938L18.0002 21.5626C21.469 18.0938 27.1877 18.0938 30.6565 21.5626L29.719 22.5938Z" fill="#CF1E2E"/>
<path d="M31.7815 20.5313C27.6565 16.4063 21.0002 16.4063 16.8752 20.5313L15.9377 19.5001C20.6252 14.9063 28.1252 14.9063 32.8127 19.5001L31.7815 20.5313Z" fill="#CF1E2E"/>
<path d="M39.1877 42.2813H40.594V43.9688H39.1877V42.2813Z" fill="#5518B5"/>
<path d="M19.4065 42.2813H20.8127V43.9688H19.4065V42.2813Z" fill="#5518B5"/>
<path d="M41.8128 42.9376H18.1877C16.7815 42.9376 15.7502 41.8126 15.7502 40.5001V36.0938C15.7502 34.6876 16.8752 33.6563 18.1877 33.6563H41.8128C43.219 33.6563 44.2503 34.7813 44.2503 36.0938V40.5001C44.344 41.9063 43.219 42.9376 41.8128 42.9376ZM18.1877 35.0626C17.6252 35.0626 17.1565 35.5313 17.1565 36.0938V40.5001C17.1565 41.0626 17.6252 41.5313 18.1877 41.5313H41.8128C42.3753 41.5313 42.844 41.0626 42.844 40.5001V36.0938C42.844 35.5313 42.3753 35.0626 41.8128 35.0626H18.1877Z" fill="#5518B5"/>
<path d="M31.219 37.5001H32.6252V39.0938H31.219V37.5001Z" fill="#5518B5"/>
<path d="M35.4377 37.5001H36.844V39.0938H35.4377V37.5001Z" fill="#5518B5"/>
<path d="M39.6565 37.5001H41.0627V39.0938H39.6565V37.5001Z" fill="#5518B5"/>
</g>
<defs>
<clipPath id="clip0_1173_2283">
<rect width="30" height="30" fill="white" transform="translate(15.0002 15.0001)"/>
</clipPath>
</defs>
</svg>
