<svg width="60" height="60" viewBox="0 0 60 60" fill="none" xmlns="http://www.w3.org/2000/svg">
<rect opacity="0.1" y="0.0001297" width="60" height="60" rx="5" fill="#5518B5"/>
<path d="M41.8542 33.2584C40.2837 31.6879 37.9677 31.3067 36.0349 32.1142V22.8025C36.0349 22.4172 35.8849 22.055 35.6125 21.7826L30.7528 16.9224C30.6391 16.8087 30.5067 16.7158 30.3631 16.6462C30.3629 16.646 30.3625 16.6459 30.3623 16.6458C30.3556 16.6425 30.3491 16.6393 30.3424 16.6362C30.3298 16.6301 30.317 16.6243 30.3039 16.6192C30.1244 16.5418 29.9296 16.5 29.7324 16.5H18.0245C17.1839 16.5 16.5 17.1839 16.5 18.0245V41.9755C16.5 42.8161 17.1839 43.5 18.0245 43.5H34.5104C35.3153 43.5 35.9838 42.8707 36.0324 42.0673C36.033 42.0567 36.0334 42.0461 36.0334 42.0355V41.9263C36.6901 42.2009 37.391 42.3386 38.092 42.3386C39.4545 42.3386 40.817 41.82 41.8543 40.7828C42.8592 39.7778 43.4126 38.4417 43.4126 37.0205C43.4126 35.5994 42.8591 34.2633 41.8542 33.2584ZM34.2363 21.8964H30.7552C30.6909 21.8964 30.6386 21.844 30.6386 21.7798V18.2983L34.2363 21.8964ZM34.9797 42.0167C34.9585 42.2587 34.7547 42.4464 34.5104 42.4464H18.0245C17.7648 42.4464 17.5536 42.2352 17.5536 41.9755V18.0245C17.5536 17.7648 17.7648 17.5536 18.0245 17.5536H29.5851V21.7798C29.5851 22.425 30.11 22.9499 30.7553 22.9499H34.9814V32.7039C34.7532 32.8686 34.5351 33.0532 34.3298 33.2584C33.3249 34.2633 32.7715 35.5994 32.7715 37.0206C32.7715 38.4418 33.3249 39.7779 34.3298 40.7828C34.5346 40.9876 34.7522 41.1718 34.9798 41.3361V42.0167H34.9797ZM41.1092 40.0378C39.4455 41.7015 36.7385 41.7015 35.0748 40.0378C34.2688 39.2318 33.825 38.1603 33.825 37.0206C33.825 35.8809 34.2688 34.8093 35.0748 34.0034C35.9066 33.1716 36.9993 32.7556 38.0919 32.7556C39.1846 32.7556 40.2773 33.1716 41.1091 34.0034C41.9151 34.8094 42.3589 35.8809 42.3589 37.0206C42.3589 38.1603 41.9151 39.2318 41.1092 40.0378Z" fill="#5518B5"/>
<path d="M20.2122 24.8959H27.5563C27.8473 24.8959 28.0831 24.6601 28.0831 24.3692C28.0831 24.0782 27.8473 23.8424 27.5563 23.8424H20.2122C19.9212 23.8424 19.6854 24.0782 19.6854 24.3692C19.6854 24.6601 19.9212 24.8959 20.2122 24.8959Z" fill="#5518B5"/>
<path d="M29.388 33.3202H20.2122C19.9212 33.3202 19.6854 33.5561 19.6854 33.847C19.6854 34.138 19.9212 34.3738 20.2122 34.3738H29.388C29.679 34.3738 29.9148 34.138 29.9148 33.847C29.9148 33.5561 29.679 33.3202 29.388 33.3202Z" fill="#5518B5"/>
<path d="M29.388 36.4795H20.2122C19.9212 36.4795 19.6854 36.7154 19.6854 37.0063C19.6854 37.2973 19.9212 37.5331 20.2122 37.5331H29.388C29.679 37.5331 29.9148 37.2973 29.9148 37.0063C29.9148 36.7154 29.679 36.4795 29.388 36.4795Z" fill="#5518B5"/>
<path d="M32.3501 30.161H20.2122C19.9212 30.161 19.6854 30.3968 19.6854 30.6878C19.6854 30.9787 19.9212 31.2146 20.2122 31.2146H32.3501C32.641 31.2146 32.8769 30.9787 32.8769 30.6878C32.8769 30.3968 32.641 30.161 32.3501 30.161Z" fill="#5518B5"/>
<path d="M20.1595 28.0893H29.6635C29.9545 28.0893 30.1903 27.8535 30.1903 27.5625C30.1903 27.2716 29.9545 27.0358 29.6635 27.0358H20.1595C19.8686 27.0358 19.6327 27.2716 19.6327 27.5625C19.6327 27.8535 19.8686 28.0893 20.1595 28.0893Z" fill="#5518B5"/>
<path d="M32.2851 28.0896C32.5762 28.0896 32.8122 27.8536 32.8122 27.5625C32.8122 27.2715 32.5762 27.0355 32.2851 27.0355C31.994 27.0355 31.7581 27.2715 31.7581 27.5625C31.7581 27.8536 31.994 28.0896 32.2851 28.0896Z" fill="#5518B5"/>
<path d="M38.092 33.9894C37.8011 33.9894 37.5652 34.2252 37.5652 34.5162V37.6769C37.5652 37.9678 37.8011 38.2037 38.092 38.2037C38.3829 38.2037 38.6188 37.9678 38.6188 37.6769V34.5162C38.6188 34.2252 38.3829 33.9894 38.092 33.9894Z" fill="#5518B5"/>
<path d="M38.092 38.7019C37.8011 38.7019 37.5652 38.9377 37.5652 39.2286V39.2572C37.5652 39.5482 37.8011 39.784 38.092 39.784C38.3829 39.784 38.6188 39.5482 38.6188 39.2572V39.2286C38.6188 38.9377 38.3829 38.7019 38.092 38.7019Z" fill="#5518B5"/>
</svg>
