<svg width="60" height="60" viewBox="0 0 60 60" fill="none" xmlns="http://www.w3.org/2000/svg">
<rect x="0.000244141" y="5.34058e-05" width="60" height="60" rx="10" fill="white"/>
<path d="M29.6726 29.5203L30.7349 28.4581C31.1387 28.675 31.5999 28.7982 32.0893 28.7982C33.674 28.7982 34.9632 27.5092 34.9632 25.9246C34.9632 24.3401 33.674 23.0509 32.0893 23.0509C30.5049 23.0509 29.2156 24.3401 29.2156 25.9246C29.2156 26.414 29.3391 26.8752 29.5557 27.2789L28.4934 28.3413L20.8869 20.7346C20.7305 20.5782 20.5184 20.4902 20.2973 20.4902C20.0762 20.4902 19.8641 20.5782 19.7077 20.7346C17.9483 22.494 17.2478 25.0748 17.7355 28.0016C18.0816 30.078 19.0023 32.1564 20.3838 34.0301L17.0539 42.8723C16.9573 43.1285 16.9926 43.4156 17.1483 43.6407C17.3042 43.8657 17.5604 44.0001 17.834 44.0001H29.5068C29.7847 44.0001 30.0441 43.8618 30.1989 43.6311C30.3538 43.4008 30.3837 43.1082 30.2788 42.851L29.1571 40.1027C29.4417 40.1717 29.7271 40.2307 30.0122 40.2781C30.6198 40.3794 31.2124 40.4294 31.786 40.4294C33.9749 40.4294 35.885 39.7003 37.2791 38.3062C37.4354 38.1498 37.5234 37.9377 37.5234 37.7166C37.5234 37.4955 37.4356 37.2833 37.2791 37.127L29.6726 29.5203ZM32.0895 24.7187C32.7545 24.7187 33.2954 25.2596 33.2954 25.9246C33.2954 26.5896 32.7545 27.1305 32.0895 27.1305C31.4245 27.1305 30.8834 26.5896 30.8834 25.9246C30.8834 25.2596 31.4245 24.7187 32.0895 24.7187ZM30.2863 38.633C27.8025 38.2192 25.2961 36.8527 23.2284 34.7852C21.1612 32.7178 19.7946 30.2113 19.3806 27.7273C19.0412 25.6915 19.3832 23.8868 20.3449 22.551L35.4626 37.6687C34.1268 38.6304 32.3221 38.9724 30.2863 38.633ZM28.2659 42.3323H19.0391L21.6094 35.5079C21.7527 35.6621 21.8993 35.8145 22.0492 35.9644C23.5525 37.4677 25.2745 38.6409 27.0717 39.4072L28.2659 42.3323Z" fill="#5518B5"/>
<path d="M32.0896 19.5513C31.629 19.5513 31.2556 19.9245 31.2556 20.3851C31.2556 20.8457 31.629 21.2189 32.0896 21.2189C34.6843 21.2189 36.7953 23.3299 36.7953 25.9246C36.7953 26.3851 37.1685 26.7585 37.6291 26.7585C38.0896 26.7585 38.4628 26.3851 38.4628 25.9246C38.4628 22.4102 35.6039 19.5513 32.0896 19.5513Z" fill="#CF1E2E"/>
<path d="M32.0896 16.0001C31.629 16.0001 31.2556 16.3735 31.2556 16.8338C31.2556 17.2944 31.629 17.6678 32.0896 17.6678C36.6423 17.6678 40.3463 21.3718 40.3463 25.9246C40.3463 26.3851 40.7198 26.7585 41.1801 26.7585C41.6407 26.7585 42.0141 26.3851 42.0141 25.9246C42.0141 20.4522 37.562 16.0001 32.0896 16.0001Z" fill="#CF1E2E"/>
</svg>
