<svg width="60" height="60" viewBox="0 0 60 60" fill="none" xmlns="http://www.w3.org/2000/svg">
<rect x="0.000244141" y="5.34058e-05" width="60" height="60" rx="10" fill="white"/>
<g clip-path="url(#clip0_1173_2318)">
<path d="M21.4545 28.5745C21.414 30.7682 22.2552 32.8864 23.7899 34.4544C25.1979 35.9539 25.9591 37.9471 25.909 40.0035V40.8181C25.909 42.5754 27.3336 44 29.0908 44H30.3636C32.1208 44 33.5454 42.5754 33.5454 40.8181V39.7745C33.5279 37.8183 34.2745 35.9324 35.6264 34.5182C38.8285 31.2592 38.7823 26.0214 35.5233 22.8194C33.8917 21.2163 31.6691 20.3602 29.3837 20.4547C25.0299 20.6845 21.5811 24.2164 21.4545 28.5745ZM32.3108 38.9089C32.3108 39.1952 32.2727 39.4817 32.2727 39.7744V40.1816H27.1817V40.0034C27.1797 39.6376 27.1585 39.2723 27.1181 38.9089H32.3108ZM30.3636 42.7269H29.0908C28.2837 42.7247 27.5653 42.2151 27.2964 41.4542H32.1582C31.8891 42.2151 31.1707 42.7247 30.3636 42.7269ZM29.4345 21.7272H29.7272C33.5931 21.7292 36.7256 24.8647 36.7236 28.7306C36.7227 30.5617 36.0043 32.3194 34.7226 33.627C33.6366 34.7356 32.8789 36.1231 32.5335 37.6361H31.108H30.1939L32.824 38.9089C33.1754 38.9089 33.4603 38.6239 33.4603 38.2725C33.4603 37.9211 33.1754 37.6361 32.824 37.6361H26.4606C26.1091 37.6361 25.8242 37.9211 25.8242 38.2725C25.8242 38.6239 26.1091 38.9089 26.4606 38.9089L29.34 37.6361H28.3464H26.8954C26.5403 36.1176 25.7843 34.7222 24.7064 33.5953C23.4018 32.264 22.6884 30.4635 22.7273 28.5999C22.8316 24.9116 25.75 21.9213 29.4345 21.7272Z" fill="#5518B5" stroke="#5518B5" stroke-width="0.1"/>
<path d="M29.7272 19.8682H29.7272C30.1062 19.8681 30.4136 19.5609 30.4136 19.1818V16.6364C30.4136 16.2573 30.1062 15.95 29.7272 15.95C29.3482 15.95 29.0408 16.2573 29.0408 16.6364V19.1818C29.0408 19.5609 29.3482 19.8682 29.7272 19.8682Z" fill="#CF1E2E" stroke="#CF1E2E" stroke-width="0.1"/>
<path d="M39.4216 19.331L39.457 19.3663L39.4216 19.331L36.8765 21.8763C36.8764 21.8763 36.8764 21.8764 36.8764 21.8764C36.6073 22.1433 36.6055 22.5779 36.8725 22.847L36.8726 22.8472L36.8762 22.8507C36.8762 22.8507 36.8762 22.8507 36.8762 22.8507C37.1431 23.1199 37.5777 23.1216 37.8469 22.8546L37.847 22.8545L37.8507 22.8508L37.8507 22.8508L40.3961 20.3053C40.6652 20.0362 40.6652 19.6001 40.3961 19.331C40.127 19.0619 39.6907 19.0619 39.4216 19.331Z" fill="#CF1E2E" stroke="#CF1E2E" stroke-width="0.1"/>
<path d="M22.5741 22.8546L22.5743 22.8545L22.5778 22.851C22.5778 22.8509 22.5778 22.8509 22.5778 22.8509C22.847 22.584 22.8487 22.1494 22.5817 21.8803L22.5816 21.8801L22.5797 21.8783L22.5779 21.8765L20.0324 19.331C19.7633 19.0619 19.3272 19.0619 19.0581 19.331C18.789 19.6001 18.789 20.0362 19.0581 20.3053L21.6034 22.8507C21.6034 22.8507 21.6035 22.8507 21.6035 22.8507C21.8704 23.1199 22.305 23.1216 22.5741 22.8546Z" fill="#CF1E2E" stroke="#CF1E2E" stroke-width="0.1"/>
<path d="M38.5862 29.9998C38.5862 30.3789 38.8936 30.6862 39.2726 30.6862H41.8181C42.1971 30.6862 42.5044 30.3789 42.5044 29.9998C42.5044 29.6208 42.1971 29.3135 41.8181 29.3135H39.2726C38.8936 29.3135 38.5862 29.6208 38.5862 29.9998Z" fill="#CF1E2E" stroke="#CF1E2E" stroke-width="0.1"/>
<path d="M16.95 29.9998C16.95 30.3789 17.2573 30.6862 17.6364 30.6862H20.1819C20.5609 30.6862 20.8682 30.3789 20.8682 29.9998C20.8682 29.6208 20.5609 29.3135 20.1819 29.3135H17.6364C17.2573 29.3135 16.95 29.6208 16.95 29.9998Z" fill="#CF1E2E" stroke="#CF1E2E" stroke-width="0.1"/>
</g>
<defs>
<clipPath id="clip0_1173_2318">
<rect width="30" height="30" fill="white" transform="translate(15.0002 15.0001)"/>
</clipPath>
</defs>
</svg>
