<svg width="60" height="60" viewBox="0 0 60 60" fill="none" xmlns="http://www.w3.org/2000/svg">
<rect opacity="0.1" y="1.52588e-05" width="60" height="60" rx="5" fill="#5518B5"/>
<g clip-path="url(#clip0_1173_3854)">
<path d="M30 21.4655C30.4397 21.4655 30.7759 21.8017 30.7759 22.2414V27.5431C31.8362 27.8793 32.5862 28.8621 32.5862 30C32.5862 31.4224 31.4224 32.5862 30 32.5862C28.8362 32.5862 27.8535 31.8362 27.5431 30.7759H22.2414C21.8017 30.7759 21.4655 30.4397 21.4655 30C21.4655 29.5604 21.8017 29.2242 22.2414 29.2242H27.5431C27.8017 28.4224 28.4224 27.7759 29.2241 27.5431V22.2414C29.2241 21.8017 29.5604 21.4655 30 21.4655ZM28.9655 30C28.9655 30.569 29.431 31.0345 30 31.0345C30.569 31.0345 31.0345 30.569 31.0345 30C31.0345 29.431 30.569 28.9655 30 28.9655C29.431 28.9655 28.9655 29.431 28.9655 30Z" fill="#5518B5"/>
<path d="M30 15C38.2759 15 45 21.7241 45 30C45 38.2759 38.2759 45 30 45C25.9914 45 22.2155 43.4483 19.4224 40.6293L19.3966 40.6035V42.5172C19.3966 42.9569 19.0603 43.2931 18.6207 43.2931C18.181 43.2931 17.8448 42.9569 17.8448 42.5172V38.819C17.8448 38.3793 18.181 38.0431 18.6207 38.0431H22.3448C22.7845 38.0431 23.1207 38.3793 23.1207 38.819C23.1207 39.2586 22.7845 39.5948 22.3448 39.5948H20.6121C23.1207 42.0776 26.4569 43.4483 30 43.4483C37.4224 43.4483 43.4483 37.4224 43.4483 30C43.4483 22.5776 37.4224 16.5517 30 16.5517C22.5776 16.5517 16.5517 22.5776 16.5517 30C16.5517 30.4397 16.2155 30.7759 15.7759 30.7759C15.3362 30.7759 15 30.4397 15 30C15 21.7241 21.75 15 30 15Z" fill="#5518B5"/>
<path d="M16.3448 34.8362C15.8735 34.8362 15.4914 34.4541 15.4914 33.9828C15.4914 33.5114 15.8735 33.1293 16.3448 33.1293C16.8162 33.1293 17.1983 33.5114 17.1983 33.9828C17.1983 34.4541 16.8162 34.8362 16.3448 34.8362Z" fill="#5518B5"/>
</g>
<defs>
<clipPath id="clip0_1173_3854">
<rect width="30" height="30" fill="white" transform="matrix(-1 0 0 1 45 15)"/>
</clipPath>
</defs>
</svg>
