<svg width="60" height="60" viewBox="0 0 60 60" fill="none" xmlns="http://www.w3.org/2000/svg">
<rect x="0.000244141" width="60" height="60" rx="10" fill="white"/>
<g clip-path="url(#clip0_1108_4371)">
<path d="M35.8271 40.134C36.1508 40.134 36.4131 39.8717 36.4131 39.5481C36.4131 39.2245 36.1508 38.9622 35.8271 38.9622C35.5035 38.9622 35.2412 39.2245 35.2412 39.5481C35.2412 39.8717 35.5035 40.134 35.8271 40.134Z" fill="#5518B5"/>
<path d="M38.1973 40.134C38.5209 40.134 38.7832 39.8717 38.7832 39.5481C38.7832 39.2245 38.5209 38.9622 38.1973 38.9622C37.8737 38.9622 37.6113 39.2245 37.6113 39.5481C37.6113 39.8717 37.8737 40.134 38.1973 40.134Z" fill="#5518B5"/>
<path d="M40.5676 40.134C40.8912 40.134 41.1536 39.8717 41.1536 39.5481C41.1536 39.2245 40.8912 38.9622 40.5676 38.9622C40.244 38.9622 39.9817 39.2245 39.9817 39.5481C39.9817 39.8717 40.244 40.134 40.5676 40.134Z" fill="#5518B5"/>
<path d="M30.0051 38.1709C30.3287 38.1709 30.5911 37.9086 30.5911 37.585C30.5911 37.2614 30.3287 36.999 30.0051 36.999C29.6815 36.999 29.4192 37.2614 29.4192 37.585C29.4192 37.9086 29.6815 38.1709 30.0051 38.1709Z" fill="#CF1E2E"/>
<path d="M31.8115 15.5277L30.0002 18.0032L28.1889 15.5277L28.1889 15.5277C27.963 15.219 27.5297 15.1518 27.221 15.3777C26.9123 15.6036 26.8451 16.0369 27.071 16.3456L27.071 16.3456L28.6957 18.566H17.3705C16.0083 18.566 14.9002 19.6741 14.9002 21.0363V39.8187C14.9002 41.1808 16.0083 42.2889 17.3705 42.2889H18.9971V44.0633C18.9971 44.4457 19.3071 44.7558 19.6896 44.7558C20.0721 44.7558 20.3822 44.4457 20.3822 44.0633V42.2889H39.6183V44.0633C39.6183 44.4457 39.9283 44.7558 40.3108 44.7558C40.6933 44.7558 41.0034 44.4457 41.0034 44.0633V42.2889H42.63C43.9921 42.2889 45.1002 41.1808 45.1002 39.8187V21.0363C45.1002 19.6741 43.9922 18.566 42.63 18.566H31.3047L32.9294 16.3456C32.9294 16.3456 32.9294 16.3456 32.9294 16.3456C33.1554 16.0369 33.0881 15.6036 32.7795 15.3777C32.4709 15.1518 32.0374 15.2189 31.8115 15.5277C31.8115 15.5277 31.8115 15.5277 31.8115 15.5277ZM43.7151 39.8187V39.8299C43.709 40.423 43.2245 40.9038 42.63 40.9038H17.3705C16.7722 40.9038 16.2854 40.4169 16.2854 39.8187V21.0363C16.2854 20.438 16.7722 19.9512 17.3705 19.9512H42.63C43.2282 19.9512 43.7151 20.438 43.7151 21.0363V39.8187Z" fill="#5518B5" stroke="#5518B5" stroke-width="0.2"/>
<path d="M39.5118 21.3687H20.4886C19.1265 21.3687 18.0184 22.4768 18.0184 23.839V35.8315C18.0184 37.1936 19.1265 38.3017 20.4886 38.3017H27.3336C27.7161 38.3017 28.0262 37.9916 28.0262 37.6092C28.0262 37.2267 27.7161 36.9166 27.3336 36.9166H20.4886C19.8904 36.9166 19.4035 36.4297 19.4035 35.8315V23.839C19.4035 23.2407 19.8904 22.7539 20.4886 22.7539H39.5117C40.11 22.7539 40.5969 23.2407 40.5969 23.839V35.8315C40.5969 36.4297 40.11 36.9166 39.5117 36.9166H32.6866C32.3041 36.9166 31.9941 37.2267 31.9941 37.6092C31.9941 37.9916 32.3041 38.3017 32.6866 38.3017H39.5118C40.874 38.3017 41.982 37.1936 41.982 35.8315V23.839C41.982 22.4768 40.874 21.3687 39.5118 21.3687Z" fill="#CF1E2E" stroke="#CF1E2E" stroke-width="0.2"/>
</g>
<defs>
<clipPath id="clip0_1108_4371">
<rect width="30" height="30" fill="white" transform="translate(15.0002 15)"/>
</clipPath>
</defs>
</svg>
