<svg width="60" height="60" viewBox="0 0 60 60" fill="none" xmlns="http://www.w3.org/2000/svg">
<rect x="0.000244141" width="60" height="60" rx="10" fill="white"/>
<g clip-path="url(#clip0_1108_4472)">
<path d="M44.6812 27.1912L30.4608 16.7792C30.1865 16.5785 29.814 16.5785 29.5399 16.7792L15.3193 27.1912C14.972 27.4455 14.8965 27.9332 15.1509 28.2806C15.4052 28.6279 15.893 28.7033 16.2403 28.449L30.0003 18.3742L43.7602 28.449C43.899 28.5506 44.0602 28.5996 44.2201 28.5996C44.4601 28.5996 44.6969 28.4891 44.8496 28.2805C45.104 27.9332 45.0286 27.4455 44.6812 27.1912Z" fill="#CF1E2E"/>
<path d="M40.913 28.6255C40.4826 28.6255 40.1335 28.9745 40.1335 29.405V41.8121H33.8978V35.0395C33.8978 32.8903 32.1493 31.1419 30.0002 31.1419C27.8511 31.1419 26.1025 32.8904 26.1025 35.0395V41.8122H19.8668V29.405C19.8668 28.9745 19.5178 28.6255 19.0873 28.6255C18.6569 28.6255 18.3079 28.9745 18.3079 29.405V42.5917C18.3079 43.0222 18.6569 43.3712 19.0873 43.3712H26.882C27.2919 43.3712 27.6274 43.0545 27.6584 42.6524C27.6603 42.6342 27.6615 42.6143 27.6615 42.5917V35.0396C27.6615 33.75 28.7106 32.7009 30.0002 32.7009C31.2898 32.7009 32.3389 33.75 32.3389 35.0396V42.5917C32.3389 42.6142 32.3401 42.6337 32.3419 42.6517C32.3727 43.0541 32.7082 43.3712 33.1184 43.3712H40.913C41.3435 43.3712 41.6925 43.0222 41.6925 42.5917V29.405C41.6925 28.9745 41.3435 28.6255 40.913 28.6255Z" fill="#5518B5"/>
</g>
<defs>
<clipPath id="clip0_1108_4472">
<rect width="30" height="30" fill="white" transform="translate(15.0002 15)"/>
</clipPath>
</defs>
</svg>
