<svg width="60" height="60" viewBox="0 0 60 60" fill="none" xmlns="http://www.w3.org/2000/svg">
<rect x="0.000244141" y="0.000244141" width="60" height="60" rx="10" fill="white"/>
<g clip-path="url(#clip0_1108_4513)">
<path d="M44.0991 23.9077C44.0989 23.9065 44.0986 23.9052 44.0983 23.9041C44.0955 23.8505 44.0851 23.7976 44.0672 23.7469C44.0655 23.735 44.0616 23.7194 44.0529 23.7037C44.0256 23.6442 43.9882 23.5898 43.9422 23.543L43.9424 23.5428L43.9372 23.5382C43.9224 23.5251 43.907 23.5128 43.8911 23.5011C43.8672 23.4791 43.8415 23.4591 43.8141 23.4414L43.8143 23.4412L43.8081 23.4378L30.2751 15.9713C30.2751 15.9713 30.275 15.9712 30.275 15.9712C30.1046 15.8766 29.8975 15.8766 29.7272 15.9713C29.7272 15.9713 29.7272 15.9713 29.7271 15.9713L16.1941 23.4378L16.194 23.4376L16.1881 23.4414C16.1608 23.4591 16.135 23.4791 16.1111 23.5012C16.0952 23.5128 16.0798 23.5251 16.0651 23.5382L16.0649 23.538L16.06 23.543C16.0125 23.5914 15.9742 23.6478 15.9467 23.7096L15.938 23.729V23.7386C15.9183 23.7918 15.9069 23.8476 15.904 23.9041C15.9037 23.9053 15.9034 23.9065 15.9031 23.9077C15.9017 23.9142 15.9002 23.9231 15.9002 23.9337V25.8003C15.9002 26.1133 16.154 26.367 16.4669 26.367H17.7688V40.1669H16.4688C16.1558 40.1669 15.9021 40.4206 15.9021 40.7336V43.5336C15.9021 43.8465 16.1558 44.1002 16.4688 44.1002H43.5353C43.8483 44.1002 44.102 43.8465 44.102 43.5336V40.7336C44.102 40.4206 43.8483 40.1669 43.5353 40.1669H42.2353V26.367H43.5353C43.8483 26.367 44.102 26.1133 44.102 25.8003V23.9337C44.102 23.9231 44.1006 23.9142 44.0991 23.9077ZM18.6691 23.367L30.0021 17.1142L41.335 23.367H18.6691ZM42.9687 41.3003V42.9669H17.0354V41.3003H42.9687ZM18.9021 40.1669V26.367H20.5688V40.1669H18.9021ZM21.7021 40.1669V26.367H38.302V40.1669H21.7021ZM39.4354 40.1669V26.367H41.102V40.1669H39.4354ZM17.0354 25.2337V24.5003H42.9687V25.2337H17.0354Z" fill="#5518B5" stroke="#5518B5" stroke-width="0.2"/>
<g clip-path="url(#clip1_1108_4513)">
<path d="M27.2349 33.1055V33.1055H28.6403C29.4976 33.1034 30.2278 32.4901 30.3848 31.6559H27.2326C27.0496 31.6559 26.9002 31.5066 26.9002 31.3236C26.9002 31.1406 27.0496 30.9913 27.2326 30.9913H30.3843C30.2283 30.1884 29.507 29.5649 28.6405 29.5649H27.2326C27.0496 29.5649 26.9002 29.4156 26.9002 29.2326C26.9002 29.0496 27.0496 28.9002 27.2326 28.9002H32.1488C32.3318 28.9002 32.4811 29.0496 32.4811 29.2326C32.4811 29.4156 32.3318 29.5649 32.1488 29.5649H30.315C30.7093 29.9336 30.9788 30.4436 31.057 30.9913H32.1488C32.3318 30.9913 32.4811 31.1406 32.4811 31.3236C32.4811 31.5066 32.3318 31.6559 32.1488 31.6559H31.0575C30.8957 32.848 29.8722 33.7702 28.6382 33.7702H28.067L30.9768 36.5226L30.9779 36.5237L30.9779 36.5237C31.1092 36.6517 31.1164 36.86 30.9908 36.9955L30.9899 36.9964L30.9899 36.9964C30.8641 37.1288 30.6546 37.1361 30.5211 37.0095L27.2349 33.1055ZM27.2349 33.1055L27.2331 33.1055C27.0489 33.1088 26.8997 33.26 26.9026 33.4457M27.2349 33.1055L30.521 37.0093L27.0059 33.6848L27.0039 33.6828L27.0039 33.6828C26.9434 33.6223 26.9028 33.5376 26.9026 33.4457M26.9026 33.4457C26.9026 33.4454 26.9026 33.4451 26.9026 33.4448H27.0026L26.9026 33.4466C26.9026 33.4463 26.9026 33.446 26.9026 33.4457Z" fill="#CF1E2E" stroke="#CF1E2E" stroke-width="0.2"/>
</g>
</g>
<defs>
<clipPath id="clip0_1108_4513">
<rect width="30" height="30" fill="white" transform="translate(15.0002 15.0002)"/>
</clipPath>
<clipPath id="clip1_1108_4513">
<rect width="10" height="10" fill="white" transform="translate(25.0002 28.0002)"/>
</clipPath>
</defs>
</svg>
