<svg width="60" height="60" viewBox="0 0 60 60" fill="none" xmlns="http://www.w3.org/2000/svg">
<rect x="0.000244141" width="60" height="60" rx="10" fill="white"/>
<g clip-path="url(#clip0_1108_4393)">
<path d="M35.2533 29.1092C35.2512 29.1092 35.2492 29.1092 35.2472 29.1092H32.7348V26.5907C32.7382 26.0828 32.3292 25.6682 31.8212 25.6648C31.8191 25.6648 31.8171 25.6648 31.8151 25.6648H28.1854C27.6775 25.6648 27.2657 26.0766 27.2657 26.5845V29.1031H24.7533C24.2454 29.0997 23.8308 29.5086 23.8274 30.0166C23.8274 30.0207 23.8274 30.0248 23.8274 30.029V33.6524C23.8274 34.1604 24.2392 34.5722 24.7471 34.5722H27.2657V37.0845C27.2623 37.5925 27.6713 38.0071 28.1792 38.0105C28.1813 38.0105 28.1834 38.0105 28.1854 38.0105H31.8089C32.3168 38.0105 32.7286 37.5987 32.7286 37.0907V34.5722H35.2472C35.7551 34.5756 36.1697 34.1666 36.1731 33.6586C36.1731 33.6565 36.1731 33.6545 36.1731 33.6524V30.029C36.1731 29.521 35.7614 29.1092 35.2533 29.1092ZM34.9385 33.3376H32.1175C31.7766 33.3376 31.5002 33.614 31.5002 33.9549V36.7759H28.5002V33.9549C28.5002 33.614 28.2238 33.3376 27.883 33.3376H25.062V30.3438H27.883C28.2238 30.3438 28.5002 30.0674 28.5002 29.7265V26.8994H31.4941V29.7204C31.4941 30.0612 31.7705 30.3376 32.1113 30.3376H34.9385V33.3376Z" fill="#CF1E2E"/>
<path d="M33.9204 16.9213L33.9204 16.9213C33.868 16.9196 33.8156 16.9201 33.7631 16.9227H26.2374C25.1926 16.8697 24.3021 17.6729 24.2475 18.7178L24.2475 18.7179C24.2448 18.7705 24.2442 18.8233 24.2459 18.8762V20.9351H19.2595C18.2609 20.9351 17.1718 21.219 16.3303 21.9092C15.4856 22.602 14.9002 23.6963 14.9002 25.2943V38.7203C14.9002 40.3183 15.4856 41.4126 16.3303 42.1055C17.1718 42.7956 18.2609 43.0795 19.2595 43.0795H40.741C41.7396 43.0795 42.8287 42.7956 43.6701 42.1055C44.5149 41.4126 45.1002 40.3183 45.1002 38.7203V25.3067C45.1002 23.7087 44.5165 22.6144 43.6725 21.9215C42.8318 21.2314 41.7427 20.9474 40.741 20.9474H35.7546V18.8761C35.7874 17.8302 34.9666 16.9551 33.9204 16.9213ZM25.6805 18.8746C25.6805 18.7831 25.6821 18.6439 25.7496 18.5273C25.8108 18.4214 25.9389 18.3141 26.241 18.3141H33.7657C34.0683 18.3141 34.1962 18.4203 34.2572 18.5252C34.3245 18.6409 34.3262 18.7798 34.3262 18.8746V20.9351H25.6805V18.8746ZM43.6657 38.7203C43.6657 40.054 43.1523 40.7769 42.5416 41.1718C41.9234 41.5715 41.1902 41.645 40.741 41.645H19.2595C18.8135 41.645 18.0802 41.5716 17.4611 41.1718C16.8496 40.7768 16.3348 40.0539 16.3348 38.7203V25.3067C16.3348 23.973 16.8482 23.2501 17.4589 22.8552C18.0771 22.4554 18.8103 22.382 19.2595 22.382H40.741C41.187 22.382 41.9203 22.4554 42.5394 22.8552C43.1509 23.2502 43.6657 23.9731 43.6657 25.3067V38.7203Z" fill="#5518B5" stroke="#5518B5" stroke-width="0.2"/>
</g>
<defs>
<clipPath id="clip0_1108_4393">
<rect width="30" height="30" fill="white" transform="translate(15.0002 15)"/>
</clipPath>
</defs>
</svg>
