<svg width="60" height="60" viewBox="0 0 60 60" fill="none" xmlns="http://www.w3.org/2000/svg">
<rect x="0.00012207" width="60" height="60" rx="10" fill="white"/>
<path d="M36.0832 28.121V22.8221C36.0832 22.6704 36.0131 22.5302 35.914 22.4194L29.9731 16.1809C29.8623 16.0643 29.7046 16 29.5472 16H20.1281C18.3892 16 17.0002 17.418 17.0002 19.1571V36.968C17.0002 38.7071 18.3892 40.1018 20.1281 40.1018H27.563C28.9693 42.4361 31.5255 44 34.4374 44C38.8609 44 42.4733 40.4052 42.4733 35.9759C42.4793 32.1068 39.7013 28.8738 36.0832 28.121ZM30.1308 18.0484L34.1166 22.2442H31.5313C30.761 22.2442 30.1308 21.6082 30.1308 20.8379V18.0484ZM20.1281 38.9346C19.0369 38.9346 18.1675 38.0591 18.1675 36.968V19.1571C18.1675 18.06 19.0369 17.1672 20.1281 17.1672H28.9636V20.8379C28.9636 22.256 30.1133 23.4114 31.5313 23.4114H34.9159V27.9691C34.741 27.9633 34.6009 27.9458 34.4492 27.9458C32.4125 27.9458 30.5392 28.7279 29.127 29.9534H21.7155C21.3945 29.9534 21.1319 30.216 21.1319 30.5368C21.1319 30.8579 21.3945 31.1205 21.7155 31.1205H28.0416C27.6271 31.7041 27.2828 32.2877 27.0145 32.9296H21.7155C21.3945 32.9296 21.1319 33.1922 21.1319 33.5132C21.1319 33.8341 21.3945 34.0969 21.7155 34.0969H26.6351C26.4892 34.6805 26.4133 35.3282 26.4133 35.9759C26.4133 37.0263 26.6176 38.0651 26.9852 38.9406H20.1281V38.9346ZM34.4434 42.8387C30.6619 42.8387 27.5863 39.7632 27.5863 35.9817C27.5863 32.2001 30.6559 29.1246 34.4434 29.1246C38.2307 29.1246 41.3003 32.2001 41.3003 35.9817C41.3003 39.7632 38.225 42.8387 34.4434 42.8387Z" fill="#5518B5" stroke="#5518B5" stroke-width="0.2"/>
<path d="M21.7156 28.2468H27.6272C27.9759 28.2468 28.2608 27.9616 28.2608 27.6132C28.2608 27.2645 27.9759 26.9795 27.6272 26.9795H21.7156C21.3669 26.9795 21.082 27.2645 21.082 27.6132C21.082 27.9616 21.3669 28.2468 21.7156 28.2468Z" fill="#5518B5" stroke="#5518B5" stroke-width="0.1"/>
<path d="M37.618 33.3555L33.206 37.3938L31.047 35.0478C30.831 34.8086 30.4574 34.797 30.2241 35.0128C29.9848 35.2288 29.9731 35.6024 30.189 35.8357L32.745 38.6076C32.8617 38.7303 33.0193 38.7946 33.177 38.7946C33.3169 38.7946 33.4571 38.742 33.5737 38.6427L38.4116 34.2076C38.6509 33.9917 38.6684 33.618 38.4467 33.3848C38.2249 33.1513 37.8573 33.1338 37.618 33.3555Z" fill="#CF1E2E"/>
</svg>
