<svg width="60" height="60" viewBox="0 0 60 60" fill="none" xmlns="http://www.w3.org/2000/svg">
<rect width="60" height="60" rx="10" fill="white"/>
<g clip-path="url(#clip0_1108_4427)">
<path d="M43.2001 19.8H16.8001C15.8077 19.8 15.0001 20.6076 15.0001 21.6001V38.4001C15.0001 39.3925 15.8077 40.2001 16.8001 40.2001H43.2001C44.1925 40.2001 45.0001 39.3925 45.0001 38.4001V21.6001C45.0001 20.6076 44.1925 19.8 43.2001 19.8ZM43.8001 38.4001C43.8001 38.7301 43.5301 39.0001 43.2001 39.0001H16.8001C16.469 39.0001 16.2001 38.7301 16.2001 38.4001V21.6001C16.2001 21.2688 16.469 21 16.8001 21H43.2001C43.5301 21 43.8001 21.2688 43.8001 21.6001V38.4001Z" fill="#5518B5"/>
<path d="M44.4001 25.2H15.6001V27.6H44.4001V25.2Z" fill="#5518B5"/>
<path d="M44.4001 24.6001H15.6001C15.269 24.6001 15.0001 24.8689 15.0001 25.2001V27.6001C15.0001 27.9313 15.269 28.2001 15.6001 28.2001H44.4001C44.7313 28.2001 45.0001 27.9313 45.0001 27.6001V25.2001C45.0001 24.8689 44.7313 24.6001 44.4001 24.6001ZM43.8001 27.0001H16.2001V25.8001H43.8001V27.0001Z" fill="#5518B5"/>
<path d="M31.2002 31.8H20.4002C20.069 31.8 19.8002 32.0689 19.8002 32.4C19.8002 32.7312 20.069 33 20.4002 33H31.2002C31.5313 33 31.8002 32.7312 31.8002 32.4C31.8002 32.0688 31.5313 31.8 31.2002 31.8Z" fill="#CF1E2E"/>
<path d="M26.4002 34.2H20.4002C20.069 34.2 19.8002 34.4688 19.8002 34.8C19.8002 35.1311 20.069 35.4 20.4002 35.4H26.4002C26.7313 35.4 27.0002 35.1311 27.0002 34.8C27.0002 34.4688 26.7313 34.2 26.4002 34.2Z" fill="#CF1E2E"/>
</g>
<defs>
<clipPath id="clip0_1108_4427">
<rect width="30" height="30" fill="white" transform="translate(15.0001 15)"/>
</clipPath>
</defs>
</svg>
