<svg width="60" height="60" viewBox="0 0 60 60" fill="none" xmlns="http://www.w3.org/2000/svg">
<rect width="60" height="60" rx="10" fill="white"/>
<path d="M42.0563 20.2748C40.7512 18.8079 38.9409 18.0001 36.959 18.0001C34.7918 18.0001 32.8142 18.8401 31.2401 20.4294C30.6927 20.9821 30.2836 21.5342 30 21.9723C29.7164 21.5342 29.3073 20.9822 28.7599 20.4294C27.1858 18.8401 25.2083 18 23.041 18C18.8926 18 16 21.4705 16 25.5967C16 31.1703 21.9065 35.8633 29.6419 42.5671C29.7446 42.6562 29.8723 42.7007 30 42.7007C30.1277 42.7007 30.2554 42.6562 30.3581 42.5671C38.112 35.8473 44 31.1626 44 25.5967C44 23.5735 43.3097 21.6835 42.0563 20.2748ZM30 41.4304C22.6954 35.1094 17.0938 30.5695 17.0938 25.5967C17.0938 21.8894 19.6505 19.0938 23.041 19.0938C24.9236 19.0938 26.5772 19.793 27.9558 21.172C29.0062 22.2225 29.4962 23.2947 29.501 23.3054C29.589 23.5016 29.7841 23.6276 29.9992 23.628C29.9995 23.628 29.9999 23.628 30.0002 23.628C30.2153 23.628 30.4106 23.5015 30.499 23.3054C30.5038 23.2947 30.9939 22.2226 32.0442 21.172C33.4228 19.793 35.0764 19.0938 36.959 19.0938C40.3496 19.0938 42.9063 21.8894 42.9063 25.5967C42.9062 30.6818 36.9349 35.4293 30 41.4304Z" fill="#5518B5" stroke="#5518B5" stroke-width="0.4"/>
<path d="M35.25 28.4819H32.1875V25.4194C32.1875 25.1174 31.9427 24.8726 31.6406 24.8726H28.3594C28.0573 24.8726 27.8125 25.1174 27.8125 25.4194V28.4819H24.75C24.448 28.4819 24.2031 28.7268 24.2031 29.0288V32.3101C24.2031 32.6121 24.448 32.8569 24.75 32.8569H27.8125V35.9194C27.8125 36.2215 28.0573 36.4663 28.3594 36.4663H31.6406C31.9427 36.4663 32.1875 36.2215 32.1875 35.9194V32.8569H35.25C35.552 32.8569 35.7969 32.6121 35.7969 32.3101V29.0288C35.7969 28.7268 35.552 28.4819 35.25 28.4819ZM34.7031 31.7631H31.6406C31.3386 31.7631 31.0938 32.008 31.0938 32.31V35.3725H28.9062V32.31C28.9062 32.008 28.6614 31.7631 28.3594 31.7631H25.2969V29.5756H28.3594C28.6614 29.5756 28.9062 29.3308 28.9062 29.0288V25.9663H31.0938V29.0288C31.0938 29.3308 31.3386 29.5756 31.6406 29.5756H34.7031V31.7631Z" fill="#CF1E2E"/>
</svg>
