<svg width="60" height="60" viewBox="0 0 60 60" fill="none" xmlns="http://www.w3.org/2000/svg">
<rect y="0.000167847" width="60" height="60" rx="10" fill="white"/>
<path d="M35.773 35.8474C35.773 36.0082 35.773 36.1407 35.773 36.2732C35.773 38.2863 35.7774 40.2994 35.7708 42.3126C35.7672 43.306 35.0976 43.9931 34.1078 43.9945C29.2933 44.0018 24.4788 44.0018 19.6643 43.9945C18.6621 43.9931 18.0035 43.3257 18.0027 42.3206C17.9991 34.1101 17.9991 25.9004 18.0027 17.6899C18.0027 16.6651 18.6629 16.005 19.6883 16.0036C24.4788 15.9985 29.2686 15.9992 34.059 16.0036C35.1129 16.0043 35.7687 16.6804 35.7716 17.7474C35.7752 19.0575 35.7789 20.3668 35.7672 21.6769C35.765 21.9287 35.8283 22.0255 36.0911 22.0772C39.3357 22.7235 41.68 25.5932 41.6851 28.9041C41.6909 32.2112 39.3779 35.0795 36.1617 35.7557C36.0438 35.7804 35.9266 35.8103 35.773 35.8467V35.8474ZM21.2451 19.2394V38.5803H32.5321C32.5321 37.6888 32.5212 36.8285 32.5386 35.9682C32.5444 35.6865 32.4688 35.5526 32.1878 35.4449C29.5335 34.4282 27.7474 31.8815 27.7052 29.0896C27.6594 26.0721 29.4127 23.4709 32.2468 22.3734C32.4658 22.2882 32.543 22.1885 32.5372 21.9578C32.5219 21.3886 32.5321 20.818 32.5321 20.2482C32.5321 19.9148 32.5321 19.5822 32.5321 19.2394H21.2451ZM34.6908 21.9025V21.6012C34.6908 20.3275 34.6922 19.0545 34.6908 17.7809C34.6908 17.2481 34.5103 17.0698 33.9615 17.0698C29.2438 17.0683 24.5269 17.0683 19.8092 17.0698C19.2371 17.0698 19.0682 17.2387 19.0682 17.81C19.0675 25.9353 19.0675 34.0599 19.0682 42.1852C19.0682 42.758 19.2371 42.9305 19.8041 42.9305C24.5218 42.9319 29.2387 42.9319 33.9564 42.9305C34.5197 42.9305 34.69 42.7536 34.69 42.1874C34.6908 40.223 34.69 38.2579 34.69 36.2935C34.69 36.1771 34.6777 36.0614 34.6704 35.9318C34.3079 35.9056 33.9753 35.8816 33.6085 35.8554C33.6085 36.0112 33.6085 36.1422 33.6085 36.2732C33.6085 37.1946 33.6107 38.1167 33.6071 39.0381C33.6049 39.4996 33.4266 39.6873 32.9768 39.6873C28.9141 39.6895 24.8515 39.6895 20.7888 39.6873C20.3405 39.6873 20.1461 39.4945 20.1461 39.0425C20.144 32.3 20.144 25.5576 20.1461 18.8144C20.1461 18.3449 20.3434 18.1477 20.8114 18.147C24.8616 18.1448 28.9119 18.1441 32.9629 18.147C33.4142 18.147 33.6049 18.342 33.6071 18.7911C33.6114 19.7249 33.6085 20.6587 33.6085 21.5924C33.6085 21.7205 33.6085 21.8486 33.6085 21.9956C33.9855 21.9629 34.3101 21.9352 34.6915 21.9018L34.6908 21.9025ZM28.7722 28.9172C28.7685 32.193 31.412 34.8467 34.6842 34.8525C37.9499 34.8583 40.6057 32.2025 40.6086 28.9288C40.6115 25.6493 37.9739 23.0066 34.6959 23.0044C31.4149 23.0022 28.7758 25.6369 28.7722 28.9172Z" fill="#5518B5" stroke="#5518B5" stroke-width="0.1"/>
<path d="M26.866 40.7718C27.4599 40.7718 28.0538 40.7696 28.6477 40.7725C29.0523 40.7747 29.2932 40.9705 29.3027 41.2944C29.3122 41.6306 29.0603 41.8511 28.6418 41.8526C27.4664 41.857 26.2903 41.857 25.1149 41.8526C24.7 41.8511 24.4453 41.6233 24.4598 41.2885C24.4736 40.9647 24.7124 40.7747 25.1207 40.7725C25.7022 40.7696 26.2844 40.7718 26.866 40.7718Z" fill="#CF1E2E"/>
<path d="M37.29 29.4703H36.1503C36.7536 28.4142 37.3184 27.4259 37.9211 26.372C38.5171 27.4106 39.0834 28.3975 39.6845 29.4455H38.4531C38.392 29.6704 38.3476 29.8553 38.2915 30.0365C37.7122 31.8961 35.8606 32.99 33.9283 32.6159C32.1291 32.268 30.7863 30.5162 30.9246 28.6981C31.0738 26.7337 32.6146 25.2293 34.5549 25.1529C34.9552 25.1369 35.2034 25.3261 35.2201 25.6602C35.2376 26.0008 35.0273 26.1973 34.6168 26.2257C33.1794 26.3247 32.0905 27.3676 32.0039 28.7287C31.9166 30.1071 32.8278 31.2898 34.1947 31.5708C35.5971 31.859 37.1256 30.8386 37.2908 29.471L37.29 29.4703Z" fill="#CF1E2E"/>
</svg>
