<svg width="60" height="60" viewBox="0 0 60 60" fill="none" xmlns="http://www.w3.org/2000/svg">
<rect x="0.00012207" width="60" height="60" rx="10" fill="white"/>
<path d="M40.5249 38.2917C40.5523 41.2541 38.3056 43.9218 35.7172 44C35.7113 44 35.7049 44 35.6997 44H24.7451C21.5034 44 20.0132 41.0453 20.0004 38.2999C19.9747 32.8366 24.3106 26.2261 27.5365 24.0593C25.8317 22.6321 23.8125 19.7648 23.8393 18.3166C23.865 17.7742 23.9554 17.2079 24.4348 16.988C24.9451 16.7541 25.4106 17.1186 25.8206 17.4388C26.0901 17.6494 26.4943 17.9655 26.7036 17.9212C26.8238 17.8944 26.9807 17.7077 27.1236 17.4231C27.1393 17.3916 27.158 17.3624 27.179 17.3344C27.9121 16.3587 28.479 15.958 29.0617 16.0035C29.7698 16.0554 30.1361 16.7284 30.4907 17.3793C30.7205 17.8016 30.9579 18.2379 31.2792 18.5587C31.3125 18.5913 31.3393 18.6147 31.3597 18.6304C31.453 18.5523 31.6029 18.3697 31.7079 18.2414C32.2807 17.5438 33.3468 16.2443 35.5941 17.1425C35.8157 17.2306 35.961 17.4458 35.961 17.6844C35.961 19.0113 35.1672 20.8753 34.1879 22.3819C35.222 22.0553 36.3325 21.8342 37.0621 21.8342C38.9752 21.8342 39.1823 22.9809 39.1823 23.4743C39.1823 24.2279 38.8055 25.4923 36.2818 25.4923C35.6793 25.4923 35.0284 25.4188 34.413 25.3133C37.3281 28.177 40.4817 33.6421 40.5249 38.2917ZM37.0621 23.0007C35.9178 23.0007 34.3786 23.497 33.4273 23.9106C34.2136 24.1118 35.3165 24.3258 36.2823 24.3258C38.0163 24.3258 38.0163 23.6849 38.0163 23.4743C38.0158 23.3203 38.0158 23.0007 37.0621 23.0007ZM28.8255 23.5653C28.8395 23.574 28.8471 23.588 28.8599 23.5979C28.8716 23.6038 28.8844 23.602 28.8955 23.6084C29.7004 24.0581 30.5058 24.0412 31.6082 23.5793C31.6263 23.5711 31.6467 23.5735 31.6665 23.5676C32.8668 22.6443 34.5233 19.8558 34.7653 18.0909C33.6029 17.7701 33.1194 18.3604 32.6108 18.9809C32.283 19.3805 31.9441 19.7928 31.4145 19.8191C31.0763 19.8442 30.7613 19.689 30.4551 19.384C30.0142 18.943 29.7231 18.4088 29.4665 17.9369C29.3119 17.6535 29.0786 17.2242 28.955 17.1618C28.9631 17.1711 28.7211 17.2335 28.1419 17.9958C27.8299 18.5954 27.4327 18.9535 26.9609 19.0597C26.2155 19.2271 25.5733 18.7255 25.1032 18.3586C25.0746 18.3359 25.0425 18.3114 25.0099 18.2857C25.0081 18.3079 25.007 18.3312 25.0058 18.3557C24.9866 19.3816 27.1545 22.523 28.8255 23.5653ZM39.3584 38.3022C39.3193 33.9903 36.287 28.9318 33.709 26.2943C34.0695 26.9265 34.539 27.6025 35.1444 28.2068C35.3731 28.4348 35.3731 28.8034 35.1456 29.0315C35.0319 29.1458 34.882 29.203 34.7326 29.203C34.5833 29.203 34.434 29.1458 34.3209 29.0327C33.3328 28.0464 32.6644 26.9114 32.2369 25.9957C32.0135 26.5702 31.6992 27.2018 31.2629 27.7577C31.0634 28.0126 30.6971 28.0563 30.444 27.8562C30.1909 27.6574 30.1466 27.2905 30.3454 27.038C30.8762 26.362 31.1952 25.5209 31.376 24.9003C30.3472 25.206 29.4589 25.1616 28.6074 24.7691C25.9361 26.2202 21.1412 32.8716 21.1669 38.2941C21.1774 40.4807 22.3013 42.8335 24.7451 42.8335H35.6903C37.8134 42.7635 39.3776 40.3862 39.3584 38.3022Z" fill="#5518B5" stroke="#5518B5" stroke-width="0.2"/>
<path d="M33.1488 34.091H31.9685C31.9012 33.4405 31.5503 32.8364 31.0369 32.4647H33.1488C33.2766 32.4647 33.3811 32.3601 33.3811 32.2323C33.3811 32.1046 33.2766 32 33.1488 32H28.2326C28.1048 32 28.0002 32.1046 28.0002 32.2323C28.0002 32.3601 28.1048 32.4647 28.2326 32.4647H29.6405C30.5978 32.4647 31.3877 33.1849 31.5015 34.091H28.2326C28.1048 34.091 28.0002 34.1956 28.0002 34.3234C28.0002 34.4511 28.1048 34.5557 28.2326 34.5557H31.5015C31.3854 35.4967 30.5861 36.203 29.6405 36.2053H28.2349C28.1048 36.2076 28.0002 36.3145 28.0026 36.4446C28.0026 36.5073 28.0304 36.5677 28.0746 36.6119L31.5898 39.9366C31.6828 40.0249 31.8291 40.0202 31.9174 39.9273C32.0057 39.832 32.0011 39.6857 31.9081 39.5951L28.8157 36.6699H29.6382C30.851 36.6699 31.8524 35.7406 31.9685 34.5557H33.1488C33.2766 34.5557 33.3811 34.4511 33.3811 34.3234C33.3811 34.1956 33.2766 34.091 33.1488 34.091Z" fill="#CF1E2E" stroke="#CF1E2E" stroke-width="0.4"/>
</svg>
