<svg width="60" height="60" viewBox="0 0 60 60" fill="none" xmlns="http://www.w3.org/2000/svg">
<rect x="0.000244141" width="60" height="60" rx="10" fill="white"/>
<path d="M43.5195 44.2109L42.9371 39.552C42.918 38.8087 42.4348 38.1791 41.7669 37.9429C41.7657 26.8408 41.7709 27.561 41.7567 27.4842C41.7187 27.2777 41.5717 27.1094 41.3797 27.0411L35.3069 24.8721C35.6941 24.0016 35.9097 23.0387 35.9097 22.0261C35.9097 18.1519 32.7578 15 28.8835 15C25.0093 15 21.8574 18.1519 21.8574 22.0262C21.8574 23.0387 22.0731 24.0016 22.4602 24.8721L16.3874 27.0411C16.1552 27.124 16.0002 27.344 16.0002 27.5905C16.0002 27.837 16.1552 28.0569 16.3874 28.1398L19.5145 29.2566V35.9229C19.5145 36.6018 19.912 37.2259 20.5272 37.5131C25.8376 39.9914 31.9291 39.9914 37.2399 37.5131C37.855 37.2259 38.2525 36.6018 38.2525 35.9229V29.2566L40.6001 28.4182V37.9429C39.9322 38.1791 39.449 38.8087 39.4298 39.552L38.8475 44.211C38.8041 44.5584 39.0751 44.8667 39.4263 44.8667H42.9406C43.2921 44.8666 43.5629 44.5582 43.5195 44.2109ZM28.8835 16.1667C32.1145 16.1667 34.7431 18.7953 34.7431 22.0262C34.7431 25.2571 32.1145 27.8857 28.8835 27.8857C25.6526 27.8857 23.0241 25.2571 23.0241 22.0262C23.0241 18.7952 25.6526 16.1667 28.8835 16.1667ZM37.0859 29.6733V35.923C37.0859 36.1505 36.9527 36.3597 36.7466 36.4559C31.7494 38.7879 26.0176 38.7879 21.0206 36.4559C20.8144 36.3597 20.6812 36.1505 20.6812 35.923V29.6733L28.6874 32.5326C28.8143 32.578 28.9528 32.578 29.0798 32.5326L37.0859 29.6733ZM28.8835 31.3639C27.0297 30.7018 19.487 28.008 18.3179 27.5904L23.0297 25.9074C24.2897 27.8015 26.4432 29.0524 28.8835 29.0524C31.324 29.0524 33.4774 27.8015 34.7374 25.9075L39.4493 27.5905C38.2949 28.0027 30.1932 30.8962 28.8835 31.3639ZM41.1835 39.0095C41.5079 39.0095 41.7716 39.2733 41.7716 39.5976C41.7716 39.9219 41.5079 40.1857 41.1835 40.1857C40.8592 40.1857 40.5954 39.9218 40.5954 39.5976C40.5954 39.2733 40.8592 39.0095 41.1835 39.0095ZM40.0872 43.6999L40.4035 41.1688C40.8858 41.4092 41.4638 41.4178 41.9634 41.1688L42.2798 43.6999H40.0872Z" fill="#5518B5" stroke="#5518B5" stroke-width="0.2"/>
<g clip-path="url(#clip0_1108_4416)">
<path d="M26.8782 22.518V22.518L28.143 22.518C28.143 22.518 28.1431 22.518 28.1431 22.518C28.9057 22.5161 29.5559 21.9734 29.701 21.2334H26.8761C26.7059 21.2334 26.567 21.0945 26.567 20.9243C26.567 20.754 26.7059 20.6152 26.8761 20.6152H29.7005C29.5562 19.903 28.9139 19.3515 28.1433 19.3515H26.8761C26.7059 19.3515 26.567 19.2126 26.567 19.0424C26.567 18.8721 26.7059 18.7333 26.8761 18.7333H31.3007C31.4709 18.7333 31.6098 18.8721 31.6098 19.0424C31.6098 19.2126 31.4709 19.3515 31.3007 19.3515H29.6754C30.0199 19.6815 30.2557 20.1318 30.3267 20.6152H31.3007C31.4709 20.6152 31.6098 20.754 31.6098 20.9243C31.6098 21.0945 31.4709 21.2334 31.3007 21.2334H30.3273C30.1772 22.3069 29.2538 23.1362 28.1412 23.1362H27.6522L30.2528 25.5962L30.2539 25.5972L30.2539 25.5972C30.3759 25.7161 30.3826 25.9098 30.2658 26.0358L30.265 26.0367L30.265 26.0367C30.148 26.1598 29.9531 26.1667 29.8289 26.0488L26.8782 22.518ZM26.8782 22.518L26.8764 22.518C26.7052 22.5211 26.5665 22.6616 26.5691 22.8343M26.8782 22.518L29.8287 26.0487L26.6652 23.0566L26.6632 23.0547L26.6632 23.0546C26.6071 22.9985 26.5693 22.9198 26.5691 22.8343M26.5691 22.8343C26.5691 22.834 26.5691 22.8337 26.5691 22.8334H26.6691L26.5691 22.8352C26.5691 22.8349 26.5691 22.8346 26.5691 22.8343Z" fill="#CF1E2E" stroke="#CF1E2E" stroke-width="0.2"/>
</g>
<defs>
<clipPath id="clip0_1108_4416">
<rect width="9" height="9" fill="white" transform="translate(24.8669 17.9333)"/>
</clipPath>
</defs>
</svg>
