<svg width="60" height="60" viewBox="0 0 60 60" fill="none" xmlns="http://www.w3.org/2000/svg">
<rect width="60" height="60" rx="10" fill="white"/>
<g clip-path="url(#clip0_1108_4525)">
<path d="M32.5493 40.9829V29.7933C32.5493 29.4134 32.2409 29.105 31.861 29.105C31.481 29.105 31.1727 29.4134 31.1727 29.7933V40.9829C31.1727 41.3628 31.481 41.6712 31.861 41.6712C32.2416 41.6711 32.5493 41.3628 32.5493 40.9829Z" fill="#5518B5" stroke="#5518B5" stroke-width="0.1"/>
<path d="M36.3509 40.9829V29.7933C36.3509 29.4134 36.0425 29.105 35.6626 29.105C35.2827 29.105 34.9743 29.4134 34.9743 29.7933V40.9829C34.9743 41.3628 35.2827 41.6712 35.6626 41.6712C36.0425 41.6712 36.3509 41.3628 36.3509 40.9829Z" fill="#5518B5" stroke="#5518B5" stroke-width="0.1"/>
<path d="M43.5481 44.1742V40.9829C43.5481 40.6029 43.2397 40.2946 42.8598 40.2946H40.0746V28.5104C40.0746 28.1304 39.7662 27.8221 39.3863 27.8221C39.0063 27.8221 38.698 28.1304 38.698 28.5104V40.9829C38.698 41.3628 39.0063 41.6712 39.3863 41.6712H42.1715V43.486H17.8289V41.6712H20.6129C20.9928 41.6712 21.3012 41.3628 21.3012 40.9829V28.5105C21.3012 28.1305 20.9928 27.8221 20.6129 27.8221C20.2329 27.8221 19.9246 28.1305 19.9246 28.5105V40.2946H17.1406C16.7607 40.2946 16.4523 40.603 16.4523 40.983V44.1743C16.4523 44.5543 16.7607 44.8626 17.1406 44.8626H42.8598C43.2404 44.8625 43.5481 44.5541 43.5481 44.1742Z" fill="#5518B5" stroke="#5518B5" stroke-width="0.1"/>
<path d="M25.0255 40.9829V29.7933C25.0255 29.4134 24.7171 29.105 24.3372 29.105C23.9572 29.105 23.6489 29.4134 23.6489 29.7933V40.9829C23.6489 41.3628 23.9572 41.6712 24.3372 41.6712C24.7171 41.6711 25.0255 41.3628 25.0255 40.9829Z" fill="#5518B5" stroke="#5518B5" stroke-width="0.1"/>
<path d="M28.8262 40.9829V29.7933C28.8262 29.4134 28.5179 29.105 28.1379 29.105C27.758 29.105 27.4496 29.4134 27.4496 29.7933V40.9829C27.4496 41.3628 27.758 41.6712 28.1379 41.6712C28.518 41.6711 28.8262 41.3628 28.8262 40.9829Z" fill="#5518B5" stroke="#5518B5" stroke-width="0.1"/>
<path d="M44.0192 25.6269L44.0192 25.627C43.9324 25.8808 43.683 26.05 43.4041 26.05H16.5962C16.3161 26.05 16.0659 25.8797 15.9805 25.6251C15.9805 25.6251 15.9805 25.6251 15.9805 25.6251L16.0279 25.6091L44.0192 25.6269ZM44.0192 25.6269C44.1055 25.3724 44.0062 25.0964 43.7768 24.9436M44.0192 25.6269L43.7768 24.9436M43.7768 24.9436C43.7768 24.9436 43.7768 24.9436 43.7768 24.9436M43.7768 24.9436L43.7768 24.9436M43.7768 24.9436L30.4607 16.0621M43.7768 24.9436L30.4607 16.0621M30.4607 16.0621C30.2385 15.9133 29.9414 15.9128 29.7186 16.0596L30.4607 16.0621ZM18.6503 24.8311L30.0854 17.3037L41.3726 24.8311H18.6503Z" fill="#CF1E2E" stroke="#CF1E2E" stroke-width="0.1"/>
</g>
<defs>
<clipPath id="clip0_1108_4525">
<rect width="30" height="30" fill="white" transform="translate(15 15)"/>
</clipPath>
</defs>
</svg>
