<svg width="60" height="60" viewBox="0 0 60 60" fill="none" xmlns="http://www.w3.org/2000/svg">
<rect width="60" height="60" rx="10" fill="white"/>
<path d="M37.7601 27.0432H37.7208C37.1837 27.0402 36.6649 27.2375 36.2654 27.5965C35.942 26.7017 35.1203 26.0584 34.1578 26.0584C33.5679 26.0625 33.0044 26.3047 32.5957 26.7304C32.2199 25.9696 31.466 25.4535 30.5992 25.4535H30.5574C30.0928 25.4464 29.6395 25.5975 29.272 25.8818V20.458C29.272 19.1473 28.2515 18.0811 27.0103 18.0811C25.7704 18.0811 24.7552 19.1466 24.7546 20.4564L24.7442 31.2175L24.1352 30.4778C23.6012 29.8129 22.8151 29.4001 21.9646 29.3378C21.1316 29.2807 20.3121 29.5705 19.7004 30.139L19.1705 30.5781C18.9996 30.7198 18.9508 30.9613 19.0532 31.1581L24.2051 41.0611C25.1471 42.8709 26.9394 43.9999 28.8826 43.9999H34.6886V43.9949C37.6325 43.9949 40.0193 41.4404 40.0222 38.3038C40.0234 36.9004 40.0181 35.8545 40.019 35.0067C40.022 32.7386 40.0197 31.9017 40.014 29.4029C40.011 28.0952 38.9979 27.0432 37.7601 27.0432ZM39.0701 35.0035C39.0692 35.8515 39.0678 36.9016 39.0664 38.305C39.0639 40.9229 37.0876 43.0577 34.661 43.0577H28.8828C27.2922 43.0577 25.8201 42.1228 25.0411 40.626L20.0644 31.0629L20.3101 30.858C20.3163 30.8529 20.3222 30.8469 20.3282 30.8417C20.7507 30.444 21.3192 30.2398 21.8981 30.2777C22.4899 30.323 23.0359 30.6124 23.4059 31.0762L24.8477 32.8306C24.9737 32.9844 25.183 33.0422 25.3702 32.9753C25.5574 32.9083 25.6826 32.7308 25.6826 32.5321L25.6911 20.4568C25.6915 19.6661 26.2895 19.0229 27.0107 19.0229C27.732 19.0229 28.3299 19.6668 28.3299 20.458V27.7387C28.3299 27.764 28.3288 27.7895 28.3288 27.8153C28.3288 27.8263 28.3299 27.8376 28.3299 27.8484V30.9613C28.3299 31.2214 28.5408 31.4323 28.8009 31.4323C29.0611 31.4323 29.272 31.2214 29.272 30.9613V27.7545C29.272 26.9917 29.8547 26.3955 30.5574 26.3955H30.5992C31.3209 26.3955 31.9214 27.0246 31.9214 27.8157V30.6641C31.9214 30.9242 32.1323 31.1351 32.3924 31.1351C32.6525 31.1351 32.8634 30.9242 32.8634 30.6641V28.4293C32.8634 27.6379 33.4352 26.9942 34.1608 26.9942C34.8823 26.9942 35.454 27.6377 35.454 28.4293V30.5376C35.454 30.7977 35.6649 31.0086 35.925 31.0086C36.1851 31.0086 36.396 30.7977 36.396 30.5376V29.396C36.396 28.6046 36.9991 27.9852 37.7208 27.9852H37.7601C38.48 27.9852 39.0667 28.6152 39.0685 29.404C39.0742 31.901 39.0731 32.737 39.0701 35.0035Z" fill="#5518B5" stroke="#5518B5" stroke-width="0.4"/>
<path d="M23.2582 20.6614C23.5184 20.6614 23.7293 20.4505 23.7293 20.1904C23.7369 18.393 25.1961 16.9402 26.9932 16.9402C28.7906 16.9402 30.2496 18.393 30.2572 20.1904C30.2572 20.4505 30.4681 20.6614 30.7282 20.6614C30.9884 20.6614 31.1993 20.4505 31.1993 20.1904C31.1905 17.8735 29.3101 16 26.9932 16C24.6766 16 22.796 17.8735 22.7872 20.1904C22.7872 20.4505 22.9981 20.6614 23.2582 20.6614Z" fill="#CF1E2E" stroke="#CF1E2E" stroke-width="0.4"/>
</svg>
