<svg width="60" height="60" viewBox="0 0 60 60" fill="none" xmlns="http://www.w3.org/2000/svg">
<rect y="9.15527e-05" width="60" height="60" rx="10" fill="white"/>
<path d="M42.6499 20.248H26.8634C26.7137 19.4055 25.98 18.7627 25.0952 18.7627H19.7327C18.8479 18.7627 18.1142 19.4055 17.9645 20.248H17.3497C16.3852 20.248 15.6001 21.0332 15.6001 21.9977V38.0002C15.6001 38.9652 16.3852 39.7503 17.3497 39.7503H17.9643C18.1134 40.5937 18.8473 41.2375 19.7327 41.2375H25.0952C25.9806 41.2375 26.7145 40.5937 26.8636 39.7503H42.6499C43.6149 39.7503 44.4001 38.9652 44.4001 38.0002V21.9977C44.4001 21.0332 43.6149 20.248 42.6499 20.248ZM16.8001 38.0002V21.9977C16.8001 21.6947 17.0467 21.448 17.3497 21.448H17.9327V38.5503H17.3497C17.0467 38.5503 16.8001 38.3037 16.8001 38.0002ZM25.6952 39.4375C25.6952 39.7685 25.4263 40.0375 25.0952 40.0375H19.7327C19.4016 40.0375 19.1327 39.7685 19.1327 39.4375C19.1327 33.3009 19.1327 26.5269 19.1327 20.5627C19.1327 20.2316 19.4016 19.9627 19.7327 19.9627H25.0952C25.4263 19.9627 25.6952 20.2316 25.6952 20.5627V39.4375ZM43.2001 38.0002C43.2001 38.3089 42.9587 38.5503 42.6499 38.5503H26.8952V21.448H42.6499C42.9534 21.448 43.2001 21.6947 43.2001 21.9977V38.0002Z" fill="#5518B5" stroke="#5518B5" stroke-width="0.2"/>
<path d="M40.4784 23.3148H29.4259C29.0942 23.3148 28.8259 23.5832 28.8259 23.9148V27.9396C28.8259 28.2713 29.0942 28.5396 29.4259 28.5396H40.4784C40.8101 28.5396 41.0784 28.2713 41.0784 27.9396V23.9148C41.0784 23.5832 40.8101 23.3148 40.4784 23.3148ZM39.8784 27.3396H30.0259V24.5148H39.8784V27.3396Z" fill="#5518B5"/>
<path d="M31.949 30.2025H30.5116C30.18 30.2025 29.9116 30.4709 29.9116 30.8025C29.9116 31.1342 30.18 31.4025 30.5116 31.4025H31.949C32.2806 31.4025 32.549 31.1342 32.549 30.8025C32.549 30.4709 32.2806 30.2025 31.949 30.2025Z" fill="#CF1E2E"/>
<path d="M35.6708 30.2025H34.2335C33.9019 30.2025 33.6335 30.4709 33.6335 30.8025C33.6335 31.1342 33.9019 31.4025 34.2335 31.4025H35.6708C36.0024 31.4025 36.2708 31.1342 36.2708 30.8025C36.2708 30.4709 36.0024 30.2025 35.6708 30.2025Z" fill="#CF1E2E"/>
<path d="M39.3927 30.2025H37.9555C37.6238 30.2025 37.3555 30.4709 37.3555 30.8025C37.3555 31.1342 37.6238 31.4025 37.9555 31.4025H39.3927C39.7244 31.4025 39.9927 31.1342 39.9927 30.8025C39.9927 30.4709 39.7244 30.2025 39.3927 30.2025Z" fill="#CF1E2E"/>
<path d="M31.949 32.9816H30.5116C30.18 32.9816 29.9116 33.25 29.9116 33.5816C29.9116 33.9132 30.18 34.1816 30.5116 34.1816H31.949C32.2806 34.1816 32.549 33.9132 32.549 33.5816C32.549 33.25 32.2806 32.9816 31.949 32.9816Z" fill="#CF1E2E"/>
<path d="M35.6708 32.9816H34.2335C33.9019 32.9816 33.6335 33.25 33.6335 33.5816C33.6335 33.9132 33.9019 34.1816 34.2335 34.1816H35.6708C36.0024 34.1816 36.2708 33.9132 36.2708 33.5816C36.2708 33.25 36.0024 32.9816 35.6708 32.9816Z" fill="#CF1E2E"/>
<path d="M39.3927 32.9816H37.9555C37.6238 32.9816 37.3555 33.25 37.3555 33.5816C37.3555 33.9132 37.6238 34.1816 37.9555 34.1816H39.3927C39.7244 34.1816 39.9927 33.9132 39.9927 33.5816C39.9927 33.25 39.7244 32.9816 39.3927 32.9816Z" fill="#CF1E2E"/>
<path d="M31.949 35.7607H30.5116C30.18 35.7607 29.9116 36.0291 29.9116 36.3607C29.9116 36.6924 30.18 36.9607 30.5116 36.9607H31.949C32.2806 36.9607 32.549 36.6924 32.549 36.3607C32.549 36.0291 32.2806 35.7607 31.949 35.7607Z" fill="#CF1E2E"/>
<path d="M35.6708 35.7607H34.2335C33.9019 35.7607 33.6335 36.0291 33.6335 36.3607C33.6335 36.6924 33.9019 36.9607 34.2335 36.9607H35.6708C36.0024 36.9607 36.2708 36.6924 36.2708 36.3607C36.2708 36.0291 36.0024 35.7607 35.6708 35.7607Z" fill="#CF1E2E"/>
<path d="M39.3927 35.7607H37.9555C37.6238 35.7607 37.3555 36.0291 37.3555 36.3607C37.3555 36.6924 37.6238 36.9607 37.9555 36.9607H39.3927C39.7244 36.9607 39.9927 36.6924 39.9927 36.3607C39.9927 36.0291 39.7244 35.7607 39.3927 35.7607Z" fill="#CF1E2E"/>
</svg>
