<svg width="60" height="60" viewBox="0 0 60 60" fill="none" xmlns="http://www.w3.org/2000/svg">
<rect x="0.000244141" y="6.10352e-05" width="60" height="60" rx="10" fill="white"/>
<g clip-path="url(#clip0_1173_2358)">
<path d="M39.517 26.235C39.517 22.8343 37.0426 20.0011 33.7998 19.4407V16.201C34.0259 16.0889 34.1816 15.8558 34.1816 15.586C34.1816 15.2072 33.8745 14.9001 33.4957 14.9001H26.5046C26.1258 14.9001 25.8187 15.2072 25.8187 15.586C25.8187 15.8558 25.9744 16.0889 26.2005 16.201V19.4407C22.9576 20.0011 20.4833 22.8343 20.4833 26.235V41.6868C20.4833 42.5619 20.8144 43.3612 21.3575 43.9657C21.2536 44.0859 21.1907 44.2427 21.1907 44.4141C21.1907 44.7929 21.4978 45.1 21.8766 45.1H38.1236C38.5025 45.1 38.8096 44.7929 38.8096 44.4141C38.8096 44.2427 38.7466 44.0859 38.6427 43.9657C39.1859 43.3612 39.517 42.5619 39.517 41.6868V26.235ZM21.8551 27.1916H38.1452V40.074H21.8551V27.1916ZM32.4279 16.272V19.34H30.6861V18.3951C31.0104 18.3405 31.2575 18.0585 31.2575 17.7187C31.2575 17.3398 30.9504 17.0327 30.5716 17.0327H29.4287C29.0499 17.0327 28.7428 17.3398 28.7428 17.7187C28.7428 18.0585 28.9899 18.3405 29.3142 18.3951V19.34H27.5724V16.272H32.4279ZM27.3783 20.7118H32.622C35.5277 20.7118 37.9167 22.9675 38.1297 25.8197H21.8706C22.0836 22.9676 24.4726 20.7118 27.3783 20.7118ZM23.8966 43.7282C22.771 43.7282 21.8552 42.8123 21.8552 41.6868V41.446H38.1452V41.6868C38.1452 42.8124 37.2294 43.7282 36.1039 43.7282H23.8966Z" fill="#5518B5" stroke="#5518B5" stroke-width="0.2"/>
<path d="M33.0964 33.4483C33.0843 33.3885 33.0705 33.3199 33.0545 33.234C33.0129 33.0092 32.8443 32.8292 32.6226 32.7729C32.5042 32.7429 32.3824 32.7509 32.2725 32.7922C32.2737 30.93 30.8262 30.2001 30.1606 29.8644C30.0557 29.8115 29.9651 29.7658 29.9018 29.7283C29.7105 29.615 29.4716 29.6196 29.285 29.7403C29.0983 29.861 28.996 30.077 29.0209 30.2979C29.1124 31.1117 29.0648 31.5421 29.0113 31.7571C28.9623 31.6896 28.9013 31.5945 28.8255 31.4613C28.7445 31.319 28.5552 30.9857 28.1457 31.0485C27.9017 31.0858 27.7101 31.2667 27.6574 31.5095C27.5779 31.8756 27.4453 32.1936 27.305 32.5303C27.0724 33.0883 26.8088 33.7207 26.8088 34.5949C26.8088 35.396 27.1138 36.1416 27.6676 36.6945C28.2652 37.291 29.0897 37.6193 29.9903 37.6192H29.9968C30.8988 37.6176 31.7265 37.2781 32.3273 36.663C32.9024 36.0744 33.209 35.2857 33.1908 34.4422C33.1786 33.8762 33.1545 33.7367 33.0964 33.4483ZM31.489 35.844C31.11 36.2321 30.5793 36.4462 29.9947 36.4473H29.9903C29.4024 36.4473 28.8717 36.2406 28.4955 35.8651C28.1587 35.5289 27.9807 35.0897 27.9807 34.5949C27.9807 33.9551 28.1687 33.5038 28.3866 32.9812C28.4059 32.9349 28.4253 32.8885 28.4445 32.8417C28.5986 32.9562 28.7793 33.0409 28.9895 33.0637C29.271 33.0945 29.5545 32.9891 29.7677 32.7751C30.0704 32.4712 30.2269 31.9787 30.2437 31.2566C30.875 31.6789 31.2731 32.2541 31.0306 33.4181C30.9975 33.5771 31.0318 33.7426 31.1254 33.8753C31.2595 34.0654 31.5305 34.2727 31.8893 34.2846C31.9313 34.2862 31.9729 34.2849 32.0143 34.2811C32.0161 34.3358 32.0177 34.3973 32.0192 34.4674C32.0305 34.9936 31.8422 35.4825 31.489 35.844Z" fill="#CF1E2E"/>
</g>
<defs>
<clipPath id="clip0_1173_2358">
<rect width="30" height="30" fill="white" transform="translate(15.0002 15.0001)"/>
</clipPath>
</defs>
</svg>
