<svg width="129" height="130" viewBox="0 0 129 130" fill="none" xmlns="http://www.w3.org/2000/svg">
<path opacity="0.08" d="M64.5 130C100.122 130 129 128.009 129 125.553C129 123.097 100.122 121.106 64.5 121.106C28.8776 121.106 0 123.097 0 125.553C0 128.009 28.8776 130 64.5 130Z" fill="black"/>
<path d="M110.445 84.2299C110.517 84.5403 110.584 84.8526 110.645 85.1671C111.054 87.3053 111.221 89.4826 111.145 91.6582C111.133 92.015 111.115 92.3717 111.091 92.7284C110.945 94.8409 110.596 96.9344 110.047 98.9795C109.949 99.347 109.845 99.7131 109.735 100.078C109.035 102.388 108.092 104.617 106.922 106.728C106.727 107.08 106.526 107.428 106.319 107.771C104.768 110.361 102.847 112.712 100.616 114.747C100.221 115.103 99.8163 115.449 99.4019 115.784C98.9262 116.168 98.4381 116.536 97.9375 116.886C97.3036 117.329 96.3042 118.086 95.359 118.316C95.0687 118.395 94.7639 118.405 94.469 118.345C94.4096 118.331 94.3511 118.313 94.2939 118.292C92.7217 117.701 92.5909 114.137 92.4954 112.703C92.4602 112.188 92.4395 111.675 92.4334 111.163C92.4235 110.542 92.4334 109.923 92.4632 109.306C92.5577 107.402 92.8008 105.508 93.1904 103.642C93.2807 103.199 93.378 102.758 93.4825 102.318C93.4825 102.302 93.4902 102.287 93.4932 102.272C93.9611 100.337 94.5283 98.4276 95.1923 96.5511C95.3137 96.1979 95.4396 95.845 95.5701 95.4924C95.9991 94.3137 96.4548 93.1465 96.9236 91.9923C97.091 91.5803 97.26 91.1698 97.4275 90.7601L97.8098 89.8375C98.5385 88.0733 99.2627 86.3152 99.9218 84.5242C100.038 84.2093 100.151 83.8933 100.261 83.5764C100.434 83.0841 100.6 82.589 100.759 82.0912C101.133 80.9171 101.473 79.7307 101.759 78.5329C101.847 78.1711 101.928 77.8083 102.004 77.4444C102.054 77.2075 102.102 76.9698 102.146 76.732C102.245 76.213 102.742 74.127 102.867 72.6701C102.875 72.5722 102.908 72.478 102.962 72.3964C103.01 72.3256 103.073 72.2662 103.147 72.2225C103.22 72.1787 103.303 72.1518 103.388 72.1434C103.473 72.1351 103.559 72.1457 103.64 72.1743C103.72 72.203 103.794 72.2491 103.855 72.3093L103.864 72.3185C105.379 73.8095 106.687 75.4979 107.751 77.3382C107.91 77.6129 108.063 77.8896 108.21 78.1683C109.213 80.0843 109.964 82.1217 110.445 84.2299Z" fill="#F0426A"/>
<path d="M105.078 88.0786C106.867 86.796 108.656 85.5131 110.445 84.2299C110.517 84.5403 110.584 84.8527 110.645 85.1671L104.894 89.294C104.506 91.5821 103.964 93.8412 103.27 96.0558C103.588 95.9029 103.906 95.748 104.223 95.591C104.899 95.2542 105.571 94.9072 106.236 94.5499C107.911 93.652 109.547 92.6894 111.145 91.6621C111.133 92.0188 111.114 92.3755 111.091 92.7322C110.709 92.9738 110.326 93.2112 109.944 93.4446C108.54 94.2962 107.108 95.099 105.649 95.8532C104.931 96.2247 104.208 96.584 103.479 96.931C103.294 97.0314 103.103 97.1195 102.906 97.1947C102.285 99.069 101.575 100.912 100.803 102.717C100.781 102.767 100.759 102.816 100.738 102.866C103.867 101.629 106.971 100.335 110.051 98.9834C109.953 99.3508 109.849 99.7169 109.739 100.082C106.596 101.451 103.428 102.76 100.234 104.01C99.4637 105.721 98.6432 107.414 97.9045 109.138C100.882 108.228 103.89 107.426 106.928 106.73C106.733 107.082 106.532 107.43 106.325 107.773C103.347 108.473 100.395 109.278 97.4702 110.187C97.0119 111.308 96.6177 112.453 96.2896 113.618C96.142 114.153 96.0112 114.693 95.8935 115.234C96.2307 115.223 96.571 115.18 96.9044 115.152C98.1472 115.051 99.3865 114.916 100.622 114.749C100.227 115.106 99.8223 115.451 99.4079 115.786C98.3735 115.906 97.3364 116.004 96.2964 116.079C96.0946 116.093 95.8996 116.108 95.7168 116.103C95.5776 116.837 95.4622 117.576 95.3651 118.319C95.0747 118.398 94.7699 118.408 94.475 118.348C94.5851 117.488 94.7197 116.631 94.8849 115.78C94.8156 115.707 94.7553 115.627 94.7052 115.54C94.2907 114.826 93.9405 114.067 93.5582 113.335L92.4356 111.166C92.4257 110.546 92.4356 109.926 92.4654 109.31C93.0333 110.408 93.6023 111.507 94.1722 112.606C94.4995 113.238 94.827 113.87 95.1548 114.503C95.3215 113.789 95.5134 113.08 95.7352 112.378C95.9883 111.577 96.2766 110.789 96.5862 110.008C95.4556 107.886 94.3244 105.764 93.1926 103.642C93.2829 103.2 93.3802 102.759 93.4847 102.319L97.0198 108.951C97.7631 107.198 98.595 105.48 99.3827 103.745C98.0338 101.32 96.6377 98.9225 95.1946 96.5519C95.3159 96.1987 95.4418 95.8458 95.5723 95.4932C97.0389 97.8811 98.4577 100.298 99.8285 102.745C99.9867 102.384 100.143 102.023 100.293 101.661C100.933 100.118 101.526 98.5523 102.051 96.9669C101.983 96.8864 101.92 96.8017 101.862 96.7132C100.485 94.6557 99.0051 92.669 97.4274 90.7609L97.8097 89.8382C98.5071 90.6684 99.1856 91.5143 99.8453 92.376C100.729 93.5328 101.577 94.7163 102.389 95.9266C102.899 94.2962 103.34 92.6451 103.689 90.9726C103.803 90.4258 103.906 89.8757 104 89.3223C102.665 87.7018 101.305 86.1027 99.9202 84.525C100.036 84.2101 100.149 83.8941 100.26 83.5771C101.589 85.086 102.896 86.6148 104.181 88.1635C104.476 86.0842 104.604 83.9845 104.563 81.8848C104.509 81.8605 104.46 81.8242 104.421 81.7785L101.755 78.5368C101.843 78.175 101.924 77.8121 102 77.4483L104.505 80.4944C104.337 77.7426 103.843 75.0129 102.958 72.4003C103.006 72.3294 103.069 72.27 103.143 72.2263C103.216 72.1826 103.299 72.1556 103.384 72.1473C103.469 72.139 103.555 72.1495 103.636 72.1782C103.716 72.2068 103.79 72.2529 103.851 72.3131L103.86 72.3223C104.686 74.8627 105.194 77.4957 105.372 80.1611C106.191 79.2438 106.984 78.3034 107.751 77.3397C107.91 77.6144 108.063 77.8911 108.21 78.1699C107.318 79.2721 106.395 80.3471 105.439 81.3948C105.511 83.629 105.39 85.8652 105.078 88.0786Z" fill="#181A44"/>
<path d="M118.877 94.4827C118.835 94.715 118.79 94.9472 118.74 95.179C118.396 96.7538 117.876 98.285 117.19 99.744C117.078 99.984 116.962 100.222 116.841 100.459C116.127 101.855 115.279 103.179 114.311 104.412C114.137 104.634 113.959 104.853 113.775 105.069C112.626 106.438 111.335 107.681 109.924 108.778C109.689 108.961 109.451 109.139 109.21 109.313C107.4 110.627 105.407 111.668 103.296 112.404C102.922 112.533 102.546 112.651 102.167 112.757C101.731 112.881 101.292 112.989 100.849 113.082C100.289 113.199 99.3881 113.423 98.677 113.306C98.4573 113.274 98.248 113.192 98.0653 113.066C98.0287 113.039 97.994 113.01 97.9613 112.979C97.0628 112.119 98.011 109.654 98.3635 108.65C98.4899 108.289 98.6255 107.932 98.7703 107.58C98.9439 107.155 99.132 106.739 99.3308 106.324C99.9482 105.055 100.664 103.836 101.472 102.678C101.662 102.403 101.856 102.131 102.055 101.862C102.062 101.853 102.07 101.844 102.077 101.834C102.958 100.653 103.9 99.5175 104.898 98.433C105.084 98.2292 105.273 98.0254 105.464 97.8215C106.1 97.1435 106.75 96.4815 107.405 95.8341C107.638 95.6017 107.872 95.3709 108.107 95.1416L108.635 94.6241C109.645 93.635 110.651 92.6489 111.618 91.6208C111.788 91.4394 111.957 91.2572 112.124 91.0743C112.386 90.7889 112.643 90.4999 112.896 90.2074C113.492 89.5195 114.069 88.8079 114.613 88.0756C114.778 87.8547 114.938 87.6315 115.097 87.406C115.199 87.2592 115.301 87.1112 115.403 86.9619C115.621 86.637 116.566 85.3612 117.076 84.4057C117.111 84.3415 117.162 84.2875 117.224 84.249C117.277 84.2146 117.337 84.1923 117.4 84.1838C117.463 84.1754 117.527 84.1809 117.588 84.2001C117.648 84.2192 117.703 84.2515 117.75 84.2946C117.796 84.3377 117.833 84.3905 117.856 84.4493C117.857 84.4521 117.857 84.4549 117.856 84.4577C118.455 85.9138 118.853 87.4439 119.042 89.0066C119.071 89.24 119.094 89.4729 119.113 89.7052C119.24 91.3013 119.161 92.907 118.877 94.4827Z" fill="#CF2959"/>
<path d="M114.101 95.5421L118.877 94.4827C118.835 94.715 118.79 94.9472 118.74 95.179L113.624 96.3134C112.694 97.7584 111.666 99.1387 110.549 100.445C110.811 100.433 111.072 100.421 111.334 100.406C111.895 100.373 112.453 100.332 113.008 100.283C114.409 100.159 115.803 99.9802 117.19 99.7478C117.078 99.9878 116.962 100.226 116.841 100.463C116.511 100.514 116.179 100.565 115.847 100.616C114.643 100.787 113.435 100.918 112.222 101.007C111.625 101.051 111.028 101.085 110.43 101.11C110.275 101.124 110.119 101.128 109.964 101.123C108.995 102.218 107.975 103.263 106.923 104.271L106.836 104.353C109.327 104.421 111.817 104.443 114.308 104.419C114.134 104.641 113.956 104.859 113.772 105.076C111.234 105.094 108.695 105.064 106.156 104.986C105.134 105.926 104.082 106.841 103.078 107.8C105.372 108.047 107.653 108.375 109.921 108.785C109.686 108.968 109.448 109.146 109.206 109.32C106.975 108.93 104.732 108.62 102.477 108.388C101.839 109.017 101.237 109.683 100.674 110.381C100.417 110.702 100.172 111.032 99.9341 111.366C100.163 111.456 100.411 111.526 100.647 111.604C101.522 111.895 102.405 112.164 103.295 112.411C102.922 112.54 102.545 112.658 102.166 112.764C101.426 112.544 100.692 112.309 99.9624 112.058C99.8209 112.009 99.684 111.963 99.5609 111.905C99.2551 112.364 98.9584 112.835 98.6762 113.312C98.4566 113.28 98.2472 113.198 98.0645 113.073C98.3897 112.519 98.7318 111.975 99.0906 111.443C99.0649 111.373 99.0475 111.3 99.0387 111.227C98.9622 110.62 98.9469 110.004 98.9018 109.392C98.8567 108.781 98.8131 108.19 98.7695 107.589C98.9431 107.164 99.1312 106.748 99.33 106.333L99.5319 109.075L99.6489 110.652C99.9708 110.215 100.308 109.787 100.663 109.374C101.069 108.902 101.494 108.45 101.931 108.009L101.473 102.688C101.662 102.412 101.857 102.14 102.056 101.871C102.215 103.72 102.373 105.568 102.532 107.415C103.549 106.438 104.616 105.51 105.657 104.558C105.444 102.515 105.192 100.477 104.899 98.443C105.085 98.2391 105.273 98.0353 105.465 97.8315C105.771 99.8841 106.033 101.943 106.252 104.007C106.464 103.807 106.675 103.607 106.883 103.404C107.769 102.539 108.628 101.646 109.45 100.72C109.426 100.645 109.408 100.568 109.395 100.491C109.056 98.6892 108.626 96.9059 108.108 95.1477L108.636 94.6302C108.868 95.3982 109.084 96.1715 109.283 96.9501C109.549 97.9953 109.781 99.0481 109.981 100.109C110.804 99.147 111.587 98.1502 112.31 97.1129C112.547 96.7746 112.777 96.4303 113.002 96.0802C112.564 94.5887 112.103 93.1042 111.621 91.6269C111.791 91.4455 111.96 91.2633 112.128 91.0804C112.594 92.4945 113.039 93.915 113.463 95.3418C114.27 94.0122 114.969 92.6198 115.553 91.1782C115.523 91.146 115.5 91.1073 115.487 91.0651C115.197 90.0704 114.906 89.0767 114.616 88.084C114.781 87.8631 114.942 87.6399 115.1 87.4144L115.924 90.2113C116.62 88.2901 117.057 86.2852 117.224 84.249C117.277 84.2146 117.337 84.1923 117.4 84.1838C117.463 84.1754 117.527 84.1809 117.588 84.2001C117.648 84.2192 117.703 84.2515 117.75 84.2946C117.796 84.3377 117.833 84.3905 117.856 84.4493C117.857 84.4521 117.857 84.4549 117.856 84.4577C117.678 86.4282 117.257 88.369 116.601 90.2357C117.426 89.8484 118.24 89.4387 119.042 89.0066C119.071 89.24 119.094 89.4729 119.113 89.7052C118.185 90.1965 117.242 90.6597 116.284 91.0949C115.685 92.6372 114.955 94.1251 114.101 95.5421Z" fill="#181A44"/>
<path d="M119.151 102.845C118.906 102.813 118.661 102.788 118.414 102.769C116.736 102.619 115.047 102.659 113.379 102.886C113.105 102.924 112.83 102.963 112.557 103.011C110.942 103.286 109.357 103.717 107.826 104.297C107.55 104.399 107.277 104.508 107.005 104.623C105.281 105.339 103.639 106.236 102.104 107.298C101.849 107.475 101.598 107.656 101.349 107.843C99.4747 109.236 97.8143 110.896 96.4205 112.769C96.1758 113.101 95.941 113.439 95.7162 113.784C95.4567 114.179 95.2115 114.583 94.9806 114.995C94.6885 115.517 94.1838 116.344 94.0798 117.089C94.0413 117.319 94.0573 117.555 94.1264 117.777C94.1422 117.822 94.1603 117.866 94.1807 117.909C94.7573 119.072 97.5109 118.896 98.6227 118.859C99.0214 118.846 99.418 118.822 99.8125 118.787C100.291 118.746 100.766 118.691 101.239 118.621C102.698 118.401 104.137 118.067 105.544 117.622C105.877 117.52 106.209 117.411 106.538 117.296L106.573 117.284C108.026 116.774 109.452 116.19 110.844 115.534C111.107 115.413 111.37 115.289 111.631 115.162C112.505 114.74 113.368 114.299 114.22 113.849C114.526 113.689 114.829 113.528 115.13 113.366L115.81 113.001C117.11 112.304 118.41 111.61 119.737 110.966C119.97 110.852 120.204 110.741 120.44 110.631C120.805 110.46 121.173 110.294 121.544 110.134C122.419 109.755 123.303 109.401 124.206 109.089C124.478 108.993 124.751 108.903 125.025 108.816C125.203 108.759 125.382 108.704 125.56 108.651C125.952 108.535 127.519 107.992 128.631 107.782C128.706 107.769 128.776 107.736 128.834 107.687C128.885 107.645 128.926 107.592 128.954 107.533C128.982 107.473 128.997 107.407 128.997 107.341C128.997 107.275 128.982 107.21 128.954 107.15C128.926 107.09 128.885 107.037 128.834 106.995L128.826 106.989C127.561 105.939 126.16 105.065 124.661 104.39C124.438 104.288 124.213 104.192 123.987 104.102C122.436 103.477 120.81 103.054 119.151 102.845Z" fill="#F0426A"/>
<path d="M116.604 107.272C117.453 105.794 118.302 104.318 119.151 102.845C118.906 102.813 118.661 102.788 118.414 102.769L115.685 107.508C113.954 107.983 112.257 108.575 110.606 109.28C110.699 109.026 110.794 108.769 110.89 108.511C111.098 107.965 111.313 107.421 111.536 106.882C112.096 105.525 112.711 104.192 113.378 102.883C113.105 102.921 112.83 102.96 112.556 103.008C112.4 103.32 112.248 103.634 112.098 103.948C111.551 105.094 111.043 106.257 110.576 107.438C110.346 108.019 110.126 108.603 109.915 109.191C109.852 109.34 109.798 109.493 109.755 109.65C108.361 110.273 106.997 110.962 105.668 111.696L105.558 111.757C106.268 109.254 107.024 106.766 107.825 104.293C107.55 104.395 107.277 104.503 107.005 104.618C106.194 107.142 105.431 109.68 104.716 112.233C103.459 112.958 102.22 113.721 100.95 114.422C101.42 112.061 101.804 109.686 102.104 107.297C101.849 107.473 101.597 107.655 101.349 107.841C101.04 110.185 100.649 112.518 100.176 114.839C99.3487 115.278 98.4972 115.67 97.6255 116.012C97.2256 116.165 96.8203 116.31 96.4135 116.443C96.3951 116.183 96.402 115.917 96.3974 115.658C96.3811 114.694 96.3888 113.731 96.4204 112.768C96.1757 113.099 95.9409 113.438 95.7161 113.783C95.7039 114.588 95.709 115.393 95.7314 116.198C95.736 116.351 95.7398 116.504 95.7582 116.645C95.2038 116.81 94.6433 116.956 94.0759 117.088C94.0374 117.318 94.0534 117.553 94.1225 117.776C94.7763 117.623 95.4225 117.455 96.0679 117.262C96.1292 117.31 96.1959 117.35 96.2667 117.382C96.8478 117.645 97.4588 117.855 98.0522 118.09L99.8109 118.786C100.289 118.745 100.765 118.689 101.238 118.619L98.566 117.561L97.0306 116.95C97.5674 116.766 98.0975 116.562 98.6211 116.338C99.2183 116.081 99.8025 115.798 100.38 115.497L105.543 117.614C105.876 117.512 106.208 117.403 106.537 117.287C104.745 116.552 102.952 115.817 101.159 115.081C102.451 114.374 103.708 113.601 104.982 112.865C106.953 113.715 108.906 114.603 110.843 115.529C111.106 115.409 111.368 115.284 111.629 115.157C109.677 114.214 107.707 113.31 105.718 112.444C105.983 112.294 106.249 112.147 106.516 112.003C107.654 111.392 108.81 110.815 109.993 110.285C110.06 110.331 110.13 110.374 110.203 110.411C111.893 111.311 113.537 112.296 115.128 113.362L115.809 112.997C115.116 112.526 114.412 112.069 113.697 111.628C112.738 111.038 111.762 110.477 110.767 109.946C111.983 109.427 113.22 108.961 114.48 108.562C114.892 108.431 115.307 108.309 115.726 108.194C117.076 109.096 118.413 110.019 119.735 110.961C119.968 110.848 120.202 110.736 120.438 110.627C119.174 109.721 117.897 108.834 116.606 107.965C118.184 107.576 119.79 107.315 121.41 107.183C121.433 107.223 121.465 107.258 121.502 107.285C122.403 107.884 123.304 108.484 124.205 109.084C124.476 108.988 124.749 108.898 125.023 108.811L122.485 107.12C124.616 107.026 126.75 107.215 128.832 107.683C128.883 107.641 128.924 107.588 128.952 107.528C128.98 107.468 128.995 107.403 128.995 107.337C128.995 107.27 128.98 107.205 128.952 107.145C128.924 107.085 128.883 107.033 128.832 106.99L128.824 106.984C126.804 106.546 124.737 106.36 122.672 106.431C123.315 105.73 123.978 105.047 124.66 104.382C124.436 104.28 124.212 104.184 123.985 104.094C123.205 104.865 122.449 105.659 121.717 106.476C119.993 106.593 118.282 106.86 116.604 107.272Z" fill="#181A44"/>
<path d="M100.68 119.477C100.68 120.258 100.526 121.031 100.227 121.753C99.9284 122.474 99.4904 123.129 98.9381 123.681C98.3859 124.234 97.7303 124.671 97.0088 124.97C96.2872 125.269 95.5138 125.423 94.7328 125.423H46.2825C45.5015 125.423 44.7281 125.269 44.0066 124.97C43.285 124.672 42.6294 124.234 42.0772 123.682C41.525 123.129 41.0871 122.474 40.7884 121.753C40.4897 121.031 40.3361 120.258 40.3364 119.477V26.8634C40.3363 26.0827 40.49 25.3097 40.7888 24.5884C41.0876 23.8671 41.5255 23.2117 42.0777 22.6597C42.6298 22.1076 43.2853 21.6696 44.0068 21.3708C44.7283 21.0719 45.5016 20.9181 46.2825 20.918H94.7328C96.31 20.9184 97.8225 21.5449 98.9377 22.6598C100.053 23.7747 100.679 25.2868 100.68 26.8634V119.477Z" fill="#3962BA"/>
<path d="M96.9642 34.0547H44.052V110.765H96.9642V34.0547Z" fill="white"/>
<path d="M72.7294 28.185C72.7294 28.6245 72.599 29.0542 72.3546 29.4196C72.1102 29.785 71.7629 30.0697 71.3566 30.2377C70.9503 30.4057 70.5033 30.4494 70.0721 30.3633C69.6409 30.2772 69.245 30.0652 68.9344 29.7541C68.6238 29.443 68.4125 29.0467 68.3273 28.6155C68.2421 28.1843 68.2867 27.7376 68.4556 27.3318C68.6245 26.9259 68.91 26.5793 69.2761 26.3358C69.6421 26.0923 70.0722 25.9628 70.5119 25.9637C71.1005 25.9647 71.6646 26.1992 72.0804 26.6157C72.4962 27.0322 72.7296 27.5966 72.7294 28.185Z" fill="#181A44"/>
<path d="M76.8005 118.167C76.8005 118.815 76.5427 119.437 76.0838 119.896C75.6249 120.355 75.0026 120.613 74.3536 120.613H66.6625C66.0136 120.613 65.3912 120.355 64.9323 119.896C64.4734 119.437 64.2156 118.815 64.2156 118.167C64.2156 117.518 64.4734 116.896 64.9323 116.437C65.3912 115.978 66.0136 115.72 66.6625 115.72H74.3536C75.0026 115.72 75.6249 115.978 76.0838 116.437C76.5427 116.896 76.8005 117.518 76.8005 118.167Z" fill="#181A44"/>
<path d="M84.6023 75.3217C83.4393 83.1032 76.1848 88.4692 68.4005 87.3058C60.6161 86.1424 55.2482 78.8922 56.412 71.1099C57.5758 63.3277 64.8287 57.9625 72.6131 59.1259C80.3974 60.2893 85.7654 67.5395 84.6023 75.3217Z" fill="#00CBDC"/>
<path d="M68.156 78.9159C67.9992 78.8186 67.8614 78.6938 67.7492 78.5475L63.0036 72.3399C62.7787 72.0199 62.6865 71.6252 62.7463 71.2387C62.8061 70.8522 63.0132 70.5039 63.3243 70.2667C63.6353 70.0295 64.0261 69.9218 64.4148 69.9663C64.8035 70.0108 65.1599 70.204 65.4093 70.5054L69.1049 75.3401L76.7922 67.6618C77.0761 67.378 77.4612 67.2186 77.8627 67.2186C78.2642 67.2186 78.6493 67.378 78.9332 67.6618C79.2172 67.9457 79.3767 68.3306 79.3767 68.732C79.3767 69.1334 79.2172 69.5183 78.9332 69.8021L70.021 78.6988C69.78 78.9396 69.4647 79.0921 69.1262 79.1315C68.7877 79.1709 68.4459 79.0949 68.156 78.9159Z" fill="white"/>
<path d="M27.4953 29.7146L18.2297 24.9708L25.9132 30.6181L21.3939 33.5548L18.2297 24.9708L31.3515 27.6813L27.4953 29.7146Z" fill="#F4BD42"/>
<path d="M25.9132 30.6181L26.8032 33.5548L27.4953 29.7146L18.2297 24.9708L25.9132 30.6181Z" fill="#F6A731"/>
<path d="M25.9132 30.618L26.817 33.5548L24.1399 31.77L25.9132 30.618Z" fill="#E78800"/>
<path d="M28.2357 34.1296C28.208 34.1298 28.1806 34.1238 28.1555 34.1121C28.0149 34.0479 27.8767 33.9829 27.7392 33.9194C27.695 33.897 27.6612 33.8583 27.645 33.8114C27.6288 33.7646 27.6315 33.7132 27.6524 33.6683C27.6733 33.6233 27.7109 33.5883 27.7571 33.5705C27.8034 33.5528 27.8548 33.5537 27.9004 33.5732L28.3151 33.765C28.3543 33.7831 28.3863 33.8141 28.4057 33.8527C28.4252 33.8913 28.4309 33.9355 28.422 33.9778C28.4132 34.0201 28.3902 34.0582 28.3569 34.0858C28.3236 34.1134 28.2819 34.1288 28.2387 34.1296H28.2357Z" fill="#181A44"/>
<path d="M108.067 49.0207C108.016 49.0207 107.968 49.0005 107.932 48.9647C107.896 48.9289 107.876 48.8803 107.876 48.8296C107.876 48.7789 107.896 48.7303 107.932 48.6945C107.968 48.6586 108.016 48.6385 108.067 48.6385C108.373 48.6385 108.674 48.6316 108.975 48.6209C109 48.62 109.025 48.624 109.048 48.6327C109.072 48.6414 109.094 48.6547 109.112 48.6717C109.13 48.6888 109.145 48.7093 109.156 48.7322C109.166 48.755 109.172 48.7796 109.173 48.8047C109.174 48.8298 109.17 48.8549 109.161 48.8784C109.153 48.902 109.139 48.9236 109.122 48.942C109.105 48.9604 109.085 48.9753 109.062 48.9858C109.039 48.9963 109.014 49.0021 108.989 49.0031C108.683 49.0146 108.378 49.0207 108.072 49.0214L108.067 49.0207ZM107.149 49.0062H107.143C106.837 48.9962 106.525 48.9802 106.225 48.9595C106.2 48.9578 106.175 48.9512 106.153 48.94C106.13 48.9288 106.11 48.9133 106.094 48.8944C106.077 48.8754 106.064 48.8534 106.056 48.8296C106.048 48.8057 106.045 48.7805 106.047 48.7554C106.049 48.7303 106.055 48.7058 106.066 48.6833C106.078 48.6608 106.093 48.6407 106.112 48.6241C106.131 48.6076 106.153 48.5949 106.177 48.5869C106.201 48.5789 106.226 48.5756 106.251 48.5773C106.55 48.598 106.855 48.614 107.158 48.624C107.209 48.6248 107.257 48.6457 107.292 48.6821C107.327 48.7185 107.347 48.7674 107.346 48.8181C107.345 48.8688 107.324 48.9171 107.288 48.9523C107.251 48.9876 107.202 49.007 107.152 49.0062H107.149ZM109.892 48.9527C109.866 48.9536 109.841 48.9495 109.818 48.9407C109.794 48.932 109.773 48.9187 109.754 48.9015C109.717 48.867 109.695 48.8191 109.694 48.7684C109.692 48.7178 109.71 48.6684 109.745 48.6313C109.779 48.5942 109.827 48.5723 109.878 48.5705C110.184 48.5483 110.49 48.5208 110.782 48.4879C110.832 48.4823 110.883 48.4971 110.923 48.529C110.963 48.5609 110.988 48.6073 110.994 48.658C110.999 48.7087 110.985 48.7595 110.953 48.7993C110.921 48.839 110.874 48.8645 110.824 48.8701C110.523 48.903 110.212 48.9312 109.906 48.9534L109.892 48.9527ZM105.325 48.8762H105.304C104.998 48.8441 104.693 48.8051 104.387 48.7616C104.362 48.7579 104.338 48.7494 104.316 48.7365C104.295 48.7236 104.276 48.7066 104.261 48.6864C104.231 48.6457 104.218 48.5946 104.225 48.5445C104.233 48.4943 104.26 48.4491 104.301 48.4189C104.341 48.3886 104.392 48.3758 104.443 48.3832C104.738 48.426 105.041 48.4642 105.343 48.4963C105.368 48.4976 105.392 48.5039 105.415 48.5147C105.438 48.5255 105.458 48.5406 105.475 48.5593C105.492 48.578 105.505 48.5998 105.513 48.6235C105.521 48.6471 105.525 48.6723 105.524 48.6973C105.522 48.7224 105.516 48.747 105.505 48.7697C105.495 48.7924 105.479 48.8127 105.461 48.8296C105.442 48.8464 105.42 48.8594 105.397 48.8678C105.373 48.8762 105.348 48.8798 105.323 48.8785L105.325 48.8762ZM111.709 48.7478C111.684 48.7497 111.659 48.7465 111.635 48.7387C111.611 48.7308 111.589 48.7183 111.57 48.7018C111.531 48.6686 111.508 48.6215 111.504 48.5708C111.5 48.5202 111.517 48.4701 111.55 48.4316C111.583 48.3931 111.63 48.3694 111.681 48.3656C112.14 48.2953 112.404 48.2372 112.433 48.2311L112.566 48.2013C112.591 48.1947 112.617 48.1931 112.642 48.1967C112.668 48.2003 112.692 48.209 112.714 48.2223C112.736 48.2355 112.755 48.253 112.77 48.2738C112.785 48.2945 112.796 48.3181 112.802 48.3431C112.808 48.3681 112.808 48.394 112.804 48.4192C112.799 48.4445 112.79 48.4686 112.776 48.4901C112.762 48.5116 112.744 48.53 112.722 48.5444C112.701 48.5587 112.677 48.5686 112.652 48.5735L112.515 48.6041C112.466 48.6156 112.197 48.6729 111.738 48.7432C111.73 48.7466 111.721 48.7495 111.712 48.7516L111.709 48.7478ZM103.515 48.6117C103.503 48.6129 103.491 48.6129 103.479 48.6117C103.173 48.5552 102.873 48.4925 102.576 48.4237C102.528 48.411 102.487 48.3801 102.461 48.3377C102.436 48.2952 102.428 48.2445 102.439 48.1962C102.45 48.1479 102.479 48.1058 102.521 48.0788C102.562 48.0518 102.613 48.042 102.662 48.0514C102.954 48.1187 103.252 48.1806 103.549 48.2364C103.574 48.2387 103.599 48.2459 103.621 48.2575C103.644 48.2692 103.663 48.2852 103.68 48.3046C103.696 48.3239 103.708 48.3462 103.715 48.3703C103.723 48.3943 103.726 48.4196 103.723 48.4447C103.721 48.4698 103.714 48.4942 103.702 48.5165C103.691 48.5389 103.675 48.5587 103.655 48.5748C103.636 48.591 103.614 48.6031 103.589 48.6106C103.565 48.6182 103.54 48.6209 103.515 48.6186V48.6117ZM113.495 48.358C113.449 48.3579 113.405 48.341 113.37 48.3106C113.335 48.2801 113.313 48.2381 113.306 48.1923C113.3 48.1465 113.311 48.1 113.336 48.0615C113.362 48.0229 113.4 47.9949 113.445 47.9826C113.735 47.9024 114.027 47.8152 114.312 47.722C114.36 47.7063 114.413 47.7104 114.458 47.7334C114.503 47.7564 114.538 47.7964 114.553 47.8447C114.569 47.8929 114.565 47.9454 114.542 47.9907C114.519 48.0359 114.479 48.0701 114.431 48.0858C114.139 48.1806 113.842 48.2693 113.547 48.3511C113.531 48.3567 113.515 48.3603 113.499 48.3618L113.495 48.358ZM101.733 48.2051C101.715 48.205 101.698 48.2027 101.681 48.1982C101.385 48.1164 101.087 48.027 100.797 47.933C100.752 47.9155 100.714 47.8811 100.693 47.8369C100.672 47.7927 100.669 47.7421 100.684 47.6955C100.699 47.6489 100.731 47.6099 100.774 47.5865C100.817 47.5631 100.868 47.5572 100.915 47.5699C101.2 47.6616 101.492 47.7495 101.783 47.8298C101.828 47.8421 101.866 47.8701 101.892 47.9086C101.917 47.9472 101.928 47.9936 101.922 48.0394C101.915 48.0852 101.893 48.1273 101.858 48.1577C101.823 48.1882 101.779 48.205 101.733 48.2051ZM115.236 47.7969C115.191 47.7969 115.148 47.7812 115.113 47.7525C115.079 47.7238 115.056 47.684 115.048 47.64C115.04 47.596 115.047 47.5505 115.07 47.5116C115.092 47.4726 115.127 47.4427 115.169 47.4269C115.45 47.3214 115.733 47.2083 116.01 47.0898C116.056 47.0696 116.109 47.0686 116.156 47.0873C116.204 47.1059 116.242 47.1426 116.262 47.1892C116.282 47.2358 116.283 47.2886 116.265 47.3359C116.246 47.3832 116.209 47.4212 116.163 47.4415C115.88 47.5622 115.592 47.6777 115.305 47.7847C115.283 47.7932 115.26 47.7974 115.236 47.7969ZM99.9944 47.644C99.9714 47.6441 99.9486 47.64 99.9271 47.6318C99.6389 47.5232 99.3506 47.4071 99.0707 47.2855C99.0242 47.2652 98.9876 47.2273 98.969 47.1801C98.9504 47.1329 98.9514 47.0802 98.9717 47.0337C98.992 46.9871 99.0299 46.9506 99.0772 46.932C99.1244 46.9134 99.1771 46.9144 99.2236 46.9347C99.4989 47.0539 99.7811 47.1678 100.065 47.2741C100.107 47.2898 100.142 47.3198 100.164 47.3587C100.186 47.3976 100.194 47.4431 100.186 47.4871C100.178 47.5311 100.154 47.571 100.12 47.5996C100.086 47.6283 100.042 47.644 99.9975 47.644H99.9944ZM116.918 47.0807C116.875 47.0809 116.832 47.0662 116.798 47.0392C116.764 47.0121 116.74 46.9743 116.731 46.9319C116.721 46.8895 116.726 46.845 116.745 46.8059C116.764 46.7668 116.796 46.7354 116.836 46.7168C117.106 46.5876 117.378 46.45 117.645 46.3079C117.667 46.295 117.691 46.2868 117.717 46.2837C117.742 46.2805 117.768 46.2826 117.793 46.2896C117.817 46.2967 117.84 46.3086 117.86 46.3247C117.88 46.3409 117.897 46.3608 117.909 46.3835C117.921 46.4061 117.928 46.4309 117.931 46.4565C117.933 46.482 117.93 46.5078 117.922 46.5322C117.914 46.5566 117.901 46.5791 117.885 46.5985C117.868 46.6179 117.847 46.6337 117.824 46.645C117.554 46.7894 117.276 46.9301 117.001 47.0616C116.975 47.0742 116.947 47.0807 116.918 47.0807ZM98.3175 46.9148C98.2881 46.9146 98.2591 46.9078 98.2326 46.8949C97.9566 46.7589 97.6813 46.6144 97.4144 46.4653C97.3701 46.4406 97.3375 46.3993 97.3236 46.3505C97.3098 46.3017 97.3159 46.2494 97.3406 46.2051C97.3654 46.1608 97.4067 46.1281 97.4555 46.1143C97.5044 46.1004 97.5567 46.1066 97.601 46.1313C97.8618 46.2773 98.1317 46.4187 98.4016 46.5517C98.4406 46.5706 98.4721 46.6022 98.4908 46.6412C98.5095 46.6803 98.5143 46.7246 98.5045 46.7668C98.4948 46.809 98.4709 46.8466 98.4369 46.8735C98.403 46.9004 98.3608 46.915 98.3175 46.9148ZM118.532 46.2207C118.49 46.2209 118.449 46.2072 118.416 46.1818C118.382 46.1563 118.358 46.1205 118.347 46.0799C118.336 46.0393 118.339 45.9962 118.355 45.9572C118.371 45.9183 118.399 45.8857 118.435 45.8645C118.694 45.7116 118.953 45.5519 119.206 45.3883C119.249 45.3607 119.3 45.3512 119.35 45.3618C119.4 45.3724 119.443 45.4023 119.471 45.4449C119.498 45.4874 119.508 45.5392 119.497 45.5888C119.486 45.6384 119.457 45.6818 119.414 45.7094C119.156 45.876 118.893 46.0388 118.629 46.194C118.6 46.2114 118.567 46.2206 118.534 46.2207H118.532ZM96.7216 46.0235C96.6857 46.0237 96.6504 46.0136 96.6199 45.9945C96.36 45.8309 96.1015 45.6589 95.8507 45.4823C95.8092 45.4531 95.781 45.4087 95.7724 45.3587C95.7637 45.3088 95.7752 45.2574 95.8044 45.2159C95.8336 45.1745 95.8781 45.1463 95.9281 45.1376C95.9781 45.129 96.0294 45.1405 96.0709 45.1697C96.3164 45.3424 96.5695 45.5114 96.8233 45.6704C96.8586 45.6924 96.8857 45.7253 96.9005 45.764C96.9154 45.8028 96.9172 45.8454 96.9057 45.8853C96.8942 45.9252 96.8701 45.9603 96.8368 45.9852C96.8036 46.0102 96.7632 46.0236 96.7216 46.0235ZM120.068 45.2278C120.027 45.2279 119.988 45.215 119.955 45.1911C119.922 45.1672 119.898 45.1335 119.885 45.0948C119.873 45.0562 119.873 45.0146 119.886 44.9761C119.899 44.9376 119.924 44.9042 119.957 44.8808C120.203 44.7065 120.449 44.5253 120.686 44.3419C120.707 44.3268 120.729 44.3158 120.754 44.3096C120.778 44.3034 120.803 44.302 120.828 44.3056C120.853 44.3091 120.877 44.3175 120.899 44.3303C120.92 44.3431 120.939 44.36 120.954 44.3801C120.969 44.4002 120.98 44.423 120.986 44.4473C120.993 44.4716 120.994 44.4969 120.99 44.5218C120.987 44.5466 120.978 44.5705 120.966 44.5921C120.953 44.6137 120.936 44.6326 120.916 44.6476C120.673 44.8349 120.424 45.0191 120.174 45.1957C120.143 45.2164 120.107 45.2276 120.069 45.2278H120.068ZM95.2275 44.971C95.1847 44.9708 95.1432 44.9563 95.1097 44.9297C94.8689 44.7401 94.6295 44.5414 94.3993 44.3388C94.3613 44.3055 94.3381 44.2584 94.3348 44.2079C94.3315 44.1575 94.3484 44.1077 94.3818 44.0697C94.4151 44.0317 94.4622 44.0085 94.5127 44.0052C94.5632 44.0019 94.6129 44.0188 94.6509 44.0522C94.8803 44.2501 95.1097 44.4443 95.346 44.63C95.3858 44.6614 95.4116 44.7072 95.4176 44.7575C95.4237 44.8079 95.4094 44.8585 95.3781 44.8983C95.3602 44.9207 95.3375 44.9389 95.3117 44.9514C95.2859 44.964 95.2577 44.9707 95.229 44.971H95.2275ZM93.8549 43.7655C93.8049 43.7657 93.7568 43.7462 93.7211 43.7112C93.5773 43.5706 93.4343 43.4261 93.2951 43.2809C93.2225 43.2045 93.1491 43.128 93.0772 43.0516C93.0452 43.014 93.0289 42.9655 93.0318 42.9162C93.0348 42.8669 93.0567 42.8207 93.0929 42.7872C93.1292 42.7537 93.1771 42.7355 93.2265 42.7365C93.2758 42.7375 93.3229 42.7575 93.3579 42.7924C93.429 42.8689 93.5001 42.9453 93.572 43.0218C93.7073 43.1632 93.8472 43.3054 93.9879 43.4422C94.0151 43.4687 94.0338 43.5027 94.0416 43.5398C94.0494 43.577 94.0459 43.6156 94.0316 43.6508C94.0174 43.686 93.9929 43.7161 93.9614 43.7374C93.93 43.7586 93.8929 43.77 93.8549 43.7701V43.7655ZM68.8823 43.67C68.5764 43.67 68.2705 43.6669 67.9647 43.6608C67.914 43.6608 67.8653 43.6407 67.8295 43.6048C67.7936 43.569 67.7735 43.5204 67.7735 43.4697C67.7735 43.419 67.7936 43.3704 67.8295 43.3346C67.8653 43.2987 67.914 43.2786 67.9647 43.2786C68.2675 43.2832 68.5713 43.2862 68.8761 43.2878C68.9268 43.2878 68.9755 43.3079 69.0113 43.3437C69.0472 43.3796 69.0673 43.4282 69.0673 43.4789C69.0673 43.5295 69.0472 43.5782 69.0113 43.614C68.9755 43.6498 68.9268 43.67 68.8761 43.67H68.8823ZM69.796 43.67C69.7453 43.67 69.6967 43.6498 69.6609 43.614C69.625 43.5782 69.6049 43.5295 69.6049 43.4789C69.6049 43.4282 69.625 43.3796 69.6609 43.3437C69.6967 43.3079 69.7453 43.2878 69.796 43.2878C70.1019 43.2878 70.4078 43.2824 70.7075 43.2771C70.7582 43.2762 70.8072 43.2954 70.8437 43.3306C70.8802 43.3658 70.9012 43.414 70.9021 43.4647C70.9031 43.5154 70.8838 43.5644 70.8486 43.6009C70.8134 43.6373 70.7651 43.6583 70.7144 43.6593C70.4086 43.6646 70.1027 43.6684 69.7968 43.67H69.796ZM67.0547 43.6432H67.0494C66.7435 43.6351 66.4376 43.6254 66.1317 43.6142C66.081 43.6122 66.0332 43.5903 65.9987 43.5531C65.9642 43.5159 65.9459 43.4665 65.9478 43.4158C65.9498 43.3651 65.9718 43.3173 66.009 43.2828C66.0462 43.2483 66.0956 43.23 66.1463 43.232C66.4491 43.2437 66.7529 43.2534 67.0578 43.261C67.0829 43.2613 67.1077 43.2666 67.1307 43.2764C67.1538 43.2863 67.1747 43.3007 67.1923 43.3186C67.2098 43.3366 67.2236 43.3578 67.233 43.3811C67.2423 43.4044 67.2469 43.4293 67.2466 43.4544C67.2463 43.4795 67.2411 43.5043 67.2312 43.5274C67.2213 43.5504 67.207 43.5713 67.189 43.5889C67.1711 43.6064 67.1498 43.6202 67.1265 43.6295C67.1032 43.6389 67.0783 43.6435 67.0532 43.6432H67.0547ZM71.6228 43.6379C71.5721 43.6386 71.5232 43.6191 71.4869 43.5838C71.4505 43.5484 71.4297 43.5001 71.429 43.4494C71.4283 43.3988 71.4478 43.3499 71.4831 43.3135C71.5185 43.2772 71.5668 43.2564 71.6175 43.2557C71.9203 43.2475 72.2239 43.2371 72.5282 43.2243C72.5533 43.2233 72.5784 43.2273 72.602 43.2359C72.6255 43.2446 72.6472 43.2579 72.6656 43.2749C72.6841 43.2919 72.699 43.3124 72.7096 43.3352C72.7201 43.358 72.726 43.3827 72.727 43.4078C72.728 43.4329 72.7241 43.4579 72.7154 43.4815C72.7067 43.5051 72.6935 43.5267 72.6764 43.5451C72.6594 43.5636 72.6389 43.5785 72.6161 43.589C72.5933 43.5996 72.5686 43.6055 72.5435 43.6065C72.2376 43.6187 71.9318 43.6294 71.6259 43.6386L71.6228 43.6379ZM65.2264 43.5737H65.2172C64.9113 43.5591 64.6055 43.5431 64.2996 43.5247C64.2489 43.5218 64.2014 43.4988 64.1677 43.4609C64.1339 43.423 64.1166 43.3732 64.1195 43.3226C64.1225 43.2719 64.1454 43.2244 64.1833 43.1907C64.2213 43.1569 64.2711 43.1396 64.3218 43.1425C64.6246 43.1604 64.9284 43.1767 65.2333 43.1915C65.284 43.1927 65.3321 43.214 65.3671 43.2507C65.4021 43.2874 65.4211 43.3365 65.4198 43.3871C65.4186 43.4378 65.3973 43.4859 65.3606 43.5209C65.3239 43.5559 65.2748 43.5749 65.2241 43.5737H65.2264ZM73.4474 43.5629C73.3967 43.5642 73.3475 43.5452 73.3108 43.5102C73.2741 43.4752 73.2528 43.4271 73.2516 43.3764C73.2504 43.3258 73.2694 43.2767 73.3043 43.24C73.3393 43.2033 73.3875 43.182 73.4382 43.1808C73.744 43.1655 74.0499 43.1479 74.3481 43.1288C74.3988 43.1256 74.4487 43.1428 74.4868 43.1764C74.5249 43.21 74.548 43.2573 74.5512 43.308C74.5543 43.3587 74.5372 43.4086 74.5035 43.4466C74.4699 43.4847 74.4225 43.5078 74.3718 43.511C74.066 43.5301 73.7601 43.5477 73.4542 43.5629H73.4474ZM63.4003 43.4666H63.3912C63.0853 43.4452 62.7794 43.4226 62.4736 43.3986C62.4229 43.3946 62.3758 43.3705 62.3429 43.3318C62.3099 43.2931 62.2936 43.2429 62.2977 43.1922C62.3017 43.1415 62.3258 43.0945 62.3645 43.0616C62.4032 43.0286 62.4534 43.0124 62.5041 43.0164C62.807 43.0409 63.1103 43.0635 63.4141 43.0844C63.4648 43.0862 63.5127 43.108 63.5474 43.145C63.582 43.1821 63.6005 43.2314 63.5988 43.282C63.597 43.3327 63.5753 43.3806 63.5382 43.4153C63.5011 43.4499 63.4518 43.4684 63.4011 43.4666H63.4003ZM75.2711 43.4483C75.2204 43.4501 75.171 43.4317 75.1339 43.3972C75.0968 43.3626 75.0749 43.3148 75.073 43.2641C75.0712 43.2134 75.0896 43.1641 75.1242 43.1269C75.1587 43.0898 75.2066 43.0679 75.2573 43.0661C75.5586 43.0439 75.8645 43.0195 76.1658 42.9897C76.2165 42.9853 76.2668 43.0013 76.3057 43.034C76.3447 43.0668 76.369 43.1136 76.3734 43.1643C76.3777 43.215 76.3618 43.2653 76.329 43.3043C76.2962 43.3432 76.2493 43.3675 76.1986 43.3719C75.8928 43.3978 75.5869 43.4223 75.2856 43.4483H75.2711ZM61.5774 43.3214H61.5598C61.2539 43.2939 60.9498 43.2648 60.6475 43.2343C60.6224 43.2318 60.5981 43.2243 60.5758 43.2124C60.5536 43.2005 60.5339 43.1843 60.5179 43.1648C60.502 43.1453 60.49 43.1228 60.4827 43.0986C60.4754 43.0745 60.473 43.0492 60.4755 43.0241C60.478 42.999 60.4854 42.9746 60.4973 42.9524C60.5093 42.9302 60.5255 42.9105 60.545 42.8945C60.5645 42.8786 60.587 42.8666 60.6111 42.8593C60.6353 42.852 60.6607 42.8496 60.6858 42.8521C60.9881 42.8826 61.2909 42.9117 61.5942 42.9392C61.6449 42.9414 61.6926 42.9637 61.7269 43.0011C61.7612 43.0385 61.7792 43.088 61.7769 43.1387C61.7747 43.1894 61.7524 43.2371 61.715 43.2714C61.6776 43.3056 61.6281 43.3236 61.5774 43.3214ZM77.0918 43.2916C77.0411 43.294 76.9915 43.2762 76.9539 43.2421C76.9163 43.208 76.8939 43.1603 76.8914 43.1097C76.889 43.059 76.9068 43.0094 76.9409 42.9719C76.9751 42.9343 77.0227 42.9118 77.0734 42.9094C77.3755 42.8796 77.6806 42.8482 77.9796 42.8154C78.0303 42.8098 78.0811 42.8246 78.1209 42.8565C78.1607 42.8884 78.1862 42.9348 78.1917 42.9855C78.1973 43.0361 78.1825 43.087 78.1506 43.1267C78.1187 43.1665 78.0723 43.192 78.0216 43.1976C77.7203 43.2304 77.4099 43.2625 77.1101 43.2924L77.0918 43.2916ZM59.7574 43.1387H59.736C59.4302 43.1051 59.1268 43.0699 58.8261 43.0332C58.801 43.0302 58.7767 43.0223 58.7547 43.0099C58.7326 42.9975 58.7132 42.9809 58.6976 42.961C58.682 42.9412 58.6704 42.9184 58.6636 42.8941C58.6568 42.8697 58.6548 42.8443 58.6578 42.8192C58.6609 42.7941 58.6688 42.7698 58.6812 42.7478C58.6936 42.7258 58.7102 42.7064 58.7301 42.6908C58.7499 42.6752 58.7727 42.6636 58.7971 42.6568C58.8214 42.65 58.8469 42.648 58.872 42.651C59.1732 42.6877 59.4753 42.7229 59.7781 42.7565C59.8032 42.7579 59.8278 42.7642 59.8505 42.775C59.8731 42.7859 59.8935 42.8011 59.9102 42.8198C59.927 42.8385 59.94 42.8603 59.9483 42.884C59.9567 42.9077 59.9603 42.9328 59.9589 42.9579C59.9576 42.983 59.9513 43.0076 59.9404 43.0303C59.9296 43.0529 59.9144 43.0733 59.8956 43.09C59.8769 43.1068 59.8551 43.1198 59.8314 43.1281C59.8077 43.1365 59.7825 43.1401 59.7574 43.1387ZM78.9079 43.0936C78.8572 43.0967 78.8073 43.0794 78.7693 43.0457C78.7313 43.0121 78.7083 42.9647 78.7052 42.914C78.7022 42.8633 78.7194 42.8135 78.7531 42.7755C78.7868 42.7375 78.8342 42.7145 78.8849 42.7114C79.1839 42.6747 79.4882 42.635 79.7888 42.5968C79.8142 42.5921 79.8404 42.5926 79.8657 42.5983C79.8909 42.604 79.9148 42.6148 79.9357 42.6301C79.9567 42.6453 79.9744 42.6646 79.9876 42.6868C80.0009 42.7091 80.0095 42.7338 80.0129 42.7594C80.0163 42.7851 80.0145 42.8112 80.0075 42.8361C80.0006 42.8611 79.9886 42.8843 79.9724 42.9045C79.9561 42.9247 79.9359 42.9414 79.913 42.9535C79.8902 42.9656 79.8651 42.973 79.8392 42.9751C79.5334 43.0156 79.2275 43.0516 78.9308 43.0906L78.9079 43.0936ZM57.9421 42.9178H57.9169C57.611 42.8781 57.3082 42.8365 57.0085 42.7932C56.9834 42.7896 56.9592 42.7812 56.9374 42.7683C56.9155 42.7554 56.8965 42.7383 56.8812 42.7181C56.866 42.6978 56.8549 42.6747 56.8486 42.6502C56.8423 42.6256 56.8409 42.6001 56.8444 42.575C56.848 42.5499 56.8565 42.5257 56.8694 42.5039C56.8823 42.4821 56.8993 42.463 56.9196 42.4478C56.9399 42.4326 56.963 42.4215 56.9875 42.4152C57.0121 42.4089 57.0376 42.4075 57.0627 42.411C57.3625 42.4538 57.6638 42.4951 57.9666 42.5348C57.9917 42.5365 58.0162 42.543 58.0388 42.5541C58.0614 42.5652 58.0816 42.5806 58.0982 42.5995C58.1148 42.6183 58.1275 42.6403 58.1357 42.6641C58.1438 42.6879 58.1471 42.7131 58.1455 42.7382C58.1439 42.7633 58.1374 42.7878 58.1263 42.8104C58.1152 42.8329 58.0998 42.8531 58.0809 42.8697C58.062 42.8863 58.04 42.8991 58.0162 42.9072C57.9924 42.9153 57.9672 42.9186 57.9421 42.917V42.9178ZM80.7186 42.8528C80.6935 42.8546 80.6683 42.8514 80.6444 42.8434C80.6206 42.8354 80.5985 42.8228 80.5795 42.8063C80.5412 42.773 80.5176 42.7258 80.5141 42.6751C80.5105 42.6244 80.5272 42.5744 80.5606 42.5361C80.5939 42.4977 80.6411 42.4742 80.6918 42.4706C80.9901 42.4271 81.2929 42.3812 81.5926 42.3346C81.6174 42.3307 81.6428 42.3317 81.6672 42.3375C81.6916 42.3434 81.7146 42.354 81.7349 42.3688C81.7552 42.3836 81.7724 42.4022 81.7855 42.4236C81.7986 42.445 81.8074 42.4688 81.8113 42.4936C81.8152 42.5184 81.8142 42.5437 81.8084 42.5681C81.8025 42.5925 81.7919 42.6155 81.7771 42.6358C81.7623 42.6561 81.7437 42.6733 81.7223 42.6864C81.7009 42.6995 81.6771 42.7083 81.6523 42.7122C81.351 42.7588 81.0459 42.8054 80.7461 42.8482L80.7186 42.8528ZM56.1314 42.661C56.1217 42.6618 56.112 42.6618 56.1023 42.661C55.7964 42.6141 55.4947 42.5664 55.197 42.518C55.1713 42.5151 55.1464 42.507 55.124 42.4942C55.1015 42.4814 55.0819 42.4641 55.0663 42.4435C55.0507 42.4229 55.0394 42.3993 55.0332 42.3743C55.0269 42.3492 55.0258 42.3231 55.03 42.2976C55.0341 42.272 55.0434 42.2476 55.0572 42.2258C55.0711 42.204 55.0892 42.1852 55.1106 42.1706C55.1319 42.1559 55.156 42.1458 55.1813 42.1408C55.2067 42.1357 55.2328 42.1359 55.2581 42.1412C55.5574 42.1896 55.8579 42.2367 56.1597 42.2826C56.2085 42.2887 56.2532 42.3133 56.2844 42.3514C56.3156 42.3895 56.331 42.4381 56.3273 42.4871C56.3237 42.5362 56.3013 42.582 56.2649 42.6151C56.2284 42.6482 56.1806 42.666 56.1314 42.6648V42.661ZM82.524 42.57C82.4733 42.5743 82.423 42.5582 82.3841 42.5254C82.3453 42.4926 82.321 42.4456 82.3168 42.395C82.3125 42.3443 82.3286 42.294 82.3614 42.2551C82.3942 42.2163 82.4412 42.1921 82.4919 42.1878C82.7909 42.1374 83.0929 42.0846 83.3896 42.0349C83.4144 42.0303 83.4399 42.0305 83.4646 42.0357C83.4892 42.0409 83.5127 42.051 83.5334 42.0653C83.5542 42.0796 83.572 42.0978 83.5857 42.119C83.5994 42.1402 83.6087 42.1639 83.6132 42.1887C83.6177 42.2135 83.6172 42.239 83.6118 42.2636C83.6064 42.2882 83.5962 42.3116 83.5817 42.3322C83.5673 42.3529 83.5489 42.3705 83.5276 42.384C83.5063 42.3975 83.4825 42.4067 83.4577 42.411C83.1594 42.4645 82.8559 42.518 82.5561 42.5685C82.5462 42.5694 82.5362 42.5696 82.5263 42.5692L82.524 42.57ZM92.6176 42.424C92.5896 42.4241 92.5619 42.4179 92.5366 42.406C92.5112 42.3941 92.4887 42.3768 92.4708 42.3552C92.2766 42.1259 92.0824 41.8805 91.8943 41.6336C91.8639 41.5931 91.8508 41.5421 91.858 41.492C91.8651 41.4418 91.8919 41.3965 91.9325 41.3661C91.9731 41.3357 92.024 41.3226 92.0742 41.3298C92.1244 41.337 92.1697 41.3638 92.2001 41.4043C92.3844 41.6466 92.5748 41.8851 92.7652 42.1121C92.7814 42.1313 92.7937 42.1535 92.8013 42.1775C92.8088 42.2014 92.8116 42.2266 92.8094 42.2516C92.8072 42.2766 92.8001 42.3009 92.7884 42.3232C92.7768 42.3454 92.7608 42.3651 92.7415 42.3812C92.7062 42.4099 92.6616 42.4249 92.6161 42.4232L92.6176 42.424ZM54.329 42.3674C54.3184 42.3686 54.3076 42.3686 54.2969 42.3674C53.9951 42.3165 53.6944 42.2632 53.3946 42.2077C53.3451 42.1983 53.3012 42.1698 53.2726 42.1282C53.244 42.0867 53.233 42.0355 53.242 41.9859C53.251 41.9363 53.2792 41.8922 53.3205 41.8633C53.3619 41.8344 53.413 41.823 53.4627 41.8316C53.7609 41.8861 54.0606 41.9394 54.3619 41.9914C54.4126 41.9957 54.4595 42.02 54.4923 42.059C54.5251 42.0979 54.541 42.1482 54.5367 42.1989C54.5323 42.2496 54.508 42.2965 54.469 42.3292C54.4301 42.362 54.3797 42.3779 54.329 42.3736V42.3674ZM84.3248 42.2444C84.2741 42.2491 84.2236 42.2336 84.1844 42.2011C84.1451 42.1686 84.1204 42.1219 84.1157 42.0712C84.1109 42.0206 84.1265 41.9701 84.1589 41.9309C84.1914 41.8917 84.2382 41.8669 84.2889 41.8622C84.5848 41.8049 84.8853 41.7452 85.1828 41.6841C85.2324 41.6739 85.2841 41.684 85.3264 41.7119C85.3687 41.7399 85.3982 41.7835 85.4083 41.8331C85.4185 41.8828 85.4085 41.9345 85.3805 41.9768C85.3525 42.019 85.3089 42.0485 85.2592 42.0586C84.961 42.1198 84.659 42.1802 84.3615 42.2375C84.349 42.2408 84.3362 42.2428 84.3233 42.2436L84.3248 42.2444ZM52.5298 42.0395C52.5178 42.0406 52.5058 42.0406 52.4938 42.0395C52.1926 41.9814 51.8928 41.9223 51.5946 41.8622C51.57 41.8572 51.5466 41.8474 51.5258 41.8333C51.505 41.8193 51.4872 41.8012 51.4733 41.7803C51.4453 41.738 51.4353 41.6864 51.4455 41.6367C51.4556 41.587 51.4851 41.5434 51.5274 41.5155C51.5697 41.4875 51.6214 41.4775 51.671 41.4876C51.9688 41.5478 52.2672 41.6066 52.5665 41.6642C52.6172 41.669 52.6639 41.6937 52.6964 41.7329C52.7289 41.7721 52.7444 41.8226 52.7397 41.8733C52.7349 41.924 52.7102 41.9707 52.671 42.0031C52.6318 42.0356 52.5812 42.0512 52.5305 42.0464L52.5298 42.0395ZM86.1141 41.8759C86.0671 41.8757 86.0219 41.8581 85.987 41.8266C85.9522 41.7952 85.9301 41.7519 85.9251 41.7052C85.9201 41.6585 85.9325 41.6116 85.9599 41.5735C85.9873 41.5353 86.0277 41.5086 86.0736 41.4983C86.3695 41.4341 86.6685 41.3669 86.9629 41.2988C86.9877 41.2922 87.0136 41.2907 87.039 41.2943C87.0644 41.2979 87.0888 41.3066 87.1107 41.3198C87.1327 41.3331 87.1518 41.3506 87.1668 41.3714C87.1819 41.3921 87.1926 41.4157 87.1984 41.4407C87.2041 41.4657 87.2048 41.4916 87.2003 41.5168C87.1958 41.5421 87.1863 41.5661 87.1723 41.5876C87.1584 41.6091 87.1402 41.6276 87.1189 41.6419C87.0977 41.6563 87.0737 41.6662 87.0486 41.6711C86.7526 41.7399 86.4521 41.8071 86.1554 41.8714C86.1413 41.8742 86.127 41.8755 86.1126 41.8752L86.1141 41.8759ZM50.7359 41.6726C50.7226 41.6737 50.7093 41.6737 50.6961 41.6726C50.3956 41.6084 50.0974 41.5442 49.8007 41.4777C49.7524 41.4656 49.7107 41.4352 49.6845 41.3928C49.6583 41.3505 49.6497 41.2996 49.6605 41.251C49.6712 41.2024 49.7005 41.16 49.7421 41.1326C49.7837 41.1053 49.8344 41.0953 49.8832 41.1047C50.1789 41.1704 50.4761 41.2351 50.7749 41.2988C50.8206 41.309 50.861 41.3356 50.8884 41.3736C50.9158 41.4116 50.9283 41.4584 50.9235 41.505C50.9186 41.5516 50.8969 41.5948 50.8623 41.6264C50.8277 41.658 50.7827 41.6758 50.7359 41.6764V41.6726ZM87.8928 41.4624C87.846 41.4625 87.8008 41.4453 87.7657 41.4143C87.7307 41.3833 87.7083 41.3405 87.7027 41.294C87.6972 41.2476 87.7089 41.2007 87.7356 41.1623C87.7623 41.1239 87.8021 41.0966 87.8476 41.0856C88.1428 41.0137 88.4403 40.9396 88.7316 40.8647C88.7559 40.8584 88.7813 40.8571 88.8062 40.8606C88.831 40.8642 88.855 40.8726 88.8766 40.8854C88.8982 40.8982 88.9171 40.9152 88.9322 40.9353C88.9473 40.9554 88.9582 40.9783 88.9644 41.0026C88.9707 41.027 88.972 41.0523 88.9685 41.0772C88.9649 41.102 88.9565 41.126 88.9436 41.1476C88.9308 41.1692 88.9139 41.1881 88.8938 41.2031C88.8737 41.2182 88.8508 41.2292 88.8264 41.2354C88.5335 41.3118 88.2353 41.3844 87.9379 41.4563C87.9233 41.4613 87.9081 41.4644 87.8928 41.4655V41.4624ZM48.9504 41.2767C48.9357 41.2768 48.921 41.275 48.9068 41.2713C48.6075 41.2015 48.3103 41.1312 48.0152 41.0603C47.9668 41.0476 47.9254 41.0164 47.8998 40.9735C47.8741 40.9306 47.8663 40.8794 47.878 40.8308C47.8897 40.7822 47.92 40.7402 47.9624 40.7136C48.0047 40.6871 48.0558 40.6782 48.1046 40.6888C48.3988 40.7602 48.695 40.8303 48.9932 40.8991C49.0392 40.9093 49.0798 40.9362 49.1072 40.9747C49.1346 41.0131 49.1468 41.0602 49.1415 41.1071C49.1362 41.154 49.1137 41.1972 49.0784 41.2285C49.0432 41.2598 48.9975 41.277 48.9504 41.2767ZM89.6637 41.0099C89.6173 41.0096 89.5726 40.9924 89.538 40.9616C89.5033 40.9307 89.481 40.8883 89.4753 40.8423C89.4696 40.7963 89.4809 40.7497 89.5069 40.7114C89.533 40.673 89.5722 40.6454 89.6171 40.6338C89.8924 40.5643 90.1883 40.4993 90.5225 40.4366C90.5472 40.432 90.5725 40.4323 90.5971 40.4375C90.6217 40.4426 90.645 40.4526 90.6658 40.4668C90.6865 40.481 90.7042 40.4991 90.718 40.5202C90.7317 40.5412 90.7411 40.5648 90.7457 40.5895C90.7504 40.6142 90.7501 40.6395 90.7449 40.6641C90.7397 40.6887 90.7297 40.712 90.7155 40.7327C90.7013 40.7535 90.6832 40.7712 90.6621 40.7849C90.6411 40.7986 90.6175 40.8081 90.5928 40.8127C90.2671 40.8738 89.9811 40.9365 89.7111 41.0045C89.6957 41.0092 89.6798 41.0121 89.6637 41.0129V41.0099ZM91.5066 40.9663C91.4764 40.9658 91.4468 40.9582 91.4202 40.9439C91.3936 40.9297 91.3708 40.9093 91.3537 40.8845C91.1801 40.6353 91.0073 40.3777 90.8413 40.1201C90.814 40.0774 90.8049 40.0255 90.8159 39.976C90.8268 39.9265 90.857 39.8833 90.8998 39.856C90.9426 39.8288 90.9945 39.8196 91.044 39.8306C91.0936 39.8416 91.1367 39.8717 91.164 39.9145C91.2405 40.0414 91.3269 40.1675 91.4102 40.2921C91.4182 40.2895 91.4264 40.2877 91.4347 40.2868C91.752 40.2379 92.0717 40.1928 92.3431 40.1553C92.3682 40.1519 92.3938 40.1535 92.4183 40.1599C92.4428 40.1664 92.4658 40.1776 92.4859 40.1929C92.5061 40.2082 92.523 40.2274 92.5358 40.2493C92.5486 40.2711 92.5569 40.2953 92.5603 40.3204C92.5637 40.3455 92.5621 40.371 92.5557 40.3955C92.5492 40.42 92.538 40.443 92.5227 40.4632C92.5074 40.4833 92.4882 40.5003 92.4663 40.513C92.4444 40.5258 92.4202 40.5341 92.3951 40.5375C92.1703 40.5688 91.9103 40.6055 91.6473 40.6445L91.6672 40.6728C91.6962 40.7144 91.7075 40.7657 91.6986 40.8156C91.6897 40.8655 91.6613 40.9098 91.6198 40.9388C91.5862 40.9607 91.5466 40.9714 91.5066 40.9694V40.9663ZM47.1725 40.8501C47.1565 40.85 47.1406 40.8479 47.1251 40.844C46.8274 40.7691 46.5314 40.6927 46.2373 40.6147C46.1882 40.6018 46.1463 40.57 46.1207 40.5262C46.0951 40.4824 46.0879 40.4302 46.1008 40.3812C46.1137 40.3321 46.1455 40.2902 46.1893 40.2646C46.2331 40.239 46.2853 40.2319 46.3344 40.2447C46.627 40.3212 46.9217 40.3976 47.2184 40.4741C47.2639 40.4851 47.3039 40.5124 47.3306 40.5509C47.3573 40.5894 47.3689 40.6364 47.3632 40.6829C47.3576 40.7294 47.335 40.7722 47.2998 40.8032C47.2647 40.8342 47.2194 40.8511 47.1725 40.8509V40.8501ZM93.2714 40.4106C93.2207 40.4141 93.1707 40.3972 93.1325 40.3638C93.0942 40.3304 93.0707 40.2832 93.0673 40.2325C93.0638 40.1818 93.0807 40.1319 93.1141 40.0936C93.1475 40.0553 93.1947 40.0319 93.2455 40.0284C93.598 39.9795 93.8847 39.9375 94.1478 39.8962C94.1985 39.8885 94.2502 39.9012 94.2915 39.9316C94.3327 39.962 94.3603 40.0075 94.368 40.0582C94.3757 40.1089 94.3629 40.1606 94.3325 40.2019C94.3021 40.2431 94.2566 40.2707 94.2059 40.2784C93.9413 40.3189 93.653 40.3609 93.2982 40.4106C93.2893 40.4114 93.2803 40.4114 93.2714 40.4106ZM45.403 40.3884C45.386 40.3884 45.369 40.3861 45.3526 40.3816C45.0569 40.301 44.7625 40.2198 44.4694 40.1377C44.4443 40.1318 44.4207 40.1208 44.4 40.1055C44.3793 40.0903 44.3618 40.0709 44.3488 40.0487C44.3357 40.0266 44.3273 40.002 44.3239 39.9764C44.3206 39.9509 44.3225 39.9249 44.3294 39.9001C44.3364 39.8754 44.3483 39.8522 44.3644 39.8321C44.3806 39.8121 44.4006 39.7955 44.4233 39.7833C44.446 39.7712 44.4709 39.7637 44.4966 39.7614C44.5223 39.7592 44.5481 39.7621 44.5726 39.7701C44.8642 39.8516 45.1576 39.9324 45.4527 40.0124C45.4979 40.0241 45.5373 40.0519 45.5633 40.0906C45.5894 40.1293 45.6004 40.1761 45.5943 40.2224C45.5882 40.2686 45.5654 40.311 45.5302 40.3416C45.4949 40.3722 45.4497 40.3889 45.403 40.3884ZM95.0799 40.127C95.0292 40.1316 94.9788 40.1158 94.9397 40.0832C94.9006 40.0506 94.8761 40.0038 94.8715 39.9531C94.867 39.9024 94.8827 39.852 94.9154 39.813C94.948 39.7739 94.9948 39.7494 95.0455 39.7448C95.3621 39.6867 95.6526 39.6279 95.9348 39.5652C95.9843 39.5541 96.0361 39.5632 96.0789 39.5904C96.1217 39.6175 96.152 39.6606 96.163 39.7101C96.1741 39.7595 96.165 39.8113 96.1379 39.8541C96.1107 39.8969 96.0676 39.9272 96.0182 39.9382C95.7314 40.0024 95.4355 40.0621 95.1143 40.1209C95.1027 40.1237 95.091 40.1258 95.0791 40.127H95.0799ZM43.642 39.8977C43.6239 39.8978 43.6059 39.8952 43.5885 39.8901C43.2933 39.8045 43.0002 39.7181 42.7091 39.6309C42.6605 39.6163 42.6198 39.5831 42.5957 39.5384C42.5717 39.4937 42.5664 39.4414 42.581 39.3928C42.5956 39.3443 42.6289 39.3035 42.6736 39.2795C42.7183 39.2555 42.7706 39.2502 42.8192 39.2648C43.1088 39.3519 43.4006 39.4381 43.6948 39.5232C43.7389 39.536 43.7769 39.5643 43.8018 39.6029C43.8268 39.6415 43.837 39.6878 43.8305 39.7333C43.8241 39.7787 43.8016 39.8204 43.7669 39.8506C43.7323 39.8808 43.688 39.8975 43.642 39.8977ZM96.8631 39.7265C96.8167 39.7268 96.7719 39.7102 96.7368 39.6799C96.7018 39.6495 96.6789 39.6075 96.6726 39.5616C96.6662 39.5157 96.6768 39.469 96.7022 39.4303C96.7277 39.3916 96.7664 39.3635 96.8111 39.3512C97.1101 39.2679 97.3999 39.1769 97.6714 39.0806C97.7186 39.0655 97.7699 39.0695 97.8143 39.0915C97.8588 39.1136 97.8929 39.1521 97.9095 39.1988C97.926 39.2456 97.9238 39.2969 97.9032 39.342C97.8826 39.3872 97.8453 39.4225 97.7991 39.4406C97.5192 39.54 97.2217 39.6332 96.9143 39.7196C96.8975 39.7231 96.8803 39.7244 96.8631 39.7234V39.7265ZM90.5225 39.4314C90.489 39.4314 90.4562 39.4227 90.4272 39.4061C90.3982 39.3894 90.3741 39.3655 90.3573 39.3366C90.2044 39.0722 90.0514 38.8016 89.9077 38.5317C89.8958 38.5096 89.8884 38.4854 89.886 38.4604C89.8835 38.4354 89.886 38.4102 89.8932 38.3861C89.9005 38.3621 89.9125 38.3398 89.9284 38.3203C89.9443 38.3009 89.9639 38.2848 89.986 38.273C90.0082 38.2612 90.0324 38.2538 90.0574 38.2513C90.0824 38.2488 90.1077 38.2513 90.1317 38.2586C90.1557 38.2659 90.1781 38.2778 90.1975 38.2937C90.2169 38.3096 90.233 38.3292 90.2449 38.3513C90.3863 38.6174 90.5354 38.8864 90.6869 39.144C90.704 39.173 90.7132 39.2059 90.7135 39.2396C90.7137 39.2732 90.7051 39.3064 90.6884 39.3356C90.6717 39.3648 90.6475 39.3891 90.6184 39.4059C90.5892 39.4227 90.5561 39.4315 90.5225 39.4314ZM41.8894 39.3733C41.8701 39.3733 41.851 39.3702 41.8328 39.3642C41.5392 39.274 41.2476 39.1827 40.958 39.0905C40.9096 39.0751 40.8694 39.0411 40.8461 38.996C40.8228 38.951 40.8183 38.8985 40.8338 38.8501C40.8492 38.8018 40.8832 38.7615 40.9283 38.7382C40.9734 38.7149 41.0259 38.7105 41.0742 38.7259C41.3623 38.8176 41.6526 38.9088 41.9452 38.9996C41.989 39.013 42.0264 39.0416 42.0508 39.0803C42.0752 39.119 42.0849 39.1652 42.0782 39.2105C42.0714 39.2557 42.0487 39.297 42.014 39.3269C41.9794 39.3568 41.9351 39.3733 41.8894 39.3733ZM98.5851 39.1127C98.5416 39.1122 98.4995 39.0969 98.4658 39.0693C98.4321 39.0417 98.4089 39.0034 98.3999 38.9607C98.391 38.9181 98.3969 38.8737 98.4167 38.8349C98.4365 38.7961 98.4689 38.7652 98.5087 38.7473C98.787 38.6219 99.0554 38.4851 99.3062 38.3414C99.328 38.3289 99.3521 38.3208 99.377 38.3176C99.4019 38.3144 99.4272 38.3161 99.4514 38.3227C99.4757 38.3293 99.4984 38.3405 99.5183 38.3559C99.5382 38.3712 99.5549 38.3903 99.5674 38.4121C99.5799 38.4339 99.588 38.4579 99.5912 38.4828C99.5944 38.5077 99.5926 38.533 99.5861 38.5573C99.5795 38.5815 99.5682 38.6042 99.5529 38.6241C99.5375 38.644 99.5184 38.6607 99.4966 38.6732C99.2351 38.826 98.9552 38.9652 98.6654 39.0959C98.6398 39.1063 98.6121 39.111 98.5844 39.1096L98.5851 39.1127ZM40.1452 38.8153C40.1249 38.8153 40.1047 38.812 40.0855 38.8054C39.7934 38.7101 39.5036 38.6138 39.2161 38.5165C39.1923 38.5084 39.1703 38.4958 39.1514 38.4793C39.1325 38.4627 39.117 38.4427 39.1059 38.4202C39.0833 38.3747 39.0798 38.3222 39.096 38.2741C39.1123 38.2261 39.1469 38.1865 39.1924 38.164C39.2378 38.1414 39.2904 38.1379 39.3384 38.1541C39.6254 38.2504 39.9142 38.3465 40.2048 38.4423C40.2483 38.4563 40.2853 38.4853 40.3092 38.5243C40.3331 38.5632 40.3423 38.6093 40.3351 38.6544C40.3279 38.6995 40.3048 38.7405 40.2699 38.77C40.2351 38.7995 40.1908 38.8156 40.1452 38.8153ZM38.4124 38.2329C38.3911 38.2327 38.3699 38.229 38.3497 38.2222C38.0581 38.1202 37.7698 38.0183 37.4849 37.9164C37.4371 37.8994 37.3981 37.8641 37.3764 37.8183C37.3546 37.7725 37.352 37.7199 37.369 37.6722C37.3861 37.6244 37.4214 37.5854 37.4672 37.5637C37.513 37.542 37.5656 37.5394 37.6133 37.5564C37.8978 37.6583 38.1851 37.7602 38.4751 37.8621C38.5177 37.877 38.5537 37.9065 38.5766 37.9453C38.5996 37.9842 38.6081 38.0299 38.6006 38.0743C38.593 38.1188 38.57 38.1592 38.5356 38.1884C38.5012 38.2175 38.4575 38.2335 38.4124 38.2336V38.2329ZM100.164 38.2C100.124 38.2001 100.084 38.1874 100.052 38.1638C100.019 38.1401 99.9945 38.1067 99.982 38.0684C99.9694 38.03 99.9693 37.9886 99.9817 37.9502C99.9941 37.9118 100.018 37.8783 100.051 37.8545C100.29 37.6793 100.519 37.4897 100.735 37.2866C100.772 37.2518 100.821 37.2331 100.871 37.2346C100.922 37.2361 100.97 37.2577 101.005 37.2946C101.04 37.3315 101.058 37.3807 101.057 37.4313C101.055 37.482 101.034 37.53 100.997 37.5648C100.769 37.7785 100.529 37.9784 100.277 38.1633C100.244 38.1862 100.205 38.1982 100.164 38.1977V38.2ZM89.6614 37.8178C89.6255 37.8178 89.5903 37.8077 89.5599 37.7886C89.5295 37.7696 89.505 37.7423 89.4894 37.71C89.3556 37.4341 89.2256 37.1528 89.1071 36.8692C89.0961 36.8461 89.0899 36.821 89.0888 36.7954C89.0877 36.7699 89.0918 36.7443 89.1008 36.7204C89.1098 36.6964 89.1235 36.6745 89.1411 36.6559C89.1587 36.6373 89.1798 36.6225 89.2033 36.6123C89.2268 36.602 89.252 36.5966 89.2776 36.5963C89.3032 36.596 89.3286 36.6009 89.3523 36.6106C89.376 36.6203 89.3975 36.6346 89.4155 36.6528C89.4336 36.671 89.4478 36.6926 89.4573 36.7163C89.5781 36.9907 89.7058 37.2682 89.8396 37.5396C89.8537 37.5687 89.8602 37.6009 89.8584 37.6333C89.8567 37.6656 89.8467 37.6969 89.8295 37.7244C89.8123 37.7518 89.7885 37.7744 89.7601 37.7901C89.7318 37.8058 89.6999 37.814 89.6676 37.814L89.6614 37.8178ZM36.6889 37.6168C36.6664 37.6166 36.6442 37.6127 36.6231 37.6053C36.334 37.4988 36.0478 37.3926 35.7644 37.2866C35.74 37.2785 35.7174 37.2655 35.6982 37.2485C35.6789 37.2316 35.6632 37.2108 35.6521 37.1877C35.641 37.1645 35.6347 37.1393 35.6336 37.1136C35.6324 37.088 35.6365 37.0623 35.6455 37.0383C35.6545 37.0142 35.6683 36.9922 35.686 36.9735C35.7037 36.9549 35.725 36.9401 35.7486 36.9298C35.7722 36.9196 35.7976 36.9143 35.8233 36.9141C35.849 36.9139 35.8745 36.9189 35.8982 36.9288C36.1806 37.0353 36.4661 37.1411 36.7546 37.246C36.7969 37.2614 36.8325 37.2912 36.855 37.3301C36.8775 37.3691 36.8855 37.4147 36.8776 37.459C36.8698 37.5033 36.8465 37.5434 36.812 37.5723C36.7775 37.6011 36.7339 37.6169 36.6889 37.6168ZM34.976 36.9739C34.9525 36.974 34.9292 36.9698 34.9072 36.9617C34.6197 36.8509 34.3344 36.74 34.0538 36.6292C34.0296 36.6206 34.0074 36.6073 33.9885 36.5899C33.9696 36.5726 33.9544 36.5516 33.9438 36.5283C33.9331 36.505 33.9273 36.4797 33.9266 36.4541C33.926 36.4285 33.9305 36.403 33.9399 36.3791C33.9493 36.3553 33.9634 36.3335 33.9813 36.3152C33.9993 36.2969 34.0208 36.2824 34.0444 36.2726C34.0681 36.2628 34.0936 36.2578 34.1192 36.258C34.1449 36.2582 34.1702 36.2635 34.1937 36.2737C34.4744 36.3838 34.7573 36.4939 35.0448 36.6047C35.0863 36.6209 35.1209 36.651 35.1426 36.6899C35.1642 36.7288 35.1716 36.7741 35.1635 36.8178C35.1553 36.8616 35.1321 36.9012 35.0979 36.9297C35.0636 36.9582 35.0205 36.9738 34.976 36.9739ZM101.49 36.9487C101.446 36.9488 101.403 36.933 101.369 36.9044C101.349 36.8885 101.333 36.8689 101.321 36.8467C101.309 36.8245 101.302 36.8003 101.299 36.7752C101.297 36.7502 101.3 36.725 101.307 36.701C101.314 36.6769 101.326 36.6546 101.343 36.6353C101.41 36.5535 101.477 36.4687 101.541 36.383C101.654 36.2348 101.764 36.0773 101.87 35.9152C101.899 35.8744 101.942 35.8463 101.991 35.8369C102.04 35.8274 102.09 35.8374 102.132 35.8647C102.173 35.8919 102.203 35.9344 102.214 35.9829C102.224 36.0315 102.216 36.0823 102.19 36.1247C102.08 36.2936 101.96 36.458 101.847 36.6131C101.779 36.7033 101.709 36.7928 101.638 36.8791C101.62 36.9009 101.597 36.9184 101.572 36.9304C101.546 36.9425 101.518 36.9487 101.49 36.9487ZM33.2738 36.3036C33.2495 36.3035 33.2253 36.2988 33.2027 36.2898C32.9162 36.1746 32.6335 36.0592 32.3547 35.9435C32.31 35.9229 32.2749 35.8857 32.2569 35.8398C32.2389 35.794 32.2393 35.7429 32.2581 35.6974C32.2768 35.6518 32.3125 35.6152 32.3575 35.5953C32.4026 35.5754 32.4536 35.5736 32.5 35.5904C32.7783 35.705 33.0602 35.82 33.3457 35.9351C33.387 35.9517 33.4212 35.9821 33.4424 36.0211C33.4637 36.0602 33.4706 36.1054 33.4621 36.149C33.4536 36.1927 33.4302 36.232 33.3958 36.2602C33.3614 36.2884 33.3183 36.3037 33.2738 36.3036ZM88.9312 36.14C88.8927 36.14 88.8551 36.1284 88.8233 36.1067C88.7915 36.085 88.767 36.0543 88.753 36.0184C88.6414 35.7318 88.5335 35.4406 88.4341 35.1531C88.426 35.1294 88.4225 35.1043 88.4241 35.0792C88.4256 35.0542 88.432 35.0296 88.443 35.0071C88.454 34.9845 88.4694 34.9643 88.4882 34.9477C88.507 34.931 88.5289 34.9183 88.5527 34.9101C88.5764 34.9019 88.6015 34.8985 88.6266 34.9C88.6517 34.9015 88.6762 34.908 88.6988 34.919C88.7214 34.93 88.7416 34.9453 88.7582 34.9641C88.7749 34.9829 88.7876 35.0048 88.7958 35.0286C88.8937 35.3114 88.9992 35.5973 89.1093 35.8793C89.1276 35.9266 89.1265 35.9791 89.1061 36.0255C89.0858 36.0719 89.0479 36.1084 89.0008 36.127C88.9786 36.1357 88.955 36.1401 88.9312 36.14ZM31.5862 35.6049C31.5599 35.6053 31.5338 35.6001 31.5097 35.5896C31.2237 35.4699 30.9434 35.3501 30.6686 35.2303C30.6456 35.2203 30.6247 35.2058 30.6073 35.1877C30.5898 35.1697 30.5761 35.1483 30.5669 35.1249C30.5577 35.1015 30.5532 35.0766 30.5537 35.0514C30.5541 35.0263 30.5595 35.0015 30.5696 34.9785C30.5796 34.9554 30.5941 34.9346 30.6122 34.9172C30.6303 34.8997 30.6516 34.886 30.675 34.8768C30.6984 34.8676 30.7234 34.8631 30.7486 34.8636C30.7737 34.8641 30.7985 34.8695 30.8215 34.8795C31.0968 34.9982 31.3772 35.1177 31.6627 35.238C31.7033 35.2553 31.7367 35.2862 31.7572 35.3253C31.7777 35.3645 31.7839 35.4095 31.7749 35.4528C31.7659 35.496 31.7422 35.5348 31.7078 35.5626C31.6734 35.5903 31.6304 35.6053 31.5862 35.6049ZM102.498 35.4237C102.467 35.4237 102.436 35.4158 102.409 35.4008C102.364 35.3766 102.331 35.3358 102.317 35.2874C102.303 35.239 102.308 35.1869 102.332 35.1424C102.47 34.8826 102.601 34.6074 102.72 34.3322C102.731 34.3092 102.745 34.2883 102.763 34.2709C102.781 34.2534 102.803 34.2397 102.826 34.2305C102.849 34.2213 102.874 34.2169 102.899 34.2173C102.925 34.2178 102.949 34.2232 102.972 34.2332C102.995 34.2432 103.016 34.2577 103.034 34.2758C103.051 34.2939 103.065 34.3153 103.074 34.3386C103.083 34.362 103.088 34.387 103.087 34.4121C103.087 34.4372 103.082 34.462 103.071 34.4851C102.948 34.7725 102.813 35.0545 102.67 35.3259C102.653 35.3568 102.627 35.3824 102.596 35.3998C102.565 35.4172 102.53 35.4258 102.495 35.4245L102.498 35.4237ZM29.9062 34.8803C29.8798 34.8803 29.8537 34.8745 29.8298 34.8634C29.5453 34.7381 29.2662 34.6137 28.9924 34.4904C28.9696 34.4802 28.9489 34.4655 28.9317 34.4473C28.9145 34.429 28.9011 34.4076 28.8922 34.3841C28.8833 34.3607 28.8792 34.3357 28.88 34.3107C28.8808 34.2856 28.8865 34.261 28.8969 34.2382C28.9177 34.1919 28.9561 34.1558 29.0035 34.1378C29.051 34.1197 29.1036 34.1212 29.15 34.1419C29.4222 34.2647 29.7 34.3888 29.9835 34.5141C30.0236 34.5317 30.0566 34.5626 30.0767 34.6016C30.0968 34.6406 30.1029 34.6853 30.0939 34.7282C30.0849 34.7712 30.0615 34.8097 30.0274 34.8374C29.9934 34.8651 29.9509 34.8802 29.907 34.8803H29.9062ZM88.3324 34.4109C88.2912 34.4109 88.2511 34.3975 88.218 34.3729C88.185 34.3482 88.1607 34.3136 88.1489 34.2741C88.061 33.976 87.9784 33.6763 87.9057 33.3836C87.8936 33.3343 87.9015 33.2823 87.9277 33.2388C87.954 33.1954 87.9964 33.1641 88.0457 33.152C88.095 33.1398 88.1471 33.1477 88.1905 33.174C88.234 33.2002 88.2652 33.2426 88.2774 33.2919C88.3485 33.5793 88.4303 33.8728 88.516 34.1656C88.5302 34.2141 88.5246 34.2663 88.5003 34.3107C88.4761 34.3552 88.4353 34.3882 88.3867 34.4025C88.3691 34.4079 88.3508 34.4107 88.3324 34.4109ZM103.218 33.7459C103.197 33.746 103.176 33.7427 103.156 33.736C103.108 33.7196 103.069 33.6849 103.046 33.6396C103.024 33.5942 103.02 33.5417 103.036 33.4937C103.133 33.2108 103.218 32.9211 103.292 32.6314C103.298 32.606 103.308 32.582 103.323 32.5607C103.337 32.5394 103.356 32.5213 103.378 32.5075C103.4 32.4937 103.425 32.4845 103.45 32.4805C103.476 32.4765 103.502 32.4777 103.527 32.484C103.552 32.4904 103.576 32.5018 103.596 32.5176C103.617 32.5333 103.634 32.5531 103.647 32.5757C103.659 32.5983 103.667 32.6232 103.67 32.6489C103.673 32.6747 103.67 32.7007 103.663 32.7255C103.586 33.0251 103.497 33.3247 103.399 33.616C103.386 33.6539 103.362 33.687 103.329 33.7104C103.297 33.7338 103.258 33.7465 103.218 33.7467V33.7459ZM87.8928 32.636C87.8486 32.6362 87.8058 32.621 87.7717 32.5931C87.7375 32.5652 87.7141 32.5264 87.7054 32.4831C87.645 32.1774 87.593 31.8716 87.5525 31.572C87.549 31.5469 87.5504 31.5214 87.5568 31.4968C87.5631 31.4723 87.5743 31.4493 87.5895 31.429C87.6048 31.4088 87.6239 31.3918 87.6458 31.3789C87.6676 31.3661 87.6918 31.3577 87.7169 31.3541C87.742 31.3506 87.7675 31.3521 87.7921 31.3584C87.8166 31.3648 87.8396 31.3759 87.8599 31.3912C87.8801 31.4065 87.8972 31.4255 87.91 31.4474C87.9229 31.4692 87.9313 31.4934 87.9348 31.5185C87.9753 31.8112 88.0266 32.1109 88.0877 32.4098C88.0926 32.4346 88.0925 32.4601 88.0874 32.4849C88.0824 32.5096 88.0724 32.5331 88.0582 32.554C88.044 32.5749 88.0258 32.5928 88.0046 32.6066C87.9834 32.6204 87.9597 32.6299 87.9348 32.6345C87.9209 32.6367 87.9068 32.6375 87.8928 32.6368V32.636ZM103.669 31.9756H103.636C103.586 31.9661 103.543 31.9377 103.514 31.8964C103.486 31.855 103.474 31.8042 103.483 31.7547C103.534 31.4581 103.573 31.1585 103.599 30.8642C103.604 30.8135 103.628 30.7666 103.667 30.734C103.706 30.7013 103.756 30.6854 103.807 30.6899C103.858 30.6943 103.905 30.7188 103.937 30.7577C103.97 30.7967 103.986 30.8471 103.981 30.8978C103.955 31.2036 103.914 31.5093 103.861 31.8196C103.853 31.8644 103.829 31.9047 103.794 31.9334C103.759 31.9621 103.714 31.9773 103.669 31.9764V31.9756ZM87.6396 30.829C87.5916 30.829 87.5454 30.8109 87.5101 30.7783C87.4748 30.7457 87.4531 30.7011 87.4492 30.6532C87.4248 30.3398 87.4102 30.0279 87.4072 29.7275C87.4066 29.6768 87.4261 29.628 87.4616 29.5917C87.497 29.5555 87.5454 29.5347 87.5961 29.5341C87.6468 29.5335 87.6956 29.5531 87.7319 29.5885C87.7682 29.6239 87.7889 29.6723 87.7895 29.7229C87.7895 30.0149 87.8063 30.3176 87.8308 30.6234C87.8346 30.6739 87.8182 30.7239 87.7853 30.7625C87.7523 30.801 87.7055 30.8249 87.6549 30.829H87.6396ZM103.828 30.154C103.804 30.1547 103.779 30.1503 103.756 30.1413C103.733 30.1322 103.712 30.1186 103.694 30.1013C103.676 30.084 103.662 30.0634 103.652 30.0405C103.642 30.0177 103.637 29.9931 103.637 29.9683V29.9538C103.637 29.6595 103.624 29.3621 103.597 29.0732C103.592 29.0225 103.608 28.9721 103.64 28.9329C103.673 28.8938 103.72 28.8692 103.77 28.8645C103.821 28.8599 103.872 28.8755 103.911 28.9081C103.95 28.9406 103.974 28.9874 103.979 29.038C104.007 29.3384 104.022 29.6496 104.022 29.9553C104.022 30.0069 104.002 30.0566 103.966 30.0934C103.929 30.1302 103.88 30.1512 103.828 30.1518V30.154ZM87.6228 29.0029H87.6098C87.5848 29.0012 87.5603 28.9947 87.5378 28.9835C87.5153 28.9724 87.4951 28.957 87.4786 28.9381C87.4621 28.9192 87.4494 28.8973 87.4413 28.8735C87.4333 28.8497 87.43 28.8246 87.4317 28.7996C87.4531 28.4831 87.4875 28.172 87.5349 27.8739C87.5388 27.8491 87.5477 27.8253 87.5608 27.8039C87.574 27.7825 87.5912 27.7639 87.6116 27.7492C87.6319 27.7345 87.655 27.7239 87.6794 27.7181C87.7038 27.7123 87.7292 27.7113 87.754 27.7153C87.7788 27.7192 87.8025 27.728 87.8239 27.7412C87.8453 27.7543 87.8639 27.7716 87.8787 27.7919C87.8934 27.8123 87.904 27.8353 87.9098 27.8597C87.9156 27.8841 87.9166 27.9095 87.9126 27.9343C87.8668 28.2201 87.8362 28.5198 87.8132 28.8248C87.8092 28.8726 87.7874 28.9171 87.7522 28.9497C87.717 28.9822 87.6708 29.0004 87.6228 29.0006V29.0029ZM103.656 28.3424C103.612 28.3423 103.569 28.327 103.535 28.2992C103.501 28.2714 103.477 28.2327 103.468 28.1896C103.411 27.8976 103.337 27.609 103.248 27.325C103.239 27.3007 103.235 27.2747 103.236 27.2487C103.237 27.2226 103.243 27.1971 103.254 27.1736C103.266 27.1501 103.282 27.1292 103.302 27.1121C103.321 27.0951 103.344 27.0822 103.369 27.0744C103.394 27.0665 103.42 27.0639 103.446 27.0665C103.472 27.0692 103.497 27.0772 103.52 27.0899C103.543 27.1027 103.563 27.1199 103.579 27.1406C103.594 27.1614 103.606 27.1851 103.612 27.2104C103.705 27.5077 103.782 27.8098 103.841 28.1154C103.846 28.1402 103.846 28.1658 103.841 28.1905C103.836 28.2153 103.826 28.2388 103.812 28.2597C103.798 28.2806 103.78 28.2985 103.758 28.3123C103.737 28.3261 103.713 28.3356 103.689 28.3402C103.678 28.341 103.667 28.341 103.656 28.3402V28.3424ZM87.9134 27.2005C87.8966 27.2005 87.8799 27.1982 87.8637 27.1936C87.8394 27.1872 87.8166 27.1761 87.7966 27.1608C87.7766 27.1456 87.7599 27.1265 87.7473 27.1048C87.7347 27.0831 87.7266 27.059 87.7233 27.0341C87.7201 27.0092 87.7218 26.9839 87.7283 26.9597C87.8092 26.6578 87.9085 26.3611 88.0258 26.0715C88.0346 26.0474 88.0482 26.0253 88.0658 26.0066C88.0833 25.9879 88.1044 25.9729 88.1279 25.9626C88.1514 25.9522 88.1767 25.9466 88.2023 25.9462C88.228 25.9458 88.2534 25.9506 88.2772 25.9602C88.3009 25.9699 88.3225 25.9842 88.3406 26.0024C88.3587 26.0205 88.373 26.0422 88.3826 26.0659C88.3922 26.0897 88.3969 26.1152 88.3964 26.1408C88.3959 26.1665 88.3903 26.1917 88.3798 26.2152C88.2688 26.4894 88.1746 26.7702 88.0977 27.056C88.0868 27.0966 88.0629 27.1325 88.0296 27.1582C87.9963 27.1839 87.9554 27.1979 87.9134 27.1982V27.2005ZM103.104 26.6042C103.068 26.6042 103.032 26.5935 103.001 26.5736C102.97 26.5537 102.945 26.5253 102.93 26.4919C102.808 26.2215 102.668 25.9591 102.513 25.7061C102.487 25.6628 102.478 25.6107 102.49 25.5613C102.502 25.512 102.533 25.4693 102.576 25.4427C102.62 25.4162 102.672 25.4079 102.721 25.4197C102.771 25.4316 102.813 25.4625 102.84 25.5058C103.003 25.7728 103.149 26.0495 103.278 26.3344C103.288 26.3572 103.294 26.3818 103.295 26.4068C103.296 26.4318 103.292 26.4568 103.283 26.4802C103.274 26.5036 103.261 26.5251 103.244 26.5433C103.226 26.5616 103.206 26.5763 103.183 26.5866C103.158 26.5975 103.131 26.6027 103.104 26.6019V26.6042ZM88.6039 25.5134C88.5704 25.5134 88.5375 25.5045 88.5084 25.4877C88.4794 25.4709 88.4554 25.4468 88.4386 25.4177C88.4219 25.3887 88.4131 25.3558 88.4131 25.3223C88.4131 25.2887 88.422 25.2558 88.4387 25.2268C88.5967 24.9544 88.7756 24.6947 88.974 24.4502C89.006 24.4109 89.0524 24.3859 89.1029 24.3807C89.1534 24.3755 89.2038 24.3906 89.2432 24.4227C89.2825 24.4547 89.3075 24.501 89.3127 24.5515C89.3178 24.602 89.3027 24.6524 89.2707 24.6917C89.0849 24.9207 88.9172 25.1637 88.7691 25.4187C88.7521 25.4472 88.7278 25.4708 88.6988 25.487C88.6699 25.5032 88.6371 25.5116 88.6039 25.5112V25.5134ZM102.151 25.0502C102.122 25.0509 102.093 25.0449 102.066 25.0325C102.04 25.0202 102.016 25.0019 101.998 24.9791C101.859 24.8072 101.71 24.639 101.554 24.4792C101.502 24.4265 101.45 24.3745 101.401 24.3264C101.364 24.2912 101.343 24.2429 101.342 24.1923C101.341 24.1416 101.361 24.0926 101.396 24.0561C101.431 24.0197 101.479 23.9986 101.53 23.9977C101.581 23.9968 101.63 24.016 101.666 24.0512C101.722 24.1047 101.777 24.1597 101.831 24.2155C101.996 24.3837 102.153 24.561 102.299 24.7429C102.322 24.7709 102.336 24.8047 102.34 24.8405C102.345 24.8763 102.339 24.9125 102.323 24.945C102.308 24.9775 102.283 25.0049 102.253 25.0241C102.222 25.0433 102.187 25.0534 102.151 25.0533V25.0502ZM89.754 24.1024C89.7269 24.1025 89.7002 24.0969 89.6755 24.0858C89.6508 24.0747 89.6288 24.0585 89.611 24.0382C89.5942 24.0195 89.5814 23.9976 89.5731 23.9739C89.5648 23.9502 89.5613 23.9252 89.5627 23.9001C89.5641 23.875 89.5705 23.8505 89.5814 23.8279C89.5923 23.8053 89.6075 23.7851 89.6263 23.7683C89.8618 23.5605 90.1117 23.3694 90.3741 23.1966C90.4164 23.1713 90.4668 23.1633 90.5148 23.1743C90.5628 23.1853 90.6047 23.2143 90.6318 23.2554C90.6589 23.2965 90.6691 23.3465 90.6603 23.3949C90.6514 23.4433 90.6243 23.4865 90.5844 23.5153C90.3376 23.6783 90.1025 23.8584 89.8809 24.0542C89.8455 24.0844 89.8004 24.1007 89.754 24.1001V24.1024ZM100.837 23.7859C100.796 23.786 100.755 23.7726 100.722 23.7477C100.484 23.5698 100.236 23.4061 99.9784 23.2577C99.9565 23.2453 99.9372 23.2286 99.9218 23.2087C99.9063 23.1888 99.895 23.166 99.8884 23.1417C99.8818 23.1174 99.88 23.092 99.8833 23.067C99.8865 23.042 99.8947 23.0179 99.9073 22.9961C99.9199 22.9742 99.9367 22.9551 99.9567 22.9398C99.9768 22.9245 99.9996 22.9133 100.024 22.9069C100.048 22.9004 100.074 22.8989 100.099 22.9023C100.124 22.9057 100.148 22.914 100.17 22.9268C100.44 23.0829 100.701 23.2549 100.952 23.442C100.984 23.466 101.008 23.4996 101.02 23.5379C101.032 23.5761 101.031 23.6172 101.018 23.6553C101.006 23.6933 100.981 23.7264 100.949 23.7499C100.916 23.7733 100.877 23.7859 100.837 23.7859ZM91.2718 23.0926C91.2289 23.0925 91.1873 23.0779 91.1537 23.0512C91.1201 23.0245 91.0965 22.9873 91.0866 22.9456C91.0767 22.9038 91.0811 22.86 91.0992 22.8211C91.1173 22.7822 91.1479 22.7505 91.1862 22.7311C91.4656 22.5923 91.7523 22.4686 92.0449 22.3603C92.0686 22.351 92.0939 22.3466 92.1193 22.3472C92.1448 22.3478 92.1698 22.3534 92.193 22.3638C92.2163 22.3742 92.2372 22.3892 92.2545 22.4078C92.2719 22.4263 92.2854 22.4482 92.2942 22.4721C92.303 22.4959 92.3069 22.5213 92.3058 22.5467C92.3047 22.5721 92.2985 22.5971 92.2876 22.62C92.2767 22.643 92.2613 22.6636 92.2424 22.6806C92.2234 22.6975 92.2012 22.7105 92.1772 22.7188C91.8976 22.8222 91.6238 22.9404 91.3567 23.0728C91.3301 23.0849 91.301 23.0906 91.2718 23.0896V23.0926ZM99.2542 22.8687C99.228 22.8689 99.2019 22.8637 99.1778 22.8534C98.9031 22.7348 98.6223 22.631 98.3366 22.5423C98.3119 22.5354 98.2888 22.5237 98.2688 22.5078C98.2487 22.4919 98.232 22.4721 98.2197 22.4496C98.2075 22.4271 98.1999 22.4023 98.1973 22.3768C98.1948 22.3513 98.1975 22.3256 98.2051 22.3011C98.2128 22.2767 98.2253 22.254 98.2418 22.2344C98.2584 22.2149 98.2788 22.1989 98.3017 22.1874C98.3246 22.1759 98.3495 22.1691 98.3751 22.1674C98.4007 22.1657 98.4264 22.1692 98.4506 22.1777C98.7483 22.2702 99.0408 22.3787 99.3269 22.5025C99.3671 22.5201 99.4 22.551 99.4201 22.59C99.4402 22.629 99.4463 22.6737 99.4373 22.7166C99.4283 22.7596 99.4049 22.7981 99.3708 22.8258C99.3368 22.8535 99.2943 22.8686 99.2504 22.8687H99.2542ZM92.9839 22.4528C92.9374 22.4529 92.8924 22.436 92.8575 22.4053C92.8226 22.3745 92.8 22.3321 92.7941 22.286C92.7882 22.2399 92.7993 22.1932 92.8254 22.1546C92.8515 22.1161 92.8907 22.0884 92.9358 22.0768C93.2324 22.0003 93.5391 21.9338 93.8465 21.8834C93.8716 21.8784 93.8974 21.8785 93.9225 21.8838C93.9475 21.889 93.9713 21.8992 93.9923 21.9137C94.0134 21.9283 94.0313 21.9469 94.045 21.9685C94.0587 21.9901 94.0679 22.0143 94.0721 22.0395C94.0763 22.0647 94.0754 22.0905 94.0694 22.1154C94.0634 22.1403 94.0525 22.1637 94.0373 22.1843C94.0221 22.2049 94.003 22.2222 93.981 22.2352C93.9589 22.2483 93.9345 22.2568 93.9092 22.2602C93.6133 22.3091 93.3181 22.3718 93.0321 22.4467C93.0164 22.4513 93.0002 22.4536 92.9839 22.4536V22.4528ZM97.5161 22.3237C97.5033 22.3236 97.4904 22.3221 97.4779 22.3191C97.1881 22.2602 96.8906 22.2136 96.5924 22.1822C96.5417 22.1769 96.4952 22.1516 96.4632 22.1119C96.4311 22.0723 96.4161 22.0216 96.4215 21.9709C96.4269 21.9202 96.4522 21.8737 96.4918 21.8417C96.5315 21.8097 96.5822 21.7947 96.6329 21.8C96.9434 21.8337 97.2531 21.8818 97.5505 21.9438C97.597 21.9532 97.6383 21.9795 97.6664 22.0177C97.6945 22.0558 97.7075 22.1031 97.7027 22.1502C97.6979 22.1974 97.6758 22.2411 97.6406 22.2728C97.6055 22.3046 97.5597 22.3222 97.5123 22.3221L97.5161 22.3237ZM94.7855 22.154C94.7348 22.1558 94.6854 22.1374 94.6483 22.1029C94.6112 22.0683 94.5893 22.0204 94.5874 21.9697C94.5856 21.9191 94.604 21.8697 94.6386 21.8326C94.6731 21.7955 94.721 21.7736 94.7717 21.7718C95.0776 21.7488 95.3942 21.7397 95.7031 21.7442C95.7538 21.7442 95.8024 21.7644 95.8383 21.8002C95.8741 21.8361 95.8943 21.8847 95.8943 21.9353C95.8943 21.986 95.8741 22.0346 95.8383 22.0705C95.8024 22.1063 95.7538 22.1264 95.7031 22.1264C95.4056 22.1219 95.1044 22.131 94.8061 22.1532L94.7855 22.154Z" fill="#181A44"/>
<path d="M121.535 44.0973C121.496 44.0973 121.458 44.0851 121.425 44.0626C121.393 44.04 121.369 44.0081 121.356 43.9712C121.342 43.9343 121.341 43.8942 121.351 43.8563C121.361 43.8184 121.383 43.7846 121.413 43.7594C121.534 43.657 121.65 43.5584 121.757 43.4636C121.776 43.4471 121.798 43.4345 121.822 43.4264C121.846 43.4184 121.871 43.4152 121.896 43.4169C121.921 43.4186 121.945 43.4252 121.968 43.4364C121.99 43.4475 122.01 43.463 122.027 43.4819C122.043 43.5009 122.056 43.5229 122.064 43.5467C122.072 43.5705 122.075 43.5956 122.074 43.6207C122.072 43.6457 122.065 43.6702 122.054 43.6927C122.043 43.7152 122.028 43.7353 122.009 43.7518C121.899 43.8481 121.782 43.9482 121.658 44.0522C121.624 44.0811 121.58 44.0971 121.535 44.0973Z" fill="#181A44"/>
<path d="M17.9245 110.127C19.3346 111.536 19.0846 114.069 19.0846 114.069C19.0846 114.069 16.5504 114.319 15.1404 112.914C13.7303 111.508 13.9811 108.971 13.9811 108.971C13.9811 108.971 16.5168 108.718 17.9245 110.127Z" fill="#F0426A"/>
<path d="M13.9811 108.967L19.0846 114.069C19.0846 114.069 16.5504 114.319 15.1404 112.914C13.7303 111.508 13.9811 108.967 13.9811 108.967Z" fill="#CF2959"/>
<path d="M20.8152 110.127C19.4051 111.538 19.6521 114.069 19.6521 114.069C19.6521 114.069 22.187 114.319 23.5963 112.91C25.0056 111.5 24.7555 108.967 24.7555 108.967C24.7555 108.967 22.2245 108.718 20.8152 110.127Z" fill="#F0426A"/>
<path d="M24.7578 108.967L19.6521 114.069C19.6521 114.069 22.187 114.319 23.5963 112.91C25.0056 111.5 24.7578 108.967 24.7578 108.967Z" fill="#CF2959"/>
<path d="M18.1802 105.207C19.3409 106.367 19.1352 108.451 19.1352 108.451C19.1352 108.451 17.0492 108.657 15.8884 107.498C14.7277 106.338 14.9341 104.252 14.9341 104.252C14.9341 104.252 17.0202 104.047 18.1802 105.207Z" fill="#F0426A"/>
<path d="M14.9341 104.252L19.1352 108.451C19.1352 108.451 17.0492 108.657 15.8884 107.498C14.7277 106.338 14.9341 104.252 14.9341 104.252Z" fill="#CF2959"/>
<path d="M20.5589 105.207C19.3989 106.367 19.6038 108.451 19.6038 108.451C19.6038 108.451 21.6906 108.657 22.8506 107.498C24.0106 106.338 23.8049 104.252 23.8049 104.252C23.8049 104.252 21.7166 104.047 20.5589 105.207Z" fill="#F0426A"/>
<path d="M23.8049 104.252L19.6038 108.451C19.6038 108.451 21.6905 108.657 22.8506 107.498C24.0106 106.338 23.8049 104.252 23.8049 104.252Z" fill="#CF2959"/>
<path d="M18.505 101.295C19.35 102.136 19.2009 103.657 19.2009 103.657C19.2009 103.657 17.6823 103.81 16.8373 102.963C15.9923 102.116 16.143 100.6 16.143 100.6C16.143 100.6 17.6593 100.454 18.505 101.295Z" fill="#F0426A"/>
<path d="M16.1414 100.599L19.2001 103.657C19.2001 103.657 17.6814 103.81 16.8365 102.963C15.9915 102.116 16.1414 100.599 16.1414 100.599Z" fill="#CF2959"/>
<path d="M20.2356 101.295C19.3944 102.136 19.5405 103.657 19.5405 103.657C19.5405 103.657 21.0591 103.81 21.9033 102.963C22.7475 102.116 22.5984 100.6 22.5984 100.6C22.5984 100.6 21.0805 100.454 20.2356 101.295Z" fill="#F0426A"/>
<path d="M22.5982 100.599L19.5396 103.657C19.5396 103.657 21.0582 103.81 21.9024 102.963C22.7466 102.116 22.5982 100.599 22.5982 100.599Z" fill="#CF2959"/>
<path d="M19.6528 99.9932H19.0847V117.464H19.6528V99.9932Z" fill="#181A44"/>
<path d="M18.8638 98.4835C19.4755 99.095 19.3669 100.191 19.3669 100.191C19.3669 100.191 18.2689 100.3 17.6579 99.6889C17.0469 99.0782 17.1563 97.9813 17.1563 97.9813C17.1563 97.9813 18.2536 97.8735 18.8638 98.4835Z" fill="#F0426A"/>
<path d="M17.1563 97.9813L19.3669 100.191C19.3669 100.191 18.2689 100.3 17.6579 99.6889C17.0469 99.0782 17.1563 97.9813 17.1563 97.9813Z" fill="#CF2959"/>
<path d="M19.8755 98.4835C19.2637 99.095 19.3731 100.191 19.3731 100.191C19.3731 100.191 20.4711 100.3 21.0813 99.6889C21.6915 99.0782 21.5837 97.9813 21.5837 97.9813C21.5837 97.9813 20.4864 97.8735 19.8755 98.4835Z" fill="#F0426A"/>
<path d="M21.5837 97.9813L19.373 100.191C19.373 100.191 20.4711 100.3 21.0813 99.6889C21.6915 99.0782 21.5837 97.9813 21.5837 97.9813Z" fill="#CF2959"/>
<path d="M22.1013 125.387H16.6385L14.8369 116.325H23.9021L22.1013 125.387Z" fill="#2A457B"/>
<path d="M24.458 116.325H14.2817V116.865H24.458V116.325Z" fill="#181A44"/>
<path d="M16.1864 53.3961C16.1254 53.8043 15.9447 54.1853 15.667 54.4909C15.3894 54.7965 15.0274 55.013 14.6268 55.1129C14.2261 55.2129 13.8048 55.1919 13.4161 55.0526C13.0274 54.9132 12.6888 54.6618 12.443 54.3301C12.1972 53.9984 12.0553 53.6013 12.0352 53.189C12.0151 52.7767 12.1178 52.3677 12.3302 52.0137C12.5426 51.6597 12.8553 51.3766 13.2286 51.2002C13.6019 51.0238 14.0192 50.962 14.4277 51.0226C14.6991 51.0629 14.9599 51.1563 15.1953 51.2974C15.4306 51.4385 15.6358 51.6246 15.7991 51.845C15.9625 52.0654 16.0807 52.3158 16.1472 52.582C16.2136 52.8481 16.227 53.1248 16.1864 53.3961Z" fill="#4A85FC"/>
<path d="M13.7771 54.1467C13.7541 54.1323 13.7339 54.114 13.7174 54.0924L13.0216 53.1828C12.9859 53.1361 12.9702 53.0771 12.978 53.0188C12.9859 52.9605 13.0165 52.9078 13.0633 52.8721C13.11 52.8364 13.169 52.8207 13.2273 52.8286C13.2856 52.8364 13.3384 52.867 13.3741 52.9137L13.9162 53.6216L15.0426 52.4979C15.0627 52.4755 15.0873 52.4574 15.1146 52.4448C15.142 52.4321 15.1716 52.4252 15.2018 52.4244C15.2319 52.4236 15.2619 52.429 15.2899 52.4401C15.3179 52.4513 15.3433 52.4681 15.3646 52.4894C15.3859 52.5108 15.4026 52.5362 15.4138 52.5642C15.4249 52.5923 15.4302 52.6222 15.4293 52.6524C15.4284 52.6825 15.4214 52.7121 15.4087 52.7394C15.396 52.7668 15.3778 52.7912 15.3554 52.8113L14.0501 54.1108C14.0278 54.1331 14.001 54.1504 13.9714 54.1615C13.9419 54.1726 13.9103 54.1772 13.8788 54.175C13.8431 54.1738 13.8082 54.1641 13.7771 54.1467Z" fill="white"/>
<path d="M109.22 19.6908C109.177 19.9789 109.05 20.2478 108.854 20.4634C108.658 20.679 108.402 20.8317 108.12 20.9022C107.837 20.9727 107.54 20.9578 107.265 20.8594C106.991 20.761 106.752 20.5835 106.579 20.3494C106.405 20.1153 106.305 19.835 106.291 19.5441C106.277 19.2531 106.35 18.9646 106.5 18.7148C106.65 18.4651 106.87 18.2654 107.134 18.141C107.397 18.0166 107.692 17.9732 107.98 18.0161C108.367 18.074 108.714 18.2829 108.947 18.5969C109.179 18.9109 109.278 19.3044 109.22 19.6908Z" fill="#4A85FC"/>
<path d="M107.517 20.2205C107.5 20.2105 107.486 20.1976 107.475 20.1823L106.984 19.5402C106.971 19.5239 106.962 19.5053 106.957 19.4855C106.952 19.4657 106.951 19.445 106.953 19.4247C106.956 19.4044 106.963 19.3849 106.973 19.3672C106.984 19.3495 106.997 19.334 107.014 19.3216C107.03 19.3092 107.048 19.3002 107.068 19.2949C107.088 19.2897 107.109 19.2885 107.129 19.2912C107.149 19.294 107.169 19.3007 107.187 19.3111C107.204 19.3214 107.22 19.3351 107.232 19.3514L107.615 19.8513L108.41 19.0579C108.439 19.0286 108.479 19.0121 108.52 19.0121C108.562 19.0121 108.602 19.0286 108.631 19.0579C108.66 19.0872 108.677 19.1269 108.677 19.1684C108.677 19.2098 108.66 19.2495 108.631 19.2788L107.713 20.1961C107.689 20.2216 107.656 20.2378 107.621 20.242C107.586 20.2462 107.55 20.2381 107.521 20.219L107.517 20.2205Z" fill="white"/>
<path d="M116.077 69.8786C115.919 71.0733 114.93 71.8973 113.873 71.7185C112.815 71.5396 112.082 70.4266 112.241 69.2319C112.399 68.0372 113.388 67.2139 114.446 67.392C115.504 67.5701 116.236 68.6854 116.077 69.8786Z" fill="#4A85FC"/>
<path d="M113.84 70.6666C113.818 70.6513 113.799 70.6321 113.785 70.6101L113.138 69.6569C113.105 69.6068 113.091 69.5466 113.098 69.4869C113.105 69.4271 113.133 69.372 113.177 69.3312C113.198 69.313 113.223 69.2995 113.25 69.2918C113.276 69.284 113.304 69.2822 113.332 69.2863C113.359 69.2904 113.385 69.3005 113.408 69.3158C113.432 69.3311 113.451 69.3512 113.466 69.3748L113.969 70.117L115.015 68.9391C115.033 68.9179 115.055 68.9008 115.08 68.8891C115.105 68.8774 115.133 68.8713 115.161 68.8713C115.188 68.8713 115.216 68.8774 115.241 68.8891C115.266 68.9008 115.288 68.9179 115.306 68.9391C115.345 68.985 115.366 69.0433 115.366 69.1034C115.366 69.1636 115.345 69.2218 115.306 69.2678L114.093 70.6338C114.074 70.6565 114.049 70.6744 114.022 70.686C113.994 70.6977 113.964 70.7028 113.934 70.701C113.9 70.6984 113.867 70.6865 113.84 70.6666Z" fill="white"/>
<path d="M43.5373 1.93589C43.4942 2.22398 43.3666 2.49282 43.1707 2.70843C42.9748 2.92405 42.7193 3.07675 42.4365 3.14723C42.1538 3.21772 41.8565 3.20283 41.5822 3.10443C41.308 3.00604 41.069 2.82857 40.8957 2.59445C40.7223 2.36034 40.6222 2.08009 40.6082 1.78914C40.5941 1.4982 40.6666 1.20961 40.8166 0.959872C40.9666 0.710134 41.1873 0.510454 41.4508 0.38608C41.7143 0.261705 42.0088 0.21822 42.297 0.26112C42.6835 0.319062 43.0312 0.527977 43.2638 0.841989C43.4963 1.156 43.5947 1.54944 43.5373 1.93589Z" fill="#4A85FC"/>
<path d="M41.8367 2.46562C41.8205 2.45562 41.8062 2.44266 41.7947 2.4274L41.3038 1.78531C41.2913 1.769 41.2822 1.7504 41.2769 1.73057C41.2717 1.71073 41.2704 1.69006 41.2731 1.66972C41.2759 1.64939 41.2826 1.62979 41.2929 1.61205C41.3032 1.5943 41.3169 1.57877 41.3332 1.56632C41.3495 1.55387 41.3681 1.54476 41.388 1.5395C41.4078 1.53424 41.4285 1.53294 41.4488 1.53568C41.4692 1.53841 41.4888 1.54512 41.5065 1.55543C41.5243 1.56573 41.5398 1.57943 41.5523 1.59575L41.9346 2.09566L42.7299 1.30222C42.7444 1.28772 42.7616 1.27621 42.7806 1.26836C42.7995 1.26051 42.8199 1.25647 42.8404 1.25647C42.8609 1.25647 42.8812 1.26051 42.9002 1.26836C42.9191 1.27621 42.9364 1.28772 42.9509 1.30222C42.9654 1.31673 42.9769 1.33395 42.9847 1.3529C42.9926 1.37185 42.9966 1.39216 42.9966 1.41268C42.9966 1.43319 42.9926 1.4535 42.9847 1.47245C42.9769 1.4914 42.9654 1.50862 42.9509 1.52313L42.0294 2.4404C42.0049 2.46591 41.9723 2.48215 41.9372 2.48633C41.9021 2.49051 41.8666 2.48238 41.8367 2.46333V2.46562Z" fill="white"/>
<path d="M26.3575 77.7785C26.2432 77.7783 26.1336 77.7328 26.0528 77.652C25.972 77.5712 25.9265 77.4616 25.9263 77.3474V74.3059C25.9263 74.1915 25.9717 74.0819 26.0526 74.001C26.1335 73.9202 26.2432 73.8748 26.3575 73.8748C26.4719 73.8748 26.5816 73.9202 26.6625 74.001C26.7434 74.0819 26.7888 74.1915 26.7888 74.3059V77.3474C26.7888 77.404 26.7777 77.46 26.756 77.5123C26.7343 77.5647 26.7025 77.6122 26.6625 77.6522C26.6225 77.6922 26.5749 77.724 26.5226 77.7457C26.4703 77.7673 26.4142 77.7785 26.3575 77.7785Z" fill="#F0426A"/>
<path d="M27.8799 76.2574H24.8365C24.7222 76.2574 24.6125 76.2119 24.5316 76.1311C24.4507 76.0502 24.4053 75.9406 24.4053 75.8263C24.4053 75.7119 24.4507 75.6023 24.5316 75.5214C24.6125 75.4406 24.7222 75.3951 24.8365 75.3951H27.8799C27.9943 75.3951 28.104 75.4406 28.1849 75.5214C28.2658 75.6023 28.3112 75.7119 28.3112 75.8263C28.3112 75.9406 28.2658 76.0502 28.1849 76.1311C28.104 76.2119 27.9943 76.2574 27.8799 76.2574Z" fill="#F0426A"/>
<path d="M112.688 29.9966C112.591 29.9966 112.498 29.9579 112.429 29.8891C112.36 29.8203 112.322 29.727 112.322 29.6297V27.0422C112.322 26.9449 112.36 26.8516 112.429 26.7828C112.498 26.714 112.591 26.6753 112.688 26.6753C112.786 26.6753 112.879 26.714 112.948 26.7828C113.016 26.8516 113.055 26.9449 113.055 27.0422V29.6297C113.055 29.727 113.016 29.8203 112.948 29.8891C112.879 29.9579 112.786 29.9966 112.688 29.9966Z" fill="#F0426A"/>
<path d="M113.983 28.7025H111.394C111.3 28.6982 111.211 28.6577 111.146 28.5894C111.08 28.5211 111.044 28.4304 111.044 28.336C111.044 28.2415 111.08 28.1508 111.146 28.0825C111.211 28.0142 111.3 27.9737 111.394 27.9694H113.983C114.033 27.9672 114.082 27.975 114.129 27.9924C114.175 28.0098 114.218 28.0364 114.254 28.0707C114.29 28.1049 114.318 28.1461 114.338 28.1917C114.357 28.2373 114.367 28.2864 114.367 28.336C114.367 28.3856 114.357 28.4346 114.338 28.4802C114.318 28.5258 114.29 28.567 114.254 28.6013C114.218 28.6355 114.175 28.6621 114.129 28.6795C114.082 28.6969 114.033 28.7047 113.983 28.7025Z" fill="#F0426A"/>
</svg>
