<svg width="129" height="132" viewBox="0 0 129 132" fill="none" xmlns="http://www.w3.org/2000/svg">
<path opacity="0.3" d="M81.352 15.1428C81.3502 15.5999 81.1658 16.0375 80.8393 16.3598C80.5128 16.682 80.0708 16.8625 79.6104 16.8616H42.5925C42.2502 16.8614 41.9156 16.7605 41.6311 16.5716C41.3465 16.3827 41.1248 16.1144 40.9938 15.8004C40.8628 15.4865 40.8286 15.1411 40.8953 14.8078C40.962 14.4746 41.1267 14.1684 41.3687 13.928C41.5288 13.7677 41.7195 13.6405 41.9296 13.554C42.1397 13.4675 42.365 13.4233 42.5925 13.4241H44.3409C44.6314 12.7477 45.0852 12.1528 45.6622 11.6917C46.2392 11.2307 46.9217 10.9177 47.6494 10.7805C48.3771 10.6433 49.1277 10.686 49.8349 10.905C50.542 11.1239 51.184 11.5122 51.7041 12.0357C52.4173 10.832 53.5175 9.90109 54.8279 9.39266C56.1383 8.88424 57.5828 8.82778 58.9295 9.23235C59.6046 7.98016 60.6418 6.95718 61.9076 6.29505C63.1734 5.63293 64.6099 5.36196 66.0321 5.51703C67.4544 5.6721 68.7973 6.2461 69.8882 7.16516C70.979 8.08423 71.7678 9.3063 72.153 10.6741C72.7447 10.3799 73.3943 10.2184 74.0558 10.2012C74.7174 10.184 75.3746 10.3114 75.981 10.5745C76.5874 10.8375 77.1281 11.2298 77.5647 11.7234C78.0013 12.217 78.3232 12.7999 78.5075 13.4308H79.6104C79.838 13.4295 80.0637 13.4727 80.2745 13.5581C80.4853 13.6435 80.6771 13.7692 80.8389 13.9283C81.0006 14.0873 81.1292 14.2764 81.2173 14.4848C81.3053 14.6933 81.3511 14.9169 81.352 15.1428Z" fill="#E7CCD3"/>
<path opacity="0.4" d="M29.7656 8.6316C29.763 8.96397 29.6298 9.28221 29.3943 9.51848C29.1588 9.75476 28.8396 9.89039 28.5048 9.89647H1.27096C1.01921 9.89582 0.773299 9.82116 0.564252 9.68193C0.355205 9.54269 0.192393 9.34511 0.096359 9.11411C0.000324913 8.88312 -0.024627 8.62906 0.0246526 8.38401C0.0739323 8.13895 0.195235 7.91388 0.373253 7.73718C0.490628 7.61939 0.630455 7.52596 0.784581 7.46236C0.938707 7.39876 1.10405 7.36625 1.27096 7.36673H2.55868C2.77274 6.87329 3.10515 6.4393 3.52692 6.10261C3.94869 5.76591 4.44703 5.53673 4.97849 5.43504C5.50995 5.33335 6.05841 5.36224 6.57604 5.51919C7.09368 5.67613 7.56478 5.95638 7.94829 6.33548C8.47209 5.44978 9.28085 4.76476 10.2444 4.39065C11.208 4.01653 12.2704 3.97509 13.2606 4.27298C13.7534 3.34373 14.5165 2.58315 15.4506 2.09016C16.3848 1.59716 17.4467 1.39454 18.4984 1.50865C19.5501 1.62276 20.5429 2.04833 21.3477 2.73001C22.1525 3.41168 22.732 4.31794 23.011 5.33093C23.4459 5.11392 23.9236 4.99465 24.4102 4.9816C24.8969 4.96854 25.3804 5.06202 25.8265 5.2554C26.2726 5.44877 26.6704 5.73729 26.9915 6.10047C27.3126 6.46364 27.5491 6.89255 27.6844 7.35672H28.5048C28.8419 7.36112 29.1636 7.49759 29.3997 7.73639C29.6359 7.97519 29.7674 8.29697 29.7656 8.6316Z" fill="#E7CCD3"/>
<path opacity="0.3" d="M121.974 7.11977C121.97 7.45272 121.833 7.7705 121.594 8.00417C121.477 8.12197 121.337 8.21539 121.183 8.279C121.029 8.3426 120.863 8.37511 120.696 8.37462H93.4625C93.1246 8.37462 92.8004 8.24136 92.5615 8.00415C92.3225 7.76694 92.1882 7.44522 92.1882 7.10976C92.1882 6.77429 92.3225 6.45257 92.5615 6.21536C92.8004 5.97815 93.1246 5.84489 93.4625 5.84489H94.7401C94.9566 5.35122 95.2916 4.91774 95.7159 4.58237C96.1402 4.24701 96.6408 4.01999 97.174 3.92119C97.7072 3.82239 98.2566 3.85482 98.7743 4.01564C99.2919 4.17646 99.7619 4.46077 100.143 4.84368C100.668 3.95771 101.477 3.27257 102.441 2.89847C103.405 2.52437 104.468 2.48306 105.459 2.78118C105.953 1.856 106.715 1.09925 107.647 0.60888C108.579 0.118508 109.638 -0.0829091 110.686 0.0306999C111.735 0.144309 112.725 0.567713 113.528 1.24611C114.332 1.9245 114.911 2.82665 115.192 3.83579C115.628 3.61999 116.106 3.50168 116.592 3.48921C117.079 3.47674 117.562 3.57041 118.008 3.7636C118.454 3.9568 118.852 4.24481 119.173 4.60732C119.495 4.96982 119.733 5.39798 119.869 5.86158H120.686C121.025 5.85979 121.35 5.99114 121.592 6.22691C121.833 6.46268 121.97 6.78369 121.974 7.11977Z" fill="#E7CCD3"/>
<path opacity="0.08" d="M66.3086 131.999C100.932 131.999 129 129.467 129 126.342C129 123.218 100.932 120.685 66.3086 120.685C31.6851 120.685 3.61719 123.218 3.61719 126.342C3.61719 129.467 31.6851 131.999 66.3086 131.999Z" fill="black"/>
<path d="M104.827 53.1076C104.827 53.4983 104.71 53.8803 104.491 54.2052C104.273 54.5301 103.962 54.7834 103.598 54.9329C103.234 55.0824 102.834 55.1216 102.448 55.0453C102.062 54.9691 101.707 54.7809 101.429 54.5046C101.151 54.2283 100.961 53.8763 100.884 53.493C100.807 53.1098 100.847 52.7125 100.997 52.3515C101.148 51.9905 101.403 51.6819 101.731 51.4648C102.058 51.2477 102.443 51.1318 102.836 51.1318C103.364 51.1327 103.87 51.3412 104.243 51.7115C104.616 52.0818 104.826 52.5838 104.827 53.1076ZM104.201 53.1076C104.202 52.8386 104.122 52.5756 103.972 52.3517C103.822 52.1278 103.608 51.9532 103.358 51.85C103.108 51.7467 102.833 51.7195 102.567 51.7719C102.301 51.8242 102.057 51.9536 101.865 52.1438C101.674 52.3339 101.543 52.5763 101.491 52.8401C101.438 53.1039 101.465 53.3772 101.569 53.6256C101.673 53.8739 101.849 54.086 102.075 54.235C102.3 54.384 102.565 54.4632 102.836 54.4625C103.197 54.4599 103.541 54.316 103.795 54.0622C104.049 53.8083 104.191 53.4652 104.191 53.1076H104.201Z" fill="#F0426A"/>
<path d="M113.568 47.3404C113.568 47.7311 113.452 48.1131 113.233 48.438C113.014 48.7629 112.703 49.0161 112.34 49.1657C111.976 49.3152 111.576 49.3543 111.19 49.2781C110.804 49.2019 110.449 49.0137 110.171 48.7374C109.892 48.4611 109.703 48.1091 109.626 47.7258C109.549 47.3425 109.589 46.9453 109.739 46.5843C109.89 46.2233 110.145 45.9147 110.472 45.6976C110.8 45.4805 111.184 45.3646 111.578 45.3646C112.106 45.3655 112.611 45.5739 112.985 45.9443C113.358 46.3146 113.568 46.8166 113.568 47.3404ZM112.946 47.3404C112.947 47.0716 112.867 46.8086 112.718 46.5848C112.568 46.361 112.354 46.1864 112.104 46.0831C111.854 45.9797 111.579 45.9524 111.313 46.0044C111.048 46.0564 110.803 46.1855 110.612 46.3754C110.42 46.5652 110.289 46.8072 110.236 47.0708C110.183 47.3344 110.21 47.6076 110.314 47.856C110.417 48.1044 110.592 48.3168 110.817 48.4662C111.043 48.6156 111.307 48.6953 111.578 48.6953C111.758 48.6966 111.937 48.6626 112.105 48.5952C112.272 48.5278 112.424 48.4283 112.552 48.3024C112.681 48.1766 112.783 48.0268 112.853 47.8617C112.923 47.6966 112.959 47.5194 112.96 47.3404H112.946Z" fill="#4A85FC"/>
<path d="M112.472 39.8844C112.431 39.884 112.39 39.8917 112.352 39.9071C112.314 39.9226 112.279 39.9454 112.25 39.9743C112.221 40.0032 112.198 40.0376 112.183 40.0755C112.167 40.1134 112.159 40.1539 112.16 40.1948V41.5598C112.16 41.6421 112.193 41.721 112.251 41.7793C112.31 41.8375 112.389 41.8702 112.472 41.8702C112.555 41.8702 112.634 41.8375 112.693 41.7793C112.751 41.721 112.784 41.6421 112.784 41.5598V40.1948C112.784 40.1125 112.751 40.0335 112.693 39.9753C112.634 39.9171 112.555 39.8844 112.472 39.8844Z" fill="#F0426A"/>
<path d="M112.472 37.4915C112.389 37.4915 112.31 37.5242 112.251 37.5824C112.193 37.6406 112.16 37.7195 112.16 37.8018V39.1668C112.16 39.2491 112.193 39.3281 112.251 39.3863C112.31 39.4445 112.389 39.4772 112.472 39.4772C112.555 39.4772 112.634 39.4445 112.693 39.3863C112.751 39.3281 112.784 39.2491 112.784 39.1668V37.8018C112.784 37.7195 112.751 37.6406 112.693 37.5824C112.634 37.5242 112.555 37.4915 112.472 37.4915Z" fill="#F0426A"/>
<path d="M114.406 39.3771H113.168C113.085 39.3771 113.006 39.4098 112.947 39.468C112.889 39.5263 112.856 39.6052 112.856 39.6875C112.856 39.7698 112.889 39.8488 112.947 39.907C113.006 39.9652 113.085 39.9979 113.168 39.9979H114.406C114.489 39.9979 114.568 39.9652 114.627 39.907C114.685 39.8488 114.718 39.7698 114.718 39.6875C114.718 39.6052 114.685 39.5263 114.627 39.468C114.568 39.4098 114.489 39.3771 114.406 39.3771Z" fill="#F0426A"/>
<path d="M111.776 39.3771H110.542C110.459 39.3771 110.38 39.4098 110.321 39.468C110.263 39.5263 110.23 39.6052 110.23 39.6875C110.23 39.7698 110.263 39.8488 110.321 39.907C110.38 39.9652 110.459 39.9979 110.542 39.9979H111.78C111.863 39.9979 111.942 39.9652 112.001 39.907C112.059 39.8488 112.092 39.7698 112.092 39.6875C112.092 39.6052 112.059 39.5263 112.001 39.468C111.942 39.4098 111.863 39.3771 111.78 39.3771H111.776Z" fill="#F0426A"/>
<path d="M101.689 45.0509C101.607 45.0509 101.528 45.0831 101.47 45.1406C101.411 45.1981 101.378 45.2762 101.377 45.3579V46.7196C101.377 46.8019 101.41 46.8809 101.469 46.9391C101.527 46.9973 101.607 47.03 101.689 47.03C101.772 47.03 101.852 46.9973 101.91 46.9391C101.969 46.8809 102.002 46.8019 102.002 46.7196V45.3513C101.999 45.2707 101.965 45.1943 101.907 45.1382C101.848 45.0822 101.771 45.0509 101.689 45.0509Z" fill="#4A85FC"/>
<path d="M101.689 42.6512C101.607 42.6512 101.527 42.6839 101.469 42.7422C101.41 42.8004 101.377 42.8793 101.377 42.9616V44.3266C101.377 44.4089 101.41 44.4879 101.469 44.5461C101.527 44.6043 101.607 44.637 101.689 44.637C101.772 44.637 101.852 44.6043 101.91 44.5461C101.969 44.4879 102.002 44.4089 102.002 44.3266V42.9616C102.002 42.8793 101.969 42.8004 101.91 42.7422C101.852 42.6839 101.772 42.6512 101.689 42.6512Z" fill="#4A85FC"/>
<path d="M103.623 44.5303H102.386C102.303 44.5303 102.223 44.563 102.165 44.6212C102.106 44.6794 102.073 44.7583 102.073 44.8406C102.073 44.923 102.106 45.0019 102.165 45.0601C102.223 45.1183 102.303 45.151 102.386 45.151H103.623C103.706 45.151 103.785 45.1183 103.844 45.0601C103.903 45.0019 103.936 44.923 103.936 44.8406C103.936 44.7583 103.903 44.6794 103.844 44.6212C103.785 44.563 103.706 44.5303 103.623 44.5303Z" fill="#4A85FC"/>
<path d="M100.994 44.5303H99.7565C99.6736 44.5303 99.5941 44.563 99.5354 44.6212C99.4768 44.6794 99.4438 44.7583 99.4438 44.8406C99.4438 44.923 99.4768 45.0019 99.5354 45.0601C99.5941 45.1183 99.6736 45.151 99.7565 45.151H100.994C101.077 45.151 101.156 45.1183 101.215 45.0601C101.274 45.0019 101.307 44.923 101.307 44.8406C101.307 44.7583 101.274 44.6794 101.215 44.6212C101.156 44.563 101.077 44.5303 100.994 44.5303Z" fill="#4A85FC"/>
<path d="M15.2275 18.8379C14.8338 18.8379 14.449 18.7221 14.1217 18.505C13.7943 18.2879 13.5392 17.9793 13.3886 17.6183C13.2379 17.2573 13.1985 16.86 13.2753 16.4768C13.3521 16.0935 13.5417 15.7415 13.82 15.4652C14.0984 15.1888 14.4531 15.0007 14.8392 14.9244C15.2253 14.8482 15.6255 14.8873 15.9892 15.0369C16.3529 15.1864 16.6637 15.4396 16.8825 15.7645C17.1012 16.0895 17.2179 16.4714 17.2179 16.8622C17.217 17.3859 17.007 17.888 16.6339 18.2583C16.2609 18.6286 15.7551 18.837 15.2275 18.8379ZM15.2275 18.2205C15.4983 18.2212 15.7632 18.1421 15.9886 17.9932C16.2141 17.8444 16.39 17.6325 16.4941 17.3843C16.5982 17.1362 16.6258 16.863 16.5734 16.5993C16.521 16.3356 16.3909 16.0932 16.1997 15.9029C16.0084 15.7126 15.7646 15.5829 15.4991 15.5302C15.2335 15.4776 14.9582 15.5043 14.708 15.607C14.4577 15.7097 14.2438 15.8838 14.0933 16.1072C13.9428 16.3307 13.8624 16.5934 13.8624 16.8622C13.8624 17.2219 14.0061 17.5669 14.262 17.8215C14.5179 18.0761 14.8651 18.2196 15.2275 18.2205Z" fill="#F0426A"/>
<path d="M20.9196 25.3594C20.5258 25.3601 20.1406 25.2448 19.8128 25.0281C19.4851 24.8114 19.2294 24.503 19.0783 24.1421C18.9271 23.7811 18.8872 23.3838 18.9636 23.0003C19.04 22.6168 19.2293 22.2645 19.5076 21.9878C19.7858 21.7112 20.1405 21.5227 20.5267 21.4462C20.9129 21.3697 21.3132 21.4086 21.6771 21.558C22.041 21.7075 22.3521 21.9607 22.5709 22.2857C22.7898 22.6107 22.9066 22.9928 22.9066 23.3837C22.9057 23.9068 22.6962 24.4084 22.3239 24.7786C21.9515 25.1488 21.4466 25.3577 20.9196 25.3594ZM20.9196 24.7387C21.1894 24.738 21.453 24.658 21.677 24.5087C21.9011 24.3594 22.0755 24.1476 22.1783 23.8999C22.2811 23.6523 22.3077 23.3799 22.2546 23.1173C22.2016 22.8547 22.0713 22.6136 21.8803 22.4244C21.6892 22.2352 21.446 22.1065 21.1813 22.0545C20.9166 22.0025 20.6423 22.0295 20.393 22.1322C20.1438 22.2348 19.9308 22.4085 19.781 22.6312C19.6311 22.854 19.5512 23.1158 19.5512 23.3837C19.5503 23.5625 19.585 23.7397 19.6534 23.905C19.7219 24.0704 19.8226 24.2207 19.9498 24.3473C20.077 24.4739 20.2281 24.5742 20.3946 24.6425C20.561 24.7108 20.7395 24.7458 20.9196 24.7453V24.7387Z" fill="#4A85FC"/>
<path d="M25.9832 15.4271C25.9832 15.3454 25.9507 15.2669 25.8928 15.2088C25.8349 15.1507 25.7562 15.1176 25.6739 15.1168H24.2954C24.2124 15.1168 24.1329 15.1495 24.0742 15.2077C24.0156 15.2659 23.9827 15.3448 23.9827 15.4271C23.9827 15.5095 24.0156 15.5884 24.0742 15.6466C24.1329 15.7048 24.2124 15.7375 24.2954 15.7375H25.6739C25.7148 15.7375 25.7553 15.7295 25.793 15.7138C25.8308 15.6982 25.865 15.6753 25.8938 15.6464C25.9225 15.6175 25.9453 15.5833 25.9606 15.5457C25.9759 15.508 25.9836 15.4677 25.9832 15.4271Z" fill="#F0426A"/>
<path d="M28.3938 15.4271C28.3938 15.3448 28.3609 15.2659 28.3022 15.2077C28.2436 15.1495 28.1641 15.1168 28.0811 15.1168H26.706C26.6231 15.1168 26.5435 15.1495 26.4849 15.2077C26.4263 15.2659 26.3933 15.3448 26.3933 15.4271C26.3933 15.5095 26.4263 15.5884 26.4849 15.6466C26.5435 15.7048 26.6231 15.7375 26.706 15.7375H28.0811C28.1641 15.7375 28.2436 15.7048 28.3022 15.6466C28.3609 15.5884 28.3938 15.5095 28.3938 15.4271Z" fill="#F0426A"/>
<path d="M26.4865 17.3495V16.118C26.4865 16.0357 26.4537 15.9567 26.3951 15.8985C26.3365 15.8403 26.2571 15.8076 26.1743 15.8076C26.0915 15.8076 26.0121 15.8403 25.9535 15.8985C25.895 15.9567 25.8621 16.0357 25.8621 16.118V17.3495C25.8621 17.4318 25.895 17.5107 25.9535 17.569C26.0121 17.6272 26.0915 17.6599 26.1743 17.6599C26.2571 17.6599 26.3365 17.6272 26.3951 17.569C26.4537 17.5107 26.4865 17.4318 26.4865 17.3495Z" fill="#F0426A"/>
<path d="M26.4865 14.7362V13.5114C26.4865 13.429 26.4537 13.3501 26.3951 13.2919C26.3365 13.2337 26.2571 13.201 26.1743 13.201C26.0915 13.201 26.0121 13.2337 25.9535 13.2919C25.895 13.3501 25.8621 13.429 25.8621 13.5114V14.7362C25.8621 14.8185 25.895 14.8974 25.9535 14.9557C26.0121 15.0139 26.0915 15.0466 26.1743 15.0466C26.2571 15.0466 26.3365 15.0139 26.3951 14.9557C26.4537 14.8974 26.4865 14.8185 26.4865 14.7362Z" fill="#F0426A"/>
<path d="M10.349 26.9749C10.349 26.8926 10.3161 26.8137 10.2574 26.7555C10.1988 26.6972 10.1193 26.6646 10.0363 26.6646H8.66791C8.62685 26.6646 8.58619 26.6726 8.54825 26.6882C8.51031 26.7038 8.47584 26.7266 8.44681 26.7555C8.41777 26.7843 8.39474 26.8185 8.37903 26.8562C8.36331 26.8938 8.35522 26.9342 8.35522 26.9749C8.35522 27.0157 8.36331 27.056 8.37903 27.0937C8.39474 27.1314 8.41777 27.1656 8.44681 27.1944C8.47584 27.2232 8.51031 27.2461 8.54825 27.2617C8.58619 27.2773 8.62685 27.2853 8.66791 27.2853H10.043C10.1248 27.2836 10.2026 27.2501 10.2598 27.1921C10.317 27.134 10.349 27.0561 10.349 26.9749Z" fill="#4A85FC"/>
<path d="M12.7595 26.9749C12.7595 26.8926 12.7265 26.8137 12.6679 26.7555C12.6093 26.6972 12.5297 26.6646 12.4468 26.6646H11.0683C11.0272 26.6646 10.9866 26.6726 10.9486 26.6882C10.9107 26.7038 10.8762 26.7266 10.8472 26.7555C10.8182 26.7843 10.7951 26.8185 10.7794 26.8562C10.7637 26.8938 10.7556 26.9342 10.7556 26.9749C10.7556 27.0157 10.7637 27.056 10.7794 27.0937C10.7951 27.1314 10.8182 27.1656 10.8472 27.1944C10.8762 27.2232 10.9107 27.2461 10.9486 27.2617C10.9866 27.2773 11.0272 27.2853 11.0683 27.2853H12.4468C12.5297 27.2853 12.6093 27.2526 12.6679 27.1944C12.7265 27.1362 12.7595 27.0572 12.7595 26.9749Z" fill="#4A85FC"/>
<path d="M10.8657 28.8939V27.6658C10.8657 27.5835 10.8328 27.5045 10.7742 27.4463C10.7157 27.3881 10.6363 27.3554 10.5535 27.3554C10.4706 27.3554 10.3912 27.3881 10.3327 27.4463C10.2741 27.5045 10.2412 27.5835 10.2412 27.6658V28.8939C10.2412 28.9763 10.2741 29.0552 10.3327 29.1134C10.3912 29.1716 10.4706 29.2043 10.5535 29.2043C10.6363 29.2043 10.7157 29.1716 10.7742 29.1134C10.8328 29.0552 10.8657 28.9763 10.8657 28.8939Z" fill="#4A85FC"/>
<path d="M10.8657 26.284V25.0559C10.8657 24.9735 10.8328 24.8946 10.7742 24.8364C10.7157 24.7782 10.6363 24.7455 10.5535 24.7455C10.4706 24.7455 10.3912 24.7782 10.3327 24.8364C10.2741 24.8946 10.2412 24.9735 10.2412 25.0559V26.284C10.2412 26.3663 10.2741 26.4453 10.3327 26.5035C10.3912 26.5617 10.4706 26.5944 10.5535 26.5944C10.6363 26.5944 10.7157 26.5617 10.7742 26.5035C10.8328 26.4453 10.8657 26.3663 10.8657 26.284Z" fill="#4A85FC"/>
<path d="M84.7073 34.1806L85.5041 34.6478L85.9244 34.8948L87.118 35.599C87.118 35.599 109.712 24.3783 106.844 14.1321C105.956 10.9749 101.343 10.1538 96.6868 19.0383C92.3529 27.2719 84.7073 34.1806 84.7073 34.1806Z" fill="#DA879F"/>
<path d="M85.5042 34.6472L85.9244 34.8941C90.6685 31.7003 94.6964 27.5986 97.329 24.5883C99.1386 22.5423 100.823 20.3903 102.372 18.1438C102.404 18.0951 102.415 18.0358 102.403 17.9789C102.391 17.922 102.357 17.8722 102.308 17.8401C102.284 17.824 102.257 17.8129 102.228 17.8074C102.2 17.8018 102.171 17.802 102.142 17.8079C102.114 17.8138 102.086 17.8253 102.063 17.8418C102.039 17.8582 102.018 17.8792 102.002 17.9035C100.463 20.1327 98.7921 22.2701 96.9995 24.3046C94.3434 27.3283 90.2818 31.4733 85.5042 34.6472Z" fill="#E8B2BF"/>
<path d="M80.5718 36.8399L81.3249 37.8645L81.7217 38.4084L82.8514 39.947C82.8514 39.947 117.694 37.9446 119.667 23.3802C120.293 18.8948 114.873 15.3472 104.08 24.1044C94.0677 32.2176 80.5718 36.8399 80.5718 36.8399Z" fill="#E8B2BF"/>
<path d="M81.325 37.8647L81.7217 38.4087C89.4985 36.9336 96.8684 33.8999 101.865 31.5037C105.282 29.8851 108.598 28.0652 111.797 26.0537C111.862 26.0086 111.907 25.9397 111.923 25.8619C111.938 25.7841 111.922 25.7035 111.878 25.6373C111.834 25.5711 111.766 25.5245 111.688 25.5075C111.61 25.4906 111.528 25.5045 111.46 25.5464C108.282 27.5459 104.985 29.3547 101.589 30.963C96.5692 33.3693 89.1353 36.423 81.325 37.8647Z" fill="#DA879F"/>
<path d="M38.3897 109.765L37.5828 110.229L37.1592 110.476L35.9589 111.17C35.9589 111.17 13.4321 99.8229 16.3841 89.5834C17.2919 86.4361 21.9082 85.6418 26.5111 94.5529C30.7878 102.813 38.3897 109.765 38.3897 109.765Z" fill="#DA879F"/>
<path d="M37.5828 110.229L37.1592 110.476C32.432 107.258 28.4175 103.133 25.8185 100.096C24.0254 98.0402 22.3581 95.8793 20.8256 93.6251C20.8094 93.6011 20.7982 93.5741 20.7926 93.5457C20.787 93.5174 20.7872 93.4882 20.7932 93.4599C20.7991 93.4316 20.8107 93.4048 20.8273 93.381C20.8438 93.3572 20.865 93.3369 20.8895 93.3214C20.9386 93.2897 20.9983 93.2787 21.0556 93.2905C21.113 93.3024 21.1632 93.3363 21.1955 93.3848C22.7189 95.6249 24.3761 97.7724 26.1581 99.8159C28.794 102.856 32.8321 107.025 37.5828 110.229Z" fill="#E8B2BF"/>
<path d="M42.5083 112.468L41.7518 113.469L41.3483 114.01L40.2086 115.542C40.2086 115.542 5.37951 113.336 3.49668 98.7547C2.91502 94.2659 8.33825 90.7449 19.0805 99.5723C29.036 107.746 42.5083 112.468 42.5083 112.468Z" fill="#E8B2BF"/>
<path d="M41.7519 113.469L41.3485 114.01C33.5852 112.488 26.2186 109.408 21.2492 106.985C17.846 105.344 14.5431 103.505 11.3576 101.478C11.292 101.433 11.2468 101.364 11.2317 101.286C11.2165 101.209 11.2325 101.128 11.2764 101.062C11.3203 100.996 11.3885 100.949 11.4665 100.932C11.5445 100.915 11.6261 100.929 11.6939 100.971C14.8594 102.993 18.1433 104.826 21.5283 106.461C26.5346 108.884 33.9483 111.984 41.7519 113.469Z" fill="#DA879F"/>
<path d="M85.104 95.5542C89.5085 89.9271 93.7718 83.7927 96.1152 79.4006C99.1782 73.6634 100.402 69.0543 99.7632 65.7168C99.7427 65.6106 99.6805 65.5168 99.5904 65.4561C99.5002 65.3953 99.3894 65.3727 99.2824 65.393C99.1754 65.4134 99.0809 65.4751 99.0198 65.5646C98.9586 65.6541 98.9358 65.7641 98.9563 65.8703C100.076 71.6976 94.9653 81.9071 84.1626 95.4173L85.104 95.5542Z" fill="#DA879F"/>
<path d="M98.415 74.0605C98.415 74.0605 101.263 75.9594 104.433 70.8599C104.433 70.8599 99.2421 69.1779 98.415 74.0605Z" fill="#E8B2BF"/>
<path d="M96.9187 76.757C96.9187 76.757 98.9865 74.0438 94.034 70.6163C94.034 70.6296 92.0503 75.6791 96.9187 76.757Z" fill="#E8B2BF"/>
<path d="M99.4742 68.3531C99.4742 68.3531 102.339 66.4775 98.8186 61.6116C98.8186 61.6116 95.258 65.7133 99.4742 68.3531Z" fill="#E8B2BF"/>
<path d="M94.0676 82.3208C94.0676 82.3208 96.0849 85.0641 100.819 81.3196C100.826 81.333 96.5187 78.0056 94.0676 82.3208Z" fill="#E8B2BF"/>
<path d="M92.1278 84.8572C92.1278 84.8572 94.6393 82.521 90.3593 78.3126C90.3694 78.3126 87.5283 82.9448 92.1278 84.8572Z" fill="#E8B2BF"/>
<path d="M89.811 88.5887C89.811 88.5887 91.788 91.3721 96.5791 87.7277C96.5791 87.7277 92.3327 84.3202 89.811 88.5887Z" fill="#E8B2BF"/>
<path d="M36.1874 60.5036C30.3607 56.345 24.5239 51.6592 21.0239 48.1047C16.4547 43.4589 13.9633 39.3905 13.6271 36.0129C13.6176 35.9052 13.651 35.798 13.7202 35.7145C13.7893 35.6309 13.8886 35.5775 13.9969 35.5657C14.0505 35.5606 14.1047 35.5661 14.1562 35.5818C14.2077 35.5975 14.2556 35.6232 14.2971 35.6573C14.3386 35.6913 14.373 35.7332 14.3982 35.7805C14.4234 35.8278 14.439 35.8795 14.4441 35.9328C15.0291 41.8369 22.8496 50.194 37.0448 60.1198L36.1874 60.5036Z" fill="#DA879F"/>
<path d="M17.2986 43.6257C17.2986 43.6257 15.1098 46.2455 10.6145 42.2473C10.6145 42.2473 15.1131 39.177 17.2986 43.6257Z" fill="#E8B2BF"/>
<path d="M19.5076 45.8049C19.5076 45.8049 16.7472 43.7825 20.5163 39.1068C20.523 39.1068 23.8583 43.382 19.5076 45.8049Z" fill="#E8B2BF"/>
<path d="M14.6559 38.449C14.6559 38.449 11.3744 37.4478 13.3614 31.7976C13.3749 31.7976 17.9509 34.7345 14.6559 38.449Z" fill="#E8B2BF"/>
<path d="M23.8144 50.3308C23.8144 50.3308 22.6477 53.5347 17.0564 51.2786C17.0732 51.2786 20.2438 46.88 23.8144 50.3308Z" fill="#E8B2BF"/>
<path d="M26.4033 52.2163C26.4033 52.2163 23.3336 50.6944 26.2352 45.4414C26.2352 45.4414 30.2698 49.0925 26.4033 52.2163Z" fill="#E8B2BF"/>
<path d="M29.6918 55.1468C29.6918 55.1468 28.5856 58.3708 22.9674 56.2181C22.9505 56.2181 26.0539 51.7594 29.6918 55.1468Z" fill="#E8B2BF"/>
<path d="M91.8149 25.6099V120.839C91.8154 121.549 91.6749 122.252 91.4016 122.908C91.1282 123.564 90.7273 124.16 90.2218 124.662C89.7163 125.164 89.1161 125.563 88.4554 125.834C87.7948 126.106 87.0866 126.246 86.3715 126.246H38.5913C37.1473 126.244 35.7629 125.674 34.7418 124.66C33.7207 123.647 33.1463 122.273 33.1445 120.839V25.6099C33.1445 24.9 33.2854 24.1971 33.5592 23.5413C33.833 22.8855 34.2342 22.2897 34.7401 21.7879C35.2459 21.2861 35.8464 20.8881 36.5072 20.6168C37.168 20.3454 37.8762 20.206 38.5913 20.2064H86.3715C87.8152 20.2064 89.1998 20.7757 90.2206 21.7891C91.2414 22.8024 91.8149 24.1768 91.8149 25.6099Z" fill="#181A44"/>
<path d="M89.7875 25.6099V120.839C89.7879 121.549 89.6475 122.252 89.3741 122.908C89.1008 123.564 88.6999 124.16 88.1944 124.662C87.6889 125.164 87.0886 125.563 86.428 125.834C85.7673 126.106 85.0592 126.246 84.3441 126.246H36.574C35.1294 126.246 33.744 125.676 32.7225 124.662C31.7011 123.648 31.1272 122.273 31.1272 120.839V25.6099C31.1272 24.9 31.2681 24.1971 31.5419 23.5413C31.8156 22.8855 32.2169 22.2897 32.7227 21.7879C33.2285 21.2861 33.829 20.8881 34.4898 20.6168C35.1506 20.3454 35.8588 20.206 36.574 20.2064H84.3441C85.7878 20.2064 87.1723 20.7757 88.1932 21.7891C89.214 22.8024 89.7875 24.1768 89.7875 25.6099Z" fill="#3962BA"/>
<path d="M90.8198 43.6254H91.573C91.91 43.6254 92.2333 43.4925 92.4716 43.256C92.71 43.0194 92.8439 42.6985 92.8439 42.3639V36.2899C92.8439 35.955 92.7101 35.6338 92.4718 35.3967C92.2336 35.1596 91.9103 35.0259 91.573 35.025H90.8198V43.6254Z" fill="#18285D"/>
<path d="M31.1239 43.6255H30.5221C30.2546 43.6255 29.998 43.52 29.8089 43.3322C29.6197 43.1444 29.5134 42.8898 29.5134 42.6242V36.0162C29.5134 35.7507 29.6197 35.496 29.8089 35.3083C29.998 35.1205 30.2546 35.015 30.5221 35.015H31.1105L31.1239 43.6255Z" fill="#18285D"/>
<path d="M31.1239 54.9096H30.5221C30.2546 54.9096 29.998 54.8041 29.8089 54.6163C29.6197 54.4286 29.5134 54.1739 29.5134 53.9084V47.3003C29.5134 47.0348 29.6197 46.7801 29.8089 46.5924C29.998 46.4046 30.2546 46.2991 30.5221 46.2991H31.1105L31.1239 54.9096Z" fill="#18285D"/>
<path d="M87.0709 25.2828V121.166C87.0709 121.479 87.0088 121.789 86.8881 122.078C86.7674 122.367 86.5905 122.629 86.3676 122.85C86.1446 123.071 85.8799 123.246 85.5887 123.366C85.2975 123.485 84.9854 123.546 84.6703 123.546H36.2378C35.767 123.546 35.3064 123.409 34.9136 123.152C34.5208 122.894 34.213 122.528 34.0288 122.097C33.9013 121.803 33.8361 121.486 33.8372 121.166V25.2828C33.8372 24.6508 34.0901 24.0447 34.5403 23.5978C34.9905 23.1509 35.6011 22.8998 36.2378 22.8998H84.6535C84.808 22.9006 84.9622 22.9151 85.1141 22.9432C85.2799 22.9765 85.4421 23.0256 85.5983 23.0901C85.9681 23.2486 86.2921 23.4966 86.5406 23.8114C86.789 24.1263 86.954 24.4979 87.0205 24.8923C87.0493 25.0207 87.0661 25.1514 87.0709 25.2828Z" fill="white"/>
<path d="M62.6044 26.3998C62.6044 26.7729 62.493 27.1377 62.2843 27.4479C62.0756 27.7581 61.7789 27.9997 61.4319 28.1424C61.0849 28.285 60.7032 28.3221 60.3349 28.249C59.9667 28.1759 59.6285 27.9959 59.3633 27.7318C59.098 27.4677 58.9176 27.1314 58.8448 26.7653C58.772 26.3993 58.8102 26.02 58.9544 25.6755C59.0987 25.331 59.3425 25.0367 59.6551 24.83C59.9677 24.6233 60.335 24.5133 60.7105 24.5141C61.2132 24.515 61.695 24.714 62.0501 25.0676C62.4052 25.4212 62.6045 25.9003 62.6044 26.3998Z" fill="#18285D"/>
<path d="M74.3163 46.5339C73.2131 53.8707 66.3321 58.9301 58.9484 57.8332C51.5647 56.7363 46.473 49.9003 47.5769 42.5628C48.6808 35.2253 55.5604 30.1666 62.9441 31.2635C70.3278 32.3605 75.4195 39.1964 74.3163 46.5339Z" fill="#00CBDC"/>
<path d="M58.7162 49.9227C58.5675 49.831 58.4368 49.7133 58.3303 49.5754L53.829 43.7225C53.6157 43.4207 53.5283 43.0487 53.585 42.6842C53.6417 42.3198 53.8381 41.9914 54.1332 41.7677C54.4282 41.5441 54.799 41.4426 55.1676 41.4845C55.5363 41.5265 55.8744 41.7086 56.1109 41.9928L59.6163 46.5513L66.9079 39.3117C67.1772 39.0441 67.5425 38.8938 67.9233 38.8938C68.3042 38.8938 68.6695 39.0441 68.9388 39.3117C69.2081 39.5793 69.3594 39.9423 69.3594 40.3207C69.3594 40.6992 69.2081 41.0621 68.9388 41.3297L60.4852 49.7181C60.2566 49.9451 59.9576 50.0888 59.6365 50.126C59.3155 50.1631 58.9912 50.0915 58.7162 49.9227Z" fill="white"/>
<path d="M114.977 127.133H108.892C108.065 127.133 107.332 126.202 107.073 124.827L104.49 110.953C104.386 110.386 104.612 109.795 104.951 109.752C109.582 109.116 114.28 109.116 118.911 109.752C119.247 109.799 119.476 110.389 119.372 110.957L116.793 124.817C116.537 126.202 115.804 127.133 114.977 127.133Z" fill="#2A457B"/>
<path d="M111.971 111.187C115.657 111.187 118.645 110.855 118.645 110.446C118.645 110.037 115.657 109.705 111.971 109.705C108.285 109.705 105.297 110.037 105.297 110.446C105.297 110.855 108.285 111.187 111.971 111.187Z" fill="#181A44"/>
<path d="M123.5 92.0064C119.842 91.0518 114.258 98.5813 112.563 105.924V95.2271C113.414 93.7252 115.041 91.469 117.993 89.0827C122.582 85.3714 126.805 80.6087 123.144 79.6509C119.715 78.7531 114.58 85.3247 112.563 92.2233V78.4828C113.415 77.2088 114.463 76.0758 115.67 75.1252C118.565 72.789 121.228 69.7852 118.918 69.1811C116.9 68.6571 113.995 72.1849 112.563 76.1465V71.6942C112.82 69.8513 113.32 68.0501 114.053 66.3375C116.181 61.665 117.327 56.8757 114.523 57.2328C111.719 57.5899 109.897 65.8903 111.43 72.2516V74.5445C110.395 69.872 106.834 65.0526 104.514 65.66C102.194 66.2675 104.867 69.2645 107.762 71.6008C109.964 73.383 110.993 75.0485 111.43 75.9396V86.7698C109.766 79.3906 104.144 71.7743 100.469 72.7522C96.7944 73.7301 101.031 78.4694 105.62 82.1807C109.09 84.9842 110.727 87.6142 111.43 89.0426V102.019C109.651 94.7765 104.171 87.464 100.567 88.4085C96.9053 89.3631 100.046 92.8441 105.203 97.0527C107.772 99.1146 109.891 101.674 111.43 104.575V110.686C111.799 110.8 112.194 110.8 112.563 110.686V108.253C113.279 106.815 114.917 104.215 118.346 101.448C122.936 97.7269 127.162 92.9642 123.5 92.0064Z" fill="#FF7494"/>
<path d="M34.494 103.07L13.2314 103.017V129.233L34.494 129.303V103.07Z" fill="#E78800"/>
<path d="M18.6851 106.317C18.7878 106.321 18.8881 106.286 18.9656 106.219C19.043 106.152 19.0918 106.058 19.102 105.957C19.2264 104.639 19.8081 100.227 21.9902 98.6313C22.567 98.1989 23.2896 98.0041 24.0075 98.0873C27.8404 98.4444 28.4254 104.428 28.5128 105.99C28.5172 106.093 28.5619 106.19 28.6372 106.26C28.7126 106.331 28.8128 106.369 28.9163 106.367C28.9706 106.367 29.0243 106.356 29.0742 106.335C29.1241 106.314 29.1692 106.283 29.2066 106.244C29.244 106.205 29.2731 106.159 29.2919 106.108C29.3108 106.058 29.3191 106.004 29.3164 105.95C29.229 104.218 28.6036 97.8236 24.0915 97.4065C23.1624 97.3051 22.229 97.5567 21.4791 98.1107C19.0482 99.8828 18.4531 104.452 18.3086 105.88C18.304 105.934 18.3104 105.989 18.3276 106.04C18.3447 106.092 18.3721 106.139 18.4082 106.18C18.4443 106.221 18.4883 106.254 18.5377 106.278C18.587 106.301 18.6406 106.315 18.6952 106.317H18.6851Z" fill="#E8A000"/>
<path d="M32.6449 103.07L11.3823 103.017V129.233L32.6449 129.303V103.07Z" fill="#F4BD42"/>
<path d="M17.7132 106.184C17.7132 106.334 17.6684 106.48 17.5846 106.605C17.5007 106.73 17.3815 106.827 17.2421 106.884C17.1026 106.941 16.9491 106.956 16.8011 106.927C16.653 106.898 16.517 106.826 16.4103 106.72C16.3036 106.614 16.2309 106.479 16.2014 106.332C16.172 106.185 16.1871 106.033 16.2449 105.894C16.3026 105.756 16.4004 105.637 16.526 105.554C16.6515 105.471 16.799 105.427 16.95 105.427C17.1524 105.427 17.3465 105.506 17.4897 105.648C17.6328 105.79 17.7132 105.983 17.7132 106.184Z" fill="#AD7800"/>
<path d="M27.9681 106.184C27.9681 106.334 27.9233 106.48 27.8395 106.605C27.7556 106.73 27.6364 106.827 27.4969 106.884C27.3575 106.941 27.204 106.956 27.056 106.927C26.9079 106.898 26.7719 106.826 26.6652 106.72C26.5585 106.614 26.4858 106.479 26.4563 106.332C26.4269 106.185 26.442 106.033 26.4997 105.894C26.5575 105.756 26.6553 105.637 26.7808 105.554C26.9064 105.471 27.0539 105.427 27.2049 105.427C27.3052 105.426 27.4047 105.445 27.4975 105.483C27.5903 105.521 27.6746 105.577 27.7455 105.647C27.8165 105.718 27.8727 105.802 27.9109 105.894C27.9491 105.986 27.9685 106.085 27.9681 106.184Z" fill="#AD7800"/>
<path d="M16.9804 106.377C17.0833 106.382 17.184 106.347 17.2617 106.28C17.3393 106.213 17.3879 106.119 17.3973 106.017C17.5251 104.699 18.1034 100.287 20.2888 98.6914C20.866 98.2596 21.5883 98.0649 22.3061 98.1474C26.1424 98.5045 26.7241 104.488 26.8115 106.054C26.8175 106.155 26.8628 106.251 26.9379 106.321C27.013 106.39 27.1122 106.428 27.215 106.427C27.2694 106.428 27.3233 106.417 27.3735 106.396C27.4236 106.375 27.4688 106.344 27.5064 106.305C27.5439 106.266 27.5729 106.22 27.5916 106.169C27.6103 106.118 27.6183 106.064 27.6151 106.01C27.531 104.281 26.9023 97.8837 22.3936 97.4665C21.4633 97.3643 20.5285 97.6159 19.7778 98.1707C17.3503 99.9429 16.7518 104.512 16.6106 105.94C16.606 105.994 16.6123 106.048 16.6293 106.1C16.6462 106.151 16.6733 106.198 16.7091 106.239C16.7448 106.28 16.7884 106.313 16.8374 106.337C16.8863 106.361 16.9395 106.374 16.9939 106.377H16.9804Z" fill="#FFD067"/>
<path d="M37.7612 85.9998C37.7132 85.9998 37.6682 85.9818 37.6262 85.9458C37.5902 85.9038 37.5722 85.8588 37.5722 85.8108C37.5722 85.7808 37.5752 85.7538 37.5812 85.7298L39.6962 79.9518C39.7142 79.8858 39.7502 79.8288 39.8042 79.7808C39.8642 79.7268 39.9452 79.6998 40.0472 79.6998H41.3792C41.4812 79.6998 41.5592 79.7268 41.6132 79.7808C41.6732 79.8288 41.7122 79.8858 41.7302 79.9518L43.8362 85.7298C43.8482 85.7538 43.8542 85.7808 43.8542 85.8108C43.8542 85.8588 43.8332 85.9038 43.7912 85.9458C43.7552 85.9818 43.7102 85.9998 43.6562 85.9998H42.5492C42.4592 85.9998 42.3902 85.9788 42.3422 85.9368C42.3002 85.8888 42.2732 85.8468 42.2612 85.8108L41.9102 84.8928H39.5072L39.1652 85.8108C39.1532 85.8468 39.1262 85.8888 39.0842 85.9368C39.0422 85.9788 38.9702 85.9998 38.8682 85.9998H37.7612ZM39.8762 83.5968H41.5502L40.7042 81.2208L39.8762 83.5968ZM44.6896 85.9998C44.6236 85.9998 44.5696 85.9788 44.5276 85.9368C44.4856 85.8948 44.4646 85.8408 44.4646 85.7748V79.8348C44.4646 79.7688 44.4856 79.7148 44.5276 79.6728C44.5696 79.6308 44.6236 79.6098 44.6896 79.6098H45.7516C45.8176 79.6098 45.8716 79.6308 45.9136 79.6728C45.9556 79.7148 45.9766 79.7688 45.9766 79.8348V85.7748C45.9766 85.8408 45.9556 85.8948 45.9136 85.9368C45.8716 85.9788 45.8176 85.9998 45.7516 85.9998H44.6896ZM47.2648 85.9998C47.1988 85.9998 47.1448 85.9788 47.1028 85.9368C47.0608 85.8948 47.0398 85.8408 47.0398 85.7748V79.8348C47.0398 79.7688 47.0608 79.7148 47.1028 79.6728C47.1448 79.6308 47.1988 79.6098 47.2648 79.6098H48.3268C48.3928 79.6098 48.4468 79.6308 48.4888 79.6728C48.5308 79.7148 48.5518 79.7688 48.5518 79.8348V85.7748C48.5518 85.8408 48.5308 85.8948 48.4888 85.9368C48.4468 85.9788 48.3928 85.9998 48.3268 85.9998H47.2648ZM53.457 86.0898C53.067 86.0898 52.734 86.0478 52.458 85.9638C52.188 85.8738 51.966 85.7658 51.792 85.6398C51.624 85.5138 51.498 85.3848 51.414 85.2528C51.33 85.1148 51.285 84.9978 51.279 84.9018C51.273 84.8358 51.294 84.7818 51.342 84.7398C51.39 84.6918 51.441 84.6678 51.495 84.6678H52.521C52.539 84.6678 52.554 84.6708 52.566 84.6768C52.578 84.6828 52.596 84.6948 52.62 84.7128C52.698 84.7548 52.776 84.8088 52.854 84.8748C52.932 84.9348 53.022 84.9888 53.124 85.0368C53.226 85.0848 53.349 85.1088 53.493 85.1088C53.661 85.1088 53.802 85.0758 53.916 85.0098C54.03 84.9438 54.087 84.8448 54.087 84.7128C54.087 84.6168 54.06 84.5388 54.006 84.4788C53.952 84.4128 53.841 84.3498 53.673 84.2898C53.511 84.2298 53.265 84.1698 52.935 84.1098C52.623 84.0378 52.35 83.9448 52.116 83.8308C51.882 83.7108 51.702 83.5578 51.576 83.3718C51.45 83.1798 51.387 82.9488 51.387 82.6788C51.387 82.4388 51.465 82.2078 51.621 81.9858C51.777 81.7638 52.005 81.5838 52.305 81.4458C52.605 81.3018 52.974 81.2298 53.412 81.2298C53.76 81.2298 54.06 81.2718 54.312 81.3558C54.57 81.4338 54.786 81.5358 54.96 81.6618C55.14 81.7878 55.275 81.9168 55.365 82.0488C55.455 82.1808 55.503 82.3008 55.509 82.4088C55.515 82.4688 55.497 82.5228 55.455 82.5708C55.413 82.6128 55.365 82.6338 55.311 82.6338H54.375C54.351 82.6338 54.327 82.6308 54.303 82.6248C54.279 82.6128 54.258 82.6008 54.24 82.5888C54.168 82.5528 54.096 82.5048 54.024 82.4448C53.952 82.3848 53.868 82.3308 53.772 82.2828C53.676 82.2348 53.556 82.2108 53.412 82.2108C53.25 82.2108 53.124 82.2468 53.034 82.3188C52.944 82.3908 52.899 82.4838 52.899 82.5978C52.899 82.6758 52.923 82.7478 52.971 82.8138C53.025 82.8798 53.13 82.9398 53.286 82.9938C53.448 83.0478 53.697 83.1078 54.033 83.1738C54.447 83.2398 54.777 83.3478 55.023 83.4978C55.269 83.6418 55.443 83.8128 55.545 84.0108C55.647 84.2028 55.698 84.4068 55.698 84.6228C55.698 84.9108 55.611 85.1658 55.437 85.3878C55.269 85.6098 55.017 85.7838 54.681 85.9098C54.345 86.0298 53.937 86.0898 53.457 86.0898ZM58.6656 86.0898C57.9576 86.0898 57.3936 85.8978 56.9736 85.5138C56.5536 85.1298 56.3346 84.5598 56.3166 83.8038C56.3166 83.7618 56.3166 83.7078 56.3166 83.6418C56.3166 83.5758 56.3166 83.5248 56.3166 83.4888C56.3346 83.0148 56.4396 82.6098 56.6316 82.2738C56.8296 81.9318 57.0996 81.6738 57.4416 81.4998C57.7896 81.3198 58.1946 81.2298 58.6566 81.2298C59.1846 81.2298 59.6196 81.3348 59.9616 81.5448C60.3096 81.7548 60.5706 82.0398 60.7446 82.3998C60.9186 82.7598 61.0056 83.1708 61.0056 83.6328V83.8488C61.0056 83.9148 60.9816 83.9688 60.9336 84.0108C60.8916 84.0528 60.8406 84.0738 60.7806 84.0738H57.9006C57.9006 84.0798 57.9006 84.0888 57.9006 84.1008C57.9006 84.1128 57.9006 84.1248 57.9006 84.1368C57.9066 84.3108 57.9366 84.4698 57.9906 84.6138C58.0446 84.7578 58.1286 84.8718 58.2426 84.9558C58.3566 85.0398 58.4946 85.0818 58.6566 85.0818C58.7766 85.0818 58.8756 85.0638 58.9536 85.0278C59.0376 84.9858 59.1066 84.9408 59.1606 84.8928C59.2146 84.8388 59.2566 84.7938 59.2866 84.7578C59.3406 84.6978 59.3826 84.6618 59.4126 84.6498C59.4486 84.6318 59.5026 84.6228 59.5746 84.6228H60.6906C60.7506 84.6228 60.7986 84.6408 60.8346 84.6768C60.8766 84.7068 60.8946 84.7518 60.8886 84.8118C60.8826 84.9138 60.8316 85.0368 60.7356 85.1808C60.6396 85.3248 60.4986 85.4688 60.3126 85.6128C60.1326 85.7508 59.9046 85.8648 59.6286 85.9548C59.3526 86.0448 59.0316 86.0898 58.6656 86.0898ZM57.9006 83.1828H59.4216V83.1648C59.4216 82.9728 59.3916 82.8048 59.3316 82.6608C59.2776 82.5168 59.1906 82.4058 59.0706 82.3278C58.9566 82.2498 58.8186 82.2108 58.6566 82.2108C58.4946 82.2108 58.3566 82.2498 58.2426 82.3278C58.1346 82.4058 58.0506 82.5168 57.9906 82.6608C57.9306 82.8048 57.9006 82.9728 57.9006 83.1648V83.1828ZM64.2346 85.9998C63.8506 85.9998 63.5176 85.9398 63.2356 85.8198C62.9596 85.6938 62.7466 85.5018 62.5966 85.2438C62.4466 84.9798 62.3716 84.6408 62.3716 84.2268V82.4988H61.6696C61.6036 82.4988 61.5466 82.4778 61.4986 82.4358C61.4566 82.3938 61.4356 82.3398 61.4356 82.2738V81.5448C61.4356 81.4788 61.4566 81.4248 61.4986 81.3828C61.5466 81.3408 61.6036 81.3198 61.6696 81.3198H62.3716V79.8348C62.3716 79.7688 62.3926 79.7148 62.4346 79.6728C62.4826 79.6308 62.5366 79.6098 62.5966 79.6098H63.6406C63.7066 79.6098 63.7606 79.6308 63.8026 79.6728C63.8446 79.7148 63.8656 79.7688 63.8656 79.8348V81.3198H64.9906C65.0566 81.3198 65.1106 81.3408 65.1526 81.3828C65.1946 81.4248 65.2156 81.4788 65.2156 81.5448V82.2738C65.2156 82.3398 65.1946 82.3938 65.1526 82.4358C65.1106 82.4778 65.0566 82.4988 64.9906 82.4988H63.8656V84.1008C63.8656 84.3048 63.9046 84.4668 63.9826 84.5868C64.0606 84.7068 64.1926 84.7668 64.3786 84.7668H65.0716C65.1376 84.7668 65.1916 84.7878 65.2336 84.8298C65.2756 84.8718 65.2966 84.9258 65.2966 84.9918V85.7748C65.2966 85.8408 65.2756 85.8948 65.2336 85.9368C65.1916 85.9788 65.1376 85.9998 65.0716 85.9998H64.2346ZM68.5643 85.9998C68.5043 85.9998 68.4503 85.9788 68.4023 85.9368C68.3603 85.8948 68.3393 85.8408 68.3393 85.7748V82.4988H67.6553C67.5893 82.4988 67.5353 82.4778 67.4933 82.4358C67.4513 82.3938 67.4303 82.3398 67.4303 82.2738V81.5448C67.4303 81.4788 67.4513 81.4248 67.4933 81.3828C67.5353 81.3408 67.5893 81.3198 67.6553 81.3198H68.3393V81.0318C68.3393 80.6238 68.4173 80.2968 68.5733 80.0508C68.7353 79.7988 68.9633 79.6188 69.2573 79.5108C69.5513 79.3968 69.9023 79.3398 70.3103 79.3398H71.0123C71.0723 79.3398 71.1233 79.3608 71.1653 79.4028C71.2133 79.4448 71.2373 79.4988 71.2373 79.5648V80.2938C71.2373 80.3598 71.2133 80.4138 71.1653 80.4558C71.1233 80.4978 71.0723 80.5188 71.0123 80.5188H70.3823C70.1783 80.5188 70.0343 80.5668 69.9503 80.6628C69.8723 80.7588 69.8333 80.8968 69.8333 81.0768V81.3198H70.9223C70.9823 81.3198 71.0333 81.3408 71.0753 81.3828C71.1233 81.4248 71.1473 81.4788 71.1473 81.5448V82.2738C71.1473 82.3398 71.1233 82.3938 71.0753 82.4358C71.0333 82.4778 70.9823 82.4988 70.9223 82.4988H69.8333V85.7748C69.8333 85.8408 69.8123 85.8948 69.7703 85.9368C69.7283 85.9788 69.6743 85.9998 69.6083 85.9998H68.5643ZM73.9423 86.0898C73.4383 86.0898 73.0123 86.0088 72.6643 85.8468C72.3223 85.6848 72.0583 85.4538 71.8723 85.1538C71.6923 84.8478 71.5903 84.4848 71.5663 84.0648C71.5603 83.9448 71.5573 83.8098 71.5573 83.6598C71.5573 83.5038 71.5603 83.3688 71.5663 83.2548C71.5903 82.8288 71.6983 82.4658 71.8903 82.1658C72.0823 81.8658 72.3493 81.6348 72.6913 81.4728C73.0393 81.3108 73.4563 81.2298 73.9423 81.2298C74.4343 81.2298 74.8513 81.3108 75.1933 81.4728C75.5413 81.6348 75.8113 81.8658 76.0033 82.1658C76.1953 82.4658 76.3033 82.8288 76.3273 83.2548C76.3333 83.3688 76.3363 83.5038 76.3363 83.6598C76.3363 83.8098 76.3333 83.9448 76.3273 84.0648C76.3033 84.4848 76.1983 84.8478 76.0123 85.1538C75.8323 85.4538 75.5683 85.6848 75.2203 85.8468C74.8783 86.0088 74.4523 86.0898 73.9423 86.0898ZM73.9423 84.9918C74.2123 84.9918 74.4073 84.9108 74.5273 84.7488C74.6533 84.5868 74.7253 84.3438 74.7433 84.0198C74.7493 83.9298 74.7523 83.8098 74.7523 83.6598C74.7523 83.5098 74.7493 83.3898 74.7433 83.2998C74.7253 82.9818 74.6533 82.7418 74.5273 82.5798C74.4073 82.4118 74.2123 82.3278 73.9423 82.3278C73.6783 82.3278 73.4833 82.4118 73.3573 82.5798C73.2313 82.7418 73.1623 82.9818 73.1503 83.2998C73.1443 83.3898 73.1413 83.5098 73.1413 83.6598C73.1413 83.8098 73.1443 83.9298 73.1503 84.0198C73.1623 84.3438 73.2313 84.5868 73.3573 84.7488C73.4833 84.9108 73.6783 84.9918 73.9423 84.9918ZM77.4464 85.9998C77.3804 85.9998 77.3264 85.9788 77.2844 85.9368C77.2424 85.8948 77.2214 85.8408 77.2214 85.7748V81.5448C77.2214 81.4848 77.2424 81.4338 77.2844 81.3918C77.3264 81.3438 77.3804 81.3198 77.4464 81.3198H78.4814C78.5474 81.3198 78.6014 81.3438 78.6434 81.3918C78.6854 81.4338 78.7064 81.4848 78.7064 81.5448V81.9048C78.8684 81.7188 79.0604 81.5748 79.2824 81.4728C79.5104 81.3708 79.7654 81.3198 80.0474 81.3198H80.4434C80.5034 81.3198 80.5544 81.3408 80.5964 81.3828C80.6444 81.4248 80.6684 81.4788 80.6684 81.5448V82.4718C80.6684 82.5318 80.6444 82.5858 80.5964 82.6338C80.5544 82.6758 80.5034 82.6968 80.4434 82.6968H79.5704C79.3244 82.6968 79.1324 82.7658 78.9944 82.9038C78.8624 83.0358 78.7964 83.2248 78.7964 83.4708V85.7748C78.7964 85.8408 78.7724 85.8948 78.7244 85.9368C78.6824 85.9788 78.6284 85.9998 78.5624 85.9998H77.4464ZM38.3288 96.9998C37.9448 96.9998 37.6118 96.9398 37.3298 96.8198C37.0538 96.6938 36.8408 96.5018 36.6908 96.2438C36.5408 95.9798 36.4658 95.6408 36.4658 95.2268V93.4988H35.7638C35.6978 93.4988 35.6408 93.4778 35.5928 93.4358C35.5508 93.3938 35.5298 93.3398 35.5298 93.2738V92.5448C35.5298 92.4788 35.5508 92.4248 35.5928 92.3828C35.6408 92.3408 35.6978 92.3198 35.7638 92.3198H36.4658V90.8348C36.4658 90.7688 36.4868 90.7148 36.5288 90.6728C36.5768 90.6308 36.6308 90.6098 36.6908 90.6098H37.7348C37.8008 90.6098 37.8548 90.6308 37.8968 90.6728C37.9388 90.7148 37.9598 90.7688 37.9598 90.8348V92.3198H39.0848C39.1508 92.3198 39.2048 92.3408 39.2468 92.3828C39.2888 92.4248 39.3098 92.4788 39.3098 92.5448V93.2738C39.3098 93.3398 39.2888 93.3938 39.2468 93.4358C39.2048 93.4778 39.1508 93.4988 39.0848 93.4988H37.9598V95.1008C37.9598 95.3048 37.9988 95.4668 38.0768 95.5868C38.1548 95.7068 38.2868 95.7668 38.4728 95.7668H39.1658C39.2318 95.7668 39.2858 95.7878 39.3278 95.8298C39.3698 95.8718 39.3908 95.9258 39.3908 95.9918V96.7748C39.3908 96.8408 39.3698 96.8948 39.3278 96.9368C39.2858 96.9788 39.2318 96.9998 39.1658 96.9998H38.3288ZM40.361 96.9998C40.295 96.9998 40.241 96.9788 40.199 96.9368C40.157 96.8948 40.136 96.8408 40.136 96.7748V90.8348C40.136 90.7688 40.157 90.7148 40.199 90.6728C40.241 90.6308 40.295 90.6098 40.361 90.6098H41.513C41.579 90.6098 41.633 90.6308 41.675 90.6728C41.717 90.7148 41.738 90.7688 41.738 90.8348V92.8418C41.9 92.6558 42.098 92.5088 42.332 92.4008C42.572 92.2868 42.848 92.2298 43.16 92.2298C43.508 92.2298 43.817 92.3078 44.087 92.4638C44.363 92.6198 44.579 92.8508 44.735 93.1568C44.891 93.4568 44.969 93.8258 44.969 94.2638V96.7748C44.969 96.8408 44.948 96.8948 44.906 96.9368C44.864 96.9788 44.81 96.9998 44.744 96.9998H43.583C43.523 96.9998 43.469 96.9788 43.421 96.9368C43.379 96.8948 43.358 96.8408 43.358 96.7748V94.3178C43.358 94.0358 43.289 93.8198 43.151 93.6698C43.019 93.5138 42.821 93.4358 42.557 93.4358C42.311 93.4358 42.113 93.5138 41.963 93.6698C41.813 93.8198 41.738 94.0358 41.738 94.3178V96.7748C41.738 96.8408 41.717 96.8948 41.675 96.9368C41.633 96.9788 41.579 96.9998 41.513 96.9998H40.361ZM46.2145 96.9998C46.1485 96.9998 46.0945 96.9788 46.0525 96.9368C46.0105 96.8948 45.9895 96.8408 45.9895 96.7748V92.5448C45.9895 92.4788 46.0105 92.4248 46.0525 92.3828C46.0945 92.3408 46.1485 92.3198 46.2145 92.3198H47.2765C47.3365 92.3198 47.3875 92.3408 47.4295 92.3828C47.4775 92.4248 47.5015 92.4788 47.5015 92.5448V96.7748C47.5015 96.8408 47.4775 96.8948 47.4295 96.9368C47.3875 96.9788 47.3365 96.9998 47.2765 96.9998H46.2145ZM46.2055 91.6448C46.1395 91.6448 46.0855 91.6238 46.0435 91.5818C46.0015 91.5398 45.9805 91.4858 45.9805 91.4198V90.6188C45.9805 90.5528 46.0015 90.4988 46.0435 90.4568C46.0855 90.4088 46.1395 90.3848 46.2055 90.3848H47.2765C47.3425 90.3848 47.3965 90.4088 47.4385 90.4568C47.4865 90.4988 47.5105 90.5528 47.5105 90.6188V91.4198C47.5105 91.4858 47.4865 91.5398 47.4385 91.5818C47.3965 91.6238 47.3425 91.6448 47.2765 91.6448H46.2055ZM50.6489 97.0898C50.2589 97.0898 49.9259 97.0478 49.6499 96.9638C49.3799 96.8738 49.1579 96.7658 48.9839 96.6398C48.8159 96.5138 48.6899 96.3848 48.6059 96.2528C48.5219 96.1148 48.4769 95.9978 48.4709 95.9018C48.4649 95.8358 48.4859 95.7818 48.5339 95.7398C48.5819 95.6918 48.6329 95.6678 48.6869 95.6678H49.7129C49.7309 95.6678 49.7459 95.6708 49.7579 95.6768C49.7699 95.6828 49.7879 95.6948 49.8119 95.7128C49.8899 95.7548 49.9679 95.8088 50.0459 95.8748C50.1239 95.9348 50.2139 95.9888 50.3159 96.0368C50.4179 96.0848 50.5409 96.1088 50.6849 96.1088C50.8529 96.1088 50.9939 96.0758 51.1079 96.0098C51.2219 95.9438 51.2789 95.8448 51.2789 95.7128C51.2789 95.6168 51.2519 95.5388 51.1979 95.4788C51.1439 95.4128 51.0329 95.3498 50.8649 95.2898C50.7029 95.2298 50.4569 95.1698 50.1269 95.1098C49.8149 95.0378 49.5419 94.9448 49.3079 94.8308C49.0739 94.7108 48.8939 94.5578 48.7679 94.3718C48.6419 94.1798 48.5789 93.9488 48.5789 93.6788C48.5789 93.4388 48.6569 93.2078 48.8129 92.9858C48.9689 92.7638 49.1969 92.5838 49.4969 92.4458C49.7969 92.3018 50.1659 92.2298 50.6039 92.2298C50.9519 92.2298 51.2519 92.2718 51.5039 92.3558C51.7619 92.4338 51.9779 92.5358 52.1519 92.6618C52.3319 92.7878 52.4669 92.9168 52.5569 93.0488C52.6469 93.1808 52.6949 93.3008 52.7009 93.4088C52.7069 93.4688 52.6889 93.5228 52.6469 93.5708C52.6049 93.6128 52.5569 93.6338 52.5029 93.6338H51.5669C51.5429 93.6338 51.5189 93.6308 51.4949 93.6248C51.4709 93.6128 51.4499 93.6008 51.4319 93.5888C51.3599 93.5528 51.2879 93.5048 51.2159 93.4448C51.1439 93.3848 51.0599 93.3308 50.9639 93.2828C50.8679 93.2348 50.7479 93.2108 50.6039 93.2108C50.4419 93.2108 50.3159 93.2468 50.2259 93.3188C50.1359 93.3908 50.0909 93.4838 50.0909 93.5978C50.0909 93.6758 50.1149 93.7478 50.1629 93.8138C50.2169 93.8798 50.3219 93.9398 50.4779 93.9938C50.6399 94.0478 50.8889 94.1078 51.2249 94.1738C51.6389 94.2398 51.9689 94.3478 52.2149 94.4978C52.4609 94.6418 52.6349 94.8128 52.7369 95.0108C52.8389 95.2028 52.8899 95.4068 52.8899 95.6228C52.8899 95.9108 52.8029 96.1658 52.6289 96.3878C52.4609 96.6098 52.2089 96.7838 51.8729 96.9098C51.5369 97.0298 51.1289 97.0898 50.6489 97.0898ZM55.8385 96.9998C55.7725 96.9998 55.7185 96.9788 55.6765 96.9368C55.6345 96.8948 55.6135 96.8408 55.6135 96.7748V92.5448C55.6135 92.4788 55.6345 92.4248 55.6765 92.3828C55.7185 92.3408 55.7725 92.3198 55.8385 92.3198H56.8195C56.8855 92.3198 56.9395 92.3408 56.9815 92.3828C57.0235 92.4248 57.0445 92.4788 57.0445 92.5448V92.8508C57.1645 92.6888 57.3325 92.5478 57.5485 92.4278C57.7645 92.3018 58.0195 92.2358 58.3135 92.2298C59.0035 92.2178 59.4775 92.4788 59.7355 93.0128C59.8735 92.7848 60.0715 92.5988 60.3295 92.4548C60.5875 92.3048 60.8695 92.2298 61.1755 92.2298C61.4875 92.2298 61.7665 92.3018 62.0125 92.4458C62.2645 92.5838 62.4655 92.7998 62.6155 93.0938C62.7655 93.3818 62.8405 93.7568 62.8405 94.2188V96.7748C62.8405 96.8408 62.8165 96.8948 62.7685 96.9368C62.7265 96.9788 62.6755 96.9998 62.6155 96.9998H61.5715C61.5055 96.9998 61.4485 96.9788 61.4005 96.9368C61.3585 96.8948 61.3375 96.8408 61.3375 96.7748V94.2818C61.3375 94.0718 61.3075 93.9068 61.2475 93.7868C61.1875 93.6608 61.1065 93.5708 61.0045 93.5168C60.9025 93.4628 60.7855 93.4358 60.6535 93.4358C60.5455 93.4358 60.4375 93.4628 60.3295 93.5168C60.2275 93.5708 60.1435 93.6608 60.0775 93.7868C60.0175 93.9068 59.9875 94.0718 59.9875 94.2818V96.7748C59.9875 96.8408 59.9665 96.8948 59.9245 96.9368C59.8825 96.9788 59.8285 96.9998 59.7625 96.9998H58.7185C58.6525 96.9998 58.5985 96.9788 58.5565 96.9368C58.5145 96.8948 58.4935 96.8408 58.4935 96.7748V94.2818C58.4935 94.0718 58.4605 93.9068 58.3945 93.7868C58.3285 93.6608 58.2445 93.5708 58.1425 93.5168C58.0405 93.4628 57.9265 93.4358 57.8005 93.4358C57.6925 93.4358 57.5845 93.4628 57.4765 93.5168C57.3745 93.5708 57.2905 93.6608 57.2245 93.7868C57.1645 93.9068 57.1345 94.0688 57.1345 94.2728V96.7748C57.1345 96.8408 57.1105 96.8948 57.0625 96.9368C57.0205 96.9788 56.9665 96.9998 56.9005 96.9998H55.8385ZM66.0629 97.0898C65.5589 97.0898 65.1329 97.0088 64.7849 96.8468C64.4429 96.6848 64.1789 96.4538 63.9929 96.1538C63.8129 95.8478 63.7109 95.4848 63.6869 95.0648C63.6809 94.9448 63.6779 94.8098 63.6779 94.6598C63.6779 94.5038 63.6809 94.3688 63.6869 94.2548C63.7109 93.8288 63.8189 93.4658 64.0109 93.1658C64.2029 92.8658 64.4699 92.6348 64.8119 92.4728C65.1599 92.3108 65.5769 92.2298 66.0629 92.2298C66.5549 92.2298 66.9719 92.3108 67.3139 92.4728C67.6619 92.6348 67.9319 92.8658 68.1239 93.1658C68.3159 93.4658 68.4239 93.8288 68.4479 94.2548C68.4539 94.3688 68.4569 94.5038 68.4569 94.6598C68.4569 94.8098 68.4539 94.9448 68.4479 95.0648C68.4239 95.4848 68.3189 95.8478 68.1329 96.1538C67.9529 96.4538 67.6889 96.6848 67.3409 96.8468C66.9989 97.0088 66.5729 97.0898 66.0629 97.0898ZM66.0629 95.9918C66.3329 95.9918 66.5279 95.9108 66.6479 95.7488C66.7739 95.5868 66.8459 95.3438 66.8639 95.0198C66.8699 94.9298 66.8729 94.8098 66.8729 94.6598C66.8729 94.5098 66.8699 94.3898 66.8639 94.2998C66.8459 93.9818 66.7739 93.7418 66.6479 93.5798C66.5279 93.4118 66.3329 93.3278 66.0629 93.3278C65.7989 93.3278 65.6039 93.4118 65.4779 93.5798C65.3519 93.7418 65.2829 93.9818 65.2709 94.2998C65.2649 94.3898 65.2619 94.5098 65.2619 94.6598C65.2619 94.8098 65.2649 94.9298 65.2709 95.0198C65.2829 95.3438 65.3519 95.5868 65.4779 95.7488C65.6039 95.9108 65.7989 95.9918 66.0629 95.9918ZM69.567 96.9998C69.501 96.9998 69.447 96.9788 69.405 96.9368C69.363 96.8948 69.342 96.8408 69.342 96.7748V92.5448C69.342 92.4788 69.363 92.4248 69.405 92.3828C69.447 92.3408 69.501 92.3198 69.567 92.3198H70.602C70.668 92.3198 70.722 92.3408 70.764 92.3828C70.806 92.4248 70.827 92.4788 70.827 92.5448V92.8868C70.983 92.7008 71.187 92.5448 71.439 92.4188C71.691 92.2928 71.988 92.2298 72.33 92.2298C72.678 92.2298 72.984 92.3078 73.248 92.4638C73.518 92.6198 73.728 92.8508 73.878 93.1568C74.034 93.4568 74.112 93.8258 74.112 94.2638V96.7748C74.112 96.8408 74.088 96.8948 74.04 96.9368C73.998 96.9788 73.947 96.9998 73.887 96.9998H72.753C72.693 96.9998 72.639 96.9788 72.591 96.9368C72.549 96.8948 72.528 96.8408 72.528 96.7748V94.3178C72.528 94.0358 72.459 93.8198 72.321 93.6698C72.189 93.5138 71.991 93.4358 71.727 93.4358C71.481 93.4358 71.283 93.5138 71.133 93.6698C70.989 93.8198 70.917 94.0358 70.917 94.3178V96.7748C70.917 96.8408 70.893 96.8948 70.845 96.9368C70.803 96.9788 70.752 96.9998 70.692 96.9998H69.567ZM77.4665 96.9998C77.0825 96.9998 76.7495 96.9398 76.4675 96.8198C76.1915 96.6938 75.9785 96.5018 75.8285 96.2438C75.6785 95.9798 75.6035 95.6408 75.6035 95.2268V93.4988H74.9015C74.8355 93.4988 74.7785 93.4778 74.7305 93.4358C74.6885 93.3938 74.6675 93.3398 74.6675 93.2738V92.5448C74.6675 92.4788 74.6885 92.4248 74.7305 92.3828C74.7785 92.3408 74.8355 92.3198 74.9015 92.3198H75.6035V90.8348C75.6035 90.7688 75.6245 90.7148 75.6665 90.6728C75.7145 90.6308 75.7685 90.6098 75.8285 90.6098H76.8725C76.9385 90.6098 76.9925 90.6308 77.0345 90.6728C77.0765 90.7148 77.0975 90.7688 77.0975 90.8348V92.3198H78.2225C78.2885 92.3198 78.3425 92.3408 78.3845 92.3828C78.4265 92.4248 78.4475 92.4788 78.4475 92.5448V93.2738C78.4475 93.3398 78.4265 93.3938 78.3845 93.4358C78.3425 93.4778 78.2885 93.4988 78.2225 93.4988H77.0975V95.1008C77.0975 95.3048 77.1365 95.4668 77.2145 95.5868C77.2925 95.7068 77.4245 95.7668 77.6105 95.7668H78.3035C78.3695 95.7668 78.4235 95.7878 78.4655 95.8298C78.5075 95.8718 78.5285 95.9258 78.5285 95.9918V96.7748C78.5285 96.8408 78.5075 96.8948 78.4655 96.9368C78.4235 96.9788 78.3695 96.9998 78.3035 96.9998H77.4665ZM79.4987 96.9998C79.4327 96.9998 79.3787 96.9788 79.3367 96.9368C79.2947 96.8948 79.2737 96.8408 79.2737 96.7748V90.8348C79.2737 90.7688 79.2947 90.7148 79.3367 90.6728C79.3787 90.6308 79.4327 90.6098 79.4987 90.6098H80.6507C80.7167 90.6098 80.7707 90.6308 80.8127 90.6728C80.8547 90.7148 80.8757 90.7688 80.8757 90.8348V92.8418C81.0377 92.6558 81.2357 92.5088 81.4697 92.4008C81.7097 92.2868 81.9857 92.2298 82.2977 92.2298C82.6457 92.2298 82.9547 92.3078 83.2247 92.4638C83.5007 92.6198 83.7167 92.8508 83.8727 93.1568C84.0287 93.4568 84.1067 93.8258 84.1067 94.2638V96.7748C84.1067 96.8408 84.0857 96.8948 84.0437 96.9368C84.0017 96.9788 83.9477 96.9998 83.8817 96.9998H82.7207C82.6607 96.9998 82.6067 96.9788 82.5587 96.9368C82.5167 96.8948 82.4957 96.8408 82.4957 96.7748V94.3178C82.4957 94.0358 82.4267 93.8198 82.2887 93.6698C82.1567 93.5138 81.9587 93.4358 81.6947 93.4358C81.4487 93.4358 81.2507 93.5138 81.1007 93.6698C80.9507 93.8198 80.8757 94.0358 80.8757 94.3178V96.7748C80.8757 96.8408 80.8547 96.8948 80.8127 96.9368C80.7707 96.9788 80.7167 96.9998 80.6507 96.9998H79.4987Z" fill="#03A4B2"/>
</svg>
