<svg width="30" height="30" viewBox="0 0 30 30" fill="none" xmlns="http://www.w3.org/2000/svg">
<g clip-path="url(#clip0_3948_588)">
<mask id="path-1-outside-1_3948_588" maskUnits="userSpaceOnUse" x="-0.999756" y="-0.00863647" width="32" height="30" fill="black">
<rect fill="white" x="-0.999756" y="-0.00863647" width="32" height="30"/>
<path d="M29.8802 13.119C29.7815 12.3653 29.3552 11.7115 28.709 11.3215C28.0727 10.9378 27.3103 10.869 26.599 11.134C26.024 11.3515 25.364 11.0527 25.099 10.4602C24.794 9.78027 24.4202 9.129 23.9852 8.52402C23.5978 7.98654 23.6702 7.28154 24.1528 6.88404C24.7277 6.41154 25.049 5.71281 25.034 4.96902C25.019 4.21275 24.6615 3.51654 24.0565 3.05652C23.059 2.30025 21.9715 1.67277 20.8228 1.18902C20.1165 0.891536 19.3328 0.932786 18.6703 1.29777C18.019 1.65777 17.5765 2.28279 17.454 3.0165C17.3503 3.63525 16.7778 4.04898 16.1103 3.98025C15.3803 3.90273 14.6203 3.90273 13.8915 3.98025C13.2303 4.05027 12.6515 3.63525 12.5478 3.0165C12.4253 2.28273 11.9828 1.65648 11.3316 1.29777C10.6678 0.931497 9.88284 0.891536 9.17907 1.18902C8.02905 1.67277 6.94155 2.30025 5.94405 3.05652C5.33901 3.51648 4.98276 4.21275 4.96776 4.96773C4.95276 5.71275 5.27403 6.41025 5.85024 6.8865C6.33147 7.28277 6.40401 7.98777 6.01776 8.52525C5.58153 9.13023 5.20776 9.7815 4.90278 10.4615C4.63905 11.0552 3.97776 11.3527 3.38901 11.1302C2.69403 10.8715 1.93026 10.9402 1.29276 11.3227C0.645244 11.7115 0.219033 12.3664 0.121533 13.1202C0.0414941 13.7402 0.000244141 14.374 0.000244141 15.0002C0.000244141 15.6265 0.0414941 16.2602 0.120244 16.8815C0.218975 17.6352 0.645244 18.289 1.29147 18.679C1.92774 19.0615 2.68899 19.1315 3.40149 18.8665C3.97524 18.6477 4.63524 18.9464 4.90149 19.5402C5.20647 20.2202 5.58024 20.8715 6.01524 21.4765C6.40272 22.0139 6.33024 22.7189 5.84772 23.1164C5.27274 23.5889 4.95147 24.2877 4.96648 25.0315C4.98147 25.7877 5.33896 26.4839 5.94399 26.944C6.94149 27.7002 8.02899 28.3277 9.17772 28.8115C9.88396 29.1089 10.6665 29.0677 11.3302 28.7027C11.9815 28.3427 12.424 27.7177 12.5465 26.984C12.6502 26.3652 13.2277 25.9515 13.8902 26.0202C14.6189 26.0978 15.3789 26.0978 16.109 26.0202C16.7777 25.954 17.349 26.3652 17.4527 26.984C17.5752 27.7178 18.0177 28.344 18.6689 28.7027C19.0389 28.9064 19.4439 29.009 19.8539 29.009C20.1814 29.009 20.5089 28.9427 20.8202 28.8115C21.9689 28.3277 23.0564 27.6989 24.0539 26.944C24.6602 26.4852 25.0164 25.7877 25.0314 25.0327C25.0464 24.2877 24.7252 23.5889 24.1502 23.1152C23.669 22.7189 23.5964 22.0139 23.9827 21.4765C24.4189 20.8715 24.7927 20.2202 25.0976 19.5402C25.3627 18.9465 26.0251 18.6503 26.5976 18.8665L26.6114 18.8714C27.3089 19.1327 28.0714 19.0615 28.7077 18.679C29.3552 18.289 29.7814 17.6352 29.8789 16.8802C29.9589 16.2539 30.0001 15.6227 30.0001 15.0002C30.0002 14.3777 29.959 13.7465 29.8802 13.119ZM28.639 16.7215C28.5915 17.0927 28.3815 17.4164 28.064 17.6077C27.7577 17.794 27.3878 17.8264 27.0377 17.6952L27.0302 17.6927C25.8377 17.2514 24.4915 17.8377 23.9578 19.0302C23.6878 19.6327 23.3552 20.2114 22.969 20.7477C22.1927 21.8277 22.3603 23.2614 23.3578 24.0814C23.6353 24.3102 23.7902 24.6477 23.7827 25.0077C23.7752 25.3789 23.6002 25.7214 23.3002 25.9489C22.3877 26.6414 21.3902 27.2177 20.3365 27.6602C19.9877 27.8076 19.5977 27.7877 19.2727 27.6089C18.959 27.4352 18.7452 27.1339 18.6865 26.7801C18.4877 25.5914 17.4703 24.7639 16.2615 24.7639C16.169 24.7639 16.074 24.7676 15.979 24.7751C15.3352 24.8426 14.6653 24.8426 14.0215 24.7751C12.6915 24.6239 11.5277 25.4963 11.314 26.7764C11.2552 27.1301 11.0415 27.4326 10.7278 27.6051C10.4015 27.7851 10.0127 27.8039 9.66276 27.6564C8.60901 27.2127 7.61151 26.6376 6.69903 25.9452C6.39903 25.7189 6.22401 25.3752 6.21651 25.0052C6.20901 24.6452 6.36399 24.3077 6.64278 24.0789C7.64028 23.2589 7.80651 21.8252 7.03026 20.7452C6.64401 20.2077 6.31278 19.6302 6.04278 19.0277C5.50776 17.8326 4.15653 17.2489 2.9478 17.6989C2.61405 17.8239 2.2428 17.7927 1.93653 17.6064C1.61901 17.4164 1.40901 17.0927 1.36155 16.7202C1.28778 16.1527 1.25028 15.5727 1.25028 15.0002C1.25028 14.4276 1.28778 13.8477 1.36278 13.2789C1.4103 12.9077 1.6203 12.5839 1.93776 12.3927C2.24274 12.2077 2.61399 12.1739 2.96274 12.3052C4.15647 12.7502 5.50776 12.1664 6.04272 10.9702C6.31272 10.3677 6.64524 9.79017 7.03149 9.25392C7.80774 8.17392 7.64022 6.74019 6.64272 5.92017C6.36522 5.69142 6.21024 5.35392 6.21774 4.99392C6.22524 4.62267 6.40026 4.28019 6.70026 4.05267C7.61274 3.36015 8.61024 2.78517 9.66399 2.34144C10.0127 2.19396 10.4015 2.21271 10.7278 2.39271C11.0415 2.56521 11.2553 2.86773 11.314 3.22269C11.5277 4.50267 12.6915 5.36646 14.0215 5.22396C14.664 5.15646 15.334 5.15646 15.979 5.22396C17.3015 5.36523 18.4727 4.50273 18.6865 3.22269C18.7453 2.86896 18.959 2.56644 19.2727 2.39394C19.599 2.21271 19.9865 2.19396 20.3377 2.34267C21.3915 2.7864 22.389 3.36144 23.3015 4.0539C23.6015 4.28013 23.7765 4.6239 23.784 4.99392C23.7915 5.35392 23.6365 5.69142 23.3577 5.92017C22.3602 6.74019 22.194 8.17392 22.9702 9.25392C23.3565 9.7914 23.6877 10.3689 23.9577 10.9714C24.4927 12.1664 25.8452 12.7514 27.0527 12.3002C27.3877 12.1739 27.7565 12.2076 28.064 12.3927C28.3815 12.5839 28.5915 12.9077 28.6389 13.2789C28.7127 13.8527 28.7502 14.4314 28.7502 15.0002C28.7503 15.569 28.7128 16.1477 28.639 16.7215Z"/>
</mask>
<path d="M29.8802 13.119C29.7815 12.3653 29.3552 11.7115 28.709 11.3215C28.0727 10.9378 27.3103 10.869 26.599 11.134C26.024 11.3515 25.364 11.0527 25.099 10.4602C24.794 9.78027 24.4202 9.129 23.9852 8.52402C23.5978 7.98654 23.6702 7.28154 24.1528 6.88404C24.7277 6.41154 25.049 5.71281 25.034 4.96902C25.019 4.21275 24.6615 3.51654 24.0565 3.05652C23.059 2.30025 21.9715 1.67277 20.8228 1.18902C20.1165 0.891536 19.3328 0.932786 18.6703 1.29777C18.019 1.65777 17.5765 2.28279 17.454 3.0165C17.3503 3.63525 16.7778 4.04898 16.1103 3.98025C15.3803 3.90273 14.6203 3.90273 13.8915 3.98025C13.2303 4.05027 12.6515 3.63525 12.5478 3.0165C12.4253 2.28273 11.9828 1.65648 11.3316 1.29777C10.6678 0.931497 9.88284 0.891536 9.17907 1.18902C8.02905 1.67277 6.94155 2.30025 5.94405 3.05652C5.33901 3.51648 4.98276 4.21275 4.96776 4.96773C4.95276 5.71275 5.27403 6.41025 5.85024 6.8865C6.33147 7.28277 6.40401 7.98777 6.01776 8.52525C5.58153 9.13023 5.20776 9.7815 4.90278 10.4615C4.63905 11.0552 3.97776 11.3527 3.38901 11.1302C2.69403 10.8715 1.93026 10.9402 1.29276 11.3227C0.645244 11.7115 0.219033 12.3664 0.121533 13.1202C0.0414941 13.7402 0.000244141 14.374 0.000244141 15.0002C0.000244141 15.6265 0.0414941 16.2602 0.120244 16.8815C0.218975 17.6352 0.645244 18.289 1.29147 18.679C1.92774 19.0615 2.68899 19.1315 3.40149 18.8665C3.97524 18.6477 4.63524 18.9464 4.90149 19.5402C5.20647 20.2202 5.58024 20.8715 6.01524 21.4765C6.40272 22.0139 6.33024 22.7189 5.84772 23.1164C5.27274 23.5889 4.95147 24.2877 4.96648 25.0315C4.98147 25.7877 5.33896 26.4839 5.94399 26.944C6.94149 27.7002 8.02899 28.3277 9.17772 28.8115C9.88396 29.1089 10.6665 29.0677 11.3302 28.7027C11.9815 28.3427 12.424 27.7177 12.5465 26.984C12.6502 26.3652 13.2277 25.9515 13.8902 26.0202C14.6189 26.0978 15.3789 26.0978 16.109 26.0202C16.7777 25.954 17.349 26.3652 17.4527 26.984C17.5752 27.7178 18.0177 28.344 18.6689 28.7027C19.0389 28.9064 19.4439 29.009 19.8539 29.009C20.1814 29.009 20.5089 28.9427 20.8202 28.8115C21.9689 28.3277 23.0564 27.6989 24.0539 26.944C24.6602 26.4852 25.0164 25.7877 25.0314 25.0327C25.0464 24.2877 24.7252 23.5889 24.1502 23.1152C23.669 22.7189 23.5964 22.0139 23.9827 21.4765C24.4189 20.8715 24.7927 20.2202 25.0976 19.5402C25.3627 18.9465 26.0251 18.6503 26.5976 18.8665L26.6114 18.8714C27.3089 19.1327 28.0714 19.0615 28.7077 18.679C29.3552 18.289 29.7814 17.6352 29.8789 16.8802C29.9589 16.2539 30.0001 15.6227 30.0001 15.0002C30.0002 14.3777 29.959 13.7465 29.8802 13.119ZM28.639 16.7215C28.5915 17.0927 28.3815 17.4164 28.064 17.6077C27.7577 17.794 27.3878 17.8264 27.0377 17.6952L27.0302 17.6927C25.8377 17.2514 24.4915 17.8377 23.9578 19.0302C23.6878 19.6327 23.3552 20.2114 22.969 20.7477C22.1927 21.8277 22.3603 23.2614 23.3578 24.0814C23.6353 24.3102 23.7902 24.6477 23.7827 25.0077C23.7752 25.3789 23.6002 25.7214 23.3002 25.9489C22.3877 26.6414 21.3902 27.2177 20.3365 27.6602C19.9877 27.8076 19.5977 27.7877 19.2727 27.6089C18.959 27.4352 18.7452 27.1339 18.6865 26.7801C18.4877 25.5914 17.4703 24.7639 16.2615 24.7639C16.169 24.7639 16.074 24.7676 15.979 24.7751C15.3352 24.8426 14.6653 24.8426 14.0215 24.7751C12.6915 24.6239 11.5277 25.4963 11.314 26.7764C11.2552 27.1301 11.0415 27.4326 10.7278 27.6051C10.4015 27.7851 10.0127 27.8039 9.66276 27.6564C8.60901 27.2127 7.61151 26.6376 6.69903 25.9452C6.39903 25.7189 6.22401 25.3752 6.21651 25.0052C6.20901 24.6452 6.36399 24.3077 6.64278 24.0789C7.64028 23.2589 7.80651 21.8252 7.03026 20.7452C6.64401 20.2077 6.31278 19.6302 6.04278 19.0277C5.50776 17.8326 4.15653 17.2489 2.9478 17.6989C2.61405 17.8239 2.2428 17.7927 1.93653 17.6064C1.61901 17.4164 1.40901 17.0927 1.36155 16.7202C1.28778 16.1527 1.25028 15.5727 1.25028 15.0002C1.25028 14.4276 1.28778 13.8477 1.36278 13.2789C1.4103 12.9077 1.6203 12.5839 1.93776 12.3927C2.24274 12.2077 2.61399 12.1739 2.96274 12.3052C4.15647 12.7502 5.50776 12.1664 6.04272 10.9702C6.31272 10.3677 6.64524 9.79017 7.03149 9.25392C7.80774 8.17392 7.64022 6.74019 6.64272 5.92017C6.36522 5.69142 6.21024 5.35392 6.21774 4.99392C6.22524 4.62267 6.40026 4.28019 6.70026 4.05267C7.61274 3.36015 8.61024 2.78517 9.66399 2.34144C10.0127 2.19396 10.4015 2.21271 10.7278 2.39271C11.0415 2.56521 11.2553 2.86773 11.314 3.22269C11.5277 4.50267 12.6915 5.36646 14.0215 5.22396C14.664 5.15646 15.334 5.15646 15.979 5.22396C17.3015 5.36523 18.4727 4.50273 18.6865 3.22269C18.7453 2.86896 18.959 2.56644 19.2727 2.39394C19.599 2.21271 19.9865 2.19396 20.3377 2.34267C21.3915 2.7864 22.389 3.36144 23.3015 4.0539C23.6015 4.28013 23.7765 4.6239 23.784 4.99392C23.7915 5.35392 23.6365 5.69142 23.3577 5.92017C22.3602 6.74019 22.194 8.17392 22.9702 9.25392C23.3565 9.7914 23.6877 10.3689 23.9577 10.9714C24.4927 12.1664 25.8452 12.7514 27.0527 12.3002C27.3877 12.1739 27.7565 12.2076 28.064 12.3927C28.3815 12.5839 28.5915 12.9077 28.6389 13.2789C28.7127 13.8527 28.7502 14.4314 28.7502 15.0002C28.7503 15.569 28.7128 16.1477 28.639 16.7215Z" fill="#C2BDDC"/>
<path d="M29.8802 13.119C29.7815 12.3653 29.3552 11.7115 28.709 11.3215C28.0727 10.9378 27.3103 10.869 26.599 11.134C26.024 11.3515 25.364 11.0527 25.099 10.4602C24.794 9.78027 24.4202 9.129 23.9852 8.52402C23.5978 7.98654 23.6702 7.28154 24.1528 6.88404C24.7277 6.41154 25.049 5.71281 25.034 4.96902C25.019 4.21275 24.6615 3.51654 24.0565 3.05652C23.059 2.30025 21.9715 1.67277 20.8228 1.18902C20.1165 0.891536 19.3328 0.932786 18.6703 1.29777C18.019 1.65777 17.5765 2.28279 17.454 3.0165C17.3503 3.63525 16.7778 4.04898 16.1103 3.98025C15.3803 3.90273 14.6203 3.90273 13.8915 3.98025C13.2303 4.05027 12.6515 3.63525 12.5478 3.0165C12.4253 2.28273 11.9828 1.65648 11.3316 1.29777C10.6678 0.931497 9.88284 0.891536 9.17907 1.18902C8.02905 1.67277 6.94155 2.30025 5.94405 3.05652C5.33901 3.51648 4.98276 4.21275 4.96776 4.96773C4.95276 5.71275 5.27403 6.41025 5.85024 6.8865C6.33147 7.28277 6.40401 7.98777 6.01776 8.52525C5.58153 9.13023 5.20776 9.7815 4.90278 10.4615C4.63905 11.0552 3.97776 11.3527 3.38901 11.1302C2.69403 10.8715 1.93026 10.9402 1.29276 11.3227C0.645244 11.7115 0.219033 12.3664 0.121533 13.1202C0.0414941 13.7402 0.000244141 14.374 0.000244141 15.0002C0.000244141 15.6265 0.0414941 16.2602 0.120244 16.8815C0.218975 17.6352 0.645244 18.289 1.29147 18.679C1.92774 19.0615 2.68899 19.1315 3.40149 18.8665C3.97524 18.6477 4.63524 18.9464 4.90149 19.5402C5.20647 20.2202 5.58024 20.8715 6.01524 21.4765C6.40272 22.0139 6.33024 22.7189 5.84772 23.1164C5.27274 23.5889 4.95147 24.2877 4.96648 25.0315C4.98147 25.7877 5.33896 26.4839 5.94399 26.944C6.94149 27.7002 8.02899 28.3277 9.17772 28.8115C9.88396 29.1089 10.6665 29.0677 11.3302 28.7027C11.9815 28.3427 12.424 27.7177 12.5465 26.984C12.6502 26.3652 13.2277 25.9515 13.8902 26.0202C14.6189 26.0978 15.3789 26.0978 16.109 26.0202C16.7777 25.954 17.349 26.3652 17.4527 26.984C17.5752 27.7178 18.0177 28.344 18.6689 28.7027C19.0389 28.9064 19.4439 29.009 19.8539 29.009C20.1814 29.009 20.5089 28.9427 20.8202 28.8115C21.9689 28.3277 23.0564 27.6989 24.0539 26.944C24.6602 26.4852 25.0164 25.7877 25.0314 25.0327C25.0464 24.2877 24.7252 23.5889 24.1502 23.1152C23.669 22.7189 23.5964 22.0139 23.9827 21.4765C24.4189 20.8715 24.7927 20.2202 25.0976 19.5402C25.3627 18.9465 26.0251 18.6503 26.5976 18.8665L26.6114 18.8714C27.3089 19.1327 28.0714 19.0615 28.7077 18.679C29.3552 18.289 29.7814 17.6352 29.8789 16.8802C29.9589 16.2539 30.0001 15.6227 30.0001 15.0002C30.0002 14.3777 29.959 13.7465 29.8802 13.119ZM28.639 16.7215C28.5915 17.0927 28.3815 17.4164 28.064 17.6077C27.7577 17.794 27.3878 17.8264 27.0377 17.6952L27.0302 17.6927C25.8377 17.2514 24.4915 17.8377 23.9578 19.0302C23.6878 19.6327 23.3552 20.2114 22.969 20.7477C22.1927 21.8277 22.3603 23.2614 23.3578 24.0814C23.6353 24.3102 23.7902 24.6477 23.7827 25.0077C23.7752 25.3789 23.6002 25.7214 23.3002 25.9489C22.3877 26.6414 21.3902 27.2177 20.3365 27.6602C19.9877 27.8076 19.5977 27.7877 19.2727 27.6089C18.959 27.4352 18.7452 27.1339 18.6865 26.7801C18.4877 25.5914 17.4703 24.7639 16.2615 24.7639C16.169 24.7639 16.074 24.7676 15.979 24.7751C15.3352 24.8426 14.6653 24.8426 14.0215 24.7751C12.6915 24.6239 11.5277 25.4963 11.314 26.7764C11.2552 27.1301 11.0415 27.4326 10.7278 27.6051C10.4015 27.7851 10.0127 27.8039 9.66276 27.6564C8.60901 27.2127 7.61151 26.6376 6.69903 25.9452C6.39903 25.7189 6.22401 25.3752 6.21651 25.0052C6.20901 24.6452 6.36399 24.3077 6.64278 24.0789C7.64028 23.2589 7.80651 21.8252 7.03026 20.7452C6.64401 20.2077 6.31278 19.6302 6.04278 19.0277C5.50776 17.8326 4.15653 17.2489 2.9478 17.6989C2.61405 17.8239 2.2428 17.7927 1.93653 17.6064C1.61901 17.4164 1.40901 17.0927 1.36155 16.7202C1.28778 16.1527 1.25028 15.5727 1.25028 15.0002C1.25028 14.4276 1.28778 13.8477 1.36278 13.2789C1.4103 12.9077 1.6203 12.5839 1.93776 12.3927C2.24274 12.2077 2.61399 12.1739 2.96274 12.3052C4.15647 12.7502 5.50776 12.1664 6.04272 10.9702C6.31272 10.3677 6.64524 9.79017 7.03149 9.25392C7.80774 8.17392 7.64022 6.74019 6.64272 5.92017C6.36522 5.69142 6.21024 5.35392 6.21774 4.99392C6.22524 4.62267 6.40026 4.28019 6.70026 4.05267C7.61274 3.36015 8.61024 2.78517 9.66399 2.34144C10.0127 2.19396 10.4015 2.21271 10.7278 2.39271C11.0415 2.56521 11.2553 2.86773 11.314 3.22269C11.5277 4.50267 12.6915 5.36646 14.0215 5.22396C14.664 5.15646 15.334 5.15646 15.979 5.22396C17.3015 5.36523 18.4727 4.50273 18.6865 3.22269C18.7453 2.86896 18.959 2.56644 19.2727 2.39394C19.599 2.21271 19.9865 2.19396 20.3377 2.34267C21.3915 2.7864 22.389 3.36144 23.3015 4.0539C23.6015 4.28013 23.7765 4.6239 23.784 4.99392C23.7915 5.35392 23.6365 5.69142 23.3577 5.92017C22.3602 6.74019 22.194 8.17392 22.9702 9.25392C23.3565 9.7914 23.6877 10.3689 23.9577 10.9714C24.4927 12.1664 25.8452 12.7514 27.0527 12.3002C27.3877 12.1739 27.7565 12.2076 28.064 12.3927C28.3815 12.5839 28.5915 12.9077 28.6389 13.2789C28.7127 13.8527 28.7502 14.4314 28.7502 15.0002C28.7503 15.569 28.7128 16.1477 28.639 16.7215Z" stroke="#C2BDDC" stroke-width="0.2" mask="url(#path-1-outside-1_3948_588)"/>
<path d="M15.0003 8.65024C11.4988 8.65024 8.65024 11.4988 8.65024 15.0003C8.65024 18.5017 11.4988 21.3502 15.0003 21.3502C18.5017 21.3502 21.3503 18.5017 21.3503 15.0002C21.3503 11.4987 18.5017 8.65024 15.0003 8.65024ZM15.0003 19.9002C12.298 19.9002 10.1003 17.7025 10.1003 15.0003C10.1003 12.298 12.298 10.1003 15.0003 10.1003C17.7025 10.1003 19.9002 12.298 19.9002 15.0003C19.9002 17.7025 17.7025 19.9002 15.0003 19.9002Z" fill="#C2BDDC" stroke="#C2BDDC" stroke-width="0.2"/>
</g>
<defs>
<clipPath id="clip0_3948_588">
<rect width="30" height="30" fill="white" transform="translate(0.000244141 0.000152588)"/>
</clipPath>
</defs>
</svg>
