<svg width="50" height="50" viewBox="0 0 50 50" fill="none" xmlns="http://www.w3.org/2000/svg">
<rect y="0.000198364" width="50" height="50" rx="5" fill="#F5EEFF"/>
<g clip-path="url(#clip0_1173_3057)">
<path d="M13 25.0002C13 31.6173 18.3829 37.0002 25 37.0002C31.6171 37.0002 37 31.6173 37 25.0002C37.0029 23.4131 36.6891 21.8413 36.0765 20.3771C35.9738 20.1379 35.6976 20.0259 35.4574 20.1263C35.2172 20.2269 35.1025 20.5021 35.2008 20.7433C35.7648 22.0916 36.0538 23.5389 36.0509 25.0002C36.0509 31.0937 31.0935 36.0511 25 36.0511C18.9065 36.0511 13.9492 31.0937 13.9492 25.0002C13.9492 18.9068 18.9065 13.9494 25 13.9494C26.2384 13.9478 27.4682 14.1552 28.6377 14.5622C28.7979 14.6191 28.9767 14.5858 29.1057 14.4751C29.2346 14.3641 29.2945 14.1925 29.2625 14.0254C29.2304 13.8583 29.1112 13.7211 28.9502 13.666C27.6804 13.2238 26.3448 12.9986 25 13.0002C18.3829 13.0002 13 18.3832 13 25.0002H13Z" fill="#5518B5" stroke="#5518B5" stroke-width="0.4"/>
<path d="M28.8278 19.8564C28.8278 19.5942 28.6154 19.3818 28.3533 19.3818H21.6467C21.3845 19.3818 21.1721 19.5942 21.1721 19.8564C21.1721 20.1186 21.3845 20.331 21.6467 20.331H23.5657C24.7095 20.3323 25.6941 21.1384 25.9213 22.2595H21.6467C21.3845 22.2595 21.1721 22.4719 21.1721 22.7341C21.1721 22.996 21.3845 23.2086 21.6467 23.2086H25.9213C25.6941 24.3294 24.7095 25.1353 23.5657 25.1369H21.6467C21.4523 25.1369 21.2778 25.2555 21.2058 25.4359C21.134 25.6165 21.1795 25.8225 21.3207 25.9563L26.1173 30.4888C26.2404 30.6059 26.4168 30.6483 26.5797 30.5998C26.7423 30.5513 26.867 30.4194 26.9062 30.2542C26.9452 30.0889 26.893 29.9152 26.7693 29.7989L22.8398 26.0858H23.5657C25.2328 26.0836 26.6456 24.8583 26.8837 23.2084H28.3533C28.6154 23.2084 28.8278 22.9957 28.8278 22.7338C28.8278 22.4716 28.6154 22.2592 28.3533 22.2592H26.8837C26.7783 21.5251 26.4322 20.8466 25.8996 20.3307H28.3533C28.6154 20.3307 28.8278 20.1183 28.8278 19.8564V19.8564Z" fill="#5518B5" stroke="#5518B5" stroke-width="0.4"/>
<path d="M29.7047 16.0865C29.5193 15.9012 29.2188 15.9012 29.0334 16.0865C28.8483 16.2719 28.8483 16.5725 29.0334 16.7579L31.2418 18.9663C31.4243 19.1488 31.7188 19.152 31.9052 18.974L35.7985 15.2552C35.9881 15.0741 35.995 14.7738 35.8141 14.5842C35.633 14.3948 35.3326 14.3879 35.143 14.5688L31.585 17.9671L29.7047 16.0865Z" fill="#5518B5" stroke="#5518B5" stroke-width="0.4"/>
</g>
<defs>
<clipPath id="clip0_1173_3057">
<rect width="26" height="26" fill="white" transform="translate(12 12.0002)"/>
</clipPath>
</defs>
</svg>
